<?xml version="1.0" encoding="UTF-8" standalone="no"?>
<!DOCTYPE svg PUBLIC "-//W3C//DTD SVG 1.1//EN"
 "http://www.w3.org/Graphics/SVG/1.1/DTD/svg11.dtd">
<!-- Generated by graphviz version 2.43.0 (0)
 -->
<!-- Title: MNL Pages: 1 -->
<svg width="2203pt" height="579pt"
 viewBox="0.00 0.00 2202.69 578.89" xmlns="http://www.w3.org/2000/svg" xmlns:xlink="http://www.w3.org/1999/xlink">
<g id="graph0" class="graph" transform="scale(1 1) rotate(0) translate(4 574.89)">
<title>MNL</title>
<polygon fill="white" stroke="transparent" points="-4,4 -4,-574.89 2198.69,-574.89 2198.69,4 -4,4"/>
<g id="clust2" class="cluster">
<title>cluster_operators</title>
<polygon fill="none" stroke="black" stroke-dasharray="5,2" points="598,-8 598,-279 1099,-279 1099,-8 598,-8"/>
</g>
<g id="clust5" class="cluster">
<title>cluster_stepsolv</title>
<polygon fill="none" stroke="black" stroke-dasharray="5,2" points="8,-154 8,-418.95 482,-418.95 482,-154 8,-154"/>
<text text-anchor="middle" x="245" y="-403.75" font-family="Helvetica,Arial,sans-serif" font-size="14.00">StepSolver</text>
</g>
<g id="clust8" class="cluster">
<title>cluster_iter_solv</title>
<polygon fill="none" stroke="black" stroke-dasharray="5,2" points="1129,-154 1129,-302 1573,-302 1573,-154 1129,-154"/>
<text text-anchor="middle" x="1351" y="-286.8" font-family="Helvetica,Arial,sans-serif" font-size="14.00">IterationsSolver</text>
</g>
<!-- keywords -->
<g id="node1" class="node">
<title>keywords</title>
<ellipse fill="none" stroke="black" cx="541" cy="-253" rx="49.29" ry="18"/>
<text text-anchor="middle" x="541" y="-249.3" font-family="Helvetica,Arial,sans-serif" font-size="14.00">Keywords</text>
</g>
<!-- problem -->
<g id="node2" class="node">
<title>problem</title>
<ellipse fill="none" stroke="black" cx="2118" cy="-253" rx="76.89" ry="18"/>
<text text-anchor="middle" x="2118" y="-249.3" font-family="Helvetica,Arial,sans-serif" font-size="14.00">PhysicalProblem</text>
</g>
<!-- type -->
<g id="node3" class="node">
<title>type</title>
<ellipse fill="none" stroke="black" cx="1688" cy="-253" rx="63.09" ry="18"/>
<text text-anchor="middle" x="1688" y="-249.3" font-family="Helvetica,Arial,sans-serif" font-size="14.00">ProblemType</text>
</g>
<!-- state -->
<g id="node4" class="node">
<title>state</title>
<ellipse fill="none" stroke="black" cx="1960" cy="-253" rx="63.89" ry="18"/>
<text text-anchor="middle" x="1960" y="-249.3" font-family="Helvetica,Arial,sans-serif" font-size="14.00">PhysicalState</text>
</g>
<!-- result -->
<g id="node5" class="node">
<title>result</title>
<ellipse fill="none" stroke="black" cx="1843" cy="-253" rx="36" ry="18"/>
<text text-anchor="middle" x="1843" y="-249.3" font-family="Helvetica,Arial,sans-serif" font-size="14.00">Result</text>
</g>
<!-- contact -->
<g id="node6" class="node">
<title>contact</title>
<polygon fill="none" stroke="black" points="1815.5,-52 1752.5,-52 1752.5,-16 1815.5,-16 1815.5,-52"/>
<text text-anchor="middle" x="1784" y="-30.3" font-family="Helvetica,Arial,sans-serif" font-size="14.00">Contact</text>
</g>
<!-- linsolv -->
<g id="node7" class="node">
<title>linsolv</title>
<polygon fill="none" stroke="black" points="1734,-52 1642,-52 1642,-16 1734,-16 1734,-52"/>
<text text-anchor="middle" x="1688" y="-30.3" font-family="Helvetica,Arial,sans-serif" font-size="14.00">LinearSolver</text>
</g>
<!-- context -->
<g id="node8" class="node">
<title>context</title>
<ellipse fill="none" stroke="black" cx="1688" cy="-369.95" rx="40.89" ry="40.89"/>
<text text-anchor="middle" x="1688" y="-366.25" font-family="Helvetica,Arial,sans-serif" font-size="14.00">Context</text>
</g>
<!-- context&#45;&gt;keywords -->
<g id="edge3" class="edge">
<title>context&#45;&gt;keywords</title>
<path fill="none" stroke="black" d="M1647.33,-363.84C1577.19,-355.24 1428.85,-337.92 1303,-329 1224.36,-323.43 667,-331.75 594,-302 581.43,-296.88 569.92,-287.37 560.87,-278.16"/>
<polygon fill="black" stroke="black" points="563.23,-275.56 553.87,-270.59 558.09,-280.31 563.23,-275.56"/>
</g>
<!-- context&#45;&gt;problem -->
<g id="edge1" class="edge">
<title>context&#45;&gt;problem</title>
<path fill="none" stroke="black" d="M1728.72,-365.33C1794.44,-358.55 1927.22,-340.96 2033,-302 2051.21,-295.29 2070.14,-284.98 2085.5,-275.63"/>
<polygon fill="black" stroke="black" points="2087.46,-278.53 2094.1,-270.27 2083.76,-272.59 2087.46,-278.53"/>
</g>
<!-- context&#45;&gt;type -->
<g id="edge2" class="edge">
<title>context&#45;&gt;type</title>
<path fill="none" stroke="black" d="M1688,-328.74C1688,-313.06 1688,-295.49 1688,-281.32"/>
<polygon fill="black" stroke="black" points="1691.5,-281.24 1688,-271.24 1684.5,-281.24 1691.5,-281.24"/>
</g>
<!-- context&#45;&gt;state -->
<g id="edge4" class="edge">
<title>context&#45;&gt;state</title>
<path fill="none" stroke="black" d="M1727.55,-359.05C1768.79,-347.97 1834.73,-328.09 1888,-302 1902.8,-294.75 1918.13,-284.9 1930.83,-276.01"/>
<polygon fill="black" stroke="black" points="1933.06,-278.72 1939.16,-270.05 1928.99,-273.03 1933.06,-278.72"/>
</g>
<!-- context&#45;&gt;result -->
<g id="edge5" class="edge">
<title>context&#45;&gt;result</title>
<path fill="none" stroke="black" d="M1725.42,-352.26C1746.4,-341.97 1772.4,-327.58 1793,-311 1804.85,-301.47 1816.19,-288.93 1825.06,-278.04"/>
<polygon fill="black" stroke="black" points="1827.88,-280.12 1831.34,-270.11 1822.39,-275.78 1827.88,-280.12"/>
</g>
<!-- context&#45;&gt;contact -->
<g id="edge7" class="edge">
<title>context&#45;&gt;contact</title>
<path fill="none" stroke="black" d="M1718.07,-342.13C1736.31,-325.66 1756.7,-306.83 1760,-302 1772.94,-283.05 1779,-276.94 1779,-254 1779,-254 1779,-254 1779,-106 1779,-91.62 1780.03,-75.63 1781.16,-62.48"/>
<polygon fill="black" stroke="black" points="1784.68,-62.47 1782.11,-52.19 1777.71,-61.83 1784.68,-62.47"/>
</g>
<!-- context&#45;&gt;linsolv -->
<g id="edge8" class="edge">
<title>context&#45;&gt;linsolv</title>
<path fill="none" stroke="black" d="M1653.67,-346.77C1639.17,-335.33 1623.84,-320 1616,-302 1579.08,-217.26 1638.41,-108.98 1670.1,-60.48"/>
<polygon fill="black" stroke="black" points="1673.03,-62.4 1675.67,-52.14 1667.21,-58.52 1673.03,-62.4"/>
</g>
<!-- operators -->
<g id="node9" class="node">
<title>operators</title>
<polygon fill="none" stroke="black" stroke-dasharray="5,2" points="847.5,-271 696.5,-271 696.5,-235 847.5,-235 847.5,-271"/>
<text text-anchor="middle" x="772" y="-249.3" font-family="Helvetica,Arial,sans-serif" font-size="14.00">BaseOperators {abstr}</text>
</g>
<!-- context&#45;&gt;operators -->
<g id="edge6" class="edge">
<title>context&#45;&gt;operators</title>
<path fill="none" stroke="black" d="M1649.77,-355.15C1607.62,-340.71 1537.49,-318.91 1475,-310 1408.89,-300.57 939.08,-317 874,-302 856.9,-298.06 839.26,-290.98 823.56,-283.46"/>
<polygon fill="black" stroke="black" points="825.07,-280.3 814.55,-279 821.96,-286.58 825.07,-280.3"/>
</g>
<!-- mixin_oper -->
<g id="node16" class="node">
<title>mixin_oper</title>
<polygon fill="none" stroke="black" stroke-dasharray="5,2" points="1085,-271 883,-271 883,-235 1091,-235 1091,-265 1085,-271"/>
<polyline fill="none" stroke="black" stroke-dasharray="5,2" points="1085,-271 1085,-265 "/>
<polyline fill="none" stroke="black" stroke-dasharray="5,2" points="1091,-265 1085,-265 "/>
<text text-anchor="middle" x="987" y="-249.3" font-family="Helvetica,Arial,sans-serif" font-size="14.00">ContextMixin + DispatcherMixin</text>
</g>
<!-- operators&#45;&gt;mixin_oper -->
<g id="edge9" class="edge">
<title>operators&#45;&gt;mixin_oper</title>
<path fill="none" stroke="black" stroke-dasharray="5,2" d="M857.82,-253C866.21,-253 874.6,-253 882.98,-253"/>
<polygon fill="none" stroke="black" points="857.59,-249.5 847.59,-253 857.59,-256.5 857.59,-249.5"/>
</g>
<!-- statopers -->
<g id="node17" class="node">
<title>statopers</title>
<polygon fill="none" stroke="black" points="741.5,-198 606.5,-198 606.5,-162 741.5,-162 741.5,-198"/>
<text text-anchor="middle" x="674" y="-176.3" font-family="Helvetica,Arial,sans-serif" font-size="14.00">MecaStatOperators</text>
</g>
<!-- operators&#45;&gt;statopers -->
<g id="edge10" class="edge">
<title>operators&#45;&gt;statopers</title>
<path fill="none" stroke="black" d="M739.97,-228.8C726.13,-218.77 710.23,-207.25 697.5,-198.03"/>
<polygon fill="none" stroke="black" points="738.13,-231.78 748.28,-234.81 742.23,-226.11 738.13,-231.78"/>
</g>
<!-- theropers -->
<g id="node18" class="node">
<title>theropers</title>
<polygon fill="none" stroke="black" points="888,-198 760,-198 760,-162 888,-162 888,-198"/>
<text text-anchor="middle" x="824" y="-176.3" font-family="Helvetica,Arial,sans-serif" font-size="14.00">ThermalOperators</text>
</g>
<!-- operators&#45;&gt;theropers -->
<g id="edge12" class="edge">
<title>operators&#45;&gt;theropers</title>
<path fill="none" stroke="black" d="M790.67,-226.5C797.6,-217.04 805.29,-206.55 811.53,-198.03"/>
<polygon fill="none" stroke="black" points="787.67,-224.68 784.59,-234.81 793.32,-228.81 787.67,-224.68"/>
</g>
<!-- dynopers -->
<g id="node19" class="node">
<title>dynopers</title>
<polygon fill="none" stroke="black" stroke-dasharray="5,2" points="1091.5,-198 906.5,-198 906.5,-162 1091.5,-162 1091.5,-198"/>
<text text-anchor="middle" x="999" y="-176.3" font-family="Helvetica,Arial,sans-serif" font-size="14.00">MecaDynaOperators {abstr}</text>
</g>
<!-- operators&#45;&gt;dynopers -->
<g id="edge11" class="edge">
<title>operators&#45;&gt;dynopers</title>
<path fill="none" stroke="black" d="M836.23,-231.91C870.32,-221.25 911.75,-208.29 944.28,-198.11"/>
<polygon fill="none" stroke="black" points="834.87,-228.67 826.37,-234.99 836.96,-235.35 834.87,-228.67"/>
</g>
<!-- mnl -->
<g id="node10" class="node">
<title>mnl</title>
<polygon fill="none" stroke="black" points="1311,-570.89 1173,-570.89 1173,-534.89 1311,-534.89 1311,-570.89"/>
<text text-anchor="middle" x="1242" y="-549.19" font-family="Helvetica,Arial,sans-serif" font-size="14.00">meca_non_line_ops</text>
</g>
<!-- mnl&#45;&gt;keywords -->
<g id="edge30" class="edge">
<title>mnl&#45;&gt;keywords</title>
<path fill="none" stroke="black" stroke-width="2" d="M1172.59,-536.57C1048.17,-506.74 782.55,-432.12 594,-302 583.57,-294.8 573.03,-285.71 564.12,-277.38"/>
<polygon fill="black" stroke="black" stroke-width="2" points="566.41,-274.72 556.77,-270.32 561.56,-279.77 566.41,-274.72"/>
<text text-anchor="middle" x="829.23" y="-439.4" font-family="Helvetica,Arial,sans-serif" font-size="14.00">creates</text>
</g>
<!-- mnl&#45;&gt;problem -->
<g id="edge31" class="edge">
<title>mnl&#45;&gt;problem</title>
<path fill="none" stroke="black" stroke-width="2" d="M1311.12,-542.4C1421.57,-525.83 1643.48,-486.76 1821,-418.95 1923.09,-379.95 2032.98,-311 2085.9,-275.88"/>
<polygon fill="black" stroke="black" stroke-width="2" points="2088.13,-278.6 2094.5,-270.14 2084.24,-272.78 2088.13,-278.6"/>
<text text-anchor="middle" x="1694.44" y="-458.07" font-family="Helvetica,Arial,sans-serif" font-size="14.00">creates</text>
</g>
<!-- pbsolv -->
<g id="node11" class="node">
<title>pbsolv</title>
<polygon fill="none" stroke="black" points="1295,-497.89 1189,-497.89 1189,-461.89 1295,-461.89 1295,-497.89"/>
<text text-anchor="middle" x="1242" y="-476.19" font-family="Helvetica,Arial,sans-serif" font-size="14.00">ProblemSolver</text>
</g>
<!-- mnl&#45;&gt;pbsolv -->
<g id="edge29" class="edge">
<title>mnl&#45;&gt;pbsolv</title>
<path fill="none" stroke="black" d="M1242,-534.71C1242,-526.68 1242,-516.94 1242,-507.96"/>
<polygon fill="black" stroke="black" points="1245.5,-507.92 1242,-497.92 1238.5,-507.92 1245.5,-507.92"/>
</g>
<!-- pbsolv&#45;&gt;state -->
<g id="edge33" class="edge">
<title>pbsolv&#45;&gt;state</title>
<path fill="none" stroke="black" stroke-width="2" d="M1295.4,-475.9C1406.43,-469.13 1658.45,-450.69 1738,-418.95 1820.02,-386.22 1898.77,-315.38 1936.62,-278.08"/>
<polygon fill="black" stroke="black" stroke-width="2" points="1939.45,-280.2 1944.06,-270.66 1934.51,-275.24 1939.45,-280.2"/>
<text text-anchor="middle" x="1608.15" y="-447.4" font-family="Helvetica,Arial,sans-serif" font-size="14.00">creates</text>
</g>
<!-- pbsolv&#45;&gt;context -->
<g id="edge32" class="edge">
<title>pbsolv&#45;&gt;context</title>
<path fill="none" stroke="black" d="M1305.24,-463.59C1398.66,-440.98 1570.83,-399.31 1648.34,-380.55"/>
<polygon fill="none" stroke="black" points="1304.25,-460.22 1295.36,-465.98 1305.9,-467.03 1304.25,-460.22"/>
</g>
<!-- pbsolv&#45;&gt;operators -->
<g id="edge34" class="edge">
<title>pbsolv&#45;&gt;operators</title>
<path fill="none" stroke="black" stroke-width="2" d="M1267.3,-461.82C1280.64,-451.23 1295.71,-436.34 1303,-418.95 1318.46,-382.08 1330.37,-358.14 1303,-329 1270.31,-294.18 920.26,-313.88 874,-302 857.48,-297.76 840.38,-290.84 825.01,-283.56"/>
<polygon fill="black" stroke="black" stroke-width="2" points="826.21,-280.25 815.69,-279 823.13,-286.53 826.21,-280.25"/>
<text text-anchor="middle" x="1019.44" y="-310.42" font-family="Helvetica,Arial,sans-serif" font-size="14.00">creates</text>
</g>
<!-- timestepper -->
<g id="node12" class="node">
<title>timestepper</title>
<polygon fill="none" stroke="black" points="926.5,-387.95 831.5,-387.95 831.5,-351.95 926.5,-351.95 926.5,-387.95"/>
<text text-anchor="middle" x="879" y="-366.25" font-family="Helvetica,Arial,sans-serif" font-size="14.00">TimeStepper</text>
</g>
<!-- pbsolv&#45;&gt;timestepper -->
<g id="edge35" class="edge">
<title>pbsolv&#45;&gt;timestepper</title>
<path fill="none" stroke="black" d="M1188.86,-473.83C1129.54,-466.84 1031.56,-451.23 953,-418.95 937.69,-412.66 922.12,-403.12 909.24,-394.21"/>
<polygon fill="black" stroke="black" points="910.96,-391.13 900.79,-388.18 906.9,-396.83 910.96,-391.13"/>
</g>
<!-- storage -->
<g id="node13" class="node">
<title>storage</title>
<polygon fill="none" stroke="black" points="1172,-387.95 1054,-387.95 1054,-351.95 1172,-351.95 1172,-387.95"/>
<text text-anchor="middle" x="1113" y="-366.25" font-family="Helvetica,Arial,sans-serif" font-size="14.00">StorageManager</text>
</g>
<!-- pbsolv&#45;&gt;storage -->
<g id="edge36" class="edge">
<title>pbsolv&#45;&gt;storage</title>
<path fill="none" stroke="black" d="M1221.56,-461.79C1199.86,-443.63 1165.41,-414.8 1141.15,-394.5"/>
<polygon fill="black" stroke="black" points="1143.26,-391.7 1133.34,-387.97 1138.77,-397.07 1143.26,-391.7"/>
</g>
<!-- hook -->
<g id="node14" class="node">
<title>hook</title>
<polygon fill="none" stroke="black" points="1293.5,-387.95 1190.5,-387.95 1190.5,-351.95 1293.5,-351.95 1293.5,-387.95"/>
<text text-anchor="middle" x="1242" y="-366.25" font-family="Helvetica,Arial,sans-serif" font-size="14.00">PostStepHook</text>
</g>
<!-- pbsolv&#45;&gt;hook -->
<g id="edge38" class="edge">
<title>pbsolv&#45;&gt;hook</title>
<path fill="none" stroke="black" stroke-dasharray="5,2" d="M1242,-461.55C1242,-444.47 1242,-418.14 1242,-398.25"/>
<polygon fill="black" stroke="black" points="1245.5,-398.25 1242,-388.25 1238.5,-398.25 1245.5,-398.25"/>
<text text-anchor="middle" x="1255.5" y="-432.69" font-family="Helvetica,Arial,sans-serif" font-size="14.00">todo</text>
</g>
<!-- stepsolv -->
<g id="node25" class="node">
<title>stepsolv</title>
<polygon fill="none" stroke="black" stroke-dasharray="5,2" points="230,-387.95 74,-387.95 74,-351.95 230,-351.95 230,-387.95"/>
<text text-anchor="middle" x="152" y="-366.25" font-family="Helvetica,Arial,sans-serif" font-size="14.00">BaseStepSolver {abstr}</text>
</g>
<!-- pbsolv&#45;&gt;stepsolv -->
<g id="edge37" class="edge">
<title>pbsolv&#45;&gt;stepsolv</title>
<path fill="none" stroke="black" stroke-width="2" d="M1188.98,-478.22C1014.12,-475.61 456.09,-464.07 266.8,-421.27"/>
<polygon fill="black" stroke="black" stroke-width="2" points="267.54,-417.85 257,-418.95 265.92,-424.66 267.54,-417.85"/>
<text text-anchor="middle" x="664.92" y="-468.09" font-family="Helvetica,Arial,sans-serif" font-size="14.00">loops on timesteps</text>
</g>
<!-- observ -->
<g id="node15" class="node">
<title>observ</title>
<polygon fill="none" stroke="black" stroke-dasharray="5,2" points="1030,-387.95 962,-387.95 962,-351.95 1036,-351.95 1036,-381.95 1030,-387.95"/>
<polyline fill="none" stroke="black" stroke-dasharray="5,2" points="1030,-387.95 1030,-381.95 "/>
<polyline fill="none" stroke="black" stroke-dasharray="5,2" points="1036,-381.95 1030,-381.95 "/>
<text text-anchor="middle" x="999" y="-366.25" font-family="Helvetica,Arial,sans-serif" font-size="14.00">Observer</text>
</g>
<!-- timestepper&#45;&gt;observ -->
<g id="edge51" class="edge">
<title>timestepper&#45;&gt;observ</title>
<path fill="none" stroke="black" stroke-dasharray="5,2" d="M936.92,-369.95C945.21,-369.95 953.49,-369.95 961.78,-369.95"/>
<polygon fill="none" stroke="black" points="936.81,-366.45 926.81,-369.95 936.81,-373.45 936.81,-366.45"/>
</g>
<!-- integr -->
<g id="node20" class="node">
<title>integr</title>
<polygon fill="none" stroke="black" points="711.5,-125 606.5,-125 606.5,-89 711.5,-89 711.5,-125"/>
<text text-anchor="middle" x="659" y="-103.3" font-family="Helvetica,Arial,sans-serif" font-size="14.00">BaseIntegrator</text>
</g>
<!-- dynopers&#45;&gt;integr -->
<g id="edge13" class="edge">
<title>dynopers&#45;&gt;integr</title>
<path fill="none" stroke="black" d="M921.84,-159.66C913.47,-157.69 905.06,-155.77 897,-154 833.49,-140.09 759.95,-126.21 711.62,-117.4"/>
<polygon fill="none" stroke="black" points="921.09,-163.08 931.62,-161.99 922.7,-156.27 921.09,-163.08"/>
</g>
<!-- newmark -->
<g id="node21" class="node">
<title>newmark</title>
<polygon fill="none" stroke="black" points="738,-52 606,-52 606,-16 738,-16 738,-52"/>
<text text-anchor="middle" x="672" y="-30.3" font-family="Helvetica,Arial,sans-serif" font-size="14.00">NewmarkIntegrator</text>
</g>
<!-- integr&#45;&gt;newmark -->
<g id="edge14" class="edge">
<title>integr&#45;&gt;newmark</title>
<path fill="none" stroke="black" d="M663.99,-78.75C665.63,-69.77 667.42,-60.03 668.88,-52.03"/>
<polygon fill="none" stroke="black" points="660.51,-78.35 662.15,-88.81 667.39,-79.61 660.51,-78.35"/>
</g>
<!-- mecastat -->
<g id="node22" class="node">
<title>mecastat</title>
<polygon fill="none" stroke="black" points="156,-271 16,-271 16,-235 156,-235 156,-271"/>
<text text-anchor="middle" x="86" y="-249.3" font-family="Helvetica,Arial,sans-serif" font-size="14.00">MecaStatStepSolver</text>
</g>
<!-- mecadyn -->
<g id="node23" class="node">
<title>mecadyn</title>
<polygon fill="none" stroke="black" points="322,-271 174,-271 174,-235 322,-235 322,-271"/>
<text text-anchor="middle" x="248" y="-249.3" font-family="Helvetica,Arial,sans-serif" font-size="14.00">MecaDynaStepSolver</text>
</g>
<!-- implicit -->
<g id="node27" class="node">
<title>implicit</title>
<polygon fill="none" stroke="black" points="330.5,-198 205.5,-198 205.5,-162 330.5,-162 330.5,-198"/>
<text text-anchor="middle" x="268" y="-176.3" font-family="Helvetica,Arial,sans-serif" font-size="14.00">ImplicitStepSolver</text>
</g>
<!-- mecadyn&#45;&gt;implicit -->
<g id="edge19" class="edge">
<title>mecadyn&#45;&gt;implicit</title>
<path fill="none" stroke="black" d="M255.59,-225.05C258.15,-215.98 260.92,-206.12 263.2,-198.03"/>
<polygon fill="none" stroke="black" points="252.18,-224.24 252.84,-234.81 258.92,-226.14 252.18,-224.24"/>
</g>
<!-- explicit -->
<g id="node28" class="node">
<title>explicit</title>
<polygon fill="none" stroke="black" points="473.5,-198 348.5,-198 348.5,-162 473.5,-162 473.5,-198"/>
<text text-anchor="middle" x="411" y="-176.3" font-family="Helvetica,Arial,sans-serif" font-size="14.00">ExplicitStepSolver</text>
</g>
<!-- mecadyn&#45;&gt;explicit -->
<g id="edge20" class="edge">
<title>mecadyn&#45;&gt;explicit</title>
<path fill="none" stroke="black" d="M296.34,-230.94C320.38,-220.47 349.05,-207.98 371.71,-198.11"/>
<polygon fill="none" stroke="black" points="294.81,-227.79 287.04,-234.99 297.61,-234.21 294.81,-227.79"/>
</g>
<!-- multi -->
<g id="node29" class="node">
<title>multi</title>
<polygon fill="none" stroke="black" points="187,-198 75,-198 75,-162 187,-162 187,-198"/>
<text text-anchor="middle" x="131" y="-176.3" font-family="Helvetica,Arial,sans-serif" font-size="14.00">MultiStepSolver</text>
</g>
<!-- mecadyn&#45;&gt;multi -->
<g id="edge21" class="edge">
<title>mecadyn&#45;&gt;multi</title>
<path fill="none" stroke="black" d="M210.99,-229.54C194.23,-219.37 174.75,-207.55 159.2,-198.11"/>
<polygon fill="none" stroke="black" points="209.61,-232.8 219.98,-234.99 213.24,-226.81 209.61,-232.8"/>
</g>
<!-- ther -->
<g id="node24" class="node">
<title>ther</title>
<polygon fill="none" stroke="black" points="473.5,-271 340.5,-271 340.5,-235 473.5,-235 473.5,-271"/>
<text text-anchor="middle" x="407" y="-249.3" font-family="Helvetica,Arial,sans-serif" font-size="14.00">ThermalStepSolver</text>
</g>
<!-- stepsolv&#45;&gt;mecastat -->
<g id="edge16" class="edge">
<title>stepsolv&#45;&gt;mecastat</title>
<path fill="none" stroke="black" d="M136.92,-342.69C124.34,-320.78 106.77,-290.17 95.9,-271.25"/>
<polygon fill="none" stroke="black" points="133.96,-344.56 141.98,-351.49 140.03,-341.07 133.96,-344.56"/>
</g>
<!-- stepsolv&#45;&gt;mecadyn -->
<g id="edge17" class="edge">
<title>stepsolv&#45;&gt;mecadyn</title>
<path fill="none" stroke="black" d="M173.2,-343.56C191.54,-321.6 217.58,-290.43 233.6,-271.25"/>
<polygon fill="none" stroke="black" points="170.3,-341.57 166.58,-351.49 175.68,-346.06 170.3,-341.57"/>
</g>
<!-- stepsolv&#45;&gt;ther -->
<g id="edge18" class="edge">
<title>stepsolv&#45;&gt;ther</title>
<path fill="none" stroke="black" d="M205.84,-348.3C222.25,-342.05 240.35,-335.21 257,-329 289.81,-316.78 299.58,-317.44 331,-302 349.07,-293.12 368.23,-281.01 382.79,-271.17"/>
<polygon fill="none" stroke="black" points="204.49,-345.07 196.4,-351.9 206.99,-351.61 204.49,-345.07"/>
</g>
<!-- mixin_step -->
<g id="node26" class="node">
<title>mixin_step</title>
<polygon fill="none" stroke="black" stroke-dasharray="5,2" points="468,-387.95 266,-387.95 266,-351.95 474,-351.95 474,-381.95 468,-387.95"/>
<polyline fill="none" stroke="black" stroke-dasharray="5,2" points="468,-387.95 468,-381.95 "/>
<polyline fill="none" stroke="black" stroke-dasharray="5,2" points="474,-381.95 468,-381.95 "/>
<text text-anchor="middle" x="370" y="-366.25" font-family="Helvetica,Arial,sans-serif" font-size="14.00">ContextMixin + DispatcherMixin</text>
</g>
<!-- stepsolv&#45;&gt;mixin_step -->
<g id="edge15" class="edge">
<title>stepsolv&#45;&gt;mixin_step</title>
<path fill="none" stroke="black" stroke-dasharray="5,2" d="M240.59,-369.95C249,-369.95 257.4,-369.95 265.8,-369.95"/>
<polygon fill="none" stroke="black" points="240.34,-366.45 230.34,-369.95 240.34,-373.45 240.34,-366.45"/>
</g>
<!-- iter_solver -->
<g id="node30" class="node">
<title>iter_solver</title>
<polygon fill="none" stroke="black" stroke-dasharray="5,2" points="1321,-271 1137,-271 1137,-235 1321,-235 1321,-271"/>
<text text-anchor="middle" x="1229" y="-249.3" font-family="Helvetica,Arial,sans-serif" font-size="14.00">BaseIterationsSolver {abstr}</text>
</g>
<!-- stepsolv&#45;&gt;iter_solver -->
<g id="edge39" class="edge">
<title>stepsolv&#45;&gt;iter_solver</title>
<path fill="none" stroke="black" d="M482,-304.1C691.71,-301.4 821.44,-358.47 1103,-302 1108.35,-300.93 1113.78,-299.65 1119.21,-298.22"/>
<polygon fill="black" stroke="black" points="1120.32,-301.54 1129,-295.48 1118.43,-294.8 1120.32,-301.54"/>
</g>
<!-- implicit&#45;&gt;integr -->
<g id="edge22" class="edge">
<title>implicit&#45;&gt;integr</title>
<path fill="none" stroke="black" d="M312.29,-161.91C321.05,-158.96 330.24,-156.15 339,-154 426.96,-132.41 531.18,-119.76 596.2,-113.36"/>
<polygon fill="black" stroke="black" points="596.68,-116.83 606.3,-112.39 596.01,-109.86 596.68,-116.83"/>
</g>
<!-- explicit&#45;&gt;integr -->
<g id="edge23" class="edge">
<title>explicit&#45;&gt;integr</title>
<path fill="none" stroke="black" d="M470.4,-161.99C508.42,-151.11 557.67,-137.01 596.31,-125.95"/>
<polygon fill="black" stroke="black" points="597.75,-129.18 606.4,-123.06 595.82,-122.45 597.75,-129.18"/>
</g>
<!-- multi&#45;&gt;integr -->
<g id="edge24" class="edge">
<title>multi&#45;&gt;integr</title>
<path fill="none" stroke="black" d="M170.34,-161.94C178.68,-158.87 187.53,-156.01 196,-154 336.38,-120.67 506.26,-111.46 596.14,-108.93"/>
<polygon fill="black" stroke="black" points="596.26,-112.43 606.17,-108.67 596.08,-105.43 596.26,-112.43"/>
</g>
<!-- iter_solver&#45;&gt;linsolv -->
<g id="edge40" class="edge">
<title>iter_solver&#45;&gt;linsolv</title>
<path fill="none" stroke="black" d="M1545.49,-154C1553.89,-146.06 1563.05,-136.74 1575,-125 1597.14,-103.26 1593.98,-89.64 1618,-70 1623.79,-65.27 1630.32,-60.96 1637,-57.1"/>
<polygon fill="black" stroke="black" points="1639.05,-59.97 1646.17,-52.13 1635.71,-53.82 1639.05,-59.97"/>
</g>
<!-- mixin_iter -->
<g id="node31" class="node">
<title>mixin_iter</title>
<polygon fill="none" stroke="black" stroke-dasharray="5,2" points="1559,-271 1357,-271 1357,-235 1565,-235 1565,-265 1559,-271"/>
<polyline fill="none" stroke="black" stroke-dasharray="5,2" points="1559,-271 1559,-265 "/>
<polyline fill="none" stroke="black" stroke-dasharray="5,2" points="1565,-265 1559,-265 "/>
<text text-anchor="middle" x="1461" y="-249.3" font-family="Helvetica,Arial,sans-serif" font-size="14.00">ContextMixin + DispatcherMixin</text>
</g>
<!-- iter_solver&#45;&gt;mixin_iter -->
<g id="edge25" class="edge">
<title>iter_solver&#45;&gt;mixin_iter</title>
<path fill="none" stroke="black" stroke-dasharray="5,2" d="M1331.68,-253C1340.08,-253 1348.48,-253 1356.87,-253"/>
<polygon fill="none" stroke="black" points="1331.44,-249.5 1321.44,-253 1331.44,-256.5 1331.44,-249.5"/>
</g>
<!-- newton -->
<g id="node32" class="node">
<title>newton</title>
<polygon fill="none" stroke="black" points="1238.5,-198 1137.5,-198 1137.5,-162 1238.5,-162 1238.5,-198"/>
<text text-anchor="middle" x="1188" y="-176.3" font-family="Helvetica,Arial,sans-serif" font-size="14.00">NewtonSolver</text>
</g>
<!-- iter_solver&#45;&gt;newton -->
<g id="edge26" class="edge">
<title>iter_solver&#45;&gt;newton</title>
<path fill="none" stroke="black" d="M1213.94,-225.92C1208.57,-216.61 1202.65,-206.38 1197.83,-198.03"/>
<polygon fill="none" stroke="black" points="1211.04,-227.9 1219.08,-234.81 1217.11,-224.4 1211.04,-227.9"/>
</g>
<!-- snes -->
<g id="node33" class="node">
<title>snes</title>
<polygon fill="none" stroke="black" points="1349,-198 1257,-198 1257,-162 1349,-162 1349,-198"/>
<text text-anchor="middle" x="1303" y="-176.3" font-family="Helvetica,Arial,sans-serif" font-size="14.00">SNESSolver</text>
</g>
<!-- iter_solver&#45;&gt;snes -->
<g id="edge27" class="edge">
<title>iter_solver&#45;&gt;snes</title>
<path fill="none" stroke="black" d="M1254.37,-227.65C1264.54,-217.9 1276.01,-206.9 1285.25,-198.03"/>
<polygon fill="none" stroke="black" points="1251.71,-225.36 1246.91,-234.81 1256.55,-230.42 1251.71,-225.36"/>
</g>
<!-- raspen -->
<g id="node34" class="node">
<title>raspen</title>
<polygon fill="none" stroke="black" points="1468.5,-198 1367.5,-198 1367.5,-162 1468.5,-162 1468.5,-198"/>
<text text-anchor="middle" x="1418" y="-176.3" font-family="Helvetica,Arial,sans-serif" font-size="14.00">RaspenSolver</text>
</g>
<!-- iter_solver&#45;&gt;raspen -->
<g id="edge28" class="edge">
<title>iter_solver&#45;&gt;raspen</title>
<path fill="none" stroke="black" d="M1283.95,-231.36C1312.04,-220.81 1345.82,-208.11 1372.44,-198.11"/>
<polygon fill="none" stroke="black" points="1282.4,-228.2 1274.27,-234.99 1284.86,-234.75 1282.4,-228.2"/>
</g>
<!-- incr_solv -->
<g id="node35" class="node">
<title>incr_solv</title>
<polygon fill="none" stroke="black" points="1342,-125 1216,-125 1216,-89 1342,-89 1342,-125"/>
<text text-anchor="middle" x="1279" y="-103.3" font-family="Helvetica,Arial,sans-serif" font-size="14.00">IncrementalSolver</text>
</g>
<!-- newton&#45;&gt;incr_solv -->
<g id="edge41" class="edge">
<title>newton&#45;&gt;incr_solv</title>
<path fill="none" stroke="black" d="M1210.03,-161.81C1221.77,-152.66 1236.37,-141.26 1249.12,-131.32"/>
<polygon fill="black" stroke="black" points="1251.44,-133.94 1257.17,-125.03 1247.14,-128.42 1251.44,-133.94"/>
</g>
<!-- linesearch -->
<g id="node36" class="node">
<title>linesearch</title>
<polygon fill="none" stroke="black" points="1192.5,-52 1107.5,-52 1107.5,-16 1192.5,-16 1192.5,-52"/>
<text text-anchor="middle" x="1150" y="-30.3" font-family="Helvetica,Arial,sans-serif" font-size="14.00">LineSearch</text>
</g>
<!-- newton&#45;&gt;linesearch -->
<g id="edge42" class="edge">
<title>newton&#45;&gt;linesearch</title>
<path fill="none" stroke="black" d="M1180.45,-161.75C1178.18,-156.16 1175.81,-149.88 1174,-144 1165.57,-116.63 1158.88,-84.52 1154.72,-62.28"/>
<polygon fill="black" stroke="black" points="1158.12,-61.43 1152.89,-52.22 1151.24,-62.68 1158.12,-61.43"/>
</g>
<!-- conv_manager -->
<g id="node37" class="node">
<title>conv_manager</title>
<polygon fill="none" stroke="black" points="1492.5,-52 1341.5,-52 1341.5,-16 1492.5,-16 1492.5,-52"/>
<text text-anchor="middle" x="1417" y="-30.3" font-family="Helvetica,Arial,sans-serif" font-size="14.00">ConvergenceManager</text>
</g>
<!-- newton&#45;&gt;conv_manager -->
<g id="edge43" class="edge">
<title>newton&#45;&gt;conv_manager</title>
<path fill="none" stroke="black" d="M1186.64,-161.99C1186.01,-141.86 1188.23,-108.61 1207,-89 1216.05,-79.54 1277.26,-64.42 1331.28,-52.58"/>
<polygon fill="black" stroke="black" points="1332.24,-55.96 1341.27,-50.41 1330.75,-49.12 1332.24,-55.96"/>
</g>
<!-- incr_solv&#45;&gt;contact -->
<g id="edge46" class="edge">
<title>incr_solv&#45;&gt;contact</title>
<path fill="none" stroke="black" d="M1342.31,-93.32C1351.25,-91.74 1360.34,-90.24 1369,-89 1531.11,-65.72 1579.12,-91.6 1742.19,-51.74"/>
<polygon fill="black" stroke="black" points="1743.22,-55.1 1752.08,-49.28 1741.53,-48.3 1743.22,-55.1"/>
</g>
<!-- incr_solv&#45;&gt;linsolv -->
<g id="edge47" class="edge">
<title>incr_solv&#45;&gt;linsolv</title>
<path fill="none" stroke="black" d="M1342.36,-93.64C1351.29,-92.01 1360.37,-90.42 1369,-89 1482.71,-70.3 1515.58,-77.38 1631.92,-52.04"/>
<polygon fill="black" stroke="black" points="1632.92,-55.41 1641.93,-49.83 1631.41,-48.57 1632.92,-55.41"/>
</g>
<!-- incr_solv&#45;&gt;linesearch -->
<g id="edge45" class="edge">
<title>incr_solv&#45;&gt;linesearch</title>
<path fill="none" stroke="black" d="M1248.1,-88.99C1230.68,-79.4 1208.72,-67.32 1189.99,-57.01"/>
<polygon fill="black" stroke="black" points="1191.54,-53.87 1181.09,-52.11 1188.17,-60 1191.54,-53.87"/>
</g>
<!-- incr_solv&#45;&gt;conv_manager -->
<g id="edge48" class="edge">
<title>incr_solv&#45;&gt;conv_manager</title>
<path fill="none" stroke="black" d="M1312.05,-88.99C1330.86,-79.32 1354.61,-67.1 1374.76,-56.73"/>
<polygon fill="black" stroke="black" points="1376.45,-59.8 1383.74,-52.11 1373.24,-53.58 1376.45,-59.8"/>
</g>
<!-- mixin_incr -->
<g id="node38" class="node">
<title>mixin_incr</title>
<polygon fill="none" stroke="black" stroke-dasharray="5,2" points="1560,-125 1378,-125 1378,-89 1566,-89 1566,-119 1560,-125"/>
<polyline fill="none" stroke="black" stroke-dasharray="5,2" points="1560,-125 1560,-119 "/>
<polyline fill="none" stroke="black" stroke-dasharray="5,2" points="1566,-119 1560,-119 "/>
<text text-anchor="middle" x="1472" y="-103.3" font-family="Helvetica,Arial,sans-serif" font-size="14.00">EventSource + ContextMixin</text>
</g>
<!-- incr_solv&#45;&gt;mixin_incr -->
<g id="edge44" class="edge">
<title>incr_solv&#45;&gt;mixin_incr</title>
<path fill="none" stroke="black" stroke-dasharray="5,2" d="M1352.58,-107C1360.98,-107 1369.38,-107 1377.79,-107"/>
<polygon fill="none" stroke="black" points="1352.33,-103.5 1342.33,-107 1352.33,-110.5 1352.33,-103.5"/>
</g>
<!-- mixin_line -->
<g id="node39" class="node">
<title>mixin_line</title>
<polygon fill="none" stroke="black" stroke-dasharray="5,2" points="1317.5,-52 1228.5,-52 1228.5,-16 1323.5,-16 1323.5,-46 1317.5,-52"/>
<polyline fill="none" stroke="black" stroke-dasharray="5,2" points="1317.5,-52 1317.5,-46 "/>
<polyline fill="none" stroke="black" stroke-dasharray="5,2" points="1323.5,-46 1317.5,-46 "/>
<text text-anchor="middle" x="1276" y="-30.3" font-family="Helvetica,Arial,sans-serif" font-size="14.00">ContextMixin</text>
</g>
<!-- linesearch&#45;&gt;mixin_line -->
<g id="edge49" class="edge">
<title>linesearch&#45;&gt;mixin_line</title>
<path fill="none" stroke="black" stroke-dasharray="5,2" d="M1203.06,-34C1211.45,-34 1219.84,-34 1228.24,-34"/>
<polygon fill="none" stroke="black" points="1202.82,-30.5 1192.82,-34 1202.82,-37.5 1202.82,-30.5"/>
</g>
<!-- mixin_conv -->
<g id="node40" class="node">
<title>mixin_conv</title>
<polygon fill="none" stroke="black" stroke-dasharray="5,2" points="1617.5,-52 1528.5,-52 1528.5,-16 1623.5,-16 1623.5,-46 1617.5,-52"/>
<polyline fill="none" stroke="black" stroke-dasharray="5,2" points="1617.5,-52 1617.5,-46 "/>
<polyline fill="none" stroke="black" stroke-dasharray="5,2" points="1623.5,-46 1617.5,-46 "/>
<text text-anchor="middle" x="1576" y="-30.3" font-family="Helvetica,Arial,sans-serif" font-size="14.00">ContextMixin</text>
</g>
<!-- conv_manager&#45;&gt;mixin_conv -->
<g id="edge50" class="edge">
<title>conv_manager&#45;&gt;mixin_conv</title>
<path fill="none" stroke="black" stroke-dasharray="5,2" d="M1503.02,-34C1511.41,-34 1519.81,-34 1528.21,-34"/>
<polygon fill="none" stroke="black" points="1502.77,-30.5 1492.77,-34 1502.77,-37.5 1502.77,-30.5"/>
</g>
</g>
</svg>
