<?xml version="1.0" encoding="UTF-8" standalone="no"?>
<!DOCTYPE svg PUBLIC "-//W3C//DTD SVG 1.1//EN"
 "http://www.w3.org/Graphics/SVG/1.1/DTD/svg11.dtd">
<!-- Generated by graphviz version 2.43.0 (0)
 -->
<!-- Title: MNL Pages: 1 -->
<svg width="2053pt" height="511pt"
 viewBox="0.00 0.00 2052.90 510.89" xmlns="http://www.w3.org/2000/svg" xmlns:xlink="http://www.w3.org/1999/xlink">
<g id="graph0" class="graph" transform="scale(1 1) rotate(0) translate(4 506.89)">
<title>MNL</title>
<polygon fill="white" stroke="transparent" points="-4,4 -4,-506.89 2048.9,-506.89 2048.9,4 -4,4"/>
<g id="clust3" class="cluster">
<title>cluster_operators</title>
<polygon fill="none" stroke="black" stroke-dasharray="5,2" points="1437.5,-65 1437.5,-392 1938.5,-392 1938.5,-65 1437.5,-65"/>
</g>
<g id="clust6" class="cluster">
<title>cluster_stepsolv</title>
<polygon fill="none" stroke="black" stroke-dasharray="5,2" points="470.5,-65 470.5,-307 944.5,-307 944.5,-65 470.5,-65"/>
<text text-anchor="middle" x="707.5" y="-291.8" font-family="Helvetica,Arial,sans-serif" font-size="14.00">StepSolver</text>
</g>
<g id="clust9" class="cluster">
<title>cluster_iter_solv</title>
<polygon fill="none" stroke="black" stroke-dasharray="5,2" points="952.5,-65 952.5,-213 1429.5,-213 1429.5,-65 952.5,-65"/>
<text text-anchor="middle" x="1191" y="-197.8" font-family="Helvetica,Arial,sans-serif" font-size="14.00">IterationSolver</text>
</g>
<!-- keywords -->
<g id="node1" class="node">
<title>keywords</title>
<ellipse fill="none" stroke="black" cx="1995.5" cy="-366" rx="49.29" ry="18"/>
<text text-anchor="middle" x="1995.5" y="-362.3" font-family="Helvetica,Arial,sans-serif" font-size="14.00">Keywords</text>
</g>
<!-- problem -->
<g id="node2" class="node">
<title>problem</title>
<ellipse fill="none" stroke="black" cx="811.5" cy="-366" rx="76.89" ry="18"/>
<text text-anchor="middle" x="811.5" y="-362.3" font-family="Helvetica,Arial,sans-serif" font-size="14.00">PhysicalProblem</text>
</g>
<!-- type -->
<g id="node3" class="node">
<title>type</title>
<ellipse fill="none" stroke="black" cx="969.5" cy="-366" rx="63.09" ry="18"/>
<text text-anchor="middle" x="969.5" y="-362.3" font-family="Helvetica,Arial,sans-serif" font-size="14.00">ProblemType</text>
</g>
<!-- state -->
<g id="node4" class="node">
<title>state</title>
<polygon fill="none" stroke="black" points="1148.5,-384 1050.5,-384 1050.5,-348 1148.5,-348 1148.5,-384"/>
<text text-anchor="middle" x="1099.5" y="-362.3" font-family="Helvetica,Arial,sans-serif" font-size="14.00">PhysicalState</text>
</g>
<!-- result -->
<g id="node5" class="node">
<title>result</title>
<ellipse fill="none" stroke="black" cx="1202.5" cy="-366" rx="36" ry="18"/>
<text text-anchor="middle" x="1202.5" y="-362.3" font-family="Helvetica,Arial,sans-serif" font-size="14.00">Result</text>
</g>
<!-- contact -->
<g id="node6" class="node">
<title>contact</title>
<polygon fill="none" stroke="black" points="1319,-384 1256,-384 1256,-348 1319,-348 1319,-384"/>
<text text-anchor="middle" x="1287.5" y="-362.3" font-family="Helvetica,Arial,sans-serif" font-size="14.00">Contact</text>
</g>
<!-- linsolv -->
<g id="node7" class="node">
<title>linsolv</title>
<polygon fill="none" stroke="black" points="1429.5,-384 1337.5,-384 1337.5,-348 1429.5,-348 1429.5,-384"/>
<text text-anchor="middle" x="1383.5" y="-362.3" font-family="Helvetica,Arial,sans-serif" font-size="14.00">LinearSolver</text>
</g>
<!-- context -->
<g id="node8" class="node">
<title>context</title>
<ellipse fill="none" stroke="black" cx="1202.5" cy="-461.95" rx="40.89" ry="40.89"/>
<text text-anchor="middle" x="1202.5" y="-458.25" font-family="Helvetica,Arial,sans-serif" font-size="14.00">Context</text>
</g>
<!-- context&#45;&gt;keywords -->
<g id="edge3" class="edge">
<title>context&#45;&gt;keywords</title>
<path fill="none" stroke="black" d="M1243.54,-459C1378.7,-452.29 1808.86,-428.53 1942.5,-392 1948.35,-390.4 1954.34,-388.19 1960.1,-385.75"/>
<polygon fill="black" stroke="black" points="1961.85,-388.79 1969.5,-381.46 1958.95,-382.42 1961.85,-388.79"/>
</g>
<!-- context&#45;&gt;problem -->
<g id="edge1" class="edge">
<title>context&#45;&gt;problem</title>
<path fill="none" stroke="black" d="M1162.35,-452.68C1103.84,-440.45 991.85,-416.35 897.5,-392 887.35,-389.38 876.57,-386.4 866.21,-383.44"/>
<polygon fill="black" stroke="black" points="867.02,-380.03 856.44,-380.62 865.07,-386.76 867.02,-380.03"/>
</g>
<!-- context&#45;&gt;type -->
<g id="edge2" class="edge">
<title>context&#45;&gt;type</title>
<path fill="none" stroke="black" d="M1164.81,-445.75C1123.61,-429.14 1057.68,-402.55 1013.99,-384.94"/>
<polygon fill="black" stroke="black" points="1015.06,-381.59 1004.47,-381.1 1012.44,-388.09 1015.06,-381.59"/>
</g>
<!-- context&#45;&gt;state -->
<g id="edge4" class="edge">
<title>context&#45;&gt;state</title>
<path fill="none" stroke="black" d="M1172.71,-433.77C1157.87,-420.24 1140.09,-404.02 1125.77,-390.96"/>
<polygon fill="black" stroke="black" points="1127.95,-388.21 1118.2,-384.06 1123.23,-393.39 1127.95,-388.21"/>
</g>
<!-- context&#45;&gt;result -->
<g id="edge5" class="edge">
<title>context&#45;&gt;result</title>
<path fill="none" stroke="black" d="M1202.5,-420.83C1202.5,-411.95 1202.5,-402.74 1202.5,-394.5"/>
<polygon fill="black" stroke="black" points="1206,-394.34 1202.5,-384.34 1199,-394.34 1206,-394.34"/>
</g>
<!-- context&#45;&gt;contact -->
<g id="edge7" class="edge">
<title>context&#45;&gt;contact</title>
<path fill="none" stroke="black" d="M1229.63,-430.96C1241.11,-418.28 1254.31,-403.68 1265.21,-391.64"/>
<polygon fill="black" stroke="black" points="1267.88,-393.9 1272,-384.14 1262.69,-389.2 1267.88,-393.9"/>
</g>
<!-- context&#45;&gt;linsolv -->
<g id="edge8" class="edge">
<title>context&#45;&gt;linsolv</title>
<path fill="none" stroke="black" d="M1238.69,-442.16C1268.46,-426.71 1310.66,-404.81 1341.83,-388.63"/>
<polygon fill="black" stroke="black" points="1343.45,-391.73 1350.72,-384.02 1340.23,-385.52 1343.45,-391.73"/>
</g>
<!-- operators -->
<g id="node9" class="node">
<title>operators</title>
<polygon fill="none" stroke="black" stroke-dasharray="5,2" points="1642,-384 1491,-384 1491,-348 1642,-348 1642,-384"/>
<text text-anchor="middle" x="1566.5" y="-362.3" font-family="Helvetica,Arial,sans-serif" font-size="14.00">BaseOperators {abstr}</text>
</g>
<!-- context&#45;&gt;operators -->
<g id="edge6" class="edge">
<title>context&#45;&gt;operators</title>
<path fill="none" stroke="black" d="M1242.15,-450.71C1293.99,-437.33 1386.82,-413.37 1459.92,-394.51"/>
<polygon fill="black" stroke="black" points="1460.83,-397.89 1469.64,-392 1459.09,-391.11 1460.83,-397.89"/>
</g>
<!-- mixin_oper -->
<g id="node17" class="node">
<title>mixin_oper</title>
<polygon fill="none" stroke="black" stroke-dasharray="5,2" points="1879.5,-384 1677.5,-384 1677.5,-348 1885.5,-348 1885.5,-378 1879.5,-384"/>
<polyline fill="none" stroke="black" stroke-dasharray="5,2" points="1879.5,-384 1879.5,-378 "/>
<polyline fill="none" stroke="black" stroke-dasharray="5,2" points="1885.5,-378 1879.5,-378 "/>
<text text-anchor="middle" x="1781.5" y="-362.3" font-family="Helvetica,Arial,sans-serif" font-size="14.00">ContextMixin + DispatcherMixin</text>
</g>
<!-- operators&#45;&gt;mixin_oper -->
<g id="edge10" class="edge">
<title>operators&#45;&gt;mixin_oper</title>
<path fill="none" stroke="black" stroke-dasharray="5,2" d="M1652.32,-366C1660.71,-366 1669.1,-366 1677.48,-366"/>
<polygon fill="none" stroke="black" points="1652.09,-362.5 1642.09,-366 1652.09,-369.5 1652.09,-362.5"/>
</g>
<!-- statopers -->
<g id="node18" class="node">
<title>statopers</title>
<polygon fill="none" stroke="black" points="1581,-276 1446,-276 1446,-240 1581,-240 1581,-276"/>
<text text-anchor="middle" x="1513.5" y="-254.3" font-family="Helvetica,Arial,sans-serif" font-size="14.00">MecaStatOperators</text>
</g>
<!-- operators&#45;&gt;statopers -->
<g id="edge11" class="edge">
<title>operators&#45;&gt;statopers</title>
<path fill="none" stroke="black" d="M1553.5,-339C1543.75,-319.5 1530.68,-293.35 1522.17,-276.34"/>
<polygon fill="none" stroke="black" points="1550.38,-340.59 1557.98,-347.97 1556.64,-337.46 1550.38,-340.59"/>
</g>
<!-- theropers -->
<g id="node19" class="node">
<title>theropers</title>
<polygon fill="none" stroke="black" points="1727.5,-276 1599.5,-276 1599.5,-240 1727.5,-240 1727.5,-276"/>
<text text-anchor="middle" x="1663.5" y="-254.3" font-family="Helvetica,Arial,sans-serif" font-size="14.00">ThermalOperators</text>
</g>
<!-- operators&#45;&gt;theropers -->
<g id="edge13" class="edge">
<title>operators&#45;&gt;theropers</title>
<path fill="none" stroke="black" d="M1588.85,-340.58C1606.82,-320.94 1631.64,-293.81 1647.63,-276.34"/>
<polygon fill="none" stroke="black" points="1586.25,-338.23 1582.08,-347.97 1591.42,-342.95 1586.25,-338.23"/>
</g>
<!-- dynopers -->
<g id="node20" class="node">
<title>dynopers</title>
<polygon fill="none" stroke="black" stroke-dasharray="5,2" points="1931,-276 1746,-276 1746,-240 1931,-240 1931,-276"/>
<text text-anchor="middle" x="1838.5" y="-254.3" font-family="Helvetica,Arial,sans-serif" font-size="14.00">MecaDynaOperators {abstr}</text>
</g>
<!-- operators&#45;&gt;dynopers -->
<g id="edge12" class="edge">
<title>operators&#45;&gt;dynopers</title>
<path fill="none" stroke="black" d="M1631.12,-344.83C1663.13,-334.36 1702.18,-320.88 1736.5,-307 1759.54,-297.68 1784.83,-285.8 1804.46,-276.18"/>
<polygon fill="none" stroke="black" points="1629.85,-341.56 1621.42,-347.97 1632.02,-348.21 1629.85,-341.56"/>
</g>
<!-- mnl -->
<g id="node10" class="node">
<title>mnl</title>
<polygon fill="none" stroke="black" points="991.5,-479.95 853.5,-479.95 853.5,-443.95 991.5,-443.95 991.5,-479.95"/>
<text text-anchor="middle" x="922.5" y="-458.25" font-family="Helvetica,Arial,sans-serif" font-size="14.00">meca_non_line_ops</text>
</g>
<!-- mnl&#45;&gt;context -->
<g id="edge29" class="edge">
<title>mnl&#45;&gt;context</title>
<path fill="none" stroke="black" stroke-width="2" d="M991.68,-461.95C1044.8,-461.95 1097.93,-461.95 1151.05,-461.95"/>
<polygon fill="black" stroke="black" stroke-width="2" points="1151.32,-465.45 1161.32,-461.95 1151.32,-458.45 1151.32,-465.45"/>
<text text-anchor="middle" x="1054.16" y="-465.75" font-family="Helvetica,Arial,sans-serif" font-size="14.00">creates</text>
</g>
<!-- nl_operator -->
<g id="node11" class="node">
<title>nl_operator</title>
<polygon fill="none" stroke="black" points="477.5,-384 343.5,-384 343.5,-348 477.5,-348 477.5,-384"/>
<text text-anchor="middle" x="410.5" y="-362.3" font-family="Helvetica,Arial,sans-serif" font-size="14.00">NonLinearOperator</text>
</g>
<!-- mnl&#45;&gt;nl_operator -->
<g id="edge28" class="edge">
<title>mnl&#45;&gt;nl_operator</title>
<path fill="none" stroke="black" d="M853.33,-451.62C770.11,-439.93 626.38,-418.2 504.5,-392 496.75,-390.34 488.69,-388.44 480.68,-386.46"/>
<polygon fill="black" stroke="black" points="481.52,-383.06 470.97,-384 479.81,-389.85 481.52,-383.06"/>
</g>
<!-- mixin_pb -->
<g id="node12" class="node">
<title>mixin_pb</title>
<polygon fill="none" stroke="black" stroke-dasharray="5,2" points="602,-384 513,-384 513,-348 608,-348 608,-378 602,-384"/>
<polyline fill="none" stroke="black" stroke-dasharray="5,2" points="602,-384 602,-378 "/>
<polyline fill="none" stroke="black" stroke-dasharray="5,2" points="608,-378 602,-378 "/>
<text text-anchor="middle" x="560.5" y="-362.3" font-family="Helvetica,Arial,sans-serif" font-size="14.00">ContextMixin</text>
</g>
<!-- nl_operator&#45;&gt;mixin_pb -->
<g id="edge9" class="edge">
<title>nl_operator&#45;&gt;mixin_pb</title>
<path fill="none" stroke="black" stroke-dasharray="5,2" d="M487.79,-366C496.16,-366 504.53,-366 512.89,-366"/>
<polygon fill="none" stroke="black" points="487.59,-362.5 477.59,-366 487.59,-369.5 487.59,-362.5"/>
</g>
<!-- timestepper -->
<g id="node13" class="node">
<title>timestepper</title>
<polygon fill="none" stroke="black" points="95,-276 0,-276 0,-240 95,-240 95,-276"/>
<text text-anchor="middle" x="47.5" y="-254.3" font-family="Helvetica,Arial,sans-serif" font-size="14.00">TimeStepper</text>
</g>
<!-- nl_operator&#45;&gt;timestepper -->
<g id="edge30" class="edge">
<title>nl_operator&#45;&gt;timestepper</title>
<path fill="none" stroke="black" d="M343.3,-358.77C283.37,-351.53 194.13,-336.58 121.5,-307 106.06,-300.71 90.37,-291.09 77.43,-282.11"/>
<polygon fill="black" stroke="black" points="79.12,-279.01 68.95,-276.04 75.05,-284.71 79.12,-279.01"/>
</g>
<!-- storage -->
<g id="node14" class="node">
<title>storage</title>
<polygon fill="none" stroke="black" points="340.5,-276 222.5,-276 222.5,-240 340.5,-240 340.5,-276"/>
<text text-anchor="middle" x="281.5" y="-254.3" font-family="Helvetica,Arial,sans-serif" font-size="14.00">StorageManager</text>
</g>
<!-- nl_operator&#45;&gt;storage -->
<g id="edge31" class="edge">
<title>nl_operator&#45;&gt;storage</title>
<path fill="none" stroke="black" d="M389.77,-347.97C368.27,-330.3 334.49,-302.54 310.38,-282.73"/>
<polygon fill="black" stroke="black" points="312.55,-279.99 302.6,-276.34 308.11,-285.39 312.55,-279.99"/>
</g>
<!-- hook -->
<g id="node15" class="node">
<title>hook</title>
<polygon fill="none" stroke="black" points="462,-276 359,-276 359,-240 462,-240 462,-276"/>
<text text-anchor="middle" x="410.5" y="-254.3" font-family="Helvetica,Arial,sans-serif" font-size="14.00">PostStepHook</text>
</g>
<!-- nl_operator&#45;&gt;hook -->
<g id="edge33" class="edge">
<title>nl_operator&#45;&gt;hook</title>
<path fill="none" stroke="black" stroke-dasharray="5,2" d="M410.5,-347.97C410.5,-331.38 410.5,-305.88 410.5,-286.43"/>
<polygon fill="black" stroke="black" points="414,-286.34 410.5,-276.34 407,-286.34 414,-286.34"/>
<text text-anchor="middle" x="424" y="-318.8" font-family="Helvetica,Arial,sans-serif" font-size="14.00">todo</text>
</g>
<!-- stepsolv -->
<g id="node26" class="node">
<title>stepsolv</title>
<polygon fill="none" stroke="black" stroke-dasharray="5,2" points="692.5,-276 536.5,-276 536.5,-240 692.5,-240 692.5,-276"/>
<text text-anchor="middle" x="614.5" y="-254.3" font-family="Helvetica,Arial,sans-serif" font-size="14.00">BaseStepSolver {abstr}</text>
</g>
<!-- nl_operator&#45;&gt;stepsolv -->
<g id="edge32" class="edge">
<title>nl_operator&#45;&gt;stepsolv</title>
<path fill="none" stroke="black" stroke-width="2" d="M443.28,-347.97C462.47,-338 487.85,-324.81 513.18,-311.65"/>
<polygon fill="black" stroke="black" stroke-width="2" points="514.86,-314.72 522.12,-307 511.64,-308.5 514.86,-314.72"/>
<text text-anchor="middle" x="539.7" y="-331.28" font-family="Helvetica,Arial,sans-serif" font-size="14.00">loops on timesteps</text>
</g>
<!-- observ -->
<g id="node16" class="node">
<title>observ</title>
<polygon fill="none" stroke="black" stroke-dasharray="5,2" points="198.5,-276 130.5,-276 130.5,-240 204.5,-240 204.5,-270 198.5,-276"/>
<polyline fill="none" stroke="black" stroke-dasharray="5,2" points="198.5,-276 198.5,-270 "/>
<polyline fill="none" stroke="black" stroke-dasharray="5,2" points="204.5,-270 198.5,-270 "/>
<text text-anchor="middle" x="167.5" y="-254.3" font-family="Helvetica,Arial,sans-serif" font-size="14.00">Observer</text>
</g>
<!-- timestepper&#45;&gt;observ -->
<g id="edge39" class="edge">
<title>timestepper&#45;&gt;observ</title>
<path fill="none" stroke="black" stroke-dasharray="5,2" d="M105.42,-258C113.71,-258 121.99,-258 130.28,-258"/>
<polygon fill="none" stroke="black" points="105.31,-254.5 95.31,-258 105.31,-261.5 105.31,-254.5"/>
</g>
<!-- integr -->
<g id="node21" class="node">
<title>integr</title>
<polygon fill="none" stroke="black" points="1891,-182 1786,-182 1786,-146 1891,-146 1891,-182"/>
<text text-anchor="middle" x="1838.5" y="-160.3" font-family="Helvetica,Arial,sans-serif" font-size="14.00">BaseIntegrator</text>
</g>
<!-- dynopers&#45;&gt;integr -->
<g id="edge14" class="edge">
<title>dynopers&#45;&gt;integr</title>
<path fill="none" stroke="black" d="M1838.5,-229.69C1838.5,-214.31 1838.5,-195.57 1838.5,-182.23"/>
<polygon fill="none" stroke="black" points="1835,-229.7 1838.5,-239.7 1842,-229.7 1835,-229.7"/>
</g>
<!-- newmark -->
<g id="node22" class="node">
<title>newmark</title>
<polygon fill="none" stroke="black" points="1904.5,-109 1772.5,-109 1772.5,-73 1904.5,-73 1904.5,-109"/>
<text text-anchor="middle" x="1838.5" y="-87.3" font-family="Helvetica,Arial,sans-serif" font-size="14.00">NewmarkIntegrator</text>
</g>
<!-- integr&#45;&gt;newmark -->
<g id="edge15" class="edge">
<title>integr&#45;&gt;newmark</title>
<path fill="none" stroke="black" d="M1838.5,-135.75C1838.5,-126.77 1838.5,-117.03 1838.5,-109.03"/>
<polygon fill="none" stroke="black" points="1835,-135.81 1838.5,-145.81 1842,-135.81 1835,-135.81"/>
</g>
<!-- mecastat -->
<g id="node23" class="node">
<title>mecastat</title>
<polygon fill="none" stroke="black" points="618.5,-182 478.5,-182 478.5,-146 618.5,-146 618.5,-182"/>
<text text-anchor="middle" x="548.5" y="-160.3" font-family="Helvetica,Arial,sans-serif" font-size="14.00">MecaStatStepSolver</text>
</g>
<!-- mecadyn -->
<g id="node24" class="node">
<title>mecadyn</title>
<polygon fill="none" stroke="black" points="784.5,-182 636.5,-182 636.5,-146 784.5,-146 784.5,-182"/>
<text text-anchor="middle" x="710.5" y="-160.3" font-family="Helvetica,Arial,sans-serif" font-size="14.00">MecaDynaStepSolver</text>
</g>
<!-- implicit -->
<g id="node28" class="node">
<title>implicit</title>
<polygon fill="none" stroke="black" points="630,-109 505,-109 505,-73 630,-73 630,-109"/>
<text text-anchor="middle" x="567.5" y="-87.3" font-family="Helvetica,Arial,sans-serif" font-size="14.00">ImplicitStepSolver</text>
</g>
<!-- mecadyn&#45;&gt;implicit -->
<g id="edge20" class="edge">
<title>mecadyn&#45;&gt;implicit</title>
<path fill="none" stroke="black" d="M667.25,-141.52C646.34,-131.14 621.58,-118.85 601.97,-109.11"/>
<polygon fill="none" stroke="black" points="665.73,-144.68 676.25,-145.99 668.85,-138.41 665.73,-144.68"/>
</g>
<!-- explicit -->
<g id="node29" class="node">
<title>explicit</title>
<polygon fill="none" stroke="black" points="773,-109 648,-109 648,-73 773,-73 773,-109"/>
<text text-anchor="middle" x="710.5" y="-87.3" font-family="Helvetica,Arial,sans-serif" font-size="14.00">ExplicitStepSolver</text>
</g>
<!-- mecadyn&#45;&gt;explicit -->
<g id="edge21" class="edge">
<title>mecadyn&#45;&gt;explicit</title>
<path fill="none" stroke="black" d="M710.5,-135.75C710.5,-126.77 710.5,-117.03 710.5,-109.03"/>
<polygon fill="none" stroke="black" points="707,-135.81 710.5,-145.81 714,-135.81 707,-135.81"/>
</g>
<!-- multi -->
<g id="node30" class="node">
<title>multi</title>
<polygon fill="none" stroke="black" points="903.5,-109 791.5,-109 791.5,-73 903.5,-73 903.5,-109"/>
<text text-anchor="middle" x="847.5" y="-87.3" font-family="Helvetica,Arial,sans-serif" font-size="14.00">MultiStepSolver</text>
</g>
<!-- mecadyn&#45;&gt;multi -->
<g id="edge22" class="edge">
<title>mecadyn&#45;&gt;multi</title>
<path fill="none" stroke="black" d="M752.21,-141.38C772.19,-131.03 795.77,-118.81 814.48,-109.11"/>
<polygon fill="none" stroke="black" points="750.58,-138.28 743.31,-145.99 753.8,-144.5 750.58,-138.28"/>
</g>
<!-- ther -->
<g id="node25" class="node">
<title>ther</title>
<polygon fill="none" stroke="black" points="936,-182 803,-182 803,-146 936,-146 936,-182"/>
<text text-anchor="middle" x="869.5" y="-160.3" font-family="Helvetica,Arial,sans-serif" font-size="14.00">ThermalStepSolver</text>
</g>
<!-- stepsolv&#45;&gt;mecastat -->
<g id="edge17" class="edge">
<title>stepsolv&#45;&gt;mecastat</title>
<path fill="none" stroke="black" d="M596.17,-231.45C584.91,-215.76 570.8,-196.08 560.86,-182.23"/>
<polygon fill="none" stroke="black" points="593.41,-233.61 602.09,-239.7 599.1,-229.53 593.41,-233.61"/>
</g>
<!-- stepsolv&#45;&gt;mecadyn -->
<g id="edge18" class="edge">
<title>stepsolv&#45;&gt;mecadyn</title>
<path fill="none" stroke="black" d="M639.81,-232.75C656.39,-216.86 677.66,-196.47 692.52,-182.23"/>
<polygon fill="none" stroke="black" points="637.36,-230.25 632.56,-239.7 642.2,-235.3 637.36,-230.25"/>
</g>
<!-- stepsolv&#45;&gt;ther -->
<g id="edge19" class="edge">
<title>stepsolv&#45;&gt;ther</title>
<path fill="none" stroke="black" d="M702.79,-241.23C732.3,-234.42 764.93,-225.15 793.5,-213 812.46,-204.94 832.07,-192.43 846.62,-182.2"/>
<polygon fill="none" stroke="black" points="701.91,-237.84 692.92,-243.45 703.44,-244.67 701.91,-237.84"/>
</g>
<!-- mixin_step -->
<g id="node27" class="node">
<title>mixin_step</title>
<polygon fill="none" stroke="black" stroke-dasharray="5,2" points="930.5,-276 728.5,-276 728.5,-240 936.5,-240 936.5,-270 930.5,-276"/>
<polyline fill="none" stroke="black" stroke-dasharray="5,2" points="930.5,-276 930.5,-270 "/>
<polyline fill="none" stroke="black" stroke-dasharray="5,2" points="936.5,-270 930.5,-270 "/>
<text text-anchor="middle" x="832.5" y="-254.3" font-family="Helvetica,Arial,sans-serif" font-size="14.00">ContextMixin + DispatcherMixin</text>
</g>
<!-- stepsolv&#45;&gt;mixin_step -->
<g id="edge16" class="edge">
<title>stepsolv&#45;&gt;mixin_step</title>
<path fill="none" stroke="black" stroke-dasharray="5,2" d="M703.09,-258C711.5,-258 719.9,-258 728.3,-258"/>
<polygon fill="none" stroke="black" points="702.84,-254.5 692.84,-258 702.84,-261.5 702.84,-254.5"/>
</g>
<!-- iter_solver -->
<g id="node31" class="node">
<title>iter_solver</title>
<polygon fill="none" stroke="black" stroke-dasharray="5,2" points="1157,-182 980,-182 980,-146 1157,-146 1157,-182"/>
<text text-anchor="middle" x="1068.5" y="-160.3" font-family="Helvetica,Arial,sans-serif" font-size="14.00">BaseIterationSolver {abstr}</text>
</g>
<!-- stepsolv&#45;&gt;iter_solver -->
<g id="edge34" class="edge">
<title>stepsolv&#45;&gt;iter_solver</title>
<path fill="none" stroke="black" d="M944.5,-214.38C946.5,-213.77 948.5,-213.16 950.5,-212.56"/>
<polygon fill="black" stroke="black" points="943.95,-218.2 952.5,-211.95 941.92,-211.5 943.95,-218.2"/>
</g>
<!-- mixin_iter -->
<g id="node32" class="node">
<title>mixin_iter</title>
<polygon fill="none" stroke="black" stroke-dasharray="5,2" points="1394.5,-182 1192.5,-182 1192.5,-146 1400.5,-146 1400.5,-176 1394.5,-182"/>
<polyline fill="none" stroke="black" stroke-dasharray="5,2" points="1394.5,-182 1394.5,-176 "/>
<polyline fill="none" stroke="black" stroke-dasharray="5,2" points="1400.5,-176 1394.5,-176 "/>
<text text-anchor="middle" x="1296.5" y="-160.3" font-family="Helvetica,Arial,sans-serif" font-size="14.00">ContextMixin + DispatcherMixin</text>
</g>
<!-- iter_solver&#45;&gt;mixin_iter -->
<g id="edge23" class="edge">
<title>iter_solver&#45;&gt;mixin_iter</title>
<path fill="none" stroke="black" stroke-dasharray="5,2" d="M1167.27,-164C1175.59,-164 1183.91,-164 1192.24,-164"/>
<polygon fill="none" stroke="black" points="1167.12,-160.5 1157.12,-164 1167.12,-167.5 1167.12,-160.5"/>
</g>
<!-- newton -->
<g id="node33" class="node">
<title>newton</title>
<polygon fill="none" stroke="black" points="1062,-109 961,-109 961,-73 1062,-73 1062,-109"/>
<text text-anchor="middle" x="1011.5" y="-87.3" font-family="Helvetica,Arial,sans-serif" font-size="14.00">NewtonSolver</text>
</g>
<!-- iter_solver&#45;&gt;newton -->
<g id="edge25" class="edge">
<title>iter_solver&#45;&gt;newton</title>
<path fill="none" stroke="black" d="M1048.26,-137.79C1040.61,-128.26 1032.08,-117.64 1025.17,-109.03"/>
<polygon fill="none" stroke="black" points="1045.71,-140.21 1054.7,-145.81 1051.17,-135.82 1045.71,-140.21"/>
</g>
<!-- snes -->
<g id="node35" class="node">
<title>snes</title>
<polygon fill="none" stroke="black" points="1301.5,-109 1209.5,-109 1209.5,-73 1301.5,-73 1301.5,-109"/>
<text text-anchor="middle" x="1255.5" y="-87.3" font-family="Helvetica,Arial,sans-serif" font-size="14.00">SNESSolver</text>
</g>
<!-- iter_solver&#45;&gt;snes -->
<g id="edge26" class="edge">
<title>iter_solver&#45;&gt;snes</title>
<path fill="none" stroke="black" d="M1122.87,-142.36C1150.66,-131.81 1184.09,-119.11 1210.43,-109.11"/>
<polygon fill="none" stroke="black" points="1121.4,-139.17 1113.29,-145.99 1123.88,-145.72 1121.4,-139.17"/>
</g>
<!-- raspen -->
<g id="node36" class="node">
<title>raspen</title>
<polygon fill="none" stroke="black" points="1421,-109 1320,-109 1320,-73 1421,-73 1421,-109"/>
<text text-anchor="middle" x="1370.5" y="-87.3" font-family="Helvetica,Arial,sans-serif" font-size="14.00">RaspenSolver</text>
</g>
<!-- iter_solver&#45;&gt;raspen -->
<g id="edge27" class="edge">
<title>iter_solver&#45;&gt;raspen</title>
<path fill="none" stroke="black" d="M1160.09,-143.84C1205.48,-134.02 1261.03,-121.52 1310.5,-109 1313.54,-108.23 1316.67,-107.42 1319.82,-106.58"/>
<polygon fill="none" stroke="black" points="1159.31,-140.43 1150.27,-145.96 1160.78,-147.27 1159.31,-140.43"/>
</g>
<!-- event -->
<g id="node34" class="node">
<title>event</title>
<polygon fill="none" stroke="black" stroke-dasharray="5,2" points="1185.5,-109 1097.5,-109 1097.5,-73 1191.5,-73 1191.5,-103 1185.5,-109"/>
<polyline fill="none" stroke="black" stroke-dasharray="5,2" points="1185.5,-109 1185.5,-103 "/>
<polyline fill="none" stroke="black" stroke-dasharray="5,2" points="1191.5,-103 1185.5,-103 "/>
<text text-anchor="middle" x="1144.5" y="-87.3" font-family="Helvetica,Arial,sans-serif" font-size="14.00">EventSource</text>
</g>
<!-- newton&#45;&gt;event -->
<g id="edge24" class="edge">
<title>newton&#45;&gt;event</title>
<path fill="none" stroke="black" stroke-dasharray="5,2" d="M1072.29,-91C1080.6,-91 1088.91,-91 1097.22,-91"/>
<polygon fill="none" stroke="black" points="1072.15,-87.5 1062.15,-91 1072.15,-94.5 1072.15,-87.5"/>
</g>
<!-- linesearch -->
<g id="node37" class="node">
<title>linesearch</title>
<polygon fill="none" stroke="black" points="890,-36 805,-36 805,0 890,0 890,-36"/>
<text text-anchor="middle" x="847.5" y="-14.3" font-family="Helvetica,Arial,sans-serif" font-size="14.00">LineSearch</text>
</g>
<!-- newton&#45;&gt;linesearch -->
<g id="edge35" class="edge">
<title>newton&#45;&gt;linesearch</title>
<path fill="none" stroke="black" d="M972.22,-72.99C949.46,-63.14 920.62,-50.66 896.4,-40.17"/>
<polygon fill="black" stroke="black" points="897.6,-36.87 887.03,-36.11 894.82,-43.3 897.6,-36.87"/>
</g>
<!-- conv_manager -->
<g id="node38" class="node">
<title>conv_manager</title>
<polygon fill="none" stroke="black" points="1190,-36 1039,-36 1039,0 1190,0 1190,-36"/>
<text text-anchor="middle" x="1114.5" y="-14.3" font-family="Helvetica,Arial,sans-serif" font-size="14.00">ConvergenceManager</text>
</g>
<!-- newton&#45;&gt;conv_manager -->
<g id="edge36" class="edge">
<title>newton&#45;&gt;conv_manager</title>
<path fill="none" stroke="black" d="M1036.17,-72.99C1049.7,-63.67 1066.66,-51.97 1081.34,-41.86"/>
<polygon fill="black" stroke="black" points="1083.43,-44.67 1089.67,-36.11 1079.45,-38.91 1083.43,-44.67"/>
</g>
<!-- mixin_line -->
<g id="node39" class="node">
<title>mixin_line</title>
<polygon fill="none" stroke="black" stroke-dasharray="5,2" points="1015,-36 926,-36 926,0 1021,0 1021,-30 1015,-36"/>
<polyline fill="none" stroke="black" stroke-dasharray="5,2" points="1015,-36 1015,-30 "/>
<polyline fill="none" stroke="black" stroke-dasharray="5,2" points="1021,-30 1015,-30 "/>
<text text-anchor="middle" x="973.5" y="-14.3" font-family="Helvetica,Arial,sans-serif" font-size="14.00">ContextMixin</text>
</g>
<!-- linesearch&#45;&gt;mixin_line -->
<g id="edge37" class="edge">
<title>linesearch&#45;&gt;mixin_line</title>
<path fill="none" stroke="black" stroke-dasharray="5,2" d="M900.56,-18C908.95,-18 917.34,-18 925.74,-18"/>
<polygon fill="none" stroke="black" points="900.32,-14.5 890.32,-18 900.32,-21.5 900.32,-14.5"/>
</g>
<!-- mixin_conv -->
<g id="node40" class="node">
<title>mixin_conv</title>
<polygon fill="none" stroke="black" stroke-dasharray="5,2" points="1315,-36 1226,-36 1226,0 1321,0 1321,-30 1315,-36"/>
<polyline fill="none" stroke="black" stroke-dasharray="5,2" points="1315,-36 1315,-30 "/>
<polyline fill="none" stroke="black" stroke-dasharray="5,2" points="1321,-30 1315,-30 "/>
<text text-anchor="middle" x="1273.5" y="-14.3" font-family="Helvetica,Arial,sans-serif" font-size="14.00">ContextMixin</text>
</g>
<!-- conv_manager&#45;&gt;mixin_conv -->
<g id="edge38" class="edge">
<title>conv_manager&#45;&gt;mixin_conv</title>
<path fill="none" stroke="black" stroke-dasharray="5,2" d="M1200.52,-18C1208.91,-18 1217.31,-18 1225.71,-18"/>
<polygon fill="none" stroke="black" points="1200.27,-14.5 1190.27,-18 1200.27,-21.5 1200.27,-14.5"/>
</g>
</g>
</svg>
