<?xml version="1.0" encoding="UTF-8" standalone="no"?>
<!DOCTYPE svg PUBLIC "-//W3C//DTD SVG 1.1//EN"
 "http://www.w3.org/Graphics/SVG/1.1/DTD/svg11.dtd">
<!-- Generated by graphviz version 2.43.0 (0)
 -->
<!-- Title: MNL Pages: 1 -->
<svg width="1944pt" height="511pt"
 viewBox="0.00 0.00 1944.40 510.89" xmlns="http://www.w3.org/2000/svg" xmlns:xlink="http://www.w3.org/1999/xlink">
<g id="graph0" class="graph" transform="scale(1 1) rotate(0) translate(4 506.89)">
<title>MNL</title>
<polygon fill="white" stroke="transparent" points="-4,4 -4,-506.89 1940.4,-506.89 1940.4,4 -4,4"/>
<g id="clust3" class="cluster">
<title>cluster_operators</title>
<polygon fill="none" stroke="black" stroke-dasharray="5,2" points="1329,-65 1329,-392 1830,-392 1830,-65 1329,-65"/>
</g>
<g id="clust6" class="cluster">
<title>cluster_stepsolv</title>
<polygon fill="none" stroke="black" stroke-dasharray="5,2" points="248,-65 248,-307 722,-307 722,-65 248,-65"/>
<text text-anchor="middle" x="485" y="-291.8" font-family="Helvetica,Arial,sans-serif" font-size="14.00">StepSolver</text>
</g>
<g id="clust9" class="cluster">
<title>cluster_iter_solv</title>
<polygon fill="none" stroke="black" stroke-dasharray="5,2" points="730,-65 730,-213 1207,-213 1207,-65 730,-65"/>
<text text-anchor="middle" x="968.5" y="-197.8" font-family="Helvetica,Arial,sans-serif" font-size="14.00">IterationSolver</text>
</g>
<!-- keywords -->
<g id="node1" class="node">
<title>keywords</title>
<ellipse fill="none" stroke="black" cx="1887" cy="-366" rx="49.29" ry="18"/>
<text text-anchor="middle" x="1887" y="-362.3" font-family="Helvetica,Arial,sans-serif" font-size="14.00">Keywords</text>
</g>
<!-- problem -->
<g id="node2" class="node">
<title>problem</title>
<ellipse fill="none" stroke="black" cx="480" cy="-366" rx="76.89" ry="18"/>
<text text-anchor="middle" x="480" y="-362.3" font-family="Helvetica,Arial,sans-serif" font-size="14.00">PhysicalProblem</text>
</g>
<!-- type -->
<g id="node3" class="node">
<title>type</title>
<ellipse fill="none" stroke="black" cx="638" cy="-366" rx="63.09" ry="18"/>
<text text-anchor="middle" x="638" y="-362.3" font-family="Helvetica,Arial,sans-serif" font-size="14.00">ProblemType</text>
</g>
<!-- state -->
<g id="node4" class="node">
<title>state</title>
<polygon fill="none" stroke="black" points="817,-384 719,-384 719,-348 817,-348 817,-384"/>
<text text-anchor="middle" x="768" y="-362.3" font-family="Helvetica,Arial,sans-serif" font-size="14.00">PhysicalState</text>
</g>
<!-- result -->
<g id="node5" class="node">
<title>result</title>
<ellipse fill="none" stroke="black" cx="871" cy="-366" rx="36" ry="18"/>
<text text-anchor="middle" x="871" y="-362.3" font-family="Helvetica,Arial,sans-serif" font-size="14.00">Result</text>
</g>
<!-- contact -->
<g id="node6" class="node">
<title>contact</title>
<polygon fill="none" stroke="black" points="987.5,-384 924.5,-384 924.5,-348 987.5,-348 987.5,-384"/>
<text text-anchor="middle" x="956" y="-362.3" font-family="Helvetica,Arial,sans-serif" font-size="14.00">Contact</text>
</g>
<!-- linsolv -->
<g id="node7" class="node">
<title>linsolv</title>
<polygon fill="none" stroke="black" points="1098,-384 1006,-384 1006,-348 1098,-348 1098,-384"/>
<text text-anchor="middle" x="1052" y="-362.3" font-family="Helvetica,Arial,sans-serif" font-size="14.00">LinearSolver</text>
</g>
<!-- context -->
<g id="node8" class="node">
<title>context</title>
<ellipse fill="none" stroke="black" cx="913" cy="-461.95" rx="40.89" ry="40.89"/>
<text text-anchor="middle" x="913" y="-458.25" font-family="Helvetica,Arial,sans-serif" font-size="14.00">Context</text>
</g>
<!-- context&#45;&gt;keywords -->
<g id="edge3" class="edge">
<title>context&#45;&gt;keywords</title>
<path fill="none" stroke="black" d="M953.98,-459.86C1109.65,-455.44 1664.03,-436.8 1834,-392 1839.92,-390.44 1845.99,-388.23 1851.81,-385.76"/>
<polygon fill="black" stroke="black" points="1853.65,-388.77 1861.3,-381.43 1850.75,-382.4 1853.65,-388.77"/>
</g>
<!-- context&#45;&gt;problem -->
<g id="edge1" class="edge">
<title>context&#45;&gt;problem</title>
<path fill="none" stroke="black" d="M872.87,-453.02C783.14,-435.29 573.5,-393.83 566,-392 555.7,-389.48 544.78,-386.53 534.31,-383.56"/>
<polygon fill="black" stroke="black" points="535.02,-380.12 524.44,-380.72 533.08,-386.85 535.02,-380.12"/>
</g>
<!-- context&#45;&gt;type -->
<g id="edge2" class="edge">
<title>context&#45;&gt;type</title>
<path fill="none" stroke="black" d="M874.43,-447.93C833.58,-434.13 767.2,-411.65 710,-392 702.26,-389.34 694.06,-386.51 686.07,-383.74"/>
<polygon fill="black" stroke="black" points="687.07,-380.38 676.47,-380.41 684.77,-387 687.07,-380.38"/>
</g>
<!-- context&#45;&gt;state -->
<g id="edge4" class="edge">
<title>context&#45;&gt;state</title>
<path fill="none" stroke="black" d="M879,-438.92C856.14,-424.11 826.09,-404.63 803.02,-389.69"/>
<polygon fill="black" stroke="black" points="804.84,-386.7 794.55,-384.2 801.03,-392.57 804.84,-386.7"/>
</g>
<!-- context&#45;&gt;result -->
<g id="edge5" class="edge">
<title>context&#45;&gt;result</title>
<path fill="none" stroke="black" d="M896.64,-424.36C891.94,-413.85 886.92,-402.6 882.57,-392.88"/>
<polygon fill="black" stroke="black" points="885.77,-391.46 878.49,-383.76 879.38,-394.31 885.77,-391.46"/>
</g>
<!-- context&#45;&gt;contact -->
<g id="edge8" class="edge">
<title>context&#45;&gt;contact</title>
<path fill="none" stroke="black" d="M929.75,-424.36C934.52,-413.92 939.63,-402.77 944.05,-393.1"/>
<polygon fill="black" stroke="black" points="947.24,-394.55 948.22,-384 940.87,-391.64 947.24,-394.55"/>
</g>
<!-- context&#45;&gt;linsolv -->
<g id="edge9" class="edge">
<title>context&#45;&gt;linsolv</title>
<path fill="none" stroke="black" d="M946.65,-438.2C968.35,-423.53 996.48,-404.52 1018.21,-389.84"/>
<polygon fill="black" stroke="black" points="1020.17,-392.73 1026.5,-384.23 1016.26,-386.93 1020.17,-392.73"/>
</g>
<!-- timestepper -->
<g id="node9" class="node">
<title>timestepper</title>
<polygon fill="none" stroke="black" points="1211.5,-384 1116.5,-384 1116.5,-348 1211.5,-348 1211.5,-384"/>
<text text-anchor="middle" x="1164" y="-362.3" font-family="Helvetica,Arial,sans-serif" font-size="14.00">TimeStepper</text>
</g>
<!-- context&#45;&gt;timestepper -->
<g id="edge6" class="edge">
<title>context&#45;&gt;timestepper</title>
<path fill="none" stroke="black" d="M951.58,-448.15C990.95,-434.87 1053.67,-413.14 1107,-392 1110.21,-390.73 1113.51,-389.38 1116.82,-388"/>
<polygon fill="black" stroke="black" points="1118.3,-391.18 1126.14,-384.06 1115.57,-384.73 1118.3,-391.18"/>
</g>
<!-- operators -->
<g id="node10" class="node">
<title>operators</title>
<polygon fill="none" stroke="black" stroke-dasharray="5,2" points="1533.5,-384 1382.5,-384 1382.5,-348 1533.5,-348 1533.5,-384"/>
<text text-anchor="middle" x="1458" y="-362.3" font-family="Helvetica,Arial,sans-serif" font-size="14.00">BaseOperators {abstr}</text>
</g>
<!-- context&#45;&gt;operators -->
<g id="edge7" class="edge">
<title>context&#45;&gt;operators</title>
<path fill="none" stroke="black" d="M953.32,-454.68C1026.01,-443.29 1184.1,-418.13 1319.85,-393.82"/>
<polygon fill="black" stroke="black" points="1320.78,-397.21 1330,-392 1319.54,-390.32 1320.78,-397.21"/>
</g>
<!-- observ -->
<g id="node16" class="node">
<title>observ</title>
<polygon fill="none" stroke="black" stroke-dasharray="5,2" points="1315,-384 1247,-384 1247,-348 1321,-348 1321,-378 1315,-384"/>
<polyline fill="none" stroke="black" stroke-dasharray="5,2" points="1315,-384 1315,-378 "/>
<polyline fill="none" stroke="black" stroke-dasharray="5,2" points="1321,-378 1315,-378 "/>
<text text-anchor="middle" x="1284" y="-362.3" font-family="Helvetica,Arial,sans-serif" font-size="14.00">Observer</text>
</g>
<!-- timestepper&#45;&gt;observ -->
<g id="edge39" class="edge">
<title>timestepper&#45;&gt;observ</title>
<path fill="none" stroke="black" stroke-dasharray="5,2" d="M1221.92,-366C1230.21,-366 1238.49,-366 1246.78,-366"/>
<polygon fill="none" stroke="black" points="1221.81,-362.5 1211.81,-366 1221.81,-369.5 1221.81,-362.5"/>
</g>
<!-- mixin_oper -->
<g id="node17" class="node">
<title>mixin_oper</title>
<polygon fill="none" stroke="black" stroke-dasharray="5,2" points="1771,-384 1569,-384 1569,-348 1777,-348 1777,-378 1771,-384"/>
<polyline fill="none" stroke="black" stroke-dasharray="5,2" points="1771,-384 1771,-378 "/>
<polyline fill="none" stroke="black" stroke-dasharray="5,2" points="1777,-378 1771,-378 "/>
<text text-anchor="middle" x="1673" y="-362.3" font-family="Helvetica,Arial,sans-serif" font-size="14.00">ContextMixin + DispatcherMixin</text>
</g>
<!-- operators&#45;&gt;mixin_oper -->
<g id="edge11" class="edge">
<title>operators&#45;&gt;mixin_oper</title>
<path fill="none" stroke="black" stroke-dasharray="5,2" d="M1543.82,-366C1552.21,-366 1560.6,-366 1568.98,-366"/>
<polygon fill="none" stroke="black" points="1543.59,-362.5 1533.59,-366 1543.59,-369.5 1543.59,-362.5"/>
</g>
<!-- statopers -->
<g id="node18" class="node">
<title>statopers</title>
<polygon fill="none" stroke="black" points="1472.5,-276 1337.5,-276 1337.5,-240 1472.5,-240 1472.5,-276"/>
<text text-anchor="middle" x="1405" y="-254.3" font-family="Helvetica,Arial,sans-serif" font-size="14.00">MecaStatOperators</text>
</g>
<!-- operators&#45;&gt;statopers -->
<g id="edge12" class="edge">
<title>operators&#45;&gt;statopers</title>
<path fill="none" stroke="black" d="M1445,-339C1435.25,-319.5 1422.18,-293.35 1413.67,-276.34"/>
<polygon fill="none" stroke="black" points="1441.88,-340.59 1449.48,-347.97 1448.14,-337.46 1441.88,-340.59"/>
</g>
<!-- theropers -->
<g id="node19" class="node">
<title>theropers</title>
<polygon fill="none" stroke="black" points="1619,-276 1491,-276 1491,-240 1619,-240 1619,-276"/>
<text text-anchor="middle" x="1555" y="-254.3" font-family="Helvetica,Arial,sans-serif" font-size="14.00">ThermalOperators</text>
</g>
<!-- operators&#45;&gt;theropers -->
<g id="edge14" class="edge">
<title>operators&#45;&gt;theropers</title>
<path fill="none" stroke="black" d="M1480.35,-340.58C1498.32,-320.94 1523.14,-293.81 1539.13,-276.34"/>
<polygon fill="none" stroke="black" points="1477.75,-338.23 1473.58,-347.97 1482.92,-342.95 1477.75,-338.23"/>
</g>
<!-- dynopers -->
<g id="node20" class="node">
<title>dynopers</title>
<polygon fill="none" stroke="black" stroke-dasharray="5,2" points="1822.5,-276 1637.5,-276 1637.5,-240 1822.5,-240 1822.5,-276"/>
<text text-anchor="middle" x="1730" y="-254.3" font-family="Helvetica,Arial,sans-serif" font-size="14.00">MecaDynaOperators {abstr}</text>
</g>
<!-- operators&#45;&gt;dynopers -->
<g id="edge13" class="edge">
<title>operators&#45;&gt;dynopers</title>
<path fill="none" stroke="black" d="M1522.62,-344.83C1554.63,-334.36 1593.68,-320.88 1628,-307 1651.04,-297.68 1676.33,-285.8 1695.96,-276.18"/>
<polygon fill="none" stroke="black" points="1521.35,-341.56 1512.92,-347.97 1523.52,-348.21 1521.35,-341.56"/>
</g>
<!-- mnl -->
<g id="node11" class="node">
<title>mnl</title>
<polygon fill="none" stroke="black" points="702,-479.95 564,-479.95 564,-443.95 702,-443.95 702,-479.95"/>
<text text-anchor="middle" x="633" y="-458.25" font-family="Helvetica,Arial,sans-serif" font-size="14.00">meca_non_line_ops</text>
</g>
<!-- mnl&#45;&gt;context -->
<g id="edge30" class="edge">
<title>mnl&#45;&gt;context</title>
<path fill="none" stroke="black" stroke-width="2" d="M702.18,-461.95C755.3,-461.95 808.43,-461.95 861.55,-461.95"/>
<polygon fill="black" stroke="black" stroke-width="2" points="861.82,-465.45 871.82,-461.95 861.82,-458.45 861.82,-465.45"/>
<text text-anchor="middle" x="764.66" y="-465.75" font-family="Helvetica,Arial,sans-serif" font-size="14.00">creates</text>
</g>
<!-- nl_operator -->
<g id="node12" class="node">
<title>nl_operator</title>
<polygon fill="none" stroke="black" points="255,-384 121,-384 121,-348 255,-348 255,-384"/>
<text text-anchor="middle" x="188" y="-362.3" font-family="Helvetica,Arial,sans-serif" font-size="14.00">NonLinearOperator</text>
</g>
<!-- mnl&#45;&gt;nl_operator -->
<g id="edge29" class="edge">
<title>mnl&#45;&gt;nl_operator</title>
<path fill="none" stroke="black" d="M563.9,-448.87C492.71,-436.09 378.66,-414.66 281,-392 273.75,-390.32 266.21,-388.47 258.71,-386.55"/>
<polygon fill="black" stroke="black" points="259.44,-383.13 248.88,-384.01 257.69,-389.9 259.44,-383.13"/>
</g>
<!-- mixin_pb -->
<g id="node13" class="node">
<title>mixin_pb</title>
<polygon fill="none" stroke="black" stroke-dasharray="5,2" points="379.5,-384 290.5,-384 290.5,-348 385.5,-348 385.5,-378 379.5,-384"/>
<polyline fill="none" stroke="black" stroke-dasharray="5,2" points="379.5,-384 379.5,-378 "/>
<polyline fill="none" stroke="black" stroke-dasharray="5,2" points="385.5,-378 379.5,-378 "/>
<text text-anchor="middle" x="338" y="-362.3" font-family="Helvetica,Arial,sans-serif" font-size="14.00">ContextMixin</text>
</g>
<!-- nl_operator&#45;&gt;mixin_pb -->
<g id="edge10" class="edge">
<title>nl_operator&#45;&gt;mixin_pb</title>
<path fill="none" stroke="black" stroke-dasharray="5,2" d="M265.29,-366C273.66,-366 282.03,-366 290.39,-366"/>
<polygon fill="none" stroke="black" points="265.09,-362.5 255.09,-366 265.09,-369.5 265.09,-362.5"/>
</g>
<!-- storage -->
<g id="node14" class="node">
<title>storage</title>
<polygon fill="none" stroke="black" points="118,-276 0,-276 0,-240 118,-240 118,-276"/>
<text text-anchor="middle" x="59" y="-254.3" font-family="Helvetica,Arial,sans-serif" font-size="14.00">StorageManager</text>
</g>
<!-- nl_operator&#45;&gt;storage -->
<g id="edge31" class="edge">
<title>nl_operator&#45;&gt;storage</title>
<path fill="none" stroke="black" d="M167.27,-347.97C145.77,-330.3 111.99,-302.54 87.88,-282.73"/>
<polygon fill="black" stroke="black" points="90.05,-279.99 80.1,-276.34 85.61,-285.39 90.05,-279.99"/>
</g>
<!-- hook -->
<g id="node15" class="node">
<title>hook</title>
<polygon fill="none" stroke="black" points="239.5,-276 136.5,-276 136.5,-240 239.5,-240 239.5,-276"/>
<text text-anchor="middle" x="188" y="-254.3" font-family="Helvetica,Arial,sans-serif" font-size="14.00">PostStepHook</text>
</g>
<!-- nl_operator&#45;&gt;hook -->
<g id="edge33" class="edge">
<title>nl_operator&#45;&gt;hook</title>
<path fill="none" stroke="black" stroke-dasharray="5,2" d="M188,-347.97C188,-331.38 188,-305.88 188,-286.43"/>
<polygon fill="black" stroke="black" points="191.5,-286.34 188,-276.34 184.5,-286.34 191.5,-286.34"/>
<text text-anchor="middle" x="201.5" y="-318.8" font-family="Helvetica,Arial,sans-serif" font-size="14.00">todo</text>
</g>
<!-- stepsolv -->
<g id="node26" class="node">
<title>stepsolv</title>
<polygon fill="none" stroke="black" stroke-dasharray="5,2" points="470,-276 314,-276 314,-240 470,-240 470,-276"/>
<text text-anchor="middle" x="392" y="-254.3" font-family="Helvetica,Arial,sans-serif" font-size="14.00">BaseStepSolver {abstr}</text>
</g>
<!-- nl_operator&#45;&gt;stepsolv -->
<g id="edge32" class="edge">
<title>nl_operator&#45;&gt;stepsolv</title>
<path fill="none" stroke="black" stroke-width="2" d="M220.78,-347.97C239.97,-338 265.35,-324.81 290.68,-311.65"/>
<polygon fill="black" stroke="black" stroke-width="2" points="292.36,-314.72 299.62,-307 289.14,-308.5 292.36,-314.72"/>
<text text-anchor="middle" x="317.2" y="-331.28" font-family="Helvetica,Arial,sans-serif" font-size="14.00">loops on timesteps</text>
</g>
<!-- integr -->
<g id="node21" class="node">
<title>integr</title>
<polygon fill="none" stroke="black" points="1782.5,-182 1677.5,-182 1677.5,-146 1782.5,-146 1782.5,-182"/>
<text text-anchor="middle" x="1730" y="-160.3" font-family="Helvetica,Arial,sans-serif" font-size="14.00">BaseIntegrator</text>
</g>
<!-- dynopers&#45;&gt;integr -->
<g id="edge15" class="edge">
<title>dynopers&#45;&gt;integr</title>
<path fill="none" stroke="black" d="M1730,-229.69C1730,-214.31 1730,-195.57 1730,-182.23"/>
<polygon fill="none" stroke="black" points="1726.5,-229.7 1730,-239.7 1733.5,-229.7 1726.5,-229.7"/>
</g>
<!-- newmark -->
<g id="node22" class="node">
<title>newmark</title>
<polygon fill="none" stroke="black" points="1796,-109 1664,-109 1664,-73 1796,-73 1796,-109"/>
<text text-anchor="middle" x="1730" y="-87.3" font-family="Helvetica,Arial,sans-serif" font-size="14.00">NewmarkIntegrator</text>
</g>
<!-- integr&#45;&gt;newmark -->
<g id="edge16" class="edge">
<title>integr&#45;&gt;newmark</title>
<path fill="none" stroke="black" d="M1730,-135.75C1730,-126.77 1730,-117.03 1730,-109.03"/>
<polygon fill="none" stroke="black" points="1726.5,-135.81 1730,-145.81 1733.5,-135.81 1726.5,-135.81"/>
</g>
<!-- mecastat -->
<g id="node23" class="node">
<title>mecastat</title>
<polygon fill="none" stroke="black" points="396,-182 256,-182 256,-146 396,-146 396,-182"/>
<text text-anchor="middle" x="326" y="-160.3" font-family="Helvetica,Arial,sans-serif" font-size="14.00">MecaStatStepSolver</text>
</g>
<!-- mecadyn -->
<g id="node24" class="node">
<title>mecadyn</title>
<polygon fill="none" stroke="black" points="562,-182 414,-182 414,-146 562,-146 562,-182"/>
<text text-anchor="middle" x="488" y="-160.3" font-family="Helvetica,Arial,sans-serif" font-size="14.00">MecaDynaStepSolver</text>
</g>
<!-- implicit -->
<g id="node28" class="node">
<title>implicit</title>
<polygon fill="none" stroke="black" points="407.5,-109 282.5,-109 282.5,-73 407.5,-73 407.5,-109"/>
<text text-anchor="middle" x="345" y="-87.3" font-family="Helvetica,Arial,sans-serif" font-size="14.00">ImplicitStepSolver</text>
</g>
<!-- mecadyn&#45;&gt;implicit -->
<g id="edge21" class="edge">
<title>mecadyn&#45;&gt;implicit</title>
<path fill="none" stroke="black" d="M444.75,-141.52C423.84,-131.14 399.08,-118.85 379.47,-109.11"/>
<polygon fill="none" stroke="black" points="443.23,-144.68 453.75,-145.99 446.35,-138.41 443.23,-144.68"/>
</g>
<!-- explicit -->
<g id="node29" class="node">
<title>explicit</title>
<polygon fill="none" stroke="black" points="550.5,-109 425.5,-109 425.5,-73 550.5,-73 550.5,-109"/>
<text text-anchor="middle" x="488" y="-87.3" font-family="Helvetica,Arial,sans-serif" font-size="14.00">ExplicitStepSolver</text>
</g>
<!-- mecadyn&#45;&gt;explicit -->
<g id="edge22" class="edge">
<title>mecadyn&#45;&gt;explicit</title>
<path fill="none" stroke="black" d="M488,-135.75C488,-126.77 488,-117.03 488,-109.03"/>
<polygon fill="none" stroke="black" points="484.5,-135.81 488,-145.81 491.5,-135.81 484.5,-135.81"/>
</g>
<!-- multi -->
<g id="node30" class="node">
<title>multi</title>
<polygon fill="none" stroke="black" points="681,-109 569,-109 569,-73 681,-73 681,-109"/>
<text text-anchor="middle" x="625" y="-87.3" font-family="Helvetica,Arial,sans-serif" font-size="14.00">MultiStepSolver</text>
</g>
<!-- mecadyn&#45;&gt;multi -->
<g id="edge23" class="edge">
<title>mecadyn&#45;&gt;multi</title>
<path fill="none" stroke="black" d="M529.71,-141.38C549.69,-131.03 573.27,-118.81 591.98,-109.11"/>
<polygon fill="none" stroke="black" points="528.08,-138.28 520.81,-145.99 531.3,-144.5 528.08,-138.28"/>
</g>
<!-- ther -->
<g id="node25" class="node">
<title>ther</title>
<polygon fill="none" stroke="black" points="713.5,-182 580.5,-182 580.5,-146 713.5,-146 713.5,-182"/>
<text text-anchor="middle" x="647" y="-160.3" font-family="Helvetica,Arial,sans-serif" font-size="14.00">ThermalStepSolver</text>
</g>
<!-- stepsolv&#45;&gt;mecastat -->
<g id="edge18" class="edge">
<title>stepsolv&#45;&gt;mecastat</title>
<path fill="none" stroke="black" d="M373.67,-231.45C362.41,-215.76 348.3,-196.08 338.36,-182.23"/>
<polygon fill="none" stroke="black" points="370.91,-233.61 379.59,-239.7 376.6,-229.53 370.91,-233.61"/>
</g>
<!-- stepsolv&#45;&gt;mecadyn -->
<g id="edge19" class="edge">
<title>stepsolv&#45;&gt;mecadyn</title>
<path fill="none" stroke="black" d="M417.31,-232.75C433.89,-216.86 455.16,-196.47 470.02,-182.23"/>
<polygon fill="none" stroke="black" points="414.86,-230.25 410.06,-239.7 419.7,-235.3 414.86,-230.25"/>
</g>
<!-- stepsolv&#45;&gt;ther -->
<g id="edge20" class="edge">
<title>stepsolv&#45;&gt;ther</title>
<path fill="none" stroke="black" d="M480.29,-241.23C509.8,-234.42 542.43,-225.15 571,-213 589.96,-204.94 609.57,-192.43 624.12,-182.2"/>
<polygon fill="none" stroke="black" points="479.41,-237.84 470.42,-243.45 480.94,-244.67 479.41,-237.84"/>
</g>
<!-- mixin_step -->
<g id="node27" class="node">
<title>mixin_step</title>
<polygon fill="none" stroke="black" stroke-dasharray="5,2" points="708,-276 506,-276 506,-240 714,-240 714,-270 708,-276"/>
<polyline fill="none" stroke="black" stroke-dasharray="5,2" points="708,-276 708,-270 "/>
<polyline fill="none" stroke="black" stroke-dasharray="5,2" points="714,-270 708,-270 "/>
<text text-anchor="middle" x="610" y="-254.3" font-family="Helvetica,Arial,sans-serif" font-size="14.00">ContextMixin + DispatcherMixin</text>
</g>
<!-- stepsolv&#45;&gt;mixin_step -->
<g id="edge17" class="edge">
<title>stepsolv&#45;&gt;mixin_step</title>
<path fill="none" stroke="black" stroke-dasharray="5,2" d="M480.59,-258C489,-258 497.4,-258 505.8,-258"/>
<polygon fill="none" stroke="black" points="480.34,-254.5 470.34,-258 480.34,-261.5 480.34,-254.5"/>
</g>
<!-- iter_solver -->
<g id="node31" class="node">
<title>iter_solver</title>
<polygon fill="none" stroke="black" stroke-dasharray="5,2" points="934.5,-182 757.5,-182 757.5,-146 934.5,-146 934.5,-182"/>
<text text-anchor="middle" x="846" y="-160.3" font-family="Helvetica,Arial,sans-serif" font-size="14.00">BaseIterationSolver {abstr}</text>
</g>
<!-- stepsolv&#45;&gt;iter_solver -->
<g id="edge34" class="edge">
<title>stepsolv&#45;&gt;iter_solver</title>
<path fill="none" stroke="black" d="M722,-214.38C724,-213.77 726,-213.16 728,-212.56"/>
<polygon fill="black" stroke="black" points="721.45,-218.2 730,-211.95 719.42,-211.5 721.45,-218.2"/>
</g>
<!-- mixin_iter -->
<g id="node32" class="node">
<title>mixin_iter</title>
<polygon fill="none" stroke="black" stroke-dasharray="5,2" points="1172,-182 970,-182 970,-146 1178,-146 1178,-176 1172,-182"/>
<polyline fill="none" stroke="black" stroke-dasharray="5,2" points="1172,-182 1172,-176 "/>
<polyline fill="none" stroke="black" stroke-dasharray="5,2" points="1178,-176 1172,-176 "/>
<text text-anchor="middle" x="1074" y="-160.3" font-family="Helvetica,Arial,sans-serif" font-size="14.00">ContextMixin + DispatcherMixin</text>
</g>
<!-- iter_solver&#45;&gt;mixin_iter -->
<g id="edge24" class="edge">
<title>iter_solver&#45;&gt;mixin_iter</title>
<path fill="none" stroke="black" stroke-dasharray="5,2" d="M944.77,-164C953.09,-164 961.41,-164 969.74,-164"/>
<polygon fill="none" stroke="black" points="944.62,-160.5 934.62,-164 944.62,-167.5 944.62,-160.5"/>
</g>
<!-- newton -->
<g id="node33" class="node">
<title>newton</title>
<polygon fill="none" stroke="black" points="839.5,-109 738.5,-109 738.5,-73 839.5,-73 839.5,-109"/>
<text text-anchor="middle" x="789" y="-87.3" font-family="Helvetica,Arial,sans-serif" font-size="14.00">NewtonSolver</text>
</g>
<!-- iter_solver&#45;&gt;newton -->
<g id="edge26" class="edge">
<title>iter_solver&#45;&gt;newton</title>
<path fill="none" stroke="black" d="M825.76,-137.79C818.11,-128.26 809.58,-117.64 802.67,-109.03"/>
<polygon fill="none" stroke="black" points="823.21,-140.21 832.2,-145.81 828.67,-135.82 823.21,-140.21"/>
</g>
<!-- snes -->
<g id="node35" class="node">
<title>snes</title>
<polygon fill="none" stroke="black" points="1079,-109 987,-109 987,-73 1079,-73 1079,-109"/>
<text text-anchor="middle" x="1033" y="-87.3" font-family="Helvetica,Arial,sans-serif" font-size="14.00">SNESSolver</text>
</g>
<!-- iter_solver&#45;&gt;snes -->
<g id="edge27" class="edge">
<title>iter_solver&#45;&gt;snes</title>
<path fill="none" stroke="black" d="M900.37,-142.36C928.16,-131.81 961.59,-119.11 987.93,-109.11"/>
<polygon fill="none" stroke="black" points="898.9,-139.17 890.79,-145.99 901.38,-145.72 898.9,-139.17"/>
</g>
<!-- raspen -->
<g id="node36" class="node">
<title>raspen</title>
<polygon fill="none" stroke="black" points="1198.5,-109 1097.5,-109 1097.5,-73 1198.5,-73 1198.5,-109"/>
<text text-anchor="middle" x="1148" y="-87.3" font-family="Helvetica,Arial,sans-serif" font-size="14.00">RaspenSolver</text>
</g>
<!-- iter_solver&#45;&gt;raspen -->
<g id="edge28" class="edge">
<title>iter_solver&#45;&gt;raspen</title>
<path fill="none" stroke="black" d="M937.59,-143.84C982.98,-134.02 1038.53,-121.52 1088,-109 1091.04,-108.23 1094.17,-107.42 1097.32,-106.58"/>
<polygon fill="none" stroke="black" points="936.81,-140.43 927.77,-145.96 938.28,-147.27 936.81,-140.43"/>
</g>
<!-- event -->
<g id="node34" class="node">
<title>event</title>
<polygon fill="none" stroke="black" stroke-dasharray="5,2" points="963,-109 875,-109 875,-73 969,-73 969,-103 963,-109"/>
<polyline fill="none" stroke="black" stroke-dasharray="5,2" points="963,-109 963,-103 "/>
<polyline fill="none" stroke="black" stroke-dasharray="5,2" points="969,-103 963,-103 "/>
<text text-anchor="middle" x="922" y="-87.3" font-family="Helvetica,Arial,sans-serif" font-size="14.00">EventSource</text>
</g>
<!-- newton&#45;&gt;event -->
<g id="edge25" class="edge">
<title>newton&#45;&gt;event</title>
<path fill="none" stroke="black" stroke-dasharray="5,2" d="M849.79,-91C858.1,-91 866.41,-91 874.72,-91"/>
<polygon fill="none" stroke="black" points="849.65,-87.5 839.65,-91 849.65,-94.5 849.65,-87.5"/>
</g>
<!-- linesearch -->
<g id="node37" class="node">
<title>linesearch</title>
<polygon fill="none" stroke="black" points="667.5,-36 582.5,-36 582.5,0 667.5,0 667.5,-36"/>
<text text-anchor="middle" x="625" y="-14.3" font-family="Helvetica,Arial,sans-serif" font-size="14.00">LineSearch</text>
</g>
<!-- newton&#45;&gt;linesearch -->
<g id="edge35" class="edge">
<title>newton&#45;&gt;linesearch</title>
<path fill="none" stroke="black" d="M749.72,-72.99C726.96,-63.14 698.12,-50.66 673.9,-40.17"/>
<polygon fill="black" stroke="black" points="675.1,-36.87 664.53,-36.11 672.32,-43.3 675.1,-36.87"/>
</g>
<!-- conv_manager -->
<g id="node38" class="node">
<title>conv_manager</title>
<polygon fill="none" stroke="black" points="967.5,-36 816.5,-36 816.5,0 967.5,0 967.5,-36"/>
<text text-anchor="middle" x="892" y="-14.3" font-family="Helvetica,Arial,sans-serif" font-size="14.00">ConvergenceManager</text>
</g>
<!-- newton&#45;&gt;conv_manager -->
<g id="edge36" class="edge">
<title>newton&#45;&gt;conv_manager</title>
<path fill="none" stroke="black" d="M813.67,-72.99C827.2,-63.67 844.16,-51.97 858.84,-41.86"/>
<polygon fill="black" stroke="black" points="860.93,-44.67 867.17,-36.11 856.95,-38.91 860.93,-44.67"/>
</g>
<!-- mixin_line -->
<g id="node39" class="node">
<title>mixin_line</title>
<polygon fill="none" stroke="black" stroke-dasharray="5,2" points="792.5,-36 703.5,-36 703.5,0 798.5,0 798.5,-30 792.5,-36"/>
<polyline fill="none" stroke="black" stroke-dasharray="5,2" points="792.5,-36 792.5,-30 "/>
<polyline fill="none" stroke="black" stroke-dasharray="5,2" points="798.5,-30 792.5,-30 "/>
<text text-anchor="middle" x="751" y="-14.3" font-family="Helvetica,Arial,sans-serif" font-size="14.00">ContextMixin</text>
</g>
<!-- linesearch&#45;&gt;mixin_line -->
<g id="edge37" class="edge">
<title>linesearch&#45;&gt;mixin_line</title>
<path fill="none" stroke="black" stroke-dasharray="5,2" d="M678.06,-18C686.45,-18 694.84,-18 703.24,-18"/>
<polygon fill="none" stroke="black" points="677.82,-14.5 667.82,-18 677.82,-21.5 677.82,-14.5"/>
</g>
<!-- mixin_conv -->
<g id="node40" class="node">
<title>mixin_conv</title>
<polygon fill="none" stroke="black" stroke-dasharray="5,2" points="1092.5,-36 1003.5,-36 1003.5,0 1098.5,0 1098.5,-30 1092.5,-36"/>
<polyline fill="none" stroke="black" stroke-dasharray="5,2" points="1092.5,-36 1092.5,-30 "/>
<polyline fill="none" stroke="black" stroke-dasharray="5,2" points="1098.5,-30 1092.5,-30 "/>
<text text-anchor="middle" x="1051" y="-14.3" font-family="Helvetica,Arial,sans-serif" font-size="14.00">ContextMixin</text>
</g>
<!-- conv_manager&#45;&gt;mixin_conv -->
<g id="edge38" class="edge">
<title>conv_manager&#45;&gt;mixin_conv</title>
<path fill="none" stroke="black" stroke-dasharray="5,2" d="M978.02,-18C986.41,-18 994.81,-18 1003.21,-18"/>
<polygon fill="none" stroke="black" points="977.77,-14.5 967.77,-18 977.77,-21.5 977.77,-14.5"/>
</g>
</g>
</svg>
