<?xml version="1.0" encoding="UTF-8" standalone="no"?>
<!DOCTYPE svg PUBLIC "-//W3C//DTD SVG 1.1//EN"
 "http://www.w3.org/Graphics/SVG/1.1/DTD/svg11.dtd">
<!-- Generated by graphviz version 2.43.0 (0)
 -->
<!-- Title: MNL Pages: 1 -->
<svg width="2780pt" height="778pt"
 viewBox="0.00 0.00 2780.48 777.68" xmlns="http://www.w3.org/2000/svg" xmlns:xlink="http://www.w3.org/1999/xlink">
<g id="graph0" class="graph" transform="scale(1 1) rotate(0) translate(4 773.68)">
<title>MNL</title>
<polygon fill="white" stroke="transparent" points="-4,4 -4,-773.68 2776.48,-773.68 2776.48,4 -4,4"/>
<g id="clust2" class="cluster">
<title>cluster_operators</title>
<polygon fill="none" stroke="black" stroke-dasharray="5,2" points="1466.4,-8 1466.4,-357.59 2074.4,-357.59 2074.4,-8 1466.4,-8"/>
</g>
<g id="clust4" class="cluster">
<title>cluster_stepsolv</title>
<polygon fill="none" stroke="black" stroke-dasharray="5,2" points="738.4,-180.2 738.4,-479.78 1318.4,-479.78 1318.4,-180.2 738.4,-180.2"/>
<text text-anchor="middle" x="1028.4" y="-464.58" font-family="Helvetica,Arial,sans-serif" font-size="14.00">StepSolver</text>
</g>
<g id="clust6" class="cluster">
<title>cluster_iter_solv</title>
<polygon fill="none" stroke="black" stroke-dasharray="5,2" points="2009.4,-521.73 2009.4,-706.68 2357.4,-706.68 2357.4,-521.73 2009.4,-521.73"/>
<text text-anchor="middle" x="2183.4" y="-691.48" font-family="Helvetica,Arial,sans-serif" font-size="14.00">ConvergenceCriteria</text>
</g>
<!-- keywords -->
<g id="node1" class="node">
<title>keywords</title>
<ellipse fill="none" stroke="black" cx="49.4" cy="-430.78" rx="49.29" ry="18"/>
<text text-anchor="middle" x="49.4" y="-427.08" font-family="Helvetica,Arial,sans-serif" font-size="14.00">Keywords</text>
</g>
<!-- problem -->
<g id="node2" class="node">
<title>problem</title>
<ellipse fill="none" stroke="black" cx="193.4" cy="-430.78" rx="76.89" ry="18"/>
<text text-anchor="middle" x="193.4" y="-427.08" font-family="Helvetica,Arial,sans-serif" font-size="14.00">PhysicalProblem</text>
</g>
<!-- type -->
<g id="node3" class="node">
<title>type</title>
<ellipse fill="none" stroke="black" cx="496.4" cy="-430.78" rx="63.09" ry="18"/>
<text text-anchor="middle" x="496.4" y="-427.08" font-family="Helvetica,Arial,sans-serif" font-size="14.00">ProblemType</text>
</g>
<!-- state -->
<g id="node4" class="node">
<title>state</title>
<ellipse fill="none" stroke="black" cx="351.4" cy="-430.78" rx="63.89" ry="18"/>
<text text-anchor="middle" x="351.4" y="-427.08" font-family="Helvetica,Arial,sans-serif" font-size="14.00">PhysicalState</text>
</g>
<!-- result -->
<g id="node5" class="node">
<title>result</title>
<ellipse fill="none" stroke="black" cx="613.4" cy="-430.78" rx="36" ry="18"/>
<text text-anchor="middle" x="613.4" y="-427.08" font-family="Helvetica,Arial,sans-serif" font-size="14.00">Result</text>
</g>
<!-- contact -->
<g id="node6" class="node">
<title>contact</title>
<polygon fill="none" stroke="black" points="729.9,-448.78 666.9,-448.78 666.9,-412.78 729.9,-412.78 729.9,-448.78"/>
<text text-anchor="middle" x="698.4" y="-427.08" font-family="Helvetica,Arial,sans-serif" font-size="14.00">Contact</text>
</g>
<!-- linsolv -->
<g id="node7" class="node">
<title>linsolv</title>
<polygon fill="none" stroke="black" points="1458.4,-349.59 1366.4,-349.59 1366.4,-313.59 1458.4,-313.59 1458.4,-349.59"/>
<text text-anchor="middle" x="1412.4" y="-327.89" font-family="Helvetica,Arial,sans-serif" font-size="14.00">LinearSolver</text>
</g>
<!-- context -->
<g id="node8" class="node">
<title>context</title>
<ellipse fill="none" stroke="black" cx="613.4" cy="-547.73" rx="40.89" ry="40.89"/>
<text text-anchor="middle" x="613.4" y="-544.03" font-family="Helvetica,Arial,sans-serif" font-size="14.00">Context</text>
</g>
<!-- context&#45;&gt;keywords -->
<g id="edge3" class="edge">
<title>context&#45;&gt;keywords</title>
<path fill="none" stroke="black" d="M572.22,-544.22C467.05,-537.34 190.95,-516.24 107.4,-479.78 94.35,-474.09 81.91,-464.56 71.92,-455.48"/>
<polygon fill="black" stroke="black" points="74.12,-452.74 64.47,-448.38 69.29,-457.81 74.12,-452.74"/>
</g>
<!-- context&#45;&gt;problem -->
<g id="edge1" class="edge">
<title>context&#45;&gt;problem</title>
<path fill="none" stroke="black" d="M573.29,-538.43C517.04,-526.84 411.51,-505.26 321.4,-487.78 302.31,-484.08 296.66,-486.43 278.4,-479.78 260.16,-473.15 241.23,-462.84 225.87,-453.48"/>
<polygon fill="black" stroke="black" points="227.61,-450.44 217.28,-448.11 223.9,-456.38 227.61,-450.44"/>
</g>
<!-- context&#45;&gt;type -->
<g id="edge2" class="edge">
<title>context&#45;&gt;type</title>
<path fill="none" stroke="black" d="M584.47,-518.32C564.82,-499 539.11,-473.75 520.55,-455.51"/>
<polygon fill="black" stroke="black" points="522.66,-452.68 513.07,-448.17 517.75,-457.67 522.66,-452.68"/>
</g>
<!-- context&#45;&gt;state -->
<g id="edge4" class="edge">
<title>context&#45;&gt;state</title>
<path fill="none" stroke="black" d="M573.9,-535.79C534.87,-524.27 473.96,-504.41 424.4,-479.78 409.61,-472.44 394.19,-462.66 381.36,-453.84"/>
<polygon fill="black" stroke="black" points="383.13,-450.81 372.93,-447.94 379.11,-456.54 383.13,-450.81"/>
</g>
<!-- context&#45;&gt;result -->
<g id="edge5" class="edge">
<title>context&#45;&gt;result</title>
<path fill="none" stroke="black" d="M613.4,-506.53C613.4,-490.84 613.4,-473.27 613.4,-459.1"/>
<polygon fill="black" stroke="black" points="616.9,-459.02 613.4,-449.02 609.9,-459.02 616.9,-459.02"/>
</g>
<!-- context&#45;&gt;contact -->
<g id="edge7" class="edge">
<title>context&#45;&gt;contact</title>
<path fill="none" stroke="black" d="M637.3,-514.41C650.68,-496.31 667.12,-474.07 679.58,-457.23"/>
<polygon fill="black" stroke="black" points="682.56,-459.08 685.69,-448.96 676.93,-454.92 682.56,-459.08"/>
</g>
<!-- context&#45;&gt;linsolv -->
<g id="edge8" class="edge">
<title>context&#45;&gt;linsolv</title>
<path fill="none" stroke="black" d="M653.18,-536.6C691.8,-527.2 752.21,-513.66 805.4,-506.78 862.44,-499.4 1272.97,-509.22 1322.4,-479.78 1367.18,-453.12 1392.66,-394.7 1404.39,-360.01"/>
<polygon fill="black" stroke="black" points="1407.86,-360.66 1407.6,-350.07 1401.2,-358.51 1407.86,-360.66"/>
</g>
<!-- operators -->
<g id="node9" class="node">
<title>operators</title>
<polygon fill="none" stroke="black" stroke-dasharray="5,2" points="2033.4,-349.59 1913.4,-349.59 1913.4,-313.59 2033.4,-313.59 2033.4,-349.59"/>
<text text-anchor="middle" x="1973.4" y="-327.89" font-family="Helvetica,Arial,sans-serif" font-size="14.00">Operators {abstr}</text>
</g>
<!-- context&#45;&gt;operators -->
<g id="edge6" class="edge">
<title>context&#45;&gt;operators</title>
<path fill="none" stroke="black" d="M652.79,-536.49C691.37,-526.95 751.99,-513.25 805.4,-506.78 1052.77,-476.83 1120.98,-528.25 1365.4,-479.78 1544.39,-444.29 1750.34,-391.98 1870.76,-360.22"/>
<polygon fill="black" stroke="black" points="1871.93,-363.53 1880.71,-357.59 1870.14,-356.76 1871.93,-363.53"/>
</g>
<!-- problem_old -->
<g id="node10" class="node">
<title>problem_old</title>
<ellipse fill="none" stroke="black" cx="2176.4" cy="-206.2" rx="76.89" ry="18"/>
<text text-anchor="middle" x="2176.4" y="-202.5" font-family="Helvetica,Arial,sans-serif" font-size="14.00">PhysicalProblem</text>
</g>
<!-- operators&#45;&gt;problem_old -->
<g id="edge59" class="edge">
<title>operators&#45;&gt;problem_old</title>
<path fill="none" stroke="black" stroke-dasharray="1,5" d="M2001.62,-313.43C2038.11,-291.25 2101.64,-252.63 2141.23,-228.57"/>
<polygon fill="black" stroke="black" points="2143.29,-231.41 2150.02,-223.23 2139.66,-225.43 2143.29,-231.41"/>
</g>
<!-- state_old -->
<g id="node11" class="node">
<title>state_old</title>
<ellipse fill="none" stroke="black" cx="2348.4" cy="-206.2" rx="63.89" ry="18"/>
<text text-anchor="middle" x="2348.4" y="-202.5" font-family="Helvetica,Arial,sans-serif" font-size="14.00">PhysicalState</text>
</g>
<!-- operators&#45;&gt;state_old -->
<g id="edge60" class="edge">
<title>operators&#45;&gt;state_old</title>
<path fill="none" stroke="black" stroke-dasharray="1,5" d="M2021.94,-313.58C2061.54,-300.11 2119.13,-281.46 2170.4,-268.39 2210.77,-258.1 2222.97,-263.87 2262.4,-250.39 2279.68,-244.49 2297.88,-235.75 2313.07,-227.67"/>
<polygon fill="black" stroke="black" points="2314.99,-230.61 2322.1,-222.76 2311.64,-224.46 2314.99,-230.61"/>
</g>
<!-- dispatch -->
<g id="node22" class="node">
<title>dispatch</title>
<polygon fill="none" stroke="black" stroke-dasharray="5,2" points="1450.9,-224.2 1327.9,-224.2 1327.9,-188.2 1456.9,-188.2 1456.9,-218.2 1450.9,-224.2"/>
<polyline fill="none" stroke="black" stroke-dasharray="5,2" points="1450.9,-224.2 1450.9,-218.2 "/>
<polyline fill="none" stroke="black" stroke-dasharray="5,2" points="1456.9,-218.2 1450.9,-218.2 "/>
<text text-anchor="middle" x="1392.4" y="-202.5" font-family="Helvetica,Arial,sans-serif" font-size="14.00">ProblemTypeMixin</text>
</g>
<!-- operators&#45;&gt;dispatch -->
<g id="edge58" class="edge">
<title>operators&#45;&gt;dispatch</title>
<path fill="none" stroke="black" d="M1903.19,-328.31C1802.62,-323.12 1613.04,-306.11 1462.4,-250.39 1445.39,-244.1 1428.03,-233.42 1414.85,-224.25"/>
<polygon fill="none" stroke="black" points="1903.08,-331.81 1913.24,-328.8 1903.42,-324.82 1903.08,-331.81"/>
<text text-anchor="middle" x="1638.52" y="-305.24" font-family="Helvetica,Arial,sans-serif" font-size="14.00">factory</text>
</g>
<!-- statopers -->
<g id="node23" class="node">
<title>statopers</title>
<polygon fill="none" stroke="black" points="1609.9,-224.2 1474.9,-224.2 1474.9,-188.2 1609.9,-188.2 1609.9,-224.2"/>
<text text-anchor="middle" x="1542.4" y="-202.5" font-family="Helvetica,Arial,sans-serif" font-size="14.00">MecaStatOperators</text>
</g>
<!-- operators&#45;&gt;statopers -->
<g id="edge10" class="edge">
<title>operators&#45;&gt;statopers</title>
<path fill="none" stroke="black" d="M1903.33,-320.83C1830.62,-309.31 1714.47,-286.94 1619.4,-250.39 1601.65,-243.57 1583.03,-233.22 1568.55,-224.37"/>
<polygon fill="none" stroke="black" points="1902.87,-324.3 1913.29,-322.39 1903.95,-317.39 1902.87,-324.3"/>
</g>
<!-- theropers -->
<g id="node24" class="node">
<title>theropers</title>
<polygon fill="none" stroke="black" points="1756.4,-224.2 1628.4,-224.2 1628.4,-188.2 1756.4,-188.2 1756.4,-224.2"/>
<text text-anchor="middle" x="1692.4" y="-202.5" font-family="Helvetica,Arial,sans-serif" font-size="14.00">ThermalOperators</text>
</g>
<!-- operators&#45;&gt;theropers -->
<g id="edge12" class="edge">
<title>operators&#45;&gt;theropers</title>
<path fill="none" stroke="black" d="M1913.17,-310.12C1871.29,-295.2 1814.55,-273.59 1766.4,-250.39 1750.31,-242.64 1733.05,-232.67 1719.24,-224.26"/>
<polygon fill="none" stroke="black" points="1912.08,-313.45 1922.68,-313.48 1914.42,-306.85 1912.08,-313.45"/>
</g>
<!-- dynopers -->
<g id="node25" class="node">
<title>dynopers</title>
<polygon fill="none" stroke="black" stroke-dasharray="5,2" points="1959.9,-224.2 1774.9,-224.2 1774.9,-188.2 1959.9,-188.2 1959.9,-224.2"/>
<text text-anchor="middle" x="1867.4" y="-202.5" font-family="Helvetica,Arial,sans-serif" font-size="14.00">MecaDynaOperators {abstr}</text>
</g>
<!-- operators&#45;&gt;dynopers -->
<g id="edge11" class="edge">
<title>operators&#45;&gt;dynopers</title>
<path fill="none" stroke="black" d="M1952.03,-305.71C1931.22,-281.49 1900.14,-245.32 1882.01,-224.21"/>
<polygon fill="none" stroke="black" points="1949.49,-308.13 1958.66,-313.43 1954.8,-303.56 1949.49,-308.13"/>
</g>
<!-- context_op -->
<g id="node28" class="node">
<title>context_op</title>
<ellipse fill="none" stroke="black" stroke-dasharray="1,5" cx="2022.4" cy="-206.2" rx="44.39" ry="44.39"/>
<text text-anchor="middle" x="2022.4" y="-202.5" font-family="Helvetica,Arial,sans-serif" font-size="14.00">*Context</text>
</g>
<!-- operators&#45;&gt;context_op -->
<g id="edge9" class="edge">
<title>operators&#45;&gt;context_op</title>
<path fill="none" stroke="black" d="M1983.99,-303.91C1990.52,-287.47 1999.01,-266.08 2006.35,-247.6"/>
<polygon fill="none" stroke="black" points="1980.65,-302.85 1980.21,-313.43 1987.15,-305.43 1980.65,-302.85"/>
<text text-anchor="middle" x="1976.75" y="-284.4" font-family="Helvetica,Arial,sans-serif" font-size="14.00">mixin</text>
</g>
<!-- mnl -->
<g id="node12" class="node">
<title>mnl</title>
<polygon fill="none" stroke="black" points="262.4,-769.68 124.4,-769.68 124.4,-733.68 262.4,-733.68 262.4,-769.68"/>
<text text-anchor="middle" x="193.4" y="-747.98" font-family="Helvetica,Arial,sans-serif" font-size="14.00">meca_non_line_ops</text>
</g>
<!-- mnl&#45;&gt;keywords -->
<g id="edge29" class="edge">
<title>mnl&#45;&gt;keywords</title>
<path fill="none" stroke="black" stroke-width="2" d="M185.65,-733.53C161.86,-680.85 89.72,-521.09 61.19,-457.91"/>
<polygon fill="black" stroke="black" stroke-width="2" points="64.31,-456.3 57,-448.63 57.93,-459.18 64.31,-456.3"/>
<text text-anchor="middle" x="98.95" y="-595.16" font-family="Helvetica,Arial,sans-serif" font-size="14.00">creates</text>
</g>
<!-- mnl&#45;&gt;problem -->
<g id="edge30" class="edge">
<title>mnl&#45;&gt;problem</title>
<path fill="none" stroke="black" stroke-width="2" d="M193.4,-733.53C193.4,-681.19 193.4,-523.14 193.4,-459.14"/>
<polygon fill="black" stroke="black" stroke-width="2" points="196.9,-459.01 193.4,-449.01 189.9,-459.01 196.9,-459.01"/>
<text text-anchor="middle" x="170.9" y="-595" font-family="Helvetica,Arial,sans-serif" font-size="14.00">creates</text>
</g>
<!-- pbsolv -->
<g id="node13" class="node">
<title>pbsolv</title>
<polygon fill="none" stroke="black" points="882.4,-675.68 776.4,-675.68 776.4,-639.68 882.4,-639.68 882.4,-675.68"/>
<text text-anchor="middle" x="829.4" y="-653.98" font-family="Helvetica,Arial,sans-serif" font-size="14.00">ProblemSolver</text>
</g>
<!-- mnl&#45;&gt;pbsolv -->
<g id="edge28" class="edge">
<title>mnl&#45;&gt;pbsolv</title>
<path fill="none" stroke="black" d="M262.67,-740.66C387.02,-722.67 646.27,-685.17 766.13,-667.83"/>
<polygon fill="black" stroke="black" points="766.85,-671.26 776.24,-666.37 765.85,-664.33 766.85,-671.26"/>
</g>
<!-- pbsolv&#45;&gt;state -->
<g id="edge32" class="edge">
<title>pbsolv&#45;&gt;state</title>
<path fill="none" stroke="black" stroke-width="2" d="M776.35,-649.31C721.13,-640.25 633.14,-621.83 563.4,-588.68 488.5,-553.08 413.46,-489.32 375.98,-455.07"/>
<polygon fill="black" stroke="black" stroke-width="2" points="378.28,-452.43 368.56,-448.22 373.54,-457.58 378.28,-452.43"/>
<text text-anchor="middle" x="532.12" y="-588.18" font-family="Helvetica,Arial,sans-serif" font-size="14.00">creates</text>
</g>
<!-- pbsolv&#45;&gt;context -->
<g id="edge31" class="edge">
<title>pbsolv&#45;&gt;context</title>
<path fill="none" stroke="black" d="M786.18,-635.08C746.14,-615.07 687.26,-585.64 649.62,-566.84"/>
<polygon fill="none" stroke="black" points="784.66,-638.23 795.17,-639.57 787.79,-631.97 784.66,-638.23"/>
<text text-anchor="middle" x="705.65" y="-606.88" font-family="Helvetica,Arial,sans-serif" font-size="14.00">mixin</text>
</g>
<!-- pbsolv&#45;&gt;operators -->
<g id="edge33" class="edge">
<title>pbsolv&#45;&gt;operators</title>
<path fill="none" stroke="black" stroke-width="2" d="M882.56,-654.04C1074.53,-643.6 1729.28,-599.7 1894.4,-479.78 1935.01,-450.28 1956.82,-393.38 1966.69,-359.62"/>
<polygon fill="black" stroke="black" stroke-width="2" points="1967.49,-368.18 1967.37,-357.59 1960.86,-365.95 1967.49,-368.18"/>
<text text-anchor="middle" x="1415.65" y="-606.41" font-family="Helvetica,Arial,sans-serif" font-size="14.00">creates</text>
</g>
<!-- timestepper -->
<g id="node14" class="node">
<title>timestepper</title>
<polygon fill="none" stroke="black" points="1279.9,-565.73 1184.9,-565.73 1184.9,-529.73 1279.9,-529.73 1279.9,-565.73"/>
<text text-anchor="middle" x="1232.4" y="-544.03" font-family="Helvetica,Arial,sans-serif" font-size="14.00">TimeStepper</text>
</g>
<!-- pbsolv&#45;&gt;timestepper -->
<g id="edge34" class="edge">
<title>pbsolv&#45;&gt;timestepper</title>
<path fill="none" stroke="black" d="M882.5,-642.45C958.33,-622.14 1097.1,-584.97 1175.16,-564.06"/>
<polygon fill="black" stroke="black" points="1176.08,-567.44 1184.83,-561.47 1174.27,-560.68 1176.08,-567.44"/>
</g>
<!-- storage -->
<g id="node15" class="node">
<title>storage</title>
<polygon fill="none" stroke="black" points="932.4,-565.73 814.4,-565.73 814.4,-529.73 932.4,-529.73 932.4,-565.73"/>
<text text-anchor="middle" x="873.4" y="-544.03" font-family="Helvetica,Arial,sans-serif" font-size="14.00">StorageManager</text>
</g>
<!-- pbsolv&#45;&gt;storage -->
<g id="edge35" class="edge">
<title>pbsolv&#45;&gt;storage</title>
<path fill="none" stroke="black" d="M836.46,-639.33C843.49,-622.1 854.36,-595.44 862.49,-575.49"/>
<polygon fill="black" stroke="black" points="865.81,-576.61 866.34,-566.03 859.33,-573.97 865.81,-576.61"/>
</g>
<!-- hook -->
<g id="node18" class="node">
<title>hook</title>
<polygon fill="none" stroke="black" points="1053.9,-565.73 950.9,-565.73 950.9,-529.73 1053.9,-529.73 1053.9,-565.73"/>
<text text-anchor="middle" x="1002.4" y="-544.03" font-family="Helvetica,Arial,sans-serif" font-size="14.00">PostStepHook</text>
</g>
<!-- pbsolv&#45;&gt;hook -->
<g id="edge37" class="edge">
<title>pbsolv&#45;&gt;hook</title>
<path fill="none" stroke="black" stroke-dasharray="5,2" d="M858.1,-639.62C880.83,-626.02 913.3,-606.4 941.4,-588.68 950.15,-583.16 959.53,-577.09 968.25,-571.38"/>
<polygon fill="black" stroke="black" points="970.26,-574.25 976.7,-565.84 966.42,-568.4 970.26,-574.25"/>
<text text-anchor="middle" x="924.9" y="-610.48" font-family="Helvetica,Arial,sans-serif" font-size="14.00">todo</text>
</g>
<!-- stepsolv -->
<g id="node32" class="node">
<title>stepsolv</title>
<polygon fill="none" stroke="black" stroke-dasharray="5,2" points="1310.4,-448.78 1154.4,-448.78 1154.4,-412.78 1310.4,-412.78 1310.4,-448.78"/>
<text text-anchor="middle" x="1232.4" y="-427.08" font-family="Helvetica,Arial,sans-serif" font-size="14.00">BaseStepSolver {abstr}</text>
</g>
<!-- pbsolv&#45;&gt;stepsolv -->
<g id="edge36" class="edge">
<title>pbsolv&#45;&gt;stepsolv</title>
<path fill="none" stroke="black" stroke-width="2" d="M819.01,-639.57C802.01,-609.12 773.2,-545.13 805.4,-506.78 812.6,-498.2 823.92,-490.6 838.28,-483.86"/>
<polygon fill="black" stroke="black" stroke-width="2" points="839.85,-487 847.61,-479.78 837.04,-480.58 839.85,-487"/>
<text text-anchor="middle" x="734.83" y="-568.95" font-family="Helvetica,Arial,sans-serif" font-size="14.00">loops on timesteps</text>
</g>
<!-- observ -->
<g id="node20" class="node">
<title>observ</title>
<polygon fill="none" stroke="black" stroke-dasharray="5,2" points="1879.4,-448.78 1811.4,-448.78 1811.4,-412.78 1885.4,-412.78 1885.4,-442.78 1879.4,-448.78"/>
<polyline fill="none" stroke="black" stroke-dasharray="5,2" points="1879.4,-448.78 1879.4,-442.78 "/>
<polyline fill="none" stroke="black" stroke-dasharray="5,2" points="1885.4,-442.78 1879.4,-442.78 "/>
<text text-anchor="middle" x="1848.4" y="-427.08" font-family="Helvetica,Arial,sans-serif" font-size="14.00">Observer</text>
</g>
<!-- timestepper&#45;&gt;observ -->
<g id="edge65" class="edge">
<title>timestepper&#45;&gt;observ</title>
<path fill="none" stroke="black" d="M1290.21,-546.03C1415.9,-543.69 1709.82,-533.44 1797.4,-488.78 1814.9,-479.86 1829.21,-462.2 1838.17,-448.89"/>
<polygon fill="none" stroke="black" points="1289.95,-542.54 1280.01,-546.21 1290.07,-549.54 1289.95,-542.54"/>
<text text-anchor="middle" x="1545.7" y="-536.73" font-family="Helvetica,Arial,sans-serif" font-size="14.00">mixin</text>
</g>
<!-- timestepper&#45;&gt;stepsolv -->
<!-- linesearch -->
<g id="node16" class="node">
<title>linesearch</title>
<polygon fill="none" stroke="black" points="2743.9,-349.59 2658.9,-349.59 2658.9,-313.59 2743.9,-313.59 2743.9,-349.59"/>
<text text-anchor="middle" x="2701.4" y="-327.89" font-family="Helvetica,Arial,sans-serif" font-size="14.00">LineSearch</text>
</g>
<!-- linesearch&#45;&gt;operators -->
<g id="edge57" class="edge">
<title>linesearch&#45;&gt;operators</title>
<path fill="none" stroke="black" d="M2689.9,-349.78C2679.18,-364.89 2661.66,-385.3 2640.4,-394.28 2565.26,-426.01 2354.52,-402.67 2273.4,-394.28 2209.34,-387.66 2138.8,-373.29 2082.22,-359.97"/>
<polygon fill="black" stroke="black" points="2082.72,-356.5 2072.19,-357.59 2081.11,-363.31 2082.72,-356.5"/>
</g>
<!-- linesearch&#45;&gt;state_old -->
<g id="edge56" class="edge">
<title>linesearch&#45;&gt;state_old</title>
<path fill="none" stroke="black" stroke-dasharray="1,5" d="M2684.49,-313.31C2674.93,-304.41 2662.33,-294.07 2649.4,-287.39 2573.95,-248.42 2477.83,-227.09 2414.77,-216.42"/>
<polygon fill="black" stroke="black" points="2414.99,-212.91 2404.55,-214.73 2413.85,-219.81 2414.99,-212.91"/>
</g>
<!-- conv_manager -->
<g id="node17" class="node">
<title>conv_manager</title>
<polygon fill="none" stroke="black" points="2423.9,-349.59 2272.9,-349.59 2272.9,-313.59 2423.9,-313.59 2423.9,-349.59"/>
<text text-anchor="middle" x="2348.4" y="-327.89" font-family="Helvetica,Arial,sans-serif" font-size="14.00">ConvergenceManager</text>
</g>
<!-- conv_manager&#45;&gt;problem_old -->
<g id="edge61" class="edge">
<title>conv_manager&#45;&gt;problem_old</title>
<path fill="none" stroke="black" stroke-dasharray="1,5" d="M2324.48,-313.43C2293.98,-291.55 2241.16,-253.66 2207.54,-229.54"/>
<polygon fill="black" stroke="black" points="2209.18,-226.41 2199.01,-223.42 2205.1,-232.1 2209.18,-226.41"/>
</g>
<!-- conv_manager&#45;&gt;state_old -->
<g id="edge62" class="edge">
<title>conv_manager&#45;&gt;state_old</title>
<path fill="none" stroke="black" stroke-dasharray="1,5" d="M2348.4,-313.43C2348.4,-292.99 2348.4,-258.57 2348.4,-234.47"/>
<polygon fill="black" stroke="black" points="2351.9,-234.21 2348.4,-224.21 2344.9,-234.21 2351.9,-234.21"/>
</g>
<!-- incr_solv -->
<g id="node19" class="node">
<title>incr_solv</title>
<polygon fill="none" stroke="black" points="2402.4,-448.78 2276.4,-448.78 2276.4,-412.78 2402.4,-412.78 2402.4,-448.78"/>
<text text-anchor="middle" x="2339.4" y="-427.08" font-family="Helvetica,Arial,sans-serif" font-size="14.00">IncrementalSolver</text>
</g>
<!-- incr_solv&#45;&gt;linsolv -->
<g id="edge51" class="edge">
<title>incr_solv&#45;&gt;linsolv</title>
<path fill="none" stroke="black" d="M2276.06,-425.03C2178.02,-417.75 1983.57,-403.67 1818.4,-393.78 1778.86,-391.42 1499.15,-390.53 1462.4,-375.78 1452.02,-371.62 1442.29,-364.36 1434.22,-356.97"/>
<polygon fill="black" stroke="black" points="1436.34,-354.15 1426.75,-349.64 1431.44,-359.14 1436.34,-354.15"/>
</g>
<!-- incr_solv&#45;&gt;operators -->
<g id="edge50" class="edge">
<title>incr_solv&#45;&gt;operators</title>
<path fill="none" stroke="black" d="M2276.06,-412.97C2221.38,-398.44 2141.31,-377.18 2077.26,-360.17"/>
<polygon fill="black" stroke="black" points="2078.09,-356.77 2067.53,-357.59 2076.29,-363.54 2078.09,-356.77"/>
</g>
<!-- incr_solv&#45;&gt;problem_old -->
<g id="edge54" class="edge">
<title>incr_solv&#45;&gt;problem_old</title>
<path fill="none" stroke="black" stroke-dasharray="1,5" d="M2307.73,-412.59C2292.97,-403.28 2276.12,-390.65 2264.4,-375.78 2232.45,-335.28 2245.4,-313.51 2220.4,-268.39 2213.49,-255.93 2204.5,-243 2196.44,-232.25"/>
<polygon fill="black" stroke="black" points="2199.1,-229.96 2190.24,-224.15 2193.54,-234.22 2199.1,-229.96"/>
</g>
<!-- incr_solv&#45;&gt;state_old -->
<g id="edge55" class="edge">
<title>incr_solv&#45;&gt;state_old</title>
<path fill="none" stroke="black" stroke-dasharray="1,5" d="M2402.81,-426.07C2513.11,-418.96 2730.74,-401.77 2753.4,-375.78 2779.21,-346.17 2778.33,-317.75 2753.4,-287.39 2712.12,-237.14 2525.88,-217.83 2420.91,-210.85"/>
<polygon fill="black" stroke="black" points="2420.91,-207.35 2410.71,-210.2 2420.46,-214.33 2420.91,-207.35"/>
</g>
<!-- incr_solv&#45;&gt;linesearch -->
<g id="edge48" class="edge">
<title>incr_solv&#45;&gt;linesearch</title>
<path fill="none" stroke="black" d="M2402.5,-428.25C2467.21,-424.56 2569.43,-412.73 2649.4,-375.78 2659.57,-371.08 2669.39,-363.88 2677.7,-356.7"/>
<polygon fill="black" stroke="black" points="2680.13,-359.21 2685.17,-349.89 2675.42,-354.04 2680.13,-359.21"/>
</g>
<!-- incr_solv&#45;&gt;conv_manager -->
<g id="edge52" class="edge">
<title>incr_solv&#45;&gt;conv_manager</title>
<path fill="none" stroke="black" d="M2341,-412.41C2342.35,-397.89 2344.29,-376.94 2345.84,-360.14"/>
<polygon fill="black" stroke="black" points="2349.36,-360.09 2346.8,-349.81 2342.39,-359.45 2349.36,-360.09"/>
</g>
<!-- event -->
<g id="node21" class="node">
<title>event</title>
<polygon fill="none" stroke="black" stroke-dasharray="5,2" points="2530.4,-349.59 2442.4,-349.59 2442.4,-313.59 2536.4,-313.59 2536.4,-343.59 2530.4,-349.59"/>
<polyline fill="none" stroke="black" stroke-dasharray="5,2" points="2530.4,-349.59 2530.4,-343.59 "/>
<polyline fill="none" stroke="black" stroke-dasharray="5,2" points="2536.4,-343.59 2530.4,-343.59 "/>
<text text-anchor="middle" x="2489.4" y="-327.89" font-family="Helvetica,Arial,sans-serif" font-size="14.00">EventSource</text>
</g>
<!-- incr_solv&#45;&gt;event -->
<g id="edge53" class="edge">
<title>incr_solv&#45;&gt;event</title>
<path fill="none" stroke="black" d="M2380.77,-407.61C2397.43,-398.28 2416.63,-386.99 2433.4,-375.78 2445.44,-367.73 2458.28,-357.93 2468.62,-349.69"/>
<polygon fill="none" stroke="black" points="2378.85,-404.67 2371.81,-412.59 2382.25,-410.79 2378.85,-404.67"/>
<text text-anchor="middle" x="2405.18" y="-387.19" font-family="Helvetica,Arial,sans-serif" font-size="14.00">mixin</text>
</g>
<!-- contact_old -->
<g id="node41" class="node">
<title>contact_old</title>
<polygon fill="none" stroke="black" points="2640.4,-349.59 2554.4,-349.59 2554.4,-313.59 2640.4,-313.59 2640.4,-349.59"/>
<text text-anchor="middle" x="2597.4" y="-327.89" font-family="Helvetica,Arial,sans-serif" font-size="14.00">contact_old</text>
</g>
<!-- incr_solv&#45;&gt;contact_old -->
<g id="edge49" class="edge">
<title>incr_solv&#45;&gt;contact_old</title>
<path fill="none" stroke="black" d="M2402.81,-420.55C2444.92,-412.68 2500.51,-398.85 2545.4,-375.78 2555.1,-370.79 2564.62,-363.73 2572.8,-356.76"/>
<polygon fill="black" stroke="black" points="2575.37,-359.16 2580.5,-349.89 2570.71,-353.94 2575.37,-359.16"/>
</g>
<!-- integr -->
<g id="node26" class="node">
<title>integr</title>
<polygon fill="none" stroke="black" points="1579.9,-125 1474.9,-125 1474.9,-89 1579.9,-89 1579.9,-125"/>
<text text-anchor="middle" x="1527.4" y="-103.3" font-family="Helvetica,Arial,sans-serif" font-size="14.00">BaseIntegrator</text>
</g>
<!-- dynopers&#45;&gt;integr -->
<g id="edge13" class="edge">
<title>dynopers&#45;&gt;integr</title>
<path fill="none" stroke="black" d="M1821.81,-183.85C1804.42,-176.25 1784.24,-168.07 1765.4,-162 1702.89,-141.85 1628.83,-126.3 1580.11,-117.17"/>
<polygon fill="none" stroke="black" points="1820.61,-187.14 1831.17,-188 1823.44,-180.74 1820.61,-187.14"/>
</g>
<!-- newmark -->
<g id="node27" class="node">
<title>newmark</title>
<polygon fill="none" stroke="black" points="1606.4,-52 1474.4,-52 1474.4,-16 1606.4,-16 1606.4,-52"/>
<text text-anchor="middle" x="1540.4" y="-30.3" font-family="Helvetica,Arial,sans-serif" font-size="14.00">NewmarkIntegrator</text>
</g>
<!-- integr&#45;&gt;newmark -->
<g id="edge14" class="edge">
<title>integr&#45;&gt;newmark</title>
<path fill="none" stroke="black" d="M1532.38,-78.75C1534.03,-69.77 1535.81,-60.03 1537.28,-52.03"/>
<polygon fill="none" stroke="black" points="1528.9,-78.35 1530.54,-88.81 1535.79,-79.61 1528.9,-78.35"/>
</g>
<!-- mecastat -->
<g id="node29" class="node">
<title>mecastat</title>
<polygon fill="none" stroke="black" points="886.4,-349.59 746.4,-349.59 746.4,-313.59 886.4,-313.59 886.4,-349.59"/>
<text text-anchor="middle" x="816.4" y="-327.89" font-family="Helvetica,Arial,sans-serif" font-size="14.00">MecaStatStepSolver</text>
</g>
<!-- mecadyn -->
<g id="node30" class="node">
<title>mecadyn</title>
<polygon fill="none" stroke="black" points="1052.4,-349.59 904.4,-349.59 904.4,-313.59 1052.4,-313.59 1052.4,-349.59"/>
<text text-anchor="middle" x="978.4" y="-327.89" font-family="Helvetica,Arial,sans-serif" font-size="14.00">MecaDynaStepSolver</text>
</g>
<!-- implicit -->
<g id="node34" class="node">
<title>implicit</title>
<polygon fill="none" stroke="black" points="1309.9,-224.2 1184.9,-224.2 1184.9,-188.2 1309.9,-188.2 1309.9,-224.2"/>
<text text-anchor="middle" x="1247.4" y="-202.5" font-family="Helvetica,Arial,sans-serif" font-size="14.00">ImplicitStepSolver</text>
</g>
<!-- mecadyn&#45;&gt;implicit -->
<g id="edge19" class="edge">
<title>mecadyn&#45;&gt;implicit</title>
<path fill="none" stroke="black" d="M1018.16,-308.5C1031.94,-301.29 1047.64,-293.56 1062.4,-287.39 1111.16,-267.02 1127.33,-272.35 1175.4,-250.39 1191.57,-243 1208.68,-232.85 1222.16,-224.24"/>
<polygon fill="none" stroke="black" points="1016.15,-305.61 1008.95,-313.39 1019.43,-311.79 1016.15,-305.61"/>
</g>
<!-- explicit -->
<g id="node35" class="node">
<title>explicit</title>
<polygon fill="none" stroke="black" points="1035.9,-224.2 910.9,-224.2 910.9,-188.2 1035.9,-188.2 1035.9,-224.2"/>
<text text-anchor="middle" x="973.4" y="-202.5" font-family="Helvetica,Arial,sans-serif" font-size="14.00">ExplicitStepSolver</text>
</g>
<!-- mecadyn&#45;&gt;explicit -->
<g id="edge20" class="edge">
<title>mecadyn&#45;&gt;explicit</title>
<path fill="none" stroke="black" d="M977.28,-303.14C976.3,-278.99 974.91,-244.58 974.08,-224.21"/>
<polygon fill="none" stroke="black" points="973.8,-303.58 977.7,-313.43 980.79,-303.3 973.8,-303.58"/>
</g>
<!-- multi -->
<g id="node36" class="node">
<title>multi</title>
<polygon fill="none" stroke="black" points="1166.4,-224.2 1054.4,-224.2 1054.4,-188.2 1166.4,-188.2 1166.4,-224.2"/>
<text text-anchor="middle" x="1110.4" y="-202.5" font-family="Helvetica,Arial,sans-serif" font-size="14.00">MultiStepSolver</text>
</g>
<!-- mecadyn&#45;&gt;multi -->
<g id="edge21" class="edge">
<title>mecadyn&#45;&gt;multi</title>
<path fill="none" stroke="black" d="M1004.33,-306.34C1030.25,-282.12 1069.42,-245.5 1092.2,-224.21"/>
<polygon fill="none" stroke="black" points="1001.66,-304.05 996.75,-313.43 1006.45,-309.16 1001.66,-304.05"/>
</g>
<!-- ther -->
<g id="node31" class="node">
<title>ther</title>
<polygon fill="none" stroke="black" points="1203.9,-349.59 1070.9,-349.59 1070.9,-313.59 1203.9,-313.59 1203.9,-349.59"/>
<text text-anchor="middle" x="1137.4" y="-327.89" font-family="Helvetica,Arial,sans-serif" font-size="14.00">ThermalStepSolver</text>
</g>
<!-- stepsolv&#45;&gt;linsolv -->
<g id="edge41" class="edge">
<title>stepsolv&#45;&gt;linsolv</title>
<path fill="none" stroke="black" d="M1318.4,-410.67C1330.24,-406.35 1341.92,-401.11 1352.4,-394.78 1368.2,-385.24 1382.67,-370.5 1393.44,-357.76"/>
<polygon fill="black" stroke="black" points="1396.36,-359.72 1399.96,-349.76 1390.93,-355.3 1396.36,-359.72"/>
</g>
<!-- stepsolv&#45;&gt;problem_old -->
<g id="edge38" class="edge">
<title>stepsolv&#45;&gt;problem_old</title>
<path fill="none" stroke="black" stroke-dasharray="1,5" d="M1318.39,-426.82C1527.61,-419.27 2048.32,-398.32 2078.4,-375.78 2119.03,-345.33 2090.52,-311.48 2117.4,-268.39 2126.03,-254.56 2138.2,-241.26 2149.25,-230.62"/>
<polygon fill="black" stroke="black" points="2151.74,-233.09 2156.66,-223.7 2146.96,-227.97 2151.74,-233.09"/>
</g>
<!-- stepsolv&#45;&gt;state_old -->
<g id="edge40" class="edge">
<title>stepsolv&#45;&gt;state_old</title>
<path fill="none" stroke="black" d="M1318.39,-427.48C1524.57,-421.53 2035.3,-404.09 2107.4,-375.78 2195.62,-341.15 2282.61,-268.1 2323.77,-230.56"/>
<polygon fill="black" stroke="black" points="2326.4,-232.9 2331.38,-223.55 2321.66,-227.75 2326.4,-232.9"/>
</g>
<!-- stepsolv&#45;&gt;dispatch -->
<g id="edge39" class="edge">
<title>stepsolv&#45;&gt;dispatch</title>
<path fill="none" stroke="black" d="M1279.54,-407.6C1293.74,-399.19 1308.45,-388.5 1319.4,-375.78 1347.29,-343.37 1340.4,-326.63 1357.4,-287.39 1366.82,-265.65 1377.75,-240.62 1384.86,-224.39"/>
<polygon fill="none" stroke="black" points="1277.78,-404.58 1270.8,-412.55 1281.23,-410.67 1277.78,-404.58"/>
<text text-anchor="middle" x="1345.43" y="-312.21" font-family="Helvetica,Arial,sans-serif" font-size="14.00">factory</text>
</g>
<!-- stepsolv&#45;&gt;mecastat -->
<g id="edge15" class="edge">
<title>stepsolv&#45;&gt;mecastat</title>
<path fill="none" stroke="black" d="M1144.3,-423.93C1075.12,-417.38 977.15,-403.75 895.4,-375.78 876.76,-369.41 857.33,-358.85 842.4,-349.76"/>
<polygon fill="none" stroke="black" points="1144.01,-427.42 1154.29,-424.85 1144.65,-420.45 1144.01,-427.42"/>
</g>
<!-- stepsolv&#45;&gt;mecadyn -->
<g id="edge16" class="edge">
<title>stepsolv&#45;&gt;mecadyn</title>
<path fill="none" stroke="black" d="M1160.38,-409.82C1129.76,-400.59 1093.91,-388.79 1062.4,-375.78 1044.05,-368.22 1024.28,-358.15 1008.53,-349.64"/>
<polygon fill="none" stroke="black" points="1159.55,-413.23 1170.13,-412.73 1161.55,-406.52 1159.55,-413.23"/>
</g>
<!-- stepsolv&#45;&gt;ther -->
<g id="edge17" class="edge">
<title>stepsolv&#45;&gt;ther</title>
<path fill="none" stroke="black" d="M1208.07,-404.9C1191.21,-387.64 1169.18,-365.11 1154.23,-349.81"/>
<polygon fill="none" stroke="black" points="1205.92,-407.7 1215.41,-412.41 1210.92,-402.81 1205.92,-407.7"/>
</g>
<!-- context_st -->
<g id="node33" class="node">
<title>context_st</title>
<ellipse fill="none" stroke="black" stroke-dasharray="1,5" cx="1266.4" cy="-331.59" rx="44.39" ry="44.39"/>
<text text-anchor="middle" x="1266.4" y="-327.89" font-family="Helvetica,Arial,sans-serif" font-size="14.00">*Context</text>
</g>
<!-- stepsolv&#45;&gt;context_st -->
<g id="edge18" class="edge">
<title>stepsolv&#45;&gt;context_st</title>
<path fill="none" stroke="black" d="M1241.83,-402.83C1244.99,-393.79 1248.59,-383.5 1252.04,-373.63"/>
<polygon fill="none" stroke="black" points="1238.47,-401.81 1238.47,-412.41 1245.08,-404.12 1238.47,-401.81"/>
<text text-anchor="middle" x="1228.72" y="-396.93" font-family="Helvetica,Arial,sans-serif" font-size="14.00">mixin</text>
</g>
<!-- conv_criteria -->
<g id="node37" class="node">
<title>conv_criteria</title>
<polygon fill="none" stroke="black" stroke-dasharray="5,2" points="2170.9,-675.68 2017.9,-675.68 2017.9,-639.68 2170.9,-639.68 2170.9,-675.68"/>
<text text-anchor="middle" x="2094.4" y="-653.98" font-family="Helvetica,Arial,sans-serif" font-size="14.00">IterationsSolver {abstr}</text>
</g>
<!-- stepsolv&#45;&gt;conv_criteria -->
<g id="edge42" class="edge">
<title>stepsolv&#45;&gt;conv_criteria</title>
<path fill="none" stroke="black" d="M1318.39,-456.34C1450.72,-493.8 1712.43,-566.7 1936.4,-621.68 1959.55,-627.36 1984.72,-633.12 2008.03,-638.29"/>
<polygon fill="black" stroke="black" points="1999.53,-635.61 2009.4,-639.46 2004.08,-630.3 1999.53,-635.61"/>
</g>
<!-- implicit&#45;&gt;integr -->
<g id="edge22" class="edge">
<title>implicit&#45;&gt;integr</title>
<path fill="none" stroke="black" d="M1271.79,-188.16C1285.31,-179.35 1302.73,-168.99 1319.4,-162 1366.53,-142.23 1422.8,-128.15 1464.91,-119.34"/>
<polygon fill="black" stroke="black" points="1465.67,-122.76 1474.76,-117.32 1464.26,-115.9 1465.67,-122.76"/>
</g>
<!-- explicit&#45;&gt;integr -->
<g id="edge23" class="edge">
<title>explicit&#45;&gt;integr</title>
<path fill="none" stroke="black" d="M996.14,-188.08C1009.72,-178.77 1027.72,-167.98 1045.4,-162 1121.49,-136.28 1351.89,-118.9 1464.32,-111.72"/>
<polygon fill="black" stroke="black" points="1464.74,-115.2 1474.5,-111.08 1464.3,-108.21 1464.74,-115.2"/>
</g>
<!-- multi&#45;&gt;integr -->
<g id="edge24" class="edge">
<title>multi&#45;&gt;integr</title>
<path fill="none" stroke="black" d="M1131.41,-188.09C1143.79,-178.91 1160.16,-168.23 1176.4,-162 1272.56,-125.14 1392.66,-113.39 1464.53,-109.68"/>
<polygon fill="black" stroke="black" points="1464.95,-113.16 1474.77,-109.18 1464.62,-106.17 1464.95,-113.16"/>
</g>
<!-- conv_criteria&#45;&gt;linsolv -->
<g id="edge43" class="edge">
<title>conv_criteria&#45;&gt;linsolv</title>
<path fill="none" stroke="black" d="M2009.4,-615.45C1998.62,-607.69 1993.7,-602.47 1983.4,-588.68 1930.96,-518.49 1967.01,-461.81 1894.4,-412.78 1854.47,-385.83 1506.79,-394.5 1462.4,-375.78 1452.25,-371.51 1442.68,-364.36 1434.68,-357.1"/>
<polygon fill="black" stroke="black" points="1436.87,-354.35 1427.25,-349.91 1432,-359.38 1436.87,-354.35"/>
</g>
<!-- conv_criteria&#45;&gt;operators -->
<g id="edge44" class="edge">
<title>conv_criteria&#45;&gt;operators</title>
<path fill="none" stroke="black" d="M2009.4,-588.68C1987.37,-550.01 1977.87,-417.68 1974.7,-359.92"/>
<polygon fill="black" stroke="black" points="1979.81,-366.55 1974.17,-357.59 1972.99,-368.12 1979.81,-366.55"/>
</g>
<!-- newton -->
<g id="node38" class="node">
<title>newton</title>
<polygon fill="none" stroke="black" points="2348.9,-565.73 2247.9,-565.73 2247.9,-529.73 2348.9,-529.73 2348.9,-565.73"/>
<text text-anchor="middle" x="2298.4" y="-544.03" font-family="Helvetica,Arial,sans-serif" font-size="14.00">NewtonSolver</text>
</g>
<!-- conv_criteria&#45;&gt;newton -->
<g id="edge25" class="edge">
<title>conv_criteria&#45;&gt;newton</title>
<path fill="none" stroke="black" stroke-dasharray="1,5" d="M2143.87,-635.47C2172.07,-622.85 2207.79,-605.97 2238.4,-588.68 2250.6,-581.78 2263.61,-573.27 2274.38,-565.88"/>
<polygon fill="none" stroke="black" points="2142.33,-632.33 2134.61,-639.59 2145.17,-638.73 2142.33,-632.33"/>
</g>
<!-- snes -->
<g id="node39" class="node">
<title>snes</title>
<polygon fill="none" stroke="black" points="2229.4,-565.73 2137.4,-565.73 2137.4,-529.73 2229.4,-529.73 2229.4,-565.73"/>
<text text-anchor="middle" x="2183.4" y="-544.03" font-family="Helvetica,Arial,sans-serif" font-size="14.00">SNESSolver</text>
</g>
<!-- conv_criteria&#45;&gt;snes -->
<g id="edge26" class="edge">
<title>conv_criteria&#45;&gt;snes</title>
<path fill="none" stroke="black" stroke-dasharray="1,5" d="M2115.16,-631.49C2131.74,-611.38 2154.55,-583.72 2169.13,-566.03"/>
<polygon fill="none" stroke="black" points="2112.36,-629.39 2108.7,-639.33 2117.76,-633.84 2112.36,-629.39"/>
</g>
<!-- raspen -->
<g id="node40" class="node">
<title>raspen</title>
<polygon fill="none" stroke="black" points="2118.9,-565.73 2017.9,-565.73 2017.9,-529.73 2118.9,-529.73 2118.9,-565.73"/>
<text text-anchor="middle" x="2068.4" y="-544.03" font-family="Helvetica,Arial,sans-serif" font-size="14.00">RaspenSolver</text>
</g>
<!-- conv_criteria&#45;&gt;raspen -->
<g id="edge27" class="edge">
<title>conv_criteria&#45;&gt;raspen</title>
<path fill="none" stroke="black" stroke-dasharray="1,5" d="M2087.87,-629.6C2083.07,-609.67 2076.69,-583.17 2072.56,-566.03"/>
<polygon fill="none" stroke="black" points="2084.47,-630.43 2090.22,-639.33 2091.28,-628.79 2084.47,-630.43"/>
</g>
<!-- newton&#45;&gt;conv_manager -->
<g id="edge47" class="edge">
<title>newton&#45;&gt;conv_manager</title>
<path fill="none" stroke="black" d="M2287.93,-529.67C2273.4,-503.66 2250.67,-452.88 2267.4,-412.78 2276.89,-390.03 2296.33,-370.42 2313.79,-356.29"/>
<polygon fill="black" stroke="black" points="2316.39,-358.7 2322.15,-349.81 2312.1,-353.17 2316.39,-358.7"/>
</g>
<!-- newton&#45;&gt;incr_solv -->
<g id="edge46" class="edge">
<title>newton&#45;&gt;incr_solv</title>
<path fill="none" stroke="black" d="M2304.62,-529.27C2311.31,-510.51 2322.03,-480.46 2329.8,-458.68"/>
<polygon fill="black" stroke="black" points="2333.18,-459.62 2333.24,-449.03 2326.59,-457.27 2333.18,-459.62"/>
</g>
<!-- snes&#45;&gt;problem_old -->
<g id="edge63" class="edge">
<title>snes&#45;&gt;problem_old</title>
<path fill="none" stroke="black" stroke-dasharray="1,5" d="M2183.04,-529.43C2181.9,-474.25 2178.35,-302.18 2176.96,-234.72"/>
<polygon fill="black" stroke="black" points="2180.46,-234.39 2176.75,-224.47 2173.46,-234.54 2180.46,-234.39"/>
</g>
<!-- snes&#45;&gt;incr_solv -->
<!-- raspen&#45;&gt;problem_old -->
<g id="edge64" class="edge">
<title>raspen&#45;&gt;problem_old</title>
<path fill="none" stroke="black" stroke-dasharray="1,5" d="M2089.5,-529.56C2119.17,-503.9 2171.88,-452.36 2192.4,-394.78 2211.85,-340.18 2196.67,-271.22 2185.51,-233.99"/>
<polygon fill="black" stroke="black" points="2188.83,-232.86 2182.5,-224.36 2182.15,-234.95 2188.83,-232.86"/>
</g>
</g>
</svg>
