<?xml version="1.0" encoding="UTF-8" standalone="no"?>
<!DOCTYPE svg PUBLIC "-//W3C//DTD SVG 1.1//EN"
 "http://www.w3.org/Graphics/SVG/1.1/DTD/svg11.dtd">
<!-- Generated by graphviz version 2.43.0 (0)
 -->
<!-- Title: MNL Pages: 1 -->
<svg width="1190pt" height="1354pt"
 viewBox="0.00 0.00 1189.50 1354.00" xmlns="http://www.w3.org/2000/svg" xmlns:xlink="http://www.w3.org/1999/xlink">
<g id="graph0" class="graph" transform="scale(1 1) rotate(0) translate(4 1350)">
<title>MNL</title>
<polygon fill="white" stroke="transparent" points="-4,4 -4,-1350 1185.5,-1350 1185.5,4 -4,4"/>
<g id="clust3" class="cluster">
<title>cluster_operators</title>
<polygon fill="none" stroke="black" stroke-dasharray="5,2" points="364,-817 364,-977 1173.5,-977 1173.5,-817 364,-817"/>
</g>
<g id="clust6" class="cluster">
<title>cluster_stepsolv</title>
<polygon fill="none" stroke="black" stroke-dasharray="5,2" points="364,-402 364,-585 995,-585 995,-402 364,-402"/>
<text text-anchor="middle" x="679.5" y="-569.8" font-family="Helvetica,Arial,sans-serif" font-size="14.00">StepSolver</text>
</g>
<g id="clust9" class="cluster">
<title>cluster_iter_solv</title>
<polygon fill="none" stroke="black" stroke-dasharray="5,2" points="609,-139 609,-394 983,-394 983,-139 609,-139"/>
<text text-anchor="middle" x="796" y="-378.8" font-family="Helvetica,Arial,sans-serif" font-size="14.00">IterationSolver</text>
</g>
<!-- keywords -->
<g id="node1" class="node">
<title>keywords</title>
<ellipse fill="none" stroke="black" cx="476" cy="-1328" rx="49.29" ry="18"/>
<text text-anchor="middle" x="476" y="-1324.3" font-family="Helvetica,Arial,sans-serif" font-size="14.00">Keywords</text>
</g>
<!-- problem -->
<g id="node2" class="node">
<title>problem</title>
<ellipse fill="none" stroke="black" cx="476" cy="-1274" rx="76.89" ry="18"/>
<text text-anchor="middle" x="476" y="-1270.3" font-family="Helvetica,Arial,sans-serif" font-size="14.00">PhysicalProblem</text>
</g>
<!-- type -->
<g id="node3" class="node">
<title>type</title>
<ellipse fill="none" stroke="black" cx="476" cy="-1220" rx="63.09" ry="18"/>
<text text-anchor="middle" x="476" y="-1216.3" font-family="Helvetica,Arial,sans-serif" font-size="14.00">ProblemType</text>
</g>
<!-- state -->
<g id="node4" class="node">
<title>state</title>
<polygon fill="none" stroke="black" points="525,-1184 427,-1184 427,-1148 525,-1148 525,-1184"/>
<text text-anchor="middle" x="476" y="-1162.3" font-family="Helvetica,Arial,sans-serif" font-size="14.00">PhysicalState</text>
</g>
<!-- result -->
<g id="node5" class="node">
<title>result</title>
<ellipse fill="none" stroke="black" cx="476" cy="-1112" rx="36" ry="18"/>
<text text-anchor="middle" x="476" y="-1108.3" font-family="Helvetica,Arial,sans-serif" font-size="14.00">Result</text>
</g>
<!-- contact -->
<g id="node6" class="node">
<title>contact</title>
<polygon fill="none" stroke="black" points="507.5,-1076 444.5,-1076 444.5,-1040 507.5,-1040 507.5,-1076"/>
<text text-anchor="middle" x="476" y="-1054.3" font-family="Helvetica,Arial,sans-serif" font-size="14.00">Contact</text>
</g>
<!-- linsolv -->
<g id="node7" class="node">
<title>linsolv</title>
<polygon fill="none" stroke="black" points="522,-1022 430,-1022 430,-986 522,-986 522,-1022"/>
<text text-anchor="middle" x="476" y="-1000.3" font-family="Helvetica,Arial,sans-serif" font-size="14.00">LinearSolver</text>
</g>
<!-- context -->
<g id="node8" class="node">
<title>context</title>
<ellipse fill="none" stroke="black" cx="242" cy="-1112" rx="40.89" ry="40.89"/>
<text text-anchor="middle" x="242" y="-1108.3" font-family="Helvetica,Arial,sans-serif" font-size="14.00">Context</text>
</g>
<!-- context&#45;&gt;keywords -->
<g id="edge3" class="edge">
<title>context&#45;&gt;keywords</title>
<path fill="none" stroke="black" d="M257.18,-1150.16C275.26,-1193.46 310.73,-1262.97 364,-1301 379.53,-1312.08 399.06,-1318.65 417.39,-1322.53"/>
<polygon fill="black" stroke="black" points="416.94,-1326.01 427.42,-1324.42 418.24,-1319.13 416.94,-1326.01"/>
</g>
<!-- context&#45;&gt;problem -->
<g id="edge1" class="edge">
<title>context&#45;&gt;problem</title>
<path fill="none" stroke="black" d="M264.68,-1146.16C286.15,-1177.17 321.87,-1221.78 364,-1247 374.88,-1253.51 387.24,-1258.45 399.67,-1262.2"/>
<polygon fill="black" stroke="black" points="399.06,-1265.67 409.63,-1264.96 400.93,-1258.92 399.06,-1265.67"/>
</g>
<!-- context&#45;&gt;type -->
<g id="edge2" class="edge">
<title>context&#45;&gt;type</title>
<path fill="none" stroke="black" d="M274.56,-1137.67C297.98,-1155.54 331.37,-1178.65 364,-1193 378.88,-1199.54 395.62,-1204.67 411.49,-1208.61"/>
<polygon fill="black" stroke="black" points="410.71,-1212.02 421.24,-1210.91 412.31,-1205.2 410.71,-1212.02"/>
</g>
<!-- context&#45;&gt;state -->
<g id="edge4" class="edge">
<title>context&#45;&gt;state</title>
<path fill="none" stroke="black" d="M282.09,-1121.1C319.04,-1129.7 374.92,-1142.7 417.04,-1152.51"/>
<polygon fill="black" stroke="black" points="416.36,-1155.94 426.89,-1154.8 417.94,-1149.13 416.36,-1155.94"/>
</g>
<!-- context&#45;&gt;result -->
<g id="edge5" class="edge">
<title>context&#45;&gt;result</title>
<path fill="none" stroke="black" d="M283.15,-1112C324,-1112 387.21,-1112 429.8,-1112"/>
<polygon fill="black" stroke="black" points="429.89,-1115.5 439.89,-1112 429.89,-1108.5 429.89,-1115.5"/>
</g>
<!-- context&#45;&gt;contact -->
<g id="edge7" class="edge">
<title>context&#45;&gt;contact</title>
<path fill="none" stroke="black" d="M282.09,-1102.9C324.41,-1093.05 391.59,-1077.41 434.47,-1067.43"/>
<polygon fill="black" stroke="black" points="435.34,-1070.82 444.29,-1065.15 433.75,-1064.01 435.34,-1070.82"/>
</g>
<!-- context&#45;&gt;linsolv -->
<g id="edge8" class="edge">
<title>context&#45;&gt;linsolv</title>
<path fill="none" stroke="black" d="M274.56,-1086.33C297.98,-1068.46 331.37,-1045.35 364,-1031 381.54,-1023.29 401.65,-1017.55 419.89,-1013.4"/>
<polygon fill="black" stroke="black" points="420.77,-1016.79 429.81,-1011.25 419.29,-1009.95 420.77,-1016.79"/>
</g>
<!-- operators -->
<g id="node9" class="node">
<title>operators</title>
<polygon fill="none" stroke="black" stroke-dasharray="5,2" points="551.5,-896 400.5,-896 400.5,-860 551.5,-860 551.5,-896"/>
<text text-anchor="middle" x="476" y="-874.3" font-family="Helvetica,Arial,sans-serif" font-size="14.00">BaseOperators {abstr}</text>
</g>
<!-- context&#45;&gt;operators -->
<g id="edge6" class="edge">
<title>context&#45;&gt;operators</title>
<path fill="none" stroke="black" d="M258.56,-1074.43C276.7,-1034.56 310.18,-971.65 356.2,-929.79"/>
<polygon fill="black" stroke="black" points="358.75,-932.2 364,-923 354.16,-926.92 358.75,-932.2"/>
</g>
<!-- mixin_oper -->
<g id="node17" class="node">
<title>mixin_oper</title>
<polygon fill="none" stroke="black" stroke-dasharray="5,2" points="574,-968 372,-968 372,-932 580,-932 580,-962 574,-968"/>
<polyline fill="none" stroke="black" stroke-dasharray="5,2" points="574,-968 574,-962 "/>
<polyline fill="none" stroke="black" stroke-dasharray="5,2" points="580,-962 574,-962 "/>
<text text-anchor="middle" x="476" y="-946.3" font-family="Helvetica,Arial,sans-serif" font-size="14.00">ContextMixin + DispatcherMixin</text>
</g>
<!-- operators&#45;&gt;mixin_oper -->
<g id="edge10" class="edge">
<title>operators&#45;&gt;mixin_oper</title>
<path fill="none" stroke="black" stroke-dasharray="5,2" d="M476,-906.31C476,-914.86 476,-923.41 476,-931.95"/>
<polygon fill="none" stroke="black" points="479.5,-906.28 476,-896.28 472.5,-906.28 479.5,-906.28"/>
</g>
<!-- statopers -->
<g id="node18" class="node">
<title>statopers</title>
<polygon fill="none" stroke="black" points="788.5,-861 653.5,-861 653.5,-825 788.5,-825 788.5,-861"/>
<text text-anchor="middle" x="721" y="-839.3" font-family="Helvetica,Arial,sans-serif" font-size="14.00">MecaStatOperators</text>
</g>
<!-- operators&#45;&gt;statopers -->
<g id="edge11" class="edge">
<title>operators&#45;&gt;statopers</title>
<path fill="none" stroke="black" d="M561.62,-865.81C591.68,-861.48 625.07,-856.67 653.42,-852.59"/>
<polygon fill="none" stroke="black" points="560.96,-862.37 551.56,-867.26 561.96,-869.3 560.96,-862.37"/>
</g>
<!-- theropers -->
<g id="node19" class="node">
<title>theropers</title>
<polygon fill="none" stroke="black" points="785,-915 657,-915 657,-879 785,-879 785,-915"/>
<text text-anchor="middle" x="721" y="-893.3" font-family="Helvetica,Arial,sans-serif" font-size="14.00">ThermalOperators</text>
</g>
<!-- operators&#45;&gt;theropers -->
<g id="edge13" class="edge">
<title>operators&#45;&gt;theropers</title>
<path fill="none" stroke="black" d="M561.56,-884.61C592.79,-887.05 627.61,-889.78 656.64,-892.05"/>
<polygon fill="none" stroke="black" points="561.8,-881.12 551.56,-883.83 561.26,-888.1 561.8,-881.12"/>
</g>
<!-- dynopers -->
<g id="node20" class="node">
<title>dynopers</title>
<polygon fill="none" stroke="black" stroke-dasharray="5,2" points="813.5,-969 628.5,-969 628.5,-933 813.5,-933 813.5,-969"/>
<text text-anchor="middle" x="721" y="-947.3" font-family="Helvetica,Arial,sans-serif" font-size="14.00">MecaDynaOperators {abstr}</text>
</g>
<!-- operators&#45;&gt;dynopers -->
<g id="edge12" class="edge">
<title>operators&#45;&gt;dynopers</title>
<path fill="none" stroke="black" d="M534.8,-899.5C557.74,-907.68 584.46,-916.76 609,-924 619.56,-927.12 630.75,-930.15 641.82,-932.99"/>
<polygon fill="none" stroke="black" points="535.82,-896.15 525.22,-896.06 533.45,-902.74 535.82,-896.15"/>
</g>
<!-- mnl -->
<g id="node10" class="node">
<title>mnl</title>
<polygon fill="none" stroke="black" points="138,-906 0,-906 0,-870 138,-870 138,-906"/>
<text text-anchor="middle" x="69" y="-884.3" font-family="Helvetica,Arial,sans-serif" font-size="14.00">meca_non_line_ops</text>
</g>
<!-- mnl&#45;&gt;context -->
<g id="edge29" class="edge">
<title>mnl&#45;&gt;context</title>
<path fill="none" stroke="black" stroke-width="2" d="M83.99,-906.33C111.44,-942.28 172.91,-1022.81 210.27,-1071.75"/>
<polygon fill="black" stroke="black" stroke-width="2" points="207.66,-1074.09 216.51,-1079.91 213.22,-1069.84 207.66,-1074.09"/>
<text text-anchor="middle" x="127.82" y="-982.01" font-family="Helvetica,Arial,sans-serif" font-size="14.00">creates</text>
</g>
<!-- nl_operator -->
<g id="node11" class="node">
<title>nl_operator</title>
<polygon fill="none" stroke="black" points="309,-683 175,-683 175,-647 309,-647 309,-683"/>
<text text-anchor="middle" x="242" y="-661.3" font-family="Helvetica,Arial,sans-serif" font-size="14.00">NonLinearOperator</text>
</g>
<!-- mnl&#45;&gt;nl_operator -->
<g id="edge28" class="edge">
<title>mnl&#45;&gt;nl_operator</title>
<path fill="none" stroke="black" d="M83.99,-869.75C114.26,-830.29 185.88,-736.89 220.95,-691.15"/>
<polygon fill="black" stroke="black" points="223.75,-693.25 227.05,-683.19 218.19,-688.99 223.75,-693.25"/>
</g>
<!-- mixin_pb -->
<g id="node12" class="node">
<title>mixin_pb</title>
<polygon fill="none" stroke="black" stroke-dasharray="5,2" points="283.5,-611 194.5,-611 194.5,-575 289.5,-575 289.5,-605 283.5,-611"/>
<polyline fill="none" stroke="black" stroke-dasharray="5,2" points="283.5,-611 283.5,-605 "/>
<polyline fill="none" stroke="black" stroke-dasharray="5,2" points="289.5,-605 283.5,-605 "/>
<text text-anchor="middle" x="242" y="-589.3" font-family="Helvetica,Arial,sans-serif" font-size="14.00">ContextMixin</text>
</g>
<!-- nl_operator&#45;&gt;mixin_pb -->
<g id="edge9" class="edge">
<title>nl_operator&#45;&gt;mixin_pb</title>
<path fill="none" stroke="black" stroke-dasharray="5,2" d="M242,-636.92C242,-628.37 242,-619.83 242,-611.28"/>
<polygon fill="none" stroke="black" points="238.5,-636.95 242,-646.95 245.5,-636.95 238.5,-636.95"/>
</g>
<!-- timestepper -->
<g id="node13" class="node">
<title>timestepper</title>
<polygon fill="none" stroke="black" points="523.5,-809 428.5,-809 428.5,-773 523.5,-773 523.5,-809"/>
<text text-anchor="middle" x="476" y="-787.3" font-family="Helvetica,Arial,sans-serif" font-size="14.00">TimeStepper</text>
</g>
<!-- nl_operator&#45;&gt;timestepper -->
<g id="edge30" class="edge">
<title>nl_operator&#45;&gt;timestepper</title>
<path fill="none" stroke="black" d="M267.11,-683.3C290.89,-700.82 328.71,-727.29 364,-746 381.28,-755.16 400.85,-763.67 418.7,-770.76"/>
<polygon fill="black" stroke="black" points="417.82,-774.18 428.41,-774.55 420.37,-767.66 417.82,-774.18"/>
</g>
<!-- storage -->
<g id="node14" class="node">
<title>storage</title>
<polygon fill="none" stroke="black" points="535,-683 417,-683 417,-647 535,-647 535,-683"/>
<text text-anchor="middle" x="476" y="-661.3" font-family="Helvetica,Arial,sans-serif" font-size="14.00">StorageManager</text>
</g>
<!-- nl_operator&#45;&gt;storage -->
<g id="edge31" class="edge">
<title>nl_operator&#45;&gt;storage</title>
<path fill="none" stroke="black" d="M309.17,-665C339.61,-665 375.71,-665 406.44,-665"/>
<polygon fill="black" stroke="black" points="406.64,-668.5 416.64,-665 406.64,-661.5 406.64,-668.5"/>
</g>
<!-- hook -->
<g id="node15" class="node">
<title>hook</title>
<polygon fill="none" stroke="black" points="527.5,-629 424.5,-629 424.5,-593 527.5,-593 527.5,-629"/>
<text text-anchor="middle" x="476" y="-607.3" font-family="Helvetica,Arial,sans-serif" font-size="14.00">PostStepHook</text>
</g>
<!-- nl_operator&#45;&gt;hook -->
<g id="edge33" class="edge">
<title>nl_operator&#45;&gt;hook</title>
<path fill="none" stroke="black" stroke-dasharray="5,2" d="M309.17,-649.6C342.31,-641.89 382.14,-632.61 414.46,-625.09"/>
<polygon fill="black" stroke="black" points="415.29,-628.49 424.23,-622.82 413.7,-621.67 415.29,-628.49"/>
<text text-anchor="middle" x="340.5" y="-647.8" font-family="Helvetica,Arial,sans-serif" font-size="14.00">todo</text>
</g>
<!-- stepsolv -->
<g id="node26" class="node">
<title>stepsolv</title>
<polygon fill="none" stroke="black" stroke-dasharray="5,2" points="554,-482 398,-482 398,-446 554,-446 554,-482"/>
<text text-anchor="middle" x="476" y="-460.3" font-family="Helvetica,Arial,sans-serif" font-size="14.00">BaseStepSolver {abstr}</text>
</g>
<!-- nl_operator&#45;&gt;stepsolv -->
<g id="edge32" class="edge">
<title>nl_operator&#45;&gt;stepsolv</title>
<path fill="none" stroke="black" stroke-width="2" d="M276.51,-646.89C287.83,-639.62 299.9,-630.46 309,-620 342.75,-581.23 326.24,-550.74 356.74,-516.39"/>
<polygon fill="black" stroke="black" stroke-width="2" points="359.49,-518.59 364,-509 354.5,-513.68 359.49,-518.59"/>
<text text-anchor="middle" x="387.43" y="-569.65" font-family="Helvetica,Arial,sans-serif" font-size="14.00">loops on timesteps</text>
</g>
<!-- observ -->
<g id="node16" class="node">
<title>observ</title>
<polygon fill="none" stroke="black" stroke-dasharray="5,2" points="507,-737 439,-737 439,-701 513,-701 513,-731 507,-737"/>
<polyline fill="none" stroke="black" stroke-dasharray="5,2" points="507,-737 507,-731 "/>
<polyline fill="none" stroke="black" stroke-dasharray="5,2" points="513,-731 507,-731 "/>
<text text-anchor="middle" x="476" y="-715.3" font-family="Helvetica,Arial,sans-serif" font-size="14.00">Observer</text>
</g>
<!-- timestepper&#45;&gt;observ -->
<g id="edge39" class="edge">
<title>timestepper&#45;&gt;observ</title>
<path fill="none" stroke="black" stroke-dasharray="5,2" d="M476,-762.92C476,-754.37 476,-745.83 476,-737.28"/>
<polygon fill="none" stroke="black" points="472.5,-762.95 476,-772.95 479.5,-762.95 472.5,-762.95"/>
</g>
<!-- integr -->
<g id="node21" class="node">
<title>integr</title>
<polygon fill="none" stroke="black" points="977,-969 872,-969 872,-933 977,-933 977,-969"/>
<text text-anchor="middle" x="924.5" y="-947.3" font-family="Helvetica,Arial,sans-serif" font-size="14.00">BaseIntegrator</text>
</g>
<!-- dynopers&#45;&gt;integr -->
<g id="edge14" class="edge">
<title>dynopers&#45;&gt;integr</title>
<path fill="none" stroke="black" d="M823.93,-951C840.52,-951 857.07,-951 871.77,-951"/>
<polygon fill="none" stroke="black" points="823.61,-947.5 813.61,-951 823.61,-954.5 823.61,-947.5"/>
</g>
<!-- newmark -->
<g id="node22" class="node">
<title>newmark</title>
<polygon fill="none" stroke="black" points="1165.5,-969 1033.5,-969 1033.5,-933 1165.5,-933 1165.5,-969"/>
<text text-anchor="middle" x="1099.5" y="-947.3" font-family="Helvetica,Arial,sans-serif" font-size="14.00">NewmarkIntegrator</text>
</g>
<!-- integr&#45;&gt;newmark -->
<g id="edge15" class="edge">
<title>integr&#45;&gt;newmark</title>
<path fill="none" stroke="black" d="M987.53,-951C1002.44,-951 1018.4,-951 1033.44,-951"/>
<polygon fill="none" stroke="black" points="987.41,-947.5 977.41,-951 987.41,-954.5 987.41,-947.5"/>
</g>
<!-- mecastat -->
<g id="node23" class="node">
<title>mecastat</title>
<polygon fill="none" stroke="black" points="791,-446 651,-446 651,-410 791,-410 791,-446"/>
<text text-anchor="middle" x="721" y="-424.3" font-family="Helvetica,Arial,sans-serif" font-size="14.00">MecaStatStepSolver</text>
</g>
<!-- mecadyn -->
<g id="node24" class="node">
<title>mecadyn</title>
<polygon fill="none" stroke="black" points="795,-500 647,-500 647,-464 795,-464 795,-500"/>
<text text-anchor="middle" x="721" y="-478.3" font-family="Helvetica,Arial,sans-serif" font-size="14.00">MecaDynaStepSolver</text>
</g>
<!-- implicit -->
<g id="node28" class="node">
<title>implicit</title>
<polygon fill="none" stroke="black" points="987,-446 862,-446 862,-410 987,-410 987,-446"/>
<text text-anchor="middle" x="924.5" y="-424.3" font-family="Helvetica,Arial,sans-serif" font-size="14.00">ImplicitStepSolver</text>
</g>
<!-- mecadyn&#45;&gt;implicit -->
<g id="edge20" class="edge">
<title>mecadyn&#45;&gt;implicit</title>
<path fill="none" stroke="black" d="M801.11,-461.36C809.18,-459.22 817.26,-457.08 825,-455 836.9,-451.81 849.6,-448.36 861.79,-445.03"/>
<polygon fill="none" stroke="black" points="800.06,-458.02 791.28,-463.95 801.85,-464.78 800.06,-458.02"/>
</g>
<!-- explicit -->
<g id="node29" class="node">
<title>explicit</title>
<polygon fill="none" stroke="black" points="987,-500 862,-500 862,-464 987,-464 987,-500"/>
<text text-anchor="middle" x="924.5" y="-478.3" font-family="Helvetica,Arial,sans-serif" font-size="14.00">ExplicitStepSolver</text>
</g>
<!-- mecadyn&#45;&gt;explicit -->
<g id="edge21" class="edge">
<title>mecadyn&#45;&gt;explicit</title>
<path fill="none" stroke="black" d="M805.18,-482C824.2,-482 844.08,-482 862,-482"/>
<polygon fill="none" stroke="black" points="805.03,-478.5 795.03,-482 805.03,-485.5 805.03,-478.5"/>
</g>
<!-- multi -->
<g id="node30" class="node">
<title>multi</title>
<polygon fill="none" stroke="black" points="980.5,-554 868.5,-554 868.5,-518 980.5,-518 980.5,-554"/>
<text text-anchor="middle" x="924.5" y="-532.3" font-family="Helvetica,Arial,sans-serif" font-size="14.00">MultiStepSolver</text>
</g>
<!-- mecadyn&#45;&gt;multi -->
<g id="edge22" class="edge">
<title>mecadyn&#45;&gt;multi</title>
<path fill="none" stroke="black" d="M801.11,-502.64C809.18,-504.78 817.26,-506.92 825,-509 839.04,-512.77 854.2,-516.89 868.31,-520.75"/>
<polygon fill="none" stroke="black" points="801.85,-499.22 791.28,-500.05 800.06,-505.98 801.85,-499.22"/>
</g>
<!-- ther -->
<g id="node25" class="node">
<title>ther</title>
<polygon fill="none" stroke="black" points="787.5,-554 654.5,-554 654.5,-518 787.5,-518 787.5,-554"/>
<text text-anchor="middle" x="721" y="-532.3" font-family="Helvetica,Arial,sans-serif" font-size="14.00">ThermalStepSolver</text>
</g>
<!-- stepsolv&#45;&gt;mecastat -->
<g id="edge17" class="edge">
<title>stepsolv&#45;&gt;mecastat</title>
<path fill="none" stroke="black" d="M564.16,-451.09C592.63,-446.87 623.83,-442.25 650.79,-438.25"/>
<polygon fill="none" stroke="black" points="563.6,-447.63 554.22,-452.56 564.63,-454.56 563.6,-447.63"/>
</g>
<!-- stepsolv&#45;&gt;mecadyn -->
<g id="edge18" class="edge">
<title>stepsolv&#45;&gt;mecadyn</title>
<path fill="none" stroke="black" d="M564.42,-470.48C591.39,-472.47 620.8,-474.65 646.71,-476.57"/>
<polygon fill="none" stroke="black" points="564.45,-466.97 554.22,-469.72 563.93,-473.95 564.45,-466.97"/>
</g>
<!-- stepsolv&#45;&gt;ther -->
<g id="edge19" class="edge">
<title>stepsolv&#45;&gt;ther</title>
<path fill="none" stroke="black" d="M535.98,-485.37C558.67,-493.26 584.9,-501.98 609,-509 623.57,-513.25 639.34,-517.36 654.3,-521.05"/>
<polygon fill="none" stroke="black" points="537.09,-482.05 526.5,-482.05 534.78,-488.66 537.09,-482.05"/>
</g>
<!-- mixin_step -->
<g id="node27" class="node">
<title>mixin_step</title>
<polygon fill="none" stroke="black" stroke-dasharray="5,2" points="574,-554 372,-554 372,-518 580,-518 580,-548 574,-554"/>
<polyline fill="none" stroke="black" stroke-dasharray="5,2" points="574,-554 574,-548 "/>
<polyline fill="none" stroke="black" stroke-dasharray="5,2" points="580,-548 574,-548 "/>
<text text-anchor="middle" x="476" y="-532.3" font-family="Helvetica,Arial,sans-serif" font-size="14.00">ContextMixin + DispatcherMixin</text>
</g>
<!-- stepsolv&#45;&gt;mixin_step -->
<g id="edge16" class="edge">
<title>stepsolv&#45;&gt;mixin_step</title>
<path fill="none" stroke="black" stroke-dasharray="5,2" d="M476,-492.31C476,-500.86 476,-509.41 476,-517.95"/>
<polygon fill="none" stroke="black" points="479.5,-492.28 476,-482.28 472.5,-492.28 479.5,-492.28"/>
</g>
<!-- iter_solver -->
<g id="node31" class="node">
<title>iter_solver</title>
<polygon fill="none" stroke="black" stroke-dasharray="5,2" points="809.5,-291 632.5,-291 632.5,-255 809.5,-255 809.5,-291"/>
<text text-anchor="middle" x="721" y="-269.3" font-family="Helvetica,Arial,sans-serif" font-size="14.00">BaseIterationSolver {abstr}</text>
</g>
<!-- stepsolv&#45;&gt;iter_solver -->
<g id="edge34" class="edge">
<title>stepsolv&#45;&gt;iter_solver</title>
<path fill="none" stroke="black" d="M522.41,-402C543.8,-375.88 571.12,-346.4 600.77,-323.99"/>
<polygon fill="black" stroke="black" points="602.97,-326.71 609,-318 598.86,-321.05 602.97,-326.71"/>
</g>
<!-- mixin_iter -->
<g id="node32" class="node">
<title>mixin_iter</title>
<polygon fill="none" stroke="black" stroke-dasharray="5,2" points="819,-363 617,-363 617,-327 825,-327 825,-357 819,-363"/>
<polyline fill="none" stroke="black" stroke-dasharray="5,2" points="819,-363 819,-357 "/>
<polyline fill="none" stroke="black" stroke-dasharray="5,2" points="825,-357 819,-357 "/>
<text text-anchor="middle" x="721" y="-341.3" font-family="Helvetica,Arial,sans-serif" font-size="14.00">ContextMixin + DispatcherMixin</text>
</g>
<!-- iter_solver&#45;&gt;mixin_iter -->
<g id="edge23" class="edge">
<title>iter_solver&#45;&gt;mixin_iter</title>
<path fill="none" stroke="black" stroke-dasharray="5,2" d="M721,-301.31C721,-309.86 721,-318.41 721,-326.95"/>
<polygon fill="none" stroke="black" points="724.5,-301.28 721,-291.28 717.5,-301.28 724.5,-301.28"/>
</g>
<!-- newton -->
<g id="node33" class="node">
<title>newton</title>
<polygon fill="none" stroke="black" points="975,-183 874,-183 874,-147 975,-147 975,-183"/>
<text text-anchor="middle" x="924.5" y="-161.3" font-family="Helvetica,Arial,sans-serif" font-size="14.00">NewtonSolver</text>
</g>
<!-- iter_solver&#45;&gt;newton -->
<g id="edge25" class="edge">
<title>iter_solver&#45;&gt;newton</title>
<path fill="none" stroke="black" d="M764.83,-250.04C802.08,-230.08 855.33,-201.54 889.66,-183.14"/>
<polygon fill="none" stroke="black" points="762.89,-247.11 755.73,-254.92 766.19,-253.28 762.89,-247.11"/>
</g>
<!-- snes -->
<g id="node35" class="node">
<title>snes</title>
<polygon fill="none" stroke="black" points="970.5,-309 878.5,-309 878.5,-273 970.5,-273 970.5,-309"/>
<text text-anchor="middle" x="924.5" y="-287.3" font-family="Helvetica,Arial,sans-serif" font-size="14.00">SNESSolver</text>
</g>
<!-- iter_solver&#45;&gt;snes -->
<g id="edge26" class="edge">
<title>iter_solver&#45;&gt;snes</title>
<path fill="none" stroke="black" d="M819.58,-281.72C840.18,-283.56 860.95,-285.41 878.45,-286.98"/>
<polygon fill="none" stroke="black" points="819.77,-278.22 809.5,-280.82 819.15,-285.19 819.77,-278.22"/>
</g>
<!-- raspen -->
<g id="node36" class="node">
<title>raspen</title>
<polygon fill="none" stroke="black" points="975,-363 874,-363 874,-327 975,-327 975,-363"/>
<text text-anchor="middle" x="924.5" y="-341.3" font-family="Helvetica,Arial,sans-serif" font-size="14.00">RaspenSolver</text>
</g>
<!-- iter_solver&#45;&gt;raspen -->
<g id="edge27" class="edge">
<title>iter_solver&#45;&gt;raspen</title>
<path fill="none" stroke="black" d="M782.28,-294.54C811.53,-304.99 846.25,-317.4 873.94,-327.29"/>
<polygon fill="none" stroke="black" points="783.18,-291.14 772.59,-291.08 780.83,-297.74 783.18,-291.14"/>
</g>
<!-- event -->
<g id="node34" class="node">
<title>event</title>
<polygon fill="none" stroke="black" stroke-dasharray="5,2" points="965.5,-255 877.5,-255 877.5,-219 971.5,-219 971.5,-249 965.5,-255"/>
<polyline fill="none" stroke="black" stroke-dasharray="5,2" points="965.5,-255 965.5,-249 "/>
<polyline fill="none" stroke="black" stroke-dasharray="5,2" points="971.5,-249 965.5,-249 "/>
<text text-anchor="middle" x="924.5" y="-233.3" font-family="Helvetica,Arial,sans-serif" font-size="14.00">EventSource</text>
</g>
<!-- newton&#45;&gt;event -->
<g id="edge24" class="edge">
<title>newton&#45;&gt;event</title>
<path fill="none" stroke="black" stroke-dasharray="5,2" d="M924.5,-193.31C924.5,-201.86 924.5,-210.41 924.5,-218.95"/>
<polygon fill="none" stroke="black" points="928,-193.28 924.5,-183.28 921,-193.28 928,-193.28"/>
</g>
<!-- linesearch -->
<g id="node37" class="node">
<title>linesearch</title>
<polygon fill="none" stroke="black" points="1142,-234 1057,-234 1057,-198 1142,-198 1142,-234"/>
<text text-anchor="middle" x="1099.5" y="-212.3" font-family="Helvetica,Arial,sans-serif" font-size="14.00">LineSearch</text>
</g>
<!-- newton&#45;&gt;linesearch -->
<g id="edge35" class="edge">
<title>newton&#45;&gt;linesearch</title>
<path fill="none" stroke="black" d="M975.07,-179.61C997.6,-186.26 1024.24,-194.11 1047,-200.82"/>
<polygon fill="black" stroke="black" points="1046.23,-204.24 1056.82,-203.71 1048.21,-197.53 1046.23,-204.24"/>
</g>
<!-- conv_manager -->
<g id="node38" class="node">
<title>conv_manager</title>
<polygon fill="none" stroke="black" points="1175,-108 1024,-108 1024,-72 1175,-72 1175,-108"/>
<text text-anchor="middle" x="1099.5" y="-86.3" font-family="Helvetica,Arial,sans-serif" font-size="14.00">ConvergenceManager</text>
</g>
<!-- newton&#45;&gt;conv_manager -->
<g id="edge36" class="edge">
<title>newton&#45;&gt;conv_manager</title>
<path fill="none" stroke="black" d="M960.19,-146.98C978.87,-137.56 1002.45,-126.12 1024,-117 1028.17,-115.23 1032.51,-113.47 1036.89,-111.75"/>
<polygon fill="black" stroke="black" points="1038.45,-114.9 1046.53,-108.04 1035.94,-108.37 1038.45,-114.9"/>
</g>
<!-- mixin_line -->
<g id="node39" class="node">
<title>mixin_line</title>
<polygon fill="none" stroke="black" stroke-dasharray="5,2" points="1141,-162 1052,-162 1052,-126 1147,-126 1147,-156 1141,-162"/>
<polyline fill="none" stroke="black" stroke-dasharray="5,2" points="1141,-162 1141,-156 "/>
<polyline fill="none" stroke="black" stroke-dasharray="5,2" points="1147,-156 1141,-156 "/>
<text text-anchor="middle" x="1099.5" y="-140.3" font-family="Helvetica,Arial,sans-serif" font-size="14.00">ContextMixin</text>
</g>
<!-- linesearch&#45;&gt;mixin_line -->
<g id="edge37" class="edge">
<title>linesearch&#45;&gt;mixin_line</title>
<path fill="none" stroke="black" stroke-dasharray="5,2" d="M1099.5,-187.92C1099.5,-179.37 1099.5,-170.83 1099.5,-162.28"/>
<polygon fill="none" stroke="black" points="1096,-187.95 1099.5,-197.95 1103,-187.95 1096,-187.95"/>
</g>
<!-- mixin_conv -->
<g id="node40" class="node">
<title>mixin_conv</title>
<polygon fill="none" stroke="black" stroke-dasharray="5,2" points="1141,-36 1052,-36 1052,0 1147,0 1147,-30 1141,-36"/>
<polyline fill="none" stroke="black" stroke-dasharray="5,2" points="1141,-36 1141,-30 "/>
<polyline fill="none" stroke="black" stroke-dasharray="5,2" points="1147,-30 1141,-30 "/>
<text text-anchor="middle" x="1099.5" y="-14.3" font-family="Helvetica,Arial,sans-serif" font-size="14.00">ContextMixin</text>
</g>
<!-- conv_manager&#45;&gt;mixin_conv -->
<g id="edge38" class="edge">
<title>conv_manager&#45;&gt;mixin_conv</title>
<path fill="none" stroke="black" stroke-dasharray="5,2" d="M1099.5,-61.92C1099.5,-53.37 1099.5,-44.83 1099.5,-36.28"/>
<polygon fill="none" stroke="black" points="1096,-61.95 1099.5,-71.95 1103,-61.95 1096,-61.95"/>
</g>
</g>
</svg>
