<?xml version="1.0" encoding="UTF-8" standalone="no"?>
<!DOCTYPE svg PUBLIC "-//W3C//DTD SVG 1.1//EN"
 "http://www.w3.org/Graphics/SVG/1.1/DTD/svg11.dtd">
<!-- Generated by graphviz version 2.43.0 (0)
 -->
<!-- Title: MNL Pages: 1 -->
<svg width="1826pt" height="938pt"
 viewBox="0.00 0.00 1825.69 937.79" xmlns="http://www.w3.org/2000/svg" xmlns:xlink="http://www.w3.org/1999/xlink">
<g id="graph0" class="graph" transform="scale(1 1) rotate(0) translate(4 933.79)">
<title>MNL</title>
<polygon fill="white" stroke="transparent" points="-4,4 -4,-933.79 1821.69,-933.79 1821.69,4 -4,4"/>
<g id="clust2" class="cluster">
<title>cluster_operators</title>
<polygon fill="none" stroke="black" stroke-dasharray="5,2" points="209.69,-8 209.69,-324.89 773.69,-324.89 773.69,-8 209.69,-8"/>
</g>
<g id="clust4" class="cluster">
<title>cluster_stepsolv</title>
<polygon fill="none" stroke="black" stroke-dasharray="5,2" points="1335.69,-418.89 1335.69,-660.89 1809.69,-660.89 1809.69,-418.89 1335.69,-418.89"/>
<text text-anchor="middle" x="1572.69" y="-645.69" font-family="Helvetica,Arial,sans-serif" font-size="14.00">StepSolver</text>
</g>
<g id="clust6" class="cluster">
<title>cluster_iter_solv</title>
<polygon fill="none" stroke="black" stroke-dasharray="5,2" points="949.69,-418.89 949.69,-566.89 1297.69,-566.89 1297.69,-418.89 949.69,-418.89"/>
<text text-anchor="middle" x="1123.69" y="-551.69" font-family="Helvetica,Arial,sans-serif" font-size="14.00">ConvergenceCriteria</text>
</g>
<!-- keywords -->
<g id="node1" class="node">
<title>keywords</title>
<ellipse fill="none" stroke="black" cx="220.69" cy="-611.89" rx="49.29" ry="18"/>
<text text-anchor="middle" x="220.69" y="-608.19" font-family="Helvetica,Arial,sans-serif" font-size="14.00">Keywords</text>
</g>
<!-- problem -->
<g id="node2" class="node">
<title>problem</title>
<ellipse fill="none" stroke="black" cx="76.69" cy="-611.89" rx="76.89" ry="18"/>
<text text-anchor="middle" x="76.69" y="-608.19" font-family="Helvetica,Arial,sans-serif" font-size="14.00">PhysicalProblem</text>
</g>
<!-- type -->
<g id="node3" class="node">
<title>type</title>
<ellipse fill="none" stroke="black" cx="350.69" cy="-611.89" rx="63.09" ry="18"/>
<text text-anchor="middle" x="350.69" y="-608.19" font-family="Helvetica,Arial,sans-serif" font-size="14.00">ProblemType</text>
</g>
<!-- state -->
<g id="node4" class="node">
<title>state</title>
<ellipse fill="none" stroke="black" cx="623.69" cy="-611.89" rx="63.89" ry="18"/>
<text text-anchor="middle" x="623.69" y="-608.19" font-family="Helvetica,Arial,sans-serif" font-size="14.00">PhysicalState</text>
</g>
<!-- result -->
<g id="node5" class="node">
<title>result</title>
<ellipse fill="none" stroke="black" cx="467.69" cy="-611.89" rx="36" ry="18"/>
<text text-anchor="middle" x="467.69" y="-608.19" font-family="Helvetica,Arial,sans-serif" font-size="14.00">Result</text>
</g>
<!-- context -->
<g id="node6" class="node">
<title>context</title>
<ellipse fill="none" stroke="black" cx="499.69" cy="-728.84" rx="40.89" ry="40.89"/>
<text text-anchor="middle" x="499.69" y="-725.14" font-family="Helvetica,Arial,sans-serif" font-size="14.00">Context</text>
</g>
<!-- context&#45;&gt;keywords -->
<g id="edge3" class="edge">
<title>context&#45;&gt;keywords</title>
<path fill="none" stroke="black" d="M470.13,-700.19C463.77,-695.44 456.81,-691.03 449.69,-687.89 379.29,-656.85 348.82,-692.55 278.69,-660.89 265.72,-655.04 253.29,-645.48 243.29,-636.43"/>
<polygon fill="black" stroke="black" points="245.49,-633.69 235.82,-629.36 240.68,-638.77 245.49,-633.69"/>
</g>
<!-- context&#45;&gt;problem -->
<g id="edge1" class="edge">
<title>context&#45;&gt;problem</title>
<path fill="none" stroke="black" d="M470.56,-700.04C464.11,-695.24 457.01,-690.85 449.69,-687.89 390.3,-663.9 223.86,-679.91 162.69,-660.89 143.58,-654.95 123.97,-644.41 108.31,-634.72"/>
<polygon fill="black" stroke="black" points="109.9,-631.58 99.58,-629.15 106.13,-637.48 109.9,-631.58"/>
</g>
<!-- context&#45;&gt;type -->
<g id="edge2" class="edge">
<title>context&#45;&gt;type</title>
<path fill="none" stroke="black" d="M468.05,-702.36C461.98,-697.53 455.66,-692.53 449.69,-687.89 426.46,-669.82 399.86,-649.7 380.08,-634.85"/>
<polygon fill="black" stroke="black" points="382.16,-632.03 372.06,-628.83 377.96,-637.63 382.16,-632.03"/>
</g>
<!-- context&#45;&gt;state -->
<g id="edge4" class="edge">
<title>context&#45;&gt;state</title>
<path fill="none" stroke="black" d="M529.39,-700.31C550.52,-680.72 578.59,-654.7 598.6,-636.16"/>
<polygon fill="black" stroke="black" points="601.15,-638.56 606.1,-629.2 596.39,-633.43 601.15,-638.56"/>
</g>
<!-- context&#45;&gt;result -->
<g id="edge5" class="edge">
<title>context&#45;&gt;result</title>
<path fill="none" stroke="black" d="M488.95,-689.24C484.45,-673.08 479.32,-654.67 475.24,-639.98"/>
<polygon fill="black" stroke="black" points="478.52,-638.72 472.46,-630.03 471.77,-640.6 478.52,-638.72"/>
</g>
<!-- operators -->
<g id="node7" class="node">
<title>operators</title>
<polygon fill="none" stroke="black" stroke-dasharray="5,2" points="763.19,-316.89 680.19,-316.89 680.19,-280.89 763.19,-280.89 763.19,-316.89"/>
<text text-anchor="middle" x="721.69" y="-295.19" font-family="Helvetica,Arial,sans-serif" font-size="14.00">Operators*</text>
</g>
<!-- context&#45;&gt;operators -->
<g id="edge6" class="edge">
<title>context&#45;&gt;operators</title>
<path fill="none" stroke="black" d="M515.41,-691.03C523.5,-668.82 531.69,-639.72 531.69,-612.89 531.69,-612.89 531.69,-612.89 531.69,-370.89 531.69,-353.67 559.45,-339.24 593.74,-327.98"/>
<polygon fill="black" stroke="black" points="595.08,-331.23 603.57,-324.89 592.98,-324.55 595.08,-331.23"/>
</g>
<!-- problem_old -->
<g id="node8" class="node">
<title>problem_old</title>
<ellipse fill="none" stroke="black" cx="1027.69" cy="-202.95" rx="76.89" ry="18"/>
<text text-anchor="middle" x="1027.69" y="-199.25" font-family="Helvetica,Arial,sans-serif" font-size="14.00">PhysicalProblem</text>
</g>
<!-- operators&#45;&gt;problem_old -->
<g id="edge56" class="edge">
<title>operators&#45;&gt;problem_old</title>
<path fill="none" stroke="black" stroke-dasharray="1,5" d="M763.26,-282.82C783.44,-275.85 808.14,-267.82 830.69,-261.89 870.57,-251.41 882.05,-255.2 921.69,-243.89 942.15,-238.06 964.24,-230.03 982.93,-222.69"/>
<polygon fill="black" stroke="black" points="984.37,-225.88 992.37,-218.94 981.78,-219.38 984.37,-225.88"/>
</g>
<!-- state_old -->
<g id="node9" class="node">
<title>state_old</title>
<ellipse fill="none" stroke="black" cx="1454.69" cy="-202.95" rx="63.89" ry="18"/>
<text text-anchor="middle" x="1454.69" y="-199.25" font-family="Helvetica,Arial,sans-serif" font-size="14.00">PhysicalState</text>
</g>
<!-- operators&#45;&gt;state_old -->
<g id="edge57" class="edge">
<title>operators&#45;&gt;state_old</title>
<path fill="none" stroke="black" stroke-dasharray="1,5" d="M763.44,-292.23C788.21,-288.89 820.24,-284.6 848.69,-280.89 1044.24,-255.39 1275.43,-226.34 1387.32,-212.35"/>
<polygon fill="black" stroke="black" points="1387.96,-215.8 1397.44,-211.08 1387.09,-208.85 1387.96,-215.8"/>
</g>
<!-- dispatch -->
<g id="node22" class="node">
<title>dispatch</title>
<polygon fill="none" stroke="black" stroke-dasharray="5,2" points="906.19,-220.95 783.19,-220.95 783.19,-184.95 912.19,-184.95 912.19,-214.95 906.19,-220.95"/>
<polyline fill="none" stroke="black" stroke-dasharray="5,2" points="906.19,-220.95 906.19,-214.95 "/>
<polyline fill="none" stroke="black" stroke-dasharray="5,2" points="912.19,-214.95 906.19,-214.95 "/>
<text text-anchor="middle" x="847.69" y="-199.25" font-family="Helvetica,Arial,sans-serif" font-size="14.00">ProblemTypeMixin</text>
</g>
<!-- operators&#45;&gt;dispatch -->
<g id="edge55" class="edge">
<title>operators&#45;&gt;dispatch</title>
<path fill="none" stroke="black" d="M752.65,-274.81C774.9,-258.22 804.42,-236.21 824.62,-221.15"/>
<polygon fill="none" stroke="black" points="750.44,-272.1 744.51,-280.88 754.62,-277.71 750.44,-272.1"/>
<text text-anchor="middle" x="763.34" y="-254.98" font-family="Helvetica,Arial,sans-serif" font-size="14.00">factory</text>
</g>
<!-- statopers -->
<g id="node23" class="node">
<title>statopers</title>
<polygon fill="none" stroke="black" points="353.19,-220.95 218.19,-220.95 218.19,-184.95 353.19,-184.95 353.19,-220.95"/>
<text text-anchor="middle" x="285.69" y="-199.25" font-family="Helvetica,Arial,sans-serif" font-size="14.00">MecaStatOperators</text>
</g>
<!-- operators&#45;&gt;statopers -->
<g id="edge8" class="edge">
<title>operators&#45;&gt;statopers</title>
<path fill="none" stroke="black" d="M670.02,-295.45C599.16,-290.91 468.54,-278.26 362.69,-243.89 345.5,-238.31 327.51,-229.19 313.24,-221.06"/>
<polygon fill="none" stroke="black" points="669.84,-298.94 680.04,-296.06 670.27,-291.96 669.84,-298.94"/>
</g>
<!-- theropers -->
<g id="node24" class="node">
<title>theropers</title>
<polygon fill="none" stroke="black" points="499.69,-220.95 371.69,-220.95 371.69,-184.95 499.69,-184.95 499.69,-220.95"/>
<text text-anchor="middle" x="435.69" y="-199.25" font-family="Helvetica,Arial,sans-serif" font-size="14.00">ThermalOperators</text>
</g>
<!-- operators&#45;&gt;theropers -->
<g id="edge10" class="edge">
<title>operators&#45;&gt;theropers</title>
<path fill="none" stroke="black" d="M670.03,-288.6C626.17,-279.83 562.05,-264.87 508.69,-243.89 492.96,-237.71 476.36,-228.83 462.97,-221.02"/>
<polygon fill="none" stroke="black" points="669.41,-292.05 679.89,-290.54 670.76,-285.18 669.41,-292.05"/>
</g>
<!-- dynopers -->
<g id="node25" class="node">
<title>dynopers</title>
<polygon fill="none" stroke="black" stroke-dasharray="5,2" points="665.69,-220.95 517.69,-220.95 517.69,-184.95 665.69,-184.95 665.69,-220.95"/>
<text text-anchor="middle" x="591.69" y="-199.25" font-family="Helvetica,Arial,sans-serif" font-size="14.00">MecaDynaOperators*</text>
</g>
<!-- operators&#45;&gt;dynopers -->
<g id="edge9" class="edge">
<title>operators&#45;&gt;dynopers</title>
<path fill="none" stroke="black" d="M689.76,-274.81C666.8,-258.22 636.34,-236.21 615.5,-221.15"/>
<polygon fill="none" stroke="black" points="688,-277.86 698.15,-280.88 692.1,-272.19 688,-277.86"/>
</g>
<!-- context_op -->
<g id="node28" class="node">
<title>context_op</title>
<ellipse fill="none" stroke="black" stroke-dasharray="1,5" cx="724.69" cy="-202.95" rx="40.89" ry="40.89"/>
<text text-anchor="middle" x="724.69" y="-199.25" font-family="Helvetica,Arial,sans-serif" font-size="14.00">Context</text>
</g>
<!-- operators&#45;&gt;context_op -->
<g id="edge7" class="edge">
<title>operators&#45;&gt;context_op</title>
<path fill="none" stroke="black" d="M722.57,-270.48C722.83,-262.22 723.13,-252.98 723.41,-244.07"/>
<polygon fill="none" stroke="black" points="719.06,-270.55 722.24,-280.66 726.06,-270.78 719.06,-270.55"/>
<text text-anchor="middle" x="706.32" y="-266.29" font-family="Helvetica,Arial,sans-serif" font-size="14.00">mixin</text>
</g>
<!-- mnl -->
<g id="node10" class="node">
<title>mnl</title>
<polygon fill="none" stroke="black" points="289.69,-929.79 151.69,-929.79 151.69,-893.79 289.69,-893.79 289.69,-929.79"/>
<text text-anchor="middle" x="220.69" y="-908.09" font-family="Helvetica,Arial,sans-serif" font-size="14.00">meca_non_line_ops</text>
</g>
<!-- mnl&#45;&gt;keywords -->
<g id="edge26" class="edge">
<title>mnl&#45;&gt;keywords</title>
<path fill="none" stroke="black" stroke-width="2" d="M220.69,-893.48C220.69,-843.92 220.69,-701.1 220.69,-640.55"/>
<polygon fill="black" stroke="black" stroke-width="2" points="224.19,-640.24 220.69,-630.24 217.19,-640.24 224.19,-640.24"/>
<text text-anchor="middle" x="198.19" y="-765.65" font-family="Helvetica,Arial,sans-serif" font-size="14.00">creates</text>
</g>
<!-- mnl&#45;&gt;problem -->
<g id="edge27" class="edge">
<title>mnl&#45;&gt;problem</title>
<path fill="none" stroke="black" stroke-width="2" d="M212.33,-893.48C188.16,-843.49 118.14,-698.63 89.32,-639.01"/>
<polygon fill="black" stroke="black" stroke-width="2" points="92.4,-637.35 84.9,-629.87 86.1,-640.4 92.4,-637.35"/>
<text text-anchor="middle" x="126.11" y="-765.46" font-family="Helvetica,Arial,sans-serif" font-size="14.00">creates</text>
</g>
<!-- pbsolv -->
<g id="node11" class="node">
<title>pbsolv</title>
<polygon fill="none" stroke="black" points="735.69,-856.79 629.69,-856.79 629.69,-820.79 735.69,-820.79 735.69,-856.79"/>
<text text-anchor="middle" x="682.69" y="-835.09" font-family="Helvetica,Arial,sans-serif" font-size="14.00">ProblemSolver</text>
</g>
<!-- mnl&#45;&gt;pbsolv -->
<g id="edge25" class="edge">
<title>mnl&#45;&gt;pbsolv</title>
<path fill="none" stroke="black" d="M289.86,-900.16C379.21,-886.43 533.47,-862.72 619.7,-849.47"/>
<polygon fill="black" stroke="black" points="620.26,-852.92 629.62,-847.94 619.2,-846 620.26,-852.92"/>
</g>
<!-- pbsolv&#45;&gt;state -->
<g id="edge29" class="edge">
<title>pbsolv&#45;&gt;state</title>
<path fill="none" stroke="black" stroke-width="2" d="M678.16,-820.51C667.93,-781.5 642.96,-686.34 630.71,-639.64"/>
<polygon fill="black" stroke="black" stroke-width="2" points="634.08,-638.7 628.16,-629.92 627.31,-640.48 634.08,-638.7"/>
<text text-anchor="middle" x="630.67" y="-729.06" font-family="Helvetica,Arial,sans-serif" font-size="14.00">creates</text>
</g>
<!-- pbsolv&#45;&gt;context -->
<g id="edge28" class="edge">
<title>pbsolv&#45;&gt;context</title>
<path fill="none" stroke="black" d="M644.97,-815.53C612.62,-796.45 566.38,-769.18 534.81,-750.56"/>
<polygon fill="none" stroke="black" points="643.3,-818.61 653.7,-820.68 646.86,-812.59 643.3,-818.61"/>
<text text-anchor="middle" x="577.68" y="-774.37" font-family="Helvetica,Arial,sans-serif" font-size="14.00">mixin</text>
</g>
<!-- pbsolv&#45;&gt;operators -->
<g id="edge30" class="edge">
<title>pbsolv&#45;&gt;operators</title>
<path fill="none" stroke="black" stroke-width="2" d="M691.36,-820.7C701.14,-799.82 715.69,-763.15 715.69,-729.84 715.69,-729.84 715.69,-729.84 715.69,-370.89 715.69,-356.49 716.93,-340.51 718.29,-327.36"/>
<polygon fill="black" stroke="black" stroke-width="2" points="718.41,-335.44 719.42,-324.89 712.06,-332.5 718.41,-335.44"/>
<text text-anchor="middle" x="693.19" y="-688.77" font-family="Helvetica,Arial,sans-serif" font-size="14.00">creates</text>
</g>
<!-- timestepper -->
<g id="node12" class="node">
<title>timestepper</title>
<polygon fill="none" stroke="black" points="839.19,-746.84 744.19,-746.84 744.19,-710.84 839.19,-710.84 839.19,-746.84"/>
<text text-anchor="middle" x="791.69" y="-725.14" font-family="Helvetica,Arial,sans-serif" font-size="14.00">TimeStepper</text>
</g>
<!-- pbsolv&#45;&gt;timestepper -->
<g id="edge31" class="edge">
<title>pbsolv&#45;&gt;timestepper</title>
<path fill="none" stroke="black" d="M707.93,-820.62C715.22,-815.23 723.01,-809.05 729.69,-802.79 745.3,-788.15 760.89,-769.79 772.53,-755.15"/>
<polygon fill="black" stroke="black" points="775.49,-757.05 778.9,-747.01 769.98,-752.73 775.49,-757.05"/>
</g>
<!-- storage -->
<g id="node13" class="node">
<title>storage</title>
<polygon fill="none" stroke="black" points="1013.69,-746.84 895.69,-746.84 895.69,-710.84 1013.69,-710.84 1013.69,-746.84"/>
<text text-anchor="middle" x="954.69" y="-725.14" font-family="Helvetica,Arial,sans-serif" font-size="14.00">StorageManager</text>
</g>
<!-- pbsolv&#45;&gt;storage -->
<g id="edge32" class="edge">
<title>pbsolv&#45;&gt;storage</title>
<path fill="none" stroke="black" d="M735.75,-837.07C777.52,-834.53 836.1,-826.5 881.69,-802.79 903.49,-791.45 922.87,-771.34 936.18,-755.09"/>
<polygon fill="black" stroke="black" points="939.11,-757.04 942.57,-747.02 933.62,-752.69 939.11,-757.04"/>
</g>
<!-- hook -->
<g id="node18" class="node">
<title>hook</title>
<polygon fill="none" stroke="black" points="441.19,-746.84 338.19,-746.84 338.19,-710.84 441.19,-710.84 441.19,-746.84"/>
<text text-anchor="middle" x="389.69" y="-725.14" font-family="Helvetica,Arial,sans-serif" font-size="14.00">PostStepHook</text>
</g>
<!-- pbsolv&#45;&gt;hook -->
<g id="edge34" class="edge">
<title>pbsolv&#45;&gt;hook</title>
<path fill="none" stroke="black" stroke-dasharray="5,2" d="M629.69,-827.15C581.36,-816.34 508.72,-797.26 449.69,-769.79 439.63,-765.1 429.35,-758.87 420.19,-752.73"/>
<polygon fill="black" stroke="black" points="422.02,-749.74 411.81,-746.92 418.03,-755.49 422.02,-749.74"/>
<text text-anchor="middle" x="551.19" y="-791.59" font-family="Helvetica,Arial,sans-serif" font-size="14.00">todo</text>
</g>
<!-- stepsolv -->
<g id="node32" class="node">
<title>stepsolv</title>
<polygon fill="none" stroke="black" stroke-dasharray="5,2" points="1463.19,-629.89 1344.19,-629.89 1344.19,-593.89 1463.19,-593.89 1463.19,-629.89"/>
<text text-anchor="middle" x="1403.69" y="-608.19" font-family="Helvetica,Arial,sans-serif" font-size="14.00">BaseStepSolver*</text>
</g>
<!-- pbsolv&#45;&gt;stepsolv -->
<g id="edge33" class="edge">
<title>pbsolv&#45;&gt;stepsolv</title>
<path fill="none" stroke="black" stroke-width="2" d="M735.79,-826.79C771.48,-817.04 817.5,-799.58 848.69,-769.79 877.71,-742.07 854.51,-711.86 886.69,-687.89 956.11,-636.18 1209.45,-619.89 1333.84,-614.94"/>
<polygon fill="black" stroke="black" stroke-width="2" points="1326.63,-620.04 1335.69,-614.55 1325.19,-613.19 1326.63,-620.04"/>
<text text-anchor="middle" x="965.07" y="-647.87" font-family="Helvetica,Arial,sans-serif" font-size="14.00">loops on timesteps</text>
</g>
<!-- observ -->
<g id="node20" class="node">
<title>observ</title>
<polygon fill="none" stroke="black" stroke-dasharray="5,2" points="822.69,-629.89 754.69,-629.89 754.69,-593.89 828.69,-593.89 828.69,-623.89 822.69,-629.89"/>
<polyline fill="none" stroke="black" stroke-dasharray="5,2" points="822.69,-629.89 822.69,-623.89 "/>
<polyline fill="none" stroke="black" stroke-dasharray="5,2" points="828.69,-623.89 822.69,-623.89 "/>
<text text-anchor="middle" x="791.69" y="-608.19" font-family="Helvetica,Arial,sans-serif" font-size="14.00">Observer</text>
</g>
<!-- timestepper&#45;&gt;observ -->
<g id="edge63" class="edge">
<title>timestepper&#45;&gt;observ</title>
<path fill="none" stroke="black" d="M791.69,-700.1C791.69,-678.31 791.69,-648.64 791.69,-630.14"/>
<polygon fill="none" stroke="black" points="788.19,-700.38 791.69,-710.38 795.19,-700.38 788.19,-700.38"/>
<text text-anchor="middle" x="775.19" y="-674.13" font-family="Helvetica,Arial,sans-serif" font-size="14.00">mixin</text>
</g>
<!-- timestepper&#45;&gt;stepsolv -->
<!-- linsolv -->
<g id="node14" class="node">
<title>linsolv</title>
<polygon fill="none" stroke="black" points="949.69,-316.89 857.69,-316.89 857.69,-280.89 949.69,-280.89 949.69,-316.89"/>
<text text-anchor="middle" x="903.69" y="-295.19" font-family="Helvetica,Arial,sans-serif" font-size="14.00">LinearSolver</text>
</g>
<!-- linesearch -->
<g id="node15" class="node">
<title>linesearch</title>
<polygon fill="none" stroke="black" points="1568.19,-316.89 1483.19,-316.89 1483.19,-280.89 1568.19,-280.89 1568.19,-316.89"/>
<text text-anchor="middle" x="1525.69" y="-295.19" font-family="Helvetica,Arial,sans-serif" font-size="14.00">LineSearch</text>
</g>
<!-- linesearch&#45;&gt;operators -->
<g id="edge54" class="edge">
<title>linesearch&#45;&gt;operators</title>
<path fill="none" stroke="black" d="M1490.99,-316.97C1472.45,-325.62 1448.92,-335.02 1426.69,-339.39 1364.66,-351.59 920.25,-348.51 857.69,-339.39 832.9,-335.78 806.33,-328.64 783.32,-321.35"/>
<polygon fill="black" stroke="black" points="784.28,-317.99 773.69,-318.23 782.12,-324.64 784.28,-317.99"/>
</g>
<!-- linesearch&#45;&gt;state_old -->
<g id="edge53" class="edge">
<title>linesearch&#45;&gt;state_old</title>
<path fill="none" stroke="black" stroke-dasharray="1,5" d="M1512.67,-280.66C1501.69,-266.14 1485.85,-245.17 1473.49,-228.82"/>
<polygon fill="black" stroke="black" points="1476.22,-226.62 1467.39,-220.75 1470.63,-230.84 1476.22,-226.62"/>
</g>
<!-- conv_manager -->
<g id="node16" class="node">
<title>conv_manager</title>
<polygon fill="none" stroke="black" points="1276.19,-316.89 1125.19,-316.89 1125.19,-280.89 1276.19,-280.89 1276.19,-316.89"/>
<text text-anchor="middle" x="1200.69" y="-295.19" font-family="Helvetica,Arial,sans-serif" font-size="14.00">ConvergenceManager</text>
</g>
<!-- conv_manager&#45;&gt;problem_old -->
<g id="edge59" class="edge">
<title>conv_manager&#45;&gt;problem_old</title>
<path fill="none" stroke="black" stroke-dasharray="1,5" d="M1169.36,-280.88C1140.21,-265.05 1096.7,-241.42 1065.6,-224.53"/>
<polygon fill="black" stroke="black" points="1067.23,-221.43 1056.77,-219.74 1063.89,-227.59 1067.23,-221.43"/>
</g>
<!-- conv_manager&#45;&gt;state_old -->
<g id="edge60" class="edge">
<title>conv_manager&#45;&gt;state_old</title>
<path fill="none" stroke="black" stroke-dasharray="1,5" d="M1246.69,-280.88C1292.47,-263.95 1362.35,-238.1 1408.28,-221.11"/>
<polygon fill="black" stroke="black" points="1409.53,-224.38 1417.69,-217.63 1407.1,-217.82 1409.53,-224.38"/>
</g>
<!-- contact -->
<g id="node17" class="node">
<title>contact</title>
<polygon fill="none" stroke="black" points="1107.19,-316.89 1044.19,-316.89 1044.19,-280.89 1107.19,-280.89 1107.19,-316.89"/>
<text text-anchor="middle" x="1075.69" y="-295.19" font-family="Helvetica,Arial,sans-serif" font-size="14.00">Contact</text>
</g>
<!-- contact&#45;&gt;problem_old -->
<g id="edge58" class="edge">
<title>contact&#45;&gt;problem_old</title>
<path fill="none" stroke="black" stroke-dasharray="1,5" d="M1066.89,-280.66C1059.65,-266.49 1049.28,-246.19 1041.02,-230.03"/>
<polygon fill="black" stroke="black" points="1044.11,-228.38 1036.44,-221.07 1037.87,-231.57 1044.11,-228.38"/>
</g>
<!-- incr_solv -->
<g id="node19" class="node">
<title>incr_solv</title>
<polygon fill="none" stroke="black" points="1338.69,-389.89 1212.69,-389.89 1212.69,-353.89 1338.69,-353.89 1338.69,-389.89"/>
<text text-anchor="middle" x="1275.69" y="-368.19" font-family="Helvetica,Arial,sans-serif" font-size="14.00">IncrementalSolver</text>
</g>
<!-- incr_solv&#45;&gt;operators -->
<g id="edge47" class="edge">
<title>incr_solv&#45;&gt;operators</title>
<path fill="none" stroke="black" d="M1212.53,-365.82C1128.99,-358.71 977.32,-344.44 848.69,-324.89 827.39,-321.66 804.24,-317.34 783.6,-313.2"/>
<polygon fill="black" stroke="black" points="784.18,-309.75 773.69,-311.19 782.79,-316.61 784.18,-309.75"/>
</g>
<!-- incr_solv&#45;&gt;problem_old -->
<g id="edge51" class="edge">
<title>incr_solv&#45;&gt;problem_old</title>
<path fill="none" stroke="black" stroke-dasharray="1,5" d="M1284.02,-353.81C1292.24,-334.21 1301.48,-302.07 1285.69,-280.89 1263.26,-250.8 1167.44,-228.18 1099.13,-215.5"/>
<polygon fill="black" stroke="black" points="1099.73,-212.05 1089.26,-213.7 1098.47,-218.94 1099.73,-212.05"/>
</g>
<!-- incr_solv&#45;&gt;state_old -->
<g id="edge52" class="edge">
<title>incr_solv&#45;&gt;state_old</title>
<path fill="none" stroke="black" stroke-dasharray="1,5" d="M1338.92,-368.47C1372.45,-363.76 1411.59,-352.19 1435.69,-324.89 1458.3,-299.29 1460.01,-258.19 1458.15,-231.12"/>
<polygon fill="black" stroke="black" points="1461.64,-230.8 1457.27,-221.15 1454.67,-231.42 1461.64,-230.8"/>
</g>
<!-- incr_solv&#45;&gt;linsolv -->
<g id="edge48" class="edge">
<title>incr_solv&#45;&gt;linsolv</title>
<path fill="none" stroke="black" d="M1212.59,-358.85C1141.71,-345.32 1027.72,-323.57 959.83,-310.61"/>
<polygon fill="black" stroke="black" points="960.23,-307.12 949.75,-308.68 958.91,-314 960.23,-307.12"/>
</g>
<!-- incr_solv&#45;&gt;linesearch -->
<g id="edge45" class="edge">
<title>incr_solv&#45;&gt;linesearch</title>
<path fill="none" stroke="black" d="M1339.07,-365.59C1377.56,-360.87 1427.12,-352.08 1468.69,-335.89 1477.58,-332.43 1486.59,-327.52 1494.74,-322.44"/>
<polygon fill="black" stroke="black" points="1496.74,-325.32 1503.2,-316.92 1492.91,-319.46 1496.74,-325.32"/>
</g>
<!-- incr_solv&#45;&gt;conv_manager -->
<g id="edge49" class="edge">
<title>incr_solv&#45;&gt;conv_manager</title>
<path fill="none" stroke="black" d="M1257.54,-353.71C1248.14,-344.81 1236.51,-333.8 1226.23,-324.06"/>
<polygon fill="black" stroke="black" points="1228.35,-321.25 1218.68,-316.92 1223.54,-326.34 1228.35,-321.25"/>
</g>
<!-- incr_solv&#45;&gt;contact -->
<g id="edge46" class="edge">
<title>incr_solv&#45;&gt;contact</title>
<path fill="none" stroke="black" d="M1212.42,-356.72C1182.71,-349.02 1147.2,-338.32 1116.69,-324.89 1114.65,-323.99 1112.58,-323.01 1110.52,-321.96"/>
<polygon fill="black" stroke="black" points="1112.06,-318.81 1101.6,-317.1 1108.71,-324.96 1112.06,-318.81"/>
</g>
<!-- event -->
<g id="node21" class="node">
<title>event</title>
<polygon fill="none" stroke="black" stroke-dasharray="5,2" points="1420.69,-316.89 1332.69,-316.89 1332.69,-280.89 1426.69,-280.89 1426.69,-310.89 1420.69,-316.89"/>
<polyline fill="none" stroke="black" stroke-dasharray="5,2" points="1420.69,-316.89 1420.69,-310.89 "/>
<polyline fill="none" stroke="black" stroke-dasharray="5,2" points="1426.69,-310.89 1420.69,-310.89 "/>
<text text-anchor="middle" x="1379.69" y="-295.19" font-family="Helvetica,Arial,sans-serif" font-size="14.00">EventSource</text>
</g>
<!-- incr_solv&#45;&gt;event -->
<g id="edge50" class="edge">
<title>incr_solv&#45;&gt;event</title>
<path fill="none" stroke="black" d="M1309.01,-348.15C1323.81,-338.05 1340.94,-326.35 1354.63,-317.01"/>
<polygon fill="none" stroke="black" points="1306.89,-345.36 1300.6,-353.89 1310.84,-351.14 1306.89,-345.36"/>
<text text-anchor="middle" x="1310.94" y="-339.37" font-family="Helvetica,Arial,sans-serif" font-size="14.00">mixin</text>
</g>
<!-- integr -->
<g id="node26" class="node">
<title>integr</title>
<polygon fill="none" stroke="black" points="765.19,-125 660.19,-125 660.19,-89 765.19,-89 765.19,-125"/>
<text text-anchor="middle" x="712.69" y="-103.3" font-family="Helvetica,Arial,sans-serif" font-size="14.00">BaseIntegrator</text>
</g>
<!-- dynopers&#45;&gt;integr -->
<g id="edge11" class="edge">
<title>dynopers&#45;&gt;integr</title>
<path fill="none" stroke="black" d="M621.7,-178.65C643.04,-162.08 671.22,-140.2 690.54,-125.2"/>
<polygon fill="none" stroke="black" points="619.36,-176.04 613.61,-184.93 623.65,-181.57 619.36,-176.04"/>
</g>
<!-- newmark -->
<g id="node27" class="node">
<title>newmark</title>
<polygon fill="none" stroke="black" points="765.69,-52 633.69,-52 633.69,-16 765.69,-16 765.69,-52"/>
<text text-anchor="middle" x="699.69" y="-30.3" font-family="Helvetica,Arial,sans-serif" font-size="14.00">NewmarkIntegrator</text>
</g>
<!-- integr&#45;&gt;newmark -->
<g id="edge12" class="edge">
<title>integr&#45;&gt;newmark</title>
<path fill="none" stroke="black" d="M707.7,-78.75C706.06,-69.77 704.28,-60.03 702.81,-52.03"/>
<polygon fill="none" stroke="black" points="704.3,-79.61 709.55,-88.81 711.19,-78.35 704.3,-79.61"/>
</g>
<!-- mecastat -->
<g id="node29" class="node">
<title>mecastat</title>
<polygon fill="none" stroke="black" points="1483.69,-535.89 1343.69,-535.89 1343.69,-499.89 1483.69,-499.89 1483.69,-535.89"/>
<text text-anchor="middle" x="1413.69" y="-514.19" font-family="Helvetica,Arial,sans-serif" font-size="14.00">MecaStatStepSolver</text>
</g>
<!-- mecadyn -->
<g id="node30" class="node">
<title>mecadyn</title>
<polygon fill="none" stroke="black" points="1649.69,-535.89 1501.69,-535.89 1501.69,-499.89 1649.69,-499.89 1649.69,-535.89"/>
<text text-anchor="middle" x="1575.69" y="-514.19" font-family="Helvetica,Arial,sans-serif" font-size="14.00">MecaDynaStepSolver</text>
</g>
<!-- implicit -->
<g id="node33" class="node">
<title>implicit</title>
<polygon fill="none" stroke="black" points="1512.19,-462.89 1387.19,-462.89 1387.19,-426.89 1512.19,-426.89 1512.19,-462.89"/>
<text text-anchor="middle" x="1449.69" y="-441.19" font-family="Helvetica,Arial,sans-serif" font-size="14.00">ImplicitStepSolver</text>
</g>
<!-- mecadyn&#45;&gt;implicit -->
<g id="edge16" class="edge">
<title>mecadyn&#45;&gt;implicit</title>
<path fill="none" stroke="black" d="M1536.34,-494.72C1518.18,-484.48 1496.96,-472.53 1480.06,-463.01"/>
<polygon fill="none" stroke="black" points="1535.08,-498.03 1545.51,-499.89 1538.52,-491.93 1535.08,-498.03"/>
</g>
<!-- explicit -->
<g id="node34" class="node">
<title>explicit</title>
<polygon fill="none" stroke="black" points="1655.19,-462.89 1530.19,-462.89 1530.19,-426.89 1655.19,-426.89 1655.19,-462.89"/>
<text text-anchor="middle" x="1592.69" y="-441.19" font-family="Helvetica,Arial,sans-serif" font-size="14.00">ExplicitStepSolver</text>
</g>
<!-- mecadyn&#45;&gt;explicit -->
<g id="edge17" class="edge">
<title>mecadyn&#45;&gt;explicit</title>
<path fill="none" stroke="black" d="M1582.15,-489.94C1584.32,-480.87 1586.68,-471.01 1588.62,-462.92"/>
<polygon fill="none" stroke="black" points="1578.73,-489.17 1579.81,-499.71 1585.54,-490.8 1578.73,-489.17"/>
</g>
<!-- multi -->
<g id="node35" class="node">
<title>multi</title>
<polygon fill="none" stroke="black" points="1785.69,-462.89 1673.69,-462.89 1673.69,-426.89 1785.69,-426.89 1785.69,-462.89"/>
<text text-anchor="middle" x="1729.69" y="-441.19" font-family="Helvetica,Arial,sans-serif" font-size="14.00">MultiStepSolver</text>
</g>
<!-- mecadyn&#45;&gt;multi -->
<g id="edge18" class="edge">
<title>mecadyn&#45;&gt;multi</title>
<path fill="none" stroke="black" d="M1621.67,-495.7C1644.32,-485.26 1671.26,-472.83 1692.57,-463.01"/>
<polygon fill="none" stroke="black" points="1620.2,-492.52 1612.58,-499.89 1623.13,-498.88 1620.2,-492.52"/>
</g>
<!-- ther -->
<g id="node31" class="node">
<title>ther</title>
<polygon fill="none" stroke="black" points="1801.19,-535.89 1668.19,-535.89 1668.19,-499.89 1801.19,-499.89 1801.19,-535.89"/>
<text text-anchor="middle" x="1734.69" y="-514.19" font-family="Helvetica,Arial,sans-serif" font-size="14.00">ThermalStepSolver</text>
</g>
<!-- stepsolv&#45;&gt;problem_old -->
<g id="edge35" class="edge">
<title>stepsolv&#45;&gt;problem_old</title>
<path fill="none" stroke="black" stroke-dasharray="1,5" d="M1335.69,-609.59C1205.21,-606.43 929.77,-596.31 898.69,-566.89 804.98,-478.18 777.72,-388.66 848.69,-280.89 856.34,-269.28 927.99,-240.85 978.28,-221.99"/>
<polygon fill="black" stroke="black" points="979.57,-225.24 987.72,-218.47 977.12,-218.69 979.57,-225.24"/>
</g>
<!-- stepsolv&#45;&gt;state_old -->
<g id="edge37" class="edge">
<title>stepsolv&#45;&gt;state_old</title>
<path fill="none" stroke="black" d="M1378.69,-418.89C1449.78,-351.7 1525.34,-407.52 1577.69,-324.89 1588.16,-308.37 1587.17,-298 1577.69,-280.89 1561.97,-252.51 1530.93,-233.21 1503.96,-221.04"/>
<polygon fill="black" stroke="black" points="1505.2,-217.76 1494.63,-217.02 1502.43,-224.19 1505.2,-217.76"/>
</g>
<!-- stepsolv&#45;&gt;linsolv -->
<g id="edge38" class="edge">
<title>stepsolv&#45;&gt;linsolv</title>
<path fill="none" stroke="black" d="M1335.7,-608.64C1215.32,-604.02 974.6,-591.78 945.69,-566.89 876.02,-506.91 888.39,-382.33 898.04,-327.18"/>
<polygon fill="black" stroke="black" points="901.52,-327.59 899.9,-317.12 894.64,-326.31 901.52,-327.59"/>
</g>
<!-- stepsolv&#45;&gt;dispatch -->
<g id="edge36" class="edge">
<title>stepsolv&#45;&gt;dispatch</title>
<path fill="none" stroke="black" d="M1333.99,-609.98C1190.82,-607.46 873.9,-598.35 836.69,-566.89 732.71,-478.97 812.03,-281.03 839.36,-221.32"/>
<polygon fill="none" stroke="black" points="1333.93,-613.48 1343.99,-610.15 1334.05,-606.48 1333.93,-613.48"/>
<text text-anchor="middle" x="1024.6" y="-603.09" font-family="Helvetica,Arial,sans-serif" font-size="14.00">factory</text>
</g>
<!-- stepsolv&#45;&gt;mecastat -->
<g id="edge13" class="edge">
<title>stepsolv&#45;&gt;mecastat</title>
<path fill="none" stroke="black" d="M1406.66,-583.58C1408.33,-568.2 1410.37,-549.46 1411.82,-536.12"/>
<polygon fill="none" stroke="black" points="1403.18,-583.27 1405.57,-593.59 1410.13,-584.03 1403.18,-583.27"/>
</g>
<!-- stepsolv&#45;&gt;mecadyn -->
<g id="edge14" class="edge">
<title>stepsolv&#45;&gt;mecadyn</title>
<path fill="none" stroke="black" d="M1448.57,-589.42C1462.78,-582.43 1478.48,-574.5 1492.69,-566.89 1511.04,-557.07 1531.25,-545.39 1547.14,-536.02"/>
<polygon fill="none" stroke="black" points="1446.92,-586.32 1439.48,-593.86 1450,-592.61 1446.92,-586.32"/>
</g>
<!-- stepsolv&#45;&gt;ther -->
<g id="edge15" class="edge">
<title>stepsolv&#45;&gt;ther</title>
<path fill="none" stroke="black" d="M1473.61,-606.24C1525.98,-601.01 1598.65,-589.98 1658.69,-566.89 1678.21,-559.39 1698.12,-546.59 1712.66,-536.09"/>
<polygon fill="none" stroke="black" points="1473.04,-602.78 1463.42,-607.21 1473.7,-609.75 1473.04,-602.78"/>
</g>
<!-- conv_criteria -->
<g id="node36" class="node">
<title>conv_criteria</title>
<polygon fill="none" stroke="black" stroke-dasharray="5,2" points="1127.69,-535.89 1011.69,-535.89 1011.69,-499.89 1127.69,-499.89 1127.69,-535.89"/>
<text text-anchor="middle" x="1069.69" y="-514.19" font-family="Helvetica,Arial,sans-serif" font-size="14.00">IterationsSolver*</text>
</g>
<!-- stepsolv&#45;&gt;conv_criteria -->
<g id="edge39" class="edge">
<title>stepsolv&#45;&gt;conv_criteria</title>
<path fill="none" stroke="black" d="M1335.7,-592.16C1311.48,-585.49 1282.91,-577.62 1253.65,-569.56"/>
<polygon fill="black" stroke="black" points="1254.52,-566.17 1243.95,-566.89 1252.66,-572.92 1254.52,-566.17"/>
</g>
<!-- implicit&#45;&gt;integr -->
<g id="edge19" class="edge">
<title>implicit&#45;&gt;integr</title>
<path fill="none" stroke="black" d="M1497.34,-426.82C1552.15,-407.01 1634.69,-376.57 1634.69,-372.89 1634.69,-372.89 1634.69,-372.89 1634.69,-201.95 1634.69,-115.37 982.91,-107.96 775.37,-107.8"/>
<polygon fill="black" stroke="black" points="775.24,-104.3 765.24,-107.8 775.24,-111.3 775.24,-104.3"/>
</g>
<!-- explicit&#45;&gt;integr -->
<g id="edge20" class="edge">
<title>explicit&#45;&gt;integr</title>
<path fill="none" stroke="black" d="M1631.76,-426.77C1652.06,-414.97 1672.69,-397.03 1672.69,-372.89 1672.69,-372.89 1672.69,-372.89 1672.69,-201.95 1672.69,-122.4 1582.94,-149.93 1503.69,-143 1233.43,-119.36 909.76,-111.37 775.65,-108.95"/>
<polygon fill="black" stroke="black" points="775.62,-105.45 765.56,-108.77 775.5,-112.44 775.62,-105.45"/>
</g>
<!-- multi&#45;&gt;integr -->
<g id="edge21" class="edge">
<title>multi&#45;&gt;integr</title>
<path fill="none" stroke="black" d="M1725.91,-426.77C1723.08,-412.45 1719.69,-391.44 1719.69,-372.89 1719.69,-372.89 1719.69,-372.89 1719.69,-201.95 1719.69,-119.02 1567.58,-143.19 1565.69,-143 1271.06,-113.92 916.88,-108.91 775.47,-108.11"/>
<polygon fill="black" stroke="black" points="775.27,-104.61 765.25,-108.06 775.24,-111.61 775.27,-104.61"/>
</g>
<!-- conv_criteria&#45;&gt;operators -->
<g id="edge41" class="edge">
<title>conv_criteria&#45;&gt;operators</title>
<path fill="none" stroke="black" d="M949.7,-476.35C939.81,-473.1 932.75,-470.72 919.69,-462.89 856.35,-424.9 791.95,-367.7 754.47,-332.14"/>
<polygon fill="black" stroke="black" points="756.54,-329.27 746.89,-324.89 751.7,-334.33 756.54,-329.27"/>
</g>
<!-- conv_criteria&#45;&gt;linsolv -->
<g id="edge40" class="edge">
<title>conv_criteria&#45;&gt;linsolv</title>
<path fill="none" stroke="black" d="M949.69,-462.89C916.29,-424.14 907.04,-362.77 904.55,-327.42"/>
<polygon fill="black" stroke="black" points="908.03,-327.13 903.97,-317.34 901.05,-327.53 908.03,-327.13"/>
</g>
<!-- newton -->
<g id="node37" class="node">
<title>newton</title>
<polygon fill="none" stroke="black" points="1289.19,-462.89 1188.19,-462.89 1188.19,-426.89 1289.19,-426.89 1289.19,-462.89"/>
<text text-anchor="middle" x="1238.69" y="-441.19" font-family="Helvetica,Arial,sans-serif" font-size="14.00">NewtonSolver</text>
</g>
<!-- conv_criteria&#45;&gt;newton -->
<g id="edge22" class="edge">
<title>conv_criteria&#45;&gt;newton</title>
<path fill="none" stroke="black" stroke-dasharray="1,5" d="M1119.49,-495.97C1144.47,-485.48 1174.36,-472.92 1197.96,-463.01"/>
<polygon fill="none" stroke="black" points="1118.04,-492.79 1110.17,-499.89 1120.75,-499.24 1118.04,-492.79"/>
</g>
<!-- snes -->
<g id="node38" class="node">
<title>snes</title>
<polygon fill="none" stroke="black" points="1169.69,-462.89 1077.69,-462.89 1077.69,-426.89 1169.69,-426.89 1169.69,-462.89"/>
<text text-anchor="middle" x="1123.69" y="-441.19" font-family="Helvetica,Arial,sans-serif" font-size="14.00">SNESSolver</text>
</g>
<!-- conv_criteria&#45;&gt;snes -->
<g id="edge23" class="edge">
<title>conv_criteria&#45;&gt;snes</title>
<path fill="none" stroke="black" stroke-dasharray="1,5" d="M1088.87,-491.68C1096.12,-482.15 1104.19,-471.53 1110.74,-462.92"/>
<polygon fill="none" stroke="black" points="1086.03,-489.63 1082.77,-499.71 1091.6,-493.86 1086.03,-489.63"/>
</g>
<!-- raspen -->
<g id="node39" class="node">
<title>raspen</title>
<polygon fill="none" stroke="black" points="1059.19,-462.89 958.19,-462.89 958.19,-426.89 1059.19,-426.89 1059.19,-462.89"/>
<text text-anchor="middle" x="1008.69" y="-441.19" font-family="Helvetica,Arial,sans-serif" font-size="14.00">RaspenSolver</text>
</g>
<!-- conv_criteria&#45;&gt;raspen -->
<g id="edge24" class="edge">
<title>conv_criteria&#45;&gt;raspen</title>
<path fill="none" stroke="black" stroke-dasharray="1,5" d="M1048.28,-491.97C1040.03,-482.36 1030.8,-471.62 1023.32,-462.92"/>
<polygon fill="none" stroke="black" points="1045.76,-494.4 1054.93,-499.71 1051.06,-489.84 1045.76,-494.4"/>
</g>
<!-- newton&#45;&gt;conv_manager -->
<g id="edge44" class="edge">
<title>newton&#45;&gt;conv_manager</title>
<path fill="none" stroke="black" d="M1224.04,-426.65C1216.45,-416.61 1207.91,-403.32 1203.69,-389.89 1197.3,-369.54 1196.87,-345.31 1197.86,-327.13"/>
<polygon fill="black" stroke="black" points="1201.37,-327.16 1198.6,-316.93 1194.39,-326.65 1201.37,-327.16"/>
</g>
<!-- newton&#45;&gt;incr_solv -->
<g id="edge43" class="edge">
<title>newton&#45;&gt;incr_solv</title>
<path fill="none" stroke="black" d="M1247.65,-426.71C1252.01,-418.33 1257.35,-408.09 1262.19,-398.8"/>
<polygon fill="black" stroke="black" points="1265.3,-400.41 1266.82,-389.92 1259.09,-397.17 1265.3,-400.41"/>
</g>
<!-- snes&#45;&gt;problem_old -->
<g id="edge61" class="edge">
<title>snes&#45;&gt;problem_old</title>
<path fill="none" stroke="black" stroke-dasharray="1,5" d="M1106.03,-426.89C1085,-405.38 1050.82,-366.15 1035.69,-324.89 1024.46,-294.26 1023.9,-256.36 1025.2,-231.24"/>
<polygon fill="black" stroke="black" points="1028.72,-231.2 1025.88,-220.99 1021.73,-230.74 1028.72,-231.2"/>
</g>
<!-- snes&#45;&gt;incr_solv -->
<!-- raspen&#45;&gt;problem_old -->
<g id="edge62" class="edge">
<title>raspen&#45;&gt;problem_old</title>
<path fill="none" stroke="black" stroke-dasharray="1,5" d="M1005.65,-426.62C1000.88,-396.71 993.06,-333.44 1001.69,-280.89 1004.54,-263.6 1010.75,-244.95 1016.39,-230.35"/>
<polygon fill="black" stroke="black" points="1019.68,-231.54 1020.15,-220.95 1013.19,-228.93 1019.68,-231.54"/>
</g>
</g>
</svg>
