<?xml version="1.0" encoding="UTF-8" standalone="no"?>
<!DOCTYPE svg PUBLIC "-//W3C//DTD SVG 1.1//EN"
 "http://www.w3.org/Graphics/SVG/1.1/DTD/svg11.dtd">
<!-- Generated by graphviz version 2.43.0 (0)
 -->
<!-- Title: MNL Pages: 1 -->
<svg width="2017pt" height="846pt"
 viewBox="0.00 0.00 2016.69 846.00" xmlns="http://www.w3.org/2000/svg" xmlns:xlink="http://www.w3.org/1999/xlink">
<g id="graph0" class="graph" transform="scale(1 1) rotate(0) translate(4 842)">
<title>MNL</title>
<polygon fill="white" stroke="transparent" points="-4,4 -4,-842 2012.69,-842 2012.69,4 -4,4"/>
<g id="clust2" class="cluster">
<title>cluster_operators</title>
<polygon fill="none" stroke="black" stroke-dasharray="5,2" points="764.69,-8 764.69,-279 1224.69,-279 1224.69,-8 764.69,-8"/>
</g>
<g id="clust4" class="cluster">
<title>cluster_stepsolv</title>
<polygon fill="none" stroke="black" stroke-dasharray="5,2" points="748.69,-373 748.69,-615 1222.69,-615 1222.69,-373 748.69,-373"/>
<text text-anchor="middle" x="985.69" y="-599.8" font-family="Helvetica,Arial,sans-serif" font-size="14.00">StepSolver</text>
</g>
<g id="clust7" class="cluster">
<title>cluster_iter_solv</title>
<polygon fill="none" stroke="black" stroke-dasharray="5,2" points="1532.69,-373 1532.69,-521 1880.69,-521 1880.69,-373 1532.69,-373"/>
<text text-anchor="middle" x="1706.69" y="-505.8" font-family="Helvetica,Arial,sans-serif" font-size="14.00">ConvergenceCriteria</text>
</g>
<!-- keywords -->
<g id="node1" class="node">
<title>keywords</title>
<ellipse fill="none" stroke="black" cx="599.69" cy="-566" rx="49.29" ry="18"/>
<text text-anchor="middle" x="599.69" y="-562.3" font-family="Helvetica,Arial,sans-serif" font-size="14.00">Keywords</text>
</g>
<!-- problem -->
<g id="node2" class="node">
<title>problem</title>
<ellipse fill="none" stroke="black" cx="221.69" cy="-566" rx="76.89" ry="18"/>
<text text-anchor="middle" x="221.69" y="-562.3" font-family="Helvetica,Arial,sans-serif" font-size="14.00">PhysicalProblem</text>
</g>
<!-- type -->
<g id="node3" class="node">
<title>type</title>
<ellipse fill="none" stroke="black" cx="379.69" cy="-566" rx="63.09" ry="18"/>
<text text-anchor="middle" x="379.69" y="-562.3" font-family="Helvetica,Arial,sans-serif" font-size="14.00">ProblemType</text>
</g>
<!-- state -->
<g id="node4" class="node">
<title>state</title>
<ellipse fill="none" stroke="black" cx="63.69" cy="-566" rx="63.89" ry="18"/>
<text text-anchor="middle" x="63.69" y="-562.3" font-family="Helvetica,Arial,sans-serif" font-size="14.00">PhysicalState</text>
</g>
<!-- result -->
<g id="node5" class="node">
<title>result</title>
<ellipse fill="none" stroke="black" cx="496.69" cy="-566" rx="36" ry="18"/>
<text text-anchor="middle" x="496.69" y="-562.3" font-family="Helvetica,Arial,sans-serif" font-size="14.00">Result</text>
</g>
<!-- context -->
<g id="node6" class="node">
<title>context</title>
<polygon fill="none" stroke="black" points="470.19,-678 407.19,-678 407.19,-642 470.19,-642 470.19,-678"/>
<text text-anchor="middle" x="438.69" y="-656.3" font-family="Helvetica,Arial,sans-serif" font-size="14.00">Context</text>
</g>
<!-- context&#45;&gt;keywords -->
<g id="edge3" class="edge">
<title>context&#45;&gt;keywords</title>
<path fill="none" stroke="black" d="M470.49,-648.13C491.46,-640.32 519.11,-628.77 541.69,-615 553.49,-607.81 565.44,-598.37 575.4,-589.76"/>
<polygon fill="black" stroke="black" points="577.76,-592.35 582.92,-583.1 573.11,-587.11 577.76,-592.35"/>
</g>
<!-- context&#45;&gt;problem -->
<g id="edge1" class="edge">
<title>context&#45;&gt;problem</title>
<path fill="none" stroke="black" d="M407.11,-650.18C380.19,-642.25 340.71,-629.61 307.69,-615 290.18,-607.25 271.53,-597.09 256.08,-588.12"/>
<polygon fill="black" stroke="black" points="257.79,-585.06 247.4,-583 254.23,-591.09 257.79,-585.06"/>
</g>
<!-- context&#45;&gt;type -->
<g id="edge2" class="edge">
<title>context&#45;&gt;type</title>
<path fill="none" stroke="black" d="M427.6,-641.7C418.72,-627.86 406.15,-608.25 396.11,-592.6"/>
<polygon fill="black" stroke="black" points="398.89,-590.44 390.54,-583.92 392.99,-594.22 398.89,-590.44"/>
</g>
<!-- context&#45;&gt;state -->
<g id="edge4" class="edge">
<title>context&#45;&gt;state</title>
<path fill="none" stroke="black" d="M407.17,-653.04C365.04,-645.25 287.97,-631.57 221.69,-623 183.62,-618.08 171.88,-627.82 135.69,-615 119.43,-609.24 103.27,-598.99 90.39,-589.43"/>
<polygon fill="black" stroke="black" points="92.49,-586.64 82.43,-583.31 88.22,-592.18 92.49,-586.64"/>
</g>
<!-- context&#45;&gt;result -->
<g id="edge5" class="edge">
<title>context&#45;&gt;result</title>
<path fill="none" stroke="black" d="M449.6,-641.7C458.44,-627.68 471,-607.76 480.93,-592.01"/>
<polygon fill="black" stroke="black" points="484.05,-593.63 486.42,-583.3 478.12,-589.89 484.05,-593.63"/>
</g>
<!-- problem_old -->
<g id="node7" class="node">
<title>problem_old</title>
<ellipse fill="none" stroke="black" cx="1784.69" cy="-180" rx="76.89" ry="18"/>
<text text-anchor="middle" x="1784.69" y="-176.3" font-family="Helvetica,Arial,sans-serif" font-size="14.00">PhysicalProblem</text>
</g>
<!-- state_old -->
<g id="node8" class="node">
<title>state_old</title>
<ellipse fill="none" stroke="black" cx="1392.69" cy="-180" rx="63.89" ry="18"/>
<text text-anchor="middle" x="1392.69" y="-176.3" font-family="Helvetica,Arial,sans-serif" font-size="14.00">PhysicalState</text>
</g>
<!-- mnl -->
<g id="node9" class="node">
<title>mnl</title>
<polygon fill="none" stroke="black" points="647.69,-838 509.69,-838 509.69,-802 647.69,-802 647.69,-838"/>
<text text-anchor="middle" x="578.69" y="-816.3" font-family="Helvetica,Arial,sans-serif" font-size="14.00">meca_non_line_ops</text>
</g>
<!-- mnl&#45;&gt;keywords -->
<g id="edge25" class="edge">
<title>mnl&#45;&gt;keywords</title>
<path fill="none" stroke="black" stroke-width="2" d="M580.14,-801.68C583.73,-758.6 593.08,-646.33 597.42,-594.26"/>
<polygon fill="black" stroke="black" stroke-width="2" points="600.93,-594.37 598.27,-584.11 593.95,-593.78 600.93,-594.37"/>
<text text-anchor="middle" x="580.2" y="-696.7" font-family="Helvetica,Arial,sans-serif" font-size="14.00">init</text>
</g>
<!-- mnl&#45;&gt;problem -->
<g id="edge26" class="edge">
<title>mnl&#45;&gt;problem</title>
<path fill="none" stroke="black" stroke-width="2" d="M554.44,-801.88C491.68,-757.58 323.97,-639.19 253.54,-589.48"/>
<polygon fill="black" stroke="black" stroke-width="2" points="255.24,-586.39 245.05,-583.49 251.2,-592.11 255.24,-586.39"/>
<text text-anchor="middle" x="377.15" y="-696.42" font-family="Helvetica,Arial,sans-serif" font-size="14.00">creates</text>
</g>
<!-- pbsolv -->
<g id="node10" class="node">
<title>pbsolv</title>
<polygon fill="none" stroke="black" points="712.69,-765 606.69,-765 606.69,-729 712.69,-729 712.69,-765"/>
<text text-anchor="middle" x="659.69" y="-743.3" font-family="Helvetica,Arial,sans-serif" font-size="14.00">ProblemSolver</text>
</g>
<!-- mnl&#45;&gt;pbsolv -->
<g id="edge24" class="edge">
<title>mnl&#45;&gt;pbsolv</title>
<path fill="none" stroke="black" d="M598.3,-801.81C608.55,-792.83 621.26,-781.69 632.44,-771.89"/>
<polygon fill="black" stroke="black" points="635.05,-774.25 640.27,-765.03 630.44,-768.99 635.05,-774.25"/>
</g>
<!-- pbsolv&#45;&gt;state -->
<g id="edge28" class="edge">
<title>pbsolv&#45;&gt;state</title>
<path fill="none" stroke="black" stroke-width="2" d="M606.42,-738.85C509.45,-724.52 299.06,-687.27 135.69,-615 120.51,-608.28 105.02,-598.42 92.32,-589.38"/>
<polygon fill="black" stroke="black" stroke-width="2" points="94.14,-586.38 84.01,-583.3 90.01,-592.03 94.14,-586.38"/>
<text text-anchor="middle" x="316.09" y="-688.04" font-family="Helvetica,Arial,sans-serif" font-size="14.00">creates</text>
</g>
<!-- pbsolv&#45;&gt;context -->
<g id="edge27" class="edge">
<title>pbsolv&#45;&gt;context</title>
<path fill="none" stroke="black" d="M605.88,-725.3C563.38,-708.96 505.55,-686.71 470.23,-673.13"/>
<polygon fill="none" stroke="black" points="604.65,-728.58 615.24,-728.9 607.16,-722.04 604.65,-728.58"/>
<text text-anchor="middle" x="526.25" y="-704.82" font-family="Helvetica,Arial,sans-serif" font-size="14.00">mixin</text>
</g>
<!-- timestepper -->
<g id="node11" class="node">
<title>timestepper</title>
<polygon fill="none" stroke="black" points="704.19,-678 609.19,-678 609.19,-642 704.19,-642 704.19,-678"/>
<text text-anchor="middle" x="656.69" y="-656.3" font-family="Helvetica,Arial,sans-serif" font-size="14.00">TimeStepper</text>
</g>
<!-- pbsolv&#45;&gt;timestepper -->
<g id="edge29" class="edge">
<title>pbsolv&#45;&gt;timestepper</title>
<path fill="none" stroke="black" d="M659.09,-728.8C658.68,-717.16 658.13,-701.55 657.66,-688.24"/>
<polygon fill="black" stroke="black" points="661.15,-688.05 657.3,-678.18 654.16,-688.29 661.15,-688.05"/>
</g>
<!-- storage -->
<g id="node12" class="node">
<title>storage</title>
<polygon fill="none" stroke="black" points="840.69,-678 722.69,-678 722.69,-642 840.69,-642 840.69,-678"/>
<text text-anchor="middle" x="781.69" y="-656.3" font-family="Helvetica,Arial,sans-serif" font-size="14.00">StorageManager</text>
</g>
<!-- pbsolv&#45;&gt;storage -->
<g id="edge30" class="edge">
<title>pbsolv&#45;&gt;storage</title>
<path fill="none" stroke="black" d="M684.38,-728.8C702.9,-715.9 728.45,-698.1 748.71,-683.98"/>
<polygon fill="black" stroke="black" points="750.84,-686.76 757.04,-678.18 746.84,-681.02 750.84,-686.76"/>
</g>
<!-- hook -->
<g id="node17" class="node">
<title>hook</title>
<polygon fill="none" stroke="black" points="962.19,-678 859.19,-678 859.19,-642 962.19,-642 962.19,-678"/>
<text text-anchor="middle" x="910.69" y="-656.3" font-family="Helvetica,Arial,sans-serif" font-size="14.00">PostStepHook</text>
</g>
<!-- pbsolv&#45;&gt;hook -->
<g id="edge32" class="edge">
<title>pbsolv&#45;&gt;hook</title>
<path fill="none" stroke="black" stroke-dasharray="5,2" d="M710.19,-728.9C750.78,-715.15 807.91,-695.81 850.81,-681.28"/>
<polygon fill="black" stroke="black" points="851.93,-684.59 860.28,-678.07 849.69,-677.96 851.93,-684.59"/>
<text text-anchor="middle" x="814.19" y="-699.8" font-family="Helvetica,Arial,sans-serif" font-size="14.00">todo</text>
</g>
<!-- stepsolv -->
<g id="node27" class="node">
<title>stepsolv</title>
<polygon fill="none" stroke="black" points="1047.19,-584 934.19,-584 934.19,-548 1047.19,-548 1047.19,-584"/>
<text text-anchor="middle" x="990.69" y="-562.3" font-family="Helvetica,Arial,sans-serif" font-size="14.00">BaseStepSolver</text>
</g>
<!-- pbsolv&#45;&gt;stepsolv -->
<g id="edge31" class="edge">
<title>pbsolv&#45;&gt;stepsolv</title>
<path fill="none" stroke="black" stroke-width="2" d="M712.98,-741.49C792.34,-733.64 935.98,-714.68 970.69,-678 984.03,-663.91 990.04,-644.11 992.4,-625.12"/>
<polygon fill="black" stroke="black" stroke-width="2" points="995.9,-625.28 993.33,-615 988.93,-624.63 995.9,-625.28"/>
<text text-anchor="middle" x="805.1" y="-723.62" font-family="Helvetica,Arial,sans-serif" font-size="14.00">loops on timesteps</text>
</g>
<!-- observ -->
<g id="node19" class="node">
<title>observ</title>
<polygon fill="none" stroke="black" points="740.69,-584 666.69,-584 666.69,-548 740.69,-548 740.69,-584"/>
<text text-anchor="middle" x="703.69" y="-562.3" font-family="Helvetica,Arial,sans-serif" font-size="14.00">Observer</text>
</g>
<!-- timestepper&#45;&gt;observ -->
<g id="edge59" class="edge">
<title>timestepper&#45;&gt;observ</title>
<path fill="none" stroke="black" d="M670.19,-632.58C678.13,-617.03 687.95,-597.83 694.89,-584.23"/>
<polygon fill="none" stroke="black" points="666.97,-631.2 665.53,-641.7 673.2,-634.38 666.97,-631.2"/>
<text text-anchor="middle" x="663.78" y="-616.64" font-family="Helvetica,Arial,sans-serif" font-size="14.00">mixin</text>
</g>
<!-- timestepper&#45;&gt;stepsolv -->
<!-- linsolv -->
<g id="node13" class="node">
<title>linsolv</title>
<polygon fill="none" stroke="black" points="1980.69,-271 1888.69,-271 1888.69,-235 1980.69,-235 1980.69,-271"/>
<text text-anchor="middle" x="1934.69" y="-249.3" font-family="Helvetica,Arial,sans-serif" font-size="14.00">LinearSolver</text>
</g>
<!-- linesearch -->
<g id="node14" class="node">
<title>linesearch</title>
<polygon fill="none" stroke="black" points="1506.19,-271 1421.19,-271 1421.19,-235 1506.19,-235 1506.19,-271"/>
<text text-anchor="middle" x="1463.69" y="-249.3" font-family="Helvetica,Arial,sans-serif" font-size="14.00">LineSearch</text>
</g>
<!-- linesearch&#45;&gt;state_old -->
<g id="edge50" class="edge">
<title>linesearch&#45;&gt;state_old</title>
<path fill="none" stroke="black" stroke-dasharray="1,5" d="M1446.51,-234.81C1437.48,-225.79 1426.28,-214.59 1416.44,-204.74"/>
<polygon fill="black" stroke="black" points="1418.78,-202.14 1409.23,-197.54 1413.83,-207.09 1418.78,-202.14"/>
</g>
<!-- opers -->
<g id="node21" class="node">
<title>opers</title>
<polygon fill="none" stroke="black" stroke-dasharray="5,2" points="1214.19,-271 1137.19,-271 1137.19,-235 1214.19,-235 1214.19,-271"/>
<text text-anchor="middle" x="1175.69" y="-249.3" font-family="Helvetica,Arial,sans-serif" font-size="14.00">Operators</text>
</g>
<!-- linesearch&#45;&gt;opers -->
<g id="edge51" class="edge">
<title>linesearch&#45;&gt;opers</title>
<path fill="none" stroke="black" d="M1428.99,-271.08C1410.45,-279.73 1386.92,-289.13 1364.69,-293.5 1323.7,-301.56 1311.63,-301.86 1270.69,-293.5 1258.48,-291 1245.89,-286.88 1234.03,-282.19"/>
<polygon fill="black" stroke="black" points="1235.27,-278.91 1224.69,-278.32 1232.6,-285.38 1235.27,-278.91"/>
</g>
<!-- conv_manager -->
<g id="node15" class="node">
<title>conv_manager</title>
<polygon fill="none" stroke="black" points="1675.19,-271 1524.19,-271 1524.19,-235 1675.19,-235 1675.19,-271"/>
<text text-anchor="middle" x="1599.69" y="-249.3" font-family="Helvetica,Arial,sans-serif" font-size="14.00">ConvergenceManager</text>
</g>
<!-- conv_manager&#45;&gt;problem_old -->
<g id="edge55" class="edge">
<title>conv_manager&#45;&gt;problem_old</title>
<path fill="none" stroke="black" stroke-dasharray="1,5" d="M1644.01,-234.99C1672.05,-224.23 1708.29,-210.32 1736.97,-199.32"/>
<polygon fill="black" stroke="black" points="1738.3,-202.56 1746.38,-195.7 1735.79,-196.02 1738.3,-202.56"/>
</g>
<!-- conv_manager&#45;&gt;state_old -->
<g id="edge56" class="edge">
<title>conv_manager&#45;&gt;state_old</title>
<path fill="none" stroke="black" stroke-dasharray="1,5" d="M1550.11,-234.99C1517.16,-223.69 1474.09,-208.92 1441.34,-197.68"/>
<polygon fill="black" stroke="black" points="1442.12,-194.25 1431.52,-194.32 1439.85,-200.87 1442.12,-194.25"/>
</g>
<!-- contact -->
<g id="node16" class="node">
<title>contact</title>
<polygon fill="none" stroke="black" points="1756.19,-271 1693.19,-271 1693.19,-235 1756.19,-235 1756.19,-271"/>
<text text-anchor="middle" x="1724.69" y="-249.3" font-family="Helvetica,Arial,sans-serif" font-size="14.00">Contact</text>
</g>
<!-- contact&#45;&gt;problem_old -->
<g id="edge54" class="edge">
<title>contact&#45;&gt;problem_old</title>
<path fill="none" stroke="black" stroke-dasharray="1,5" d="M1739.22,-234.81C1746.59,-226.09 1755.67,-215.34 1763.78,-205.75"/>
<polygon fill="black" stroke="black" points="1766.52,-207.93 1770.3,-198.03 1761.18,-203.41 1766.52,-207.93"/>
</g>
<!-- incr_solv -->
<g id="node18" class="node">
<title>incr_solv</title>
<polygon fill="none" stroke="black" points="1656.69,-344 1530.69,-344 1530.69,-308 1656.69,-308 1656.69,-344"/>
<text text-anchor="middle" x="1593.69" y="-322.3" font-family="Helvetica,Arial,sans-serif" font-size="14.00">IncrementalSolver</text>
</g>
<!-- incr_solv&#45;&gt;problem_old -->
<g id="edge48" class="edge">
<title>incr_solv&#45;&gt;problem_old</title>
<path fill="none" stroke="black" stroke-dasharray="1,5" d="M1656.74,-315.31C1699.44,-307.45 1750.73,-295.05 1765.69,-279 1783.19,-260.24 1786.8,-230.42 1786.74,-208.59"/>
<polygon fill="black" stroke="black" points="1790.23,-208.2 1786.45,-198.31 1783.24,-208.41 1790.23,-208.2"/>
</g>
<!-- incr_solv&#45;&gt;state_old -->
<g id="edge49" class="edge">
<title>incr_solv&#45;&gt;state_old</title>
<path fill="none" stroke="black" stroke-dasharray="1,5" d="M1530.27,-316.15C1484.83,-308.51 1428.92,-296.01 1412.69,-279 1394.88,-260.32 1391.01,-230.28 1390.9,-208.38"/>
<polygon fill="black" stroke="black" points="1394.4,-208.44 1391.1,-198.37 1387.4,-208.3 1394.4,-208.44"/>
</g>
<!-- incr_solv&#45;&gt;linsolv -->
<g id="edge45" class="edge">
<title>incr_solv&#45;&gt;linsolv</title>
<path fill="none" stroke="black" d="M1657.03,-311.81C1720.71,-298.55 1817.92,-278.31 1878.81,-265.64"/>
<polygon fill="black" stroke="black" points="1879.55,-269.06 1888.63,-263.59 1878.12,-262.2 1879.55,-269.06"/>
</g>
<!-- incr_solv&#45;&gt;linesearch -->
<g id="edge42" class="edge">
<title>incr_solv&#45;&gt;linesearch</title>
<path fill="none" stroke="black" d="M1562.56,-307.99C1545,-298.4 1522.87,-286.32 1504,-276.01"/>
<polygon fill="black" stroke="black" points="1505.48,-272.84 1495.03,-271.11 1502.13,-278.98 1505.48,-272.84"/>
</g>
<!-- incr_solv&#45;&gt;conv_manager -->
<g id="edge46" class="edge">
<title>incr_solv&#45;&gt;conv_manager</title>
<path fill="none" stroke="black" d="M1595.15,-307.81C1595.82,-299.79 1596.65,-290.05 1597.41,-281.07"/>
<polygon fill="black" stroke="black" points="1600.9,-281.29 1598.26,-271.03 1593.93,-280.7 1600.9,-281.29"/>
</g>
<!-- incr_solv&#45;&gt;contact -->
<g id="edge43" class="edge">
<title>incr_solv&#45;&gt;contact</title>
<path fill="none" stroke="black" d="M1629.52,-307.82C1646.44,-299.47 1666.81,-289.08 1684.69,-279 1686.21,-278.14 1687.76,-277.26 1689.31,-276.35"/>
<polygon fill="black" stroke="black" points="1691.44,-279.16 1698.22,-271.02 1687.84,-273.15 1691.44,-279.16"/>
</g>
<!-- event -->
<g id="node20" class="node">
<title>event</title>
<polygon fill="none" stroke="black" points="1364.69,-271 1270.69,-271 1270.69,-235 1364.69,-235 1364.69,-271"/>
<text text-anchor="middle" x="1317.69" y="-249.3" font-family="Helvetica,Arial,sans-serif" font-size="14.00">EventSource</text>
</g>
<!-- incr_solv&#45;&gt;event -->
<g id="edge47" class="edge">
<title>incr_solv&#45;&gt;event</title>
<path fill="none" stroke="black" d="M1520.55,-319.88C1478.15,-315.25 1424.29,-306.5 1378.69,-290 1365.86,-285.35 1352.69,-277.97 1341.88,-271.09"/>
<polygon fill="none" stroke="black" points="1520.21,-323.36 1530.52,-320.91 1520.93,-316.4 1520.21,-323.36"/>
<text text-anchor="middle" x="1417.66" y="-309.68" font-family="Helvetica,Arial,sans-serif" font-size="14.00">mixin</text>
</g>
<!-- incr_solv&#45;&gt;opers -->
<g id="edge44" class="edge">
<title>incr_solv&#45;&gt;opers</title>
<path fill="none" stroke="black" d="M1530.5,-319.01C1463.35,-311.99 1354.31,-298.77 1261.69,-279 1252.81,-277.1 1243.5,-274.77 1234.42,-272.3"/>
<polygon fill="black" stroke="black" points="1235.26,-268.9 1224.69,-269.58 1233.38,-275.64 1235.26,-268.9"/>
</g>
<!-- opers&#45;&gt;problem_old -->
<g id="edge52" class="edge">
<title>opers&#45;&gt;problem_old</title>
<path fill="none" stroke="black" stroke-dasharray="1,5" d="M1214.52,-243.54C1229.24,-240.53 1246.19,-237.33 1261.69,-235 1416.76,-211.72 1599.21,-195.37 1702.47,-187.13"/>
<polygon fill="black" stroke="black" points="1702.83,-190.61 1712.52,-186.33 1702.28,-183.63 1702.83,-190.61"/>
</g>
<!-- opers&#45;&gt;state_old -->
<g id="edge53" class="edge">
<title>opers&#45;&gt;state_old</title>
<path fill="none" stroke="black" stroke-dasharray="1,5" d="M1196.77,-234.92C1206.07,-228.13 1217.44,-220.8 1228.69,-216 1259.01,-203.06 1294.58,-194.72 1324.83,-189.44"/>
<polygon fill="black" stroke="black" points="1325.58,-192.87 1334.87,-187.77 1324.43,-185.96 1325.58,-192.87"/>
</g>
<!-- statopers -->
<g id="node22" class="node">
<title>statopers</title>
<polygon fill="none" stroke="black" stroke-dasharray="5,2" points="908.19,-198 773.19,-198 773.19,-162 908.19,-162 908.19,-198"/>
<text text-anchor="middle" x="840.69" y="-176.3" font-family="Helvetica,Arial,sans-serif" font-size="14.00">MecaStatOperators</text>
</g>
<!-- opers&#45;&gt;statopers -->
<g id="edge6" class="edge">
<title>opers&#45;&gt;statopers</title>
<path fill="none" stroke="black" d="M1126.83,-241.94C1074.92,-231.21 990.47,-213.65 917.69,-198 914.62,-197.34 911.47,-196.66 908.29,-195.97"/>
<polygon fill="none" stroke="black" points="1126.26,-245.4 1136.77,-243.99 1127.68,-238.54 1126.26,-245.4"/>
</g>
<!-- theropers -->
<g id="node23" class="node">
<title>theropers</title>
<polygon fill="none" stroke="black" stroke-dasharray="5,2" points="1054.69,-198 926.69,-198 926.69,-162 1054.69,-162 1054.69,-198"/>
<text text-anchor="middle" x="990.69" y="-176.3" font-family="Helvetica,Arial,sans-serif" font-size="14.00">ThermalOperators</text>
</g>
<!-- opers&#45;&gt;theropers -->
<g id="edge8" class="edge">
<title>opers&#45;&gt;theropers</title>
<path fill="none" stroke="black" d="M1127.55,-233.52C1099.03,-222.58 1063.15,-208.81 1035.28,-198.11"/>
<polygon fill="none" stroke="black" points="1126.32,-236.8 1136.91,-237.12 1128.83,-230.27 1126.32,-236.8"/>
</g>
<!-- dynopers -->
<g id="node24" class="node">
<title>dynopers</title>
<polygon fill="none" stroke="black" stroke-dasharray="5,2" points="1216.19,-198 1073.19,-198 1073.19,-162 1216.19,-162 1216.19,-198"/>
<text text-anchor="middle" x="1144.69" y="-176.3" font-family="Helvetica,Arial,sans-serif" font-size="14.00">MecaDynaOperators</text>
</g>
<!-- opers&#45;&gt;dynopers -->
<g id="edge7" class="edge">
<title>opers&#45;&gt;dynopers</title>
<path fill="none" stroke="black" d="M1164.18,-225.63C1160.15,-216.4 1155.74,-206.29 1152.13,-198.03"/>
<polygon fill="none" stroke="black" points="1160.98,-227.05 1168.19,-234.81 1167.4,-224.25 1160.98,-227.05"/>
</g>
<!-- integr -->
<g id="node25" class="node">
<title>integr</title>
<polygon fill="none" stroke="black" points="878.19,-125 773.19,-125 773.19,-89 878.19,-89 878.19,-125"/>
<text text-anchor="middle" x="825.69" y="-103.3" font-family="Helvetica,Arial,sans-serif" font-size="14.00">BaseIntegrator</text>
</g>
<!-- dynopers&#45;&gt;integr -->
<g id="edge9" class="edge">
<title>dynopers&#45;&gt;integr</title>
<path fill="none" stroke="black" d="M1063.23,-160.87C1005.23,-147.96 928.95,-130.98 878.68,-119.79"/>
<polygon fill="none" stroke="black" points="1062.58,-164.31 1073.1,-163.07 1064.1,-157.48 1062.58,-164.31"/>
</g>
<!-- newmark -->
<g id="node26" class="node">
<title>newmark</title>
<polygon fill="none" stroke="black" points="904.69,-52 772.69,-52 772.69,-16 904.69,-16 904.69,-52"/>
<text text-anchor="middle" x="838.69" y="-30.3" font-family="Helvetica,Arial,sans-serif" font-size="14.00">NewmarkIntegrator</text>
</g>
<!-- integr&#45;&gt;newmark -->
<g id="edge10" class="edge">
<title>integr&#45;&gt;newmark</title>
<path fill="none" stroke="black" d="M830.68,-78.75C832.33,-69.77 834.11,-60.03 835.58,-52.03"/>
<polygon fill="none" stroke="black" points="827.2,-78.35 828.84,-88.81 834.09,-79.61 827.2,-78.35"/>
</g>
<!-- stepsolv&#45;&gt;problem_old -->
<g id="edge33" class="edge">
<title>stepsolv&#45;&gt;problem_old</title>
<path fill="none" stroke="black" stroke-dasharray="1,5" d="M1222.69,-535.23C1455.57,-522.36 1565.93,-552.59 1857.69,-530 1929.21,-524.46 2008.69,-544.73 2008.69,-473 2008.69,-473 2008.69,-473 2008.69,-252 2008.69,-220.34 1926.37,-200.98 1861.54,-190.63"/>
<polygon fill="black" stroke="black" points="1861.71,-187.12 1851.3,-189.05 1860.64,-194.03 1861.71,-187.12"/>
</g>
<!-- stepsolv&#45;&gt;state_old -->
<g id="edge34" class="edge">
<title>stepsolv&#45;&gt;state_old</title>
<path fill="none" stroke="black" d="M1222.69,-521.81C1223.03,-521.54 1223.36,-521.27 1223.69,-521 1241.45,-506.47 1242.69,-495.94 1242.69,-473 1242.69,-473 1242.69,-473 1242.69,-252 1242.69,-213.62 1283.31,-195.96 1322.27,-187.84"/>
<polygon fill="black" stroke="black" points="1322.94,-191.28 1332.12,-185.98 1321.64,-184.4 1322.94,-191.28"/>
</g>
<!-- stepsolv&#45;&gt;linsolv -->
<g id="edge35" class="edge">
<title>stepsolv&#45;&gt;linsolv</title>
<path fill="none" stroke="black" d="M1222.69,-544.04C1443.24,-542.74 1821.54,-546.22 1884.69,-521 1914.52,-509.09 1938.69,-505.11 1938.69,-473 1938.69,-473 1938.69,-473 1938.69,-325 1938.69,-310.63 1937.87,-294.65 1936.97,-281.49"/>
<polygon fill="black" stroke="black" points="1940.43,-280.92 1936.21,-271.2 1933.45,-281.43 1940.43,-280.92"/>
</g>
<!-- dispatch -->
<g id="node28" class="node">
<title>dispatch</title>
<polygon fill="none" stroke="black" stroke-dasharray="5,2" points="1214.69,-584 1082.69,-584 1082.69,-548 1214.69,-548 1214.69,-584"/>
<text text-anchor="middle" x="1148.69" y="-562.3" font-family="Helvetica,Arial,sans-serif" font-size="14.00">ProblemDispatcher</text>
</g>
<!-- stepsolv&#45;&gt;dispatch -->
<g id="edge11" class="edge">
<title>stepsolv&#45;&gt;dispatch</title>
<path fill="none" stroke="black" d="M1047.48,-566C1055.81,-566 1064.15,-566 1072.49,-566"/>
<polygon fill="none" stroke="black" points="1072.66,-569.5 1082.66,-566 1072.66,-562.5 1072.66,-569.5"/>
<text text-anchor="middle" x="1065.07" y="-554.8" font-family="Helvetica,Arial,sans-serif" font-size="14.00">factory</text>
</g>
<!-- mecastat -->
<g id="node29" class="node">
<title>mecastat</title>
<polygon fill="none" stroke="black" points="896.69,-490 756.69,-490 756.69,-454 896.69,-454 896.69,-490"/>
<text text-anchor="middle" x="826.69" y="-468.3" font-family="Helvetica,Arial,sans-serif" font-size="14.00">MecaStatStepSolver</text>
</g>
<!-- stepsolv&#45;&gt;mecastat -->
<g id="edge12" class="edge">
<title>stepsolv&#45;&gt;mecastat</title>
<path fill="none" stroke="black" d="M947.42,-543.32C933.95,-536.38 919.11,-528.54 905.69,-521 888.2,-511.17 868.96,-499.5 853.84,-490.13"/>
<polygon fill="none" stroke="black" points="946,-546.53 956.49,-547.97 949.19,-540.3 946,-546.53"/>
</g>
<!-- mecadyn -->
<g id="node30" class="node">
<title>mecadyn</title>
<polygon fill="none" stroke="black" points="1062.69,-490 914.69,-490 914.69,-454 1062.69,-454 1062.69,-490"/>
<text text-anchor="middle" x="988.69" y="-468.3" font-family="Helvetica,Arial,sans-serif" font-size="14.00">MecaDynaStepSolver</text>
</g>
<!-- stepsolv&#45;&gt;mecadyn -->
<g id="edge13" class="edge">
<title>stepsolv&#45;&gt;mecadyn</title>
<path fill="none" stroke="black" d="M990.1,-537.69C989.77,-522.31 989.36,-503.57 989.07,-490.23"/>
<polygon fill="none" stroke="black" points="986.6,-537.77 990.32,-547.7 993.6,-537.62 986.6,-537.77"/>
</g>
<!-- ther -->
<g id="node31" class="node">
<title>ther</title>
<polygon fill="none" stroke="black" points="1214.19,-490 1081.19,-490 1081.19,-454 1214.19,-454 1214.19,-490"/>
<text text-anchor="middle" x="1147.69" y="-468.3" font-family="Helvetica,Arial,sans-serif" font-size="14.00">ThermalStepSolver</text>
</g>
<!-- stepsolv&#45;&gt;ther -->
<g id="edge14" class="edge">
<title>stepsolv&#45;&gt;ther</title>
<path fill="none" stroke="black" d="M1032.3,-543.07C1045.04,-536.18 1059.03,-528.43 1071.69,-521 1088.52,-511.13 1107.03,-499.46 1121.58,-490.09"/>
<polygon fill="none" stroke="black" points="1030.44,-540.11 1023.29,-547.92 1033.75,-546.27 1030.44,-540.11"/>
</g>
<!-- conv_criteria -->
<g id="node35" class="node">
<title>conv_criteria</title>
<polygon fill="none" stroke="black" points="1698.69,-490 1582.69,-490 1582.69,-454 1698.69,-454 1698.69,-490"/>
<text text-anchor="middle" x="1640.69" y="-468.3" font-family="Helvetica,Arial,sans-serif" font-size="14.00">IterationsSolver*</text>
</g>
<!-- stepsolv&#45;&gt;conv_criteria -->
<g id="edge36" class="edge">
<title>stepsolv&#45;&gt;conv_criteria</title>
<path fill="none" stroke="black" d="M1222.69,-533.76C1232.87,-532.77 1244.05,-531.56 1256.69,-530 1346.08,-518.98 1446.79,-503.93 1522.63,-492.06"/>
<polygon fill="black" stroke="black" points="1523.36,-495.49 1532.7,-490.48 1522.28,-488.58 1523.36,-495.49"/>
</g>
<!-- implicit -->
<g id="node32" class="node">
<title>implicit</title>
<polygon fill="none" stroke="black" points="882.19,-417 757.19,-417 757.19,-381 882.19,-381 882.19,-417"/>
<text text-anchor="middle" x="819.69" y="-395.3" font-family="Helvetica,Arial,sans-serif" font-size="14.00">ImplicitStepSolver</text>
</g>
<!-- mecadyn&#45;&gt;implicit -->
<g id="edge15" class="edge">
<title>mecadyn&#45;&gt;implicit</title>
<path fill="none" stroke="black" d="M938.9,-450.08C913.91,-439.58 884.03,-427.03 860.43,-417.11"/>
<polygon fill="none" stroke="black" points="937.64,-453.35 948.21,-453.99 940.35,-446.89 937.64,-453.35"/>
</g>
<!-- explicit -->
<g id="node33" class="node">
<title>explicit</title>
<polygon fill="none" stroke="black" points="1025.19,-417 900.19,-417 900.19,-381 1025.19,-381 1025.19,-417"/>
<text text-anchor="middle" x="962.69" y="-395.3" font-family="Helvetica,Arial,sans-serif" font-size="14.00">ExplicitStepSolver</text>
</g>
<!-- mecadyn&#45;&gt;explicit -->
<g id="edge16" class="edge">
<title>mecadyn&#45;&gt;explicit</title>
<path fill="none" stroke="black" d="M978.93,-444.34C975.58,-435.19 971.92,-425.2 968.93,-417.03"/>
<polygon fill="none" stroke="black" points="975.68,-445.63 982.4,-453.81 982.25,-443.22 975.68,-445.63"/>
</g>
<!-- multi -->
<g id="node34" class="node">
<title>multi</title>
<polygon fill="none" stroke="black" points="1155.69,-417 1043.69,-417 1043.69,-381 1155.69,-381 1155.69,-417"/>
<text text-anchor="middle" x="1099.69" y="-395.3" font-family="Helvetica,Arial,sans-serif" font-size="14.00">MultiStepSolver</text>
</g>
<!-- mecadyn&#45;&gt;multi -->
<g id="edge17" class="edge">
<title>mecadyn&#45;&gt;multi</title>
<path fill="none" stroke="black" d="M1023.81,-448.54C1039.7,-438.37 1058.19,-426.55 1072.94,-417.11"/>
<polygon fill="none" stroke="black" points="1021.82,-445.66 1015.28,-453.99 1025.59,-451.55 1021.82,-445.66"/>
</g>
<!-- implicit&#45;&gt;integr -->
<g id="edge18" class="edge">
<title>implicit&#45;&gt;integr</title>
<path fill="none" stroke="black" d="M756.97,-392.85C715.48,-385.6 668.69,-368.28 668.69,-327 668.69,-327 668.69,-327 668.69,-179 668.69,-135.57 719.19,-118.56 762.91,-111.98"/>
<polygon fill="black" stroke="black" points="763.54,-115.43 772.98,-110.62 762.6,-108.49 763.54,-115.43"/>
</g>
<!-- explicit&#45;&gt;integr -->
<g id="edge19" class="edge">
<title>explicit&#45;&gt;integr</title>
<path fill="none" stroke="black" d="M919.82,-380.98C910.36,-377.83 900.29,-374.93 890.69,-373 855.77,-365.98 761.56,-380.78 730.69,-363 714.03,-353.4 706.69,-346.23 706.69,-327 706.69,-327 706.69,-327 706.69,-179 706.69,-149.17 734.61,-131.58 763.4,-121.37"/>
<polygon fill="black" stroke="black" points="764.73,-124.62 773.15,-118.19 762.56,-117.96 764.73,-124.62"/>
</g>
<!-- multi&#45;&gt;integr -->
<g id="edge20" class="edge">
<title>multi&#45;&gt;integr</title>
<path fill="none" stroke="black" d="M1058.57,-380.95C1050.43,-377.99 1041.86,-375.17 1033.69,-373 970.85,-356.28 744.69,-392.03 744.69,-327 744.69,-327 744.69,-327 744.69,-179 744.69,-158.11 760.12,-141.93 777.51,-130.33"/>
<polygon fill="black" stroke="black" points="779.47,-133.23 786.14,-125 775.8,-127.27 779.47,-133.23"/>
</g>
<!-- conv_criteria&#45;&gt;linsolv -->
<g id="edge37" class="edge">
<title>conv_criteria&#45;&gt;linsolv</title>
<path fill="none" stroke="black" d="M1880.69,-417.88C1881.04,-417.59 1881.37,-417.29 1881.69,-417 1886.89,-412.27 1913.25,-325.87 1926.73,-280.83"/>
<polygon fill="black" stroke="black" points="1930.12,-281.69 1929.63,-271.11 1923.41,-279.69 1930.12,-281.69"/>
</g>
<!-- conv_criteria&#45;&gt;opers -->
<g id="edge38" class="edge">
<title>conv_criteria&#45;&gt;opers</title>
<path fill="none" stroke="black" d="M1532.7,-420.6C1439.5,-377.11 1308.45,-315.95 1233.79,-281.11"/>
<polygon fill="black" stroke="black" points="1235.23,-277.92 1224.69,-276.87 1232.27,-284.27 1235.23,-277.92"/>
</g>
<!-- newton -->
<g id="node36" class="node">
<title>newton</title>
<polygon fill="none" stroke="black" points="1642.19,-417 1541.19,-417 1541.19,-381 1642.19,-381 1642.19,-417"/>
<text text-anchor="middle" x="1591.69" y="-395.3" font-family="Helvetica,Arial,sans-serif" font-size="14.00">NewtonSolver</text>
</g>
<!-- conv_criteria&#45;&gt;newton -->
<g id="edge21" class="edge">
<title>conv_criteria&#45;&gt;newton</title>
<path fill="none" stroke="black" stroke-dasharray="1,5" d="M1623.1,-445.5C1616.57,-436.04 1609.33,-425.55 1603.45,-417.03"/>
<polygon fill="none" stroke="black" points="1620.27,-447.57 1628.83,-453.81 1626.03,-443.59 1620.27,-447.57"/>
</g>
<!-- snes -->
<g id="node37" class="node">
<title>snes</title>
<polygon fill="none" stroke="black" points="1752.69,-417 1660.69,-417 1660.69,-381 1752.69,-381 1752.69,-417"/>
<text text-anchor="middle" x="1706.69" y="-395.3" font-family="Helvetica,Arial,sans-serif" font-size="14.00">SNESSolver</text>
</g>
<!-- conv_criteria&#45;&gt;snes -->
<g id="edge22" class="edge">
<title>conv_criteria&#45;&gt;snes</title>
<path fill="none" stroke="black" stroke-dasharray="1,5" d="M1663.59,-446.37C1672.59,-436.69 1682.7,-425.81 1690.86,-417.03"/>
<polygon fill="none" stroke="black" points="1660.92,-444.11 1656.67,-453.81 1666.04,-448.87 1660.92,-444.11"/>
</g>
<!-- raspen -->
<g id="node38" class="node">
<title>raspen</title>
<polygon fill="none" stroke="black" points="1872.19,-417 1771.19,-417 1771.19,-381 1872.19,-381 1872.19,-417"/>
<text text-anchor="middle" x="1821.69" y="-395.3" font-family="Helvetica,Arial,sans-serif" font-size="14.00">RaspenSolver</text>
</g>
<!-- conv_criteria&#45;&gt;raspen -->
<g id="edge23" class="edge">
<title>conv_criteria&#45;&gt;raspen</title>
<path fill="none" stroke="black" stroke-dasharray="1,5" d="M1693.67,-450.22C1720.5,-439.69 1752.68,-427.07 1778.07,-417.11"/>
<polygon fill="none" stroke="black" points="1692.08,-447.08 1684.05,-453.99 1694.64,-453.6 1692.08,-447.08"/>
</g>
<!-- newton&#45;&gt;conv_manager -->
<g id="edge41" class="edge">
<title>newton&#45;&gt;conv_manager</title>
<path fill="none" stroke="black" d="M1628.32,-380.8C1642.72,-371.98 1657.7,-359.74 1665.69,-344 1672.94,-329.74 1672.55,-322.46 1665.69,-308 1659.88,-295.74 1649.78,-285.34 1639.19,-277.03"/>
<polygon fill="black" stroke="black" points="1641.21,-274.17 1631.07,-271.1 1637.08,-279.82 1641.21,-274.17"/>
</g>
<!-- newton&#45;&gt;incr_solv -->
<g id="edge40" class="edge">
<title>newton&#45;&gt;incr_solv</title>
<path fill="none" stroke="black" d="M1592.18,-380.81C1592.4,-372.79 1592.68,-363.05 1592.93,-354.07"/>
<polygon fill="black" stroke="black" points="1596.43,-354.12 1593.21,-344.03 1589.43,-353.93 1596.43,-354.12"/>
</g>
<!-- snes&#45;&gt;problem_old -->
<g id="edge57" class="edge">
<title>snes&#45;&gt;problem_old</title>
<path fill="none" stroke="black" stroke-dasharray="1,5" d="M1722.09,-380.87C1740.93,-358.92 1772.31,-318.92 1788.69,-279 1799.49,-252.71 1805.41,-243.84 1799.69,-216 1799.11,-213.15 1798.28,-210.24 1797.31,-207.38"/>
<polygon fill="black" stroke="black" points="1800.53,-206.02 1793.61,-198 1794.02,-208.58 1800.53,-206.02"/>
</g>
<!-- snes&#45;&gt;incr_solv -->
<!-- raspen&#45;&gt;problem_old -->
<g id="edge58" class="edge">
<title>raspen&#45;&gt;problem_old</title>
<path fill="none" stroke="black" stroke-dasharray="1,5" d="M1828.89,-380.96C1841.96,-347.21 1865.67,-270.43 1836.69,-216 1834.04,-211.02 1830.33,-206.62 1826.09,-202.77"/>
<polygon fill="black" stroke="black" points="1828.05,-199.85 1818.03,-196.43 1823.73,-205.36 1828.05,-199.85"/>
</g>
</g>
</svg>
