<?xml version="1.0" encoding="UTF-8" standalone="no"?>
<!DOCTYPE svg PUBLIC "-//W3C//DTD SVG 1.1//EN"
 "http://www.w3.org/Graphics/SVG/1.1/DTD/svg11.dtd">
<!-- Generated by graphviz version 2.43.0 (0)
 -->
<!-- Title: MNL Pages: 1 -->
<svg width="2226pt" height="830pt"
 viewBox="0.00 0.00 2226.00 830.00" xmlns="http://www.w3.org/2000/svg" xmlns:xlink="http://www.w3.org/1999/xlink">
<g id="graph0" class="graph" transform="scale(1 1) rotate(0) translate(4 826)">
<title>MNL</title>
<polygon fill="white" stroke="transparent" points="-4,4 -4,-826 2222,-826 2222,4 -4,4"/>
<g id="clust2" class="cluster">
<title>cluster_stepsolv</title>
<polygon fill="none" stroke="black" stroke-dasharray="5,2" points="541,-138 541,-526 1364,-526 1364,-138 541,-138"/>
<text text-anchor="middle" x="952.5" y="-510.8" font-family="Helvetica,Arial,sans-serif" font-size="14.00">StepSolver</text>
</g>
<g id="clust6" class="cluster">
<title>cluster_iter_solv</title>
<polygon fill="none" stroke="black" stroke-dasharray="5,2" points="1730,-284 1730,-432 2078,-432 2078,-284 1730,-284"/>
<text text-anchor="middle" x="1904" y="-416.8" font-family="Helvetica,Arial,sans-serif" font-size="14.00">ConvergenceCriteria</text>
</g>
<!-- keywords -->
<g id="node1" class="node">
<title>keywords</title>
<polygon fill="none" stroke="black" points="107,-589 31,-589 31,-553 107,-553 107,-589"/>
<text text-anchor="middle" x="69" y="-567.3" font-family="Helvetica,Arial,sans-serif" font-size="14.00">Keywords</text>
</g>
<!-- problem -->
<g id="node2" class="node">
<title>problem</title>
<ellipse fill="none" stroke="black" cx="1866" cy="-18" rx="76.89" ry="18"/>
<text text-anchor="middle" x="1866" y="-14.3" font-family="Helvetica,Arial,sans-serif" font-size="14.00">PhysicalProblem</text>
</g>
<!-- state -->
<g id="node3" class="node">
<title>state</title>
<ellipse fill="none" stroke="black" cx="1563" cy="-91" rx="63.89" ry="18"/>
<text text-anchor="middle" x="1563" y="-87.3" font-family="Helvetica,Arial,sans-serif" font-size="14.00">PhysicalState</text>
</g>
<!-- mnl -->
<g id="node4" class="node">
<title>mnl</title>
<polygon fill="none" stroke="black" points="138,-822 0,-822 0,-786 138,-786 138,-822"/>
<text text-anchor="middle" x="69" y="-800.3" font-family="Helvetica,Arial,sans-serif" font-size="14.00">meca_non_line_ops</text>
</g>
<!-- mnl&#45;&gt;keywords -->
<g id="edge19" class="edge">
<title>mnl&#45;&gt;keywords</title>
<path fill="none" stroke="black" stroke-width="2" d="M69,-785.64C69,-745.82 69,-647.69 69,-599.54"/>
<polygon fill="black" stroke="black" stroke-width="2" points="72.5,-599.25 69,-589.25 65.5,-599.25 72.5,-599.25"/>
<text text-anchor="middle" x="60" y="-691.17" font-family="Helvetica,Arial,sans-serif" font-size="14.00">init</text>
</g>
<!-- mnl&#45;&gt;problem -->
<g id="edge20" class="edge">
<title>mnl&#45;&gt;problem</title>
<path fill="none" stroke="black" stroke-width="2" d="M39.09,-785.91C21.63,-773.5 3,-754.89 3,-732 3,-732 3,-732 3,-90 3,-44.96 1412.41,-24.56 1779.46,-20.01"/>
<polygon fill="black" stroke="black" stroke-width="2" points="1779.54,-23.51 1789.49,-19.88 1779.45,-16.51 1779.54,-23.51"/>
<text text-anchor="middle" x="882.57" y="-39.6" font-family="Helvetica,Arial,sans-serif" font-size="14.00">creates</text>
</g>
<!-- pbsolv -->
<g id="node5" class="node">
<title>pbsolv</title>
<polygon fill="none" stroke="black" points="446,-749 340,-749 340,-713 446,-713 446,-749"/>
<text text-anchor="middle" x="393" y="-727.3" font-family="Helvetica,Arial,sans-serif" font-size="14.00">ProblemSolver</text>
</g>
<!-- mnl&#45;&gt;pbsolv -->
<g id="edge18" class="edge">
<title>mnl&#45;&gt;pbsolv</title>
<path fill="none" stroke="black" d="M138.11,-787.86C194.88,-775.41 274.65,-757.94 329.76,-745.86"/>
<polygon fill="black" stroke="black" points="330.73,-749.23 339.75,-743.67 329.23,-742.39 330.73,-749.23"/>
</g>
<!-- pbsolv&#45;&gt;state -->
<g id="edge22" class="edge">
<title>pbsolv&#45;&gt;state</title>
<path fill="none" stroke="black" stroke-width="2" d="M446.06,-729.65C676.98,-727.79 1583,-716.79 1583,-659 1583,-659 1583,-659 1583,-346 1583,-252.47 1653.42,-223.28 1615,-138 1610.93,-128.96 1604.1,-120.98 1596.72,-114.31"/>
<polygon fill="black" stroke="black" stroke-width="2" points="1598.53,-111.27 1588.59,-107.61 1594.07,-116.67 1598.53,-111.27"/>
<text text-anchor="middle" x="1078.63" y="-719.1" font-family="Helvetica,Arial,sans-serif" font-size="14.00">creates</text>
</g>
<!-- main -->
<g id="node6" class="node">
<title>main</title>
<polygon fill="none" stroke="black" points="452,-676 334,-676 334,-640 452,-640 452,-676"/>
<text text-anchor="middle" x="393" y="-654.3" font-family="Helvetica,Arial,sans-serif" font-size="14.00">NonLinearSolver</text>
</g>
<!-- pbsolv&#45;&gt;main -->
<g id="edge21" class="edge">
<title>pbsolv&#45;&gt;main</title>
<path fill="none" stroke="black" d="M393,-712.81C393,-704.79 393,-695.05 393,-686.07"/>
<polygon fill="black" stroke="black" points="396.5,-686.03 393,-676.03 389.5,-686.03 396.5,-686.03"/>
<text text-anchor="middle" x="374.5" y="-698" font-family="Helvetica,Arial,sans-serif" font-size="14.00">wraps</text>
</g>
<!-- main&#45;&gt;keywords -->
<g id="edge23" class="edge">
<title>main&#45;&gt;keywords</title>
<path fill="none" stroke="black" stroke-dasharray="1,5" d="M333.88,-644.4C279.66,-632.42 197.05,-613.07 116.87,-589.11"/>
<polygon fill="black" stroke="black" points="117.69,-585.7 107.11,-586.17 115.67,-592.4 117.69,-585.7"/>
<text text-anchor="middle" x="198.53" y="-621.25" font-family="Helvetica,Arial,sans-serif" font-size="14.00">.param</text>
</g>
<!-- main&#45;&gt;problem -->
<g id="edge24" class="edge">
<title>main&#45;&gt;problem</title>
<path fill="none" stroke="black" stroke-dasharray="1,5" d="M393,-639.74C393,-622.57 393,-595.46 393,-572 393,-572 393,-572 393,-90 393,-20.17 1463.05,-17.8 1779.11,-18.62"/>
<polygon fill="black" stroke="black" points="1779.13,-22.12 1789.14,-18.65 1779.15,-15.12 1779.13,-22.12"/>
</g>
<!-- main&#45;&gt;state -->
<g id="edge25" class="edge">
<title>main&#45;&gt;state</title>
<path fill="none" stroke="black" stroke-dasharray="1,5" d="M405.87,-639.77C416.89,-623.26 431,-597.22 431,-572 431,-572 431,-572 431,-273 431,-204.15 448.69,-174.62 507,-138 548.51,-111.93 1256.56,-97.33 1489.43,-93.22"/>
<polygon fill="black" stroke="black" points="1489.56,-96.72 1499.49,-93.04 1489.43,-89.72 1489.56,-96.72"/>
</g>
<!-- timestepper -->
<g id="node7" class="node">
<title>timestepper</title>
<polygon fill="none" stroke="black" points="554.5,-589 459.5,-589 459.5,-553 554.5,-553 554.5,-589"/>
<text text-anchor="middle" x="507" y="-567.3" font-family="Helvetica,Arial,sans-serif" font-size="14.00">TimeStepper</text>
</g>
<!-- main&#45;&gt;timestepper -->
<g id="edge26" class="edge">
<title>main&#45;&gt;timestepper</title>
<path fill="none" stroke="black" d="M419.23,-639.99C427.57,-634.4 436.77,-628.07 445,-622 456.24,-613.71 468.26,-604.18 478.7,-595.68"/>
<polygon fill="black" stroke="black" points="481.17,-598.17 486.68,-589.12 476.73,-592.76 481.17,-598.17"/>
</g>
<!-- storage -->
<g id="node8" class="node">
<title>storage</title>
<polygon fill="none" stroke="black" points="243,-589 125,-589 125,-553 243,-553 243,-589"/>
<text text-anchor="middle" x="184" y="-567.3" font-family="Helvetica,Arial,sans-serif" font-size="14.00">StorageManager</text>
</g>
<!-- main&#45;&gt;storage -->
<g id="edge27" class="edge">
<title>main&#45;&gt;storage</title>
<path fill="none" stroke="black" d="M350.96,-639.9C317.72,-626.39 271.18,-607.46 235.68,-593.02"/>
<polygon fill="black" stroke="black" points="236.56,-589.6 225.98,-589.07 233.92,-596.08 236.56,-589.6"/>
</g>
<!-- hook -->
<g id="node13" class="node">
<title>hook</title>
<polygon fill="none" stroke="black" points="364.5,-589 261.5,-589 261.5,-553 364.5,-553 364.5,-589"/>
<text text-anchor="middle" x="313" y="-567.3" font-family="Helvetica,Arial,sans-serif" font-size="14.00">PostStepHook</text>
</g>
<!-- main&#45;&gt;hook -->
<g id="edge29" class="edge">
<title>main&#45;&gt;hook</title>
<path fill="none" stroke="black" stroke-dasharray="5,2" d="M376.88,-639.92C371.51,-634.22 365.5,-627.84 360,-622 352.28,-613.8 343.86,-604.84 336.3,-596.8"/>
<polygon fill="black" stroke="black" points="338.49,-594.02 329.09,-589.13 333.39,-598.81 338.49,-594.02"/>
<text text-anchor="middle" x="369.5" y="-610.8" font-family="Helvetica,Arial,sans-serif" font-size="14.00">opt</text>
</g>
<!-- stepsolv -->
<g id="node18" class="node">
<title>stepsolv</title>
<polygon fill="none" stroke="black" points="700.5,-495 587.5,-495 587.5,-459 700.5,-459 700.5,-495"/>
<text text-anchor="middle" x="644" y="-473.3" font-family="Helvetica,Arial,sans-serif" font-size="14.00">BaseStepSolver</text>
</g>
<!-- main&#45;&gt;stepsolv -->
<g id="edge28" class="edge">
<title>main&#45;&gt;stepsolv</title>
<path fill="none" stroke="black" stroke-width="2" d="M452.29,-642.22C487.04,-631.49 530.37,-614.35 563,-589 582.05,-574.2 598.69,-553.77 611.85,-534.47"/>
<polygon fill="black" stroke="black" stroke-width="2" points="614.86,-536.27 617.46,-526 609.02,-532.4 614.86,-536.27"/>
<text text-anchor="middle" x="620.01" y="-592.79" font-family="Helvetica,Arial,sans-serif" font-size="14.00">loops on timesteps</text>
</g>
<!-- observ -->
<g id="node15" class="node">
<title>observ</title>
<polygon fill="none" stroke="black" points="533,-495 459,-495 459,-459 533,-459 533,-495"/>
<text text-anchor="middle" x="496" y="-473.3" font-family="Helvetica,Arial,sans-serif" font-size="14.00">Observer</text>
</g>
<!-- timestepper&#45;&gt;observ -->
<g id="edge56" class="edge">
<title>timestepper&#45;&gt;observ</title>
<path fill="none" stroke="black" d="M503.73,-542.69C501.9,-527.31 499.66,-508.57 498.06,-495.23"/>
<polygon fill="none" stroke="black" points="500.27,-543.18 504.93,-552.7 507.22,-542.35 500.27,-543.18"/>
<text text-anchor="middle" x="484.96" y="-527.45" font-family="Helvetica,Arial,sans-serif" font-size="14.00">mixin</text>
</g>
<!-- timestepper&#45;&gt;stepsolv -->
<!-- linsolv -->
<g id="node9" class="node">
<title>linsolv</title>
<polygon fill="none" stroke="black" points="1464,-182 1372,-182 1372,-146 1464,-146 1464,-182"/>
<text text-anchor="middle" x="1418" y="-160.3" font-family="Helvetica,Arial,sans-serif" font-size="14.00">LinearSolver</text>
</g>
<!-- linesearch -->
<g id="node10" class="node">
<title>linesearch</title>
<polygon fill="none" stroke="black" points="1605.5,-182 1520.5,-182 1520.5,-146 1605.5,-146 1605.5,-182"/>
<text text-anchor="middle" x="1563" y="-160.3" font-family="Helvetica,Arial,sans-serif" font-size="14.00">LineSearch</text>
</g>
<!-- linesearch&#45;&gt;state -->
<g id="edge47" class="edge">
<title>linesearch&#45;&gt;state</title>
<path fill="none" stroke="black" stroke-dasharray="1,5" d="M1563,-145.81C1563,-137.79 1563,-128.05 1563,-119.07"/>
<polygon fill="black" stroke="black" points="1566.5,-119.03 1563,-109.03 1559.5,-119.03 1566.5,-119.03"/>
</g>
<!-- conv_manager -->
<g id="node11" class="node">
<title>conv_manager</title>
<polygon fill="none" stroke="black" points="2113.5,-182 1962.5,-182 1962.5,-146 2113.5,-146 2113.5,-182"/>
<text text-anchor="middle" x="2038" y="-160.3" font-family="Helvetica,Arial,sans-serif" font-size="14.00">ConvergenceManager</text>
</g>
<!-- conv_manager&#45;&gt;problem -->
<g id="edge52" class="edge">
<title>conv_manager&#45;&gt;problem</title>
<path fill="none" stroke="black" stroke-dasharray="1,5" d="M2017.59,-145.92C1986.78,-120.12 1928.32,-71.17 1893.69,-42.18"/>
<polygon fill="black" stroke="black" points="1895.76,-39.35 1885.85,-35.62 1891.27,-44.72 1895.76,-39.35"/>
</g>
<!-- conv_manager&#45;&gt;state -->
<g id="edge53" class="edge">
<title>conv_manager&#45;&gt;state</title>
<path fill="none" stroke="black" stroke-dasharray="1,5" d="M1962.37,-146.75C1946.75,-143.64 1930.37,-140.56 1915,-138 1816.93,-121.65 1702.69,-107.64 1631.59,-99.51"/>
<polygon fill="black" stroke="black" points="1631.75,-96.01 1621.42,-98.36 1630.96,-102.96 1631.75,-96.01"/>
</g>
<!-- contact -->
<g id="node12" class="node">
<title>contact</title>
<polygon fill="none" stroke="black" points="1897.5,-109 1834.5,-109 1834.5,-73 1897.5,-73 1897.5,-109"/>
<text text-anchor="middle" x="1866" y="-87.3" font-family="Helvetica,Arial,sans-serif" font-size="14.00">Contact</text>
</g>
<!-- contact&#45;&gt;problem -->
<g id="edge51" class="edge">
<title>contact&#45;&gt;problem</title>
<path fill="none" stroke="black" stroke-dasharray="1,5" d="M1866,-72.81C1866,-64.79 1866,-55.05 1866,-46.07"/>
<polygon fill="black" stroke="black" points="1869.5,-46.03 1866,-36.03 1862.5,-46.03 1869.5,-46.03"/>
</g>
<!-- incr_solv -->
<g id="node14" class="node">
<title>incr_solv</title>
<polygon fill="none" stroke="black" points="1900,-255 1774,-255 1774,-219 1900,-219 1900,-255"/>
<text text-anchor="middle" x="1837" y="-233.3" font-family="Helvetica,Arial,sans-serif" font-size="14.00">IncrementalSolver</text>
</g>
<!-- incr_solv&#45;&gt;problem -->
<g id="edge45" class="edge">
<title>incr_solv&#45;&gt;problem</title>
<path fill="none" stroke="black" stroke-dasharray="1,5" d="M1900.21,-233.18C1975.7,-228.33 2095.27,-215.46 2123,-182 2184.87,-107.35 2025.99,-55.97 1931.04,-32.85"/>
<polygon fill="black" stroke="black" points="1931.75,-29.42 1921.21,-30.5 1930.13,-36.23 1931.75,-29.42"/>
</g>
<!-- incr_solv&#45;&gt;state -->
<g id="edge46" class="edge">
<title>incr_solv&#45;&gt;state</title>
<path fill="none" stroke="black" stroke-dasharray="1,5" d="M1773.63,-224.89C1731.98,-217.65 1676.28,-208.08 1627,-200 1601.47,-195.81 1528.82,-201.65 1512,-182 1499.29,-167.14 1504.05,-155.87 1512,-138 1515.99,-129.04 1522.67,-121.09 1529.92,-114.42"/>
<polygon fill="black" stroke="black" points="1532.5,-116.83 1537.89,-107.71 1527.99,-111.47 1532.5,-116.83"/>
</g>
<!-- incr_solv&#45;&gt;linsolv -->
<g id="edge41" class="edge">
<title>incr_solv&#45;&gt;linsolv</title>
<path fill="none" stroke="black" d="M1773.94,-225.62C1728.42,-218.22 1665.46,-208.18 1610,-200 1551.42,-191.36 1535.96,-194.1 1478,-182 1476.72,-181.73 1475.42,-181.45 1474.12,-181.16"/>
<polygon fill="black" stroke="black" points="1474.57,-177.67 1464.03,-178.75 1472.94,-184.48 1474.57,-177.67"/>
</g>
<!-- incr_solv&#45;&gt;linesearch -->
<g id="edge42" class="edge">
<title>incr_solv&#45;&gt;linesearch</title>
<path fill="none" stroke="black" d="M1786.5,-218.97C1766.8,-212.61 1743.96,-205.59 1723,-200 1687.42,-190.51 1646.9,-181.67 1615.54,-175.24"/>
<polygon fill="black" stroke="black" points="1616.19,-171.81 1605.7,-173.25 1614.8,-178.67 1616.19,-171.81"/>
</g>
<!-- incr_solv&#45;&gt;conv_manager -->
<g id="edge43" class="edge">
<title>incr_solv&#45;&gt;conv_manager</title>
<path fill="none" stroke="black" d="M1894.03,-218.92C1911.44,-213.46 1930.59,-207.22 1948,-201 1960.88,-196.4 1974.66,-191.09 1987.46,-185.99"/>
<polygon fill="black" stroke="black" points="1989.05,-189.12 1997.03,-182.14 1986.44,-182.62 1989.05,-189.12"/>
</g>
<!-- incr_solv&#45;&gt;contact -->
<g id="edge39" class="edge">
<title>incr_solv&#45;&gt;contact</title>
<path fill="none" stroke="black" d="M1876.38,-218.76C1891.29,-210.05 1906.67,-197.9 1915,-182 1924.08,-164.68 1922.77,-155.95 1915,-138 1911.47,-129.84 1905.7,-122.47 1899.34,-116.13"/>
<polygon fill="black" stroke="black" points="1901.45,-113.32 1891.69,-109.18 1896.74,-118.5 1901.45,-113.32"/>
</g>
<!-- event -->
<g id="node16" class="node">
<title>event</title>
<polygon fill="none" stroke="black" points="1906,-182 1812,-182 1812,-146 1906,-146 1906,-182"/>
<text text-anchor="middle" x="1859" y="-160.3" font-family="Helvetica,Arial,sans-serif" font-size="14.00">EventSource</text>
</g>
<!-- incr_solv&#45;&gt;event -->
<g id="edge44" class="edge">
<title>incr_solv&#45;&gt;event</title>
<path fill="none" stroke="black" d="M1845.35,-209.05C1848.16,-199.98 1851.22,-190.12 1853.72,-182.03"/>
<polygon fill="none" stroke="black" points="1841.94,-208.22 1842.33,-218.81 1848.63,-210.3 1841.94,-208.22"/>
<text text-anchor="middle" x="1831.53" y="-204.19" font-family="Helvetica,Arial,sans-serif" font-size="14.00">mixin</text>
</g>
<!-- opers -->
<g id="node17" class="node">
<title>opers</title>
<polygon fill="none" stroke="black" stroke-dasharray="5,2" points="1793.5,-182 1662.5,-182 1662.5,-146 1793.5,-146 1793.5,-182"/>
<text text-anchor="middle" x="1728" y="-160.3" font-family="Helvetica,Arial,sans-serif" font-size="14.00">OperatorsManager</text>
</g>
<!-- incr_solv&#45;&gt;opers -->
<g id="edge40" class="edge">
<title>incr_solv&#45;&gt;opers</title>
<path fill="none" stroke="black" d="M1802.64,-211.82C1796.79,-207.81 1790.75,-203.75 1785,-200 1775.86,-194.04 1765.74,-187.73 1756.61,-182.14"/>
<polygon fill="black" stroke="black" points="1802.98,-212.05 1810.19,-212.17 1812.85,-218.87 1805.64,-218.75 1802.98,-212.05"/>
<text text-anchor="middle" x="1773.79" y="-203.66" font-family="Helvetica,Arial,sans-serif" font-size="14.00">use</text>
</g>
<!-- opers&#45;&gt;problem -->
<g id="edge49" class="edge">
<title>opers&#45;&gt;problem</title>
<path fill="none" stroke="black" stroke-dasharray="1,5" d="M1744.37,-145.92C1768.88,-120.34 1815.21,-72 1843.08,-42.92"/>
<polygon fill="black" stroke="black" points="1845.68,-45.26 1850.07,-35.62 1840.63,-40.42 1845.68,-45.26"/>
</g>
<!-- opers&#45;&gt;state -->
<g id="edge50" class="edge">
<title>opers&#45;&gt;state</title>
<path fill="none" stroke="black" stroke-dasharray="1,5" d="M1690.67,-145.9C1677.25,-139.84 1661.99,-133.03 1648,-127 1634.91,-121.36 1620.6,-115.4 1607.53,-110.02"/>
<polygon fill="black" stroke="black" points="1608.84,-106.77 1598.26,-106.22 1606.18,-113.25 1608.84,-106.77"/>
</g>
<!-- opers&#45;&gt;contact -->
<g id="edge48" class="edge">
<title>opers&#45;&gt;contact</title>
<path fill="none" stroke="black" d="M1761.05,-145.99C1780.28,-136.1 1804.67,-123.56 1825.09,-113.05"/>
<polygon fill="black" stroke="black" points="1826.87,-116.07 1834.17,-108.38 1823.67,-109.84 1826.87,-116.07"/>
</g>
<!-- stepsolv&#45;&gt;problem -->
<g id="edge30" class="edge">
<title>stepsolv&#45;&gt;problem</title>
<path fill="none" stroke="black" stroke-dasharray="1,5" d="M541,-458.19C502.98,-445.18 469,-422.72 469,-384 469,-384 469,-384 469,-273 469,-210.67 459,-177.77 507,-138 604.96,-56.84 1495.67,-28.09 1779.52,-20.95"/>
<polygon fill="black" stroke="black" points="1779.85,-24.44 1789.76,-20.69 1779.68,-17.44 1779.85,-24.44"/>
</g>
<!-- stepsolv&#45;&gt;state -->
<g id="edge31" class="edge">
<title>stepsolv&#45;&gt;state</title>
<path fill="none" stroke="black" d="M595.53,-138C787.6,-108.27 1297.75,-96.59 1489.11,-93.17"/>
<polygon fill="black" stroke="black" points="1489.45,-96.67 1499.39,-92.99 1489.33,-89.67 1489.45,-96.67"/>
</g>
<!-- stepsolv&#45;&gt;linsolv -->
<g id="edge32" class="edge">
<title>stepsolv&#45;&gt;linsolv</title>
<path fill="none" stroke="black" d="M1364,-433.62C1386.55,-429.32 1401,-416.33 1401,-384 1401,-384 1401,-384 1401,-236 1401,-221.2 1404.54,-205.13 1408.39,-192.02"/>
<polygon fill="black" stroke="black" points="1411.8,-192.82 1411.48,-182.23 1405.13,-190.71 1411.8,-192.82"/>
</g>
<!-- dispatch -->
<g id="node19" class="node">
<title>dispatch</title>
<polygon fill="none" stroke="black" stroke-dasharray="5,2" points="868,-495 736,-495 736,-459 868,-459 868,-495"/>
<text text-anchor="middle" x="802" y="-473.3" font-family="Helvetica,Arial,sans-serif" font-size="14.00">ProblemDispatcher</text>
</g>
<!-- stepsolv&#45;&gt;dispatch -->
<g id="edge1" class="edge">
<title>stepsolv&#45;&gt;dispatch</title>
<path fill="none" stroke="black" d="M700.78,-477C709.12,-477 717.46,-477 725.8,-477"/>
<polygon fill="none" stroke="black" points="725.97,-480.5 735.97,-477 725.97,-473.5 725.97,-480.5"/>
<text text-anchor="middle" x="718.37" y="-465.8" font-family="Helvetica,Arial,sans-serif" font-size="14.00">factory</text>
</g>
<!-- mecastat -->
<g id="node20" class="node">
<title>mecastat</title>
<polygon fill="none" stroke="black" points="714,-401 574,-401 574,-365 714,-365 714,-401"/>
<text text-anchor="middle" x="644" y="-379.3" font-family="Helvetica,Arial,sans-serif" font-size="14.00">MecaStatStepSolver</text>
</g>
<!-- stepsolv&#45;&gt;mecastat -->
<g id="edge2" class="edge">
<title>stepsolv&#45;&gt;mecastat</title>
<path fill="none" stroke="black" d="M644,-448.69C644,-433.31 644,-414.57 644,-401.23"/>
<polygon fill="none" stroke="black" points="640.5,-448.7 644,-458.7 647.5,-448.7 640.5,-448.7"/>
</g>
<!-- mecadyn -->
<g id="node21" class="node">
<title>mecadyn</title>
<polygon fill="none" stroke="black" points="962,-401 814,-401 814,-365 962,-365 962,-401"/>
<text text-anchor="middle" x="888" y="-379.3" font-family="Helvetica,Arial,sans-serif" font-size="14.00">MecaDynaStepSolver</text>
</g>
<!-- stepsolv&#45;&gt;mecadyn -->
<g id="edge3" class="edge">
<title>stepsolv&#45;&gt;mecadyn</title>
<path fill="none" stroke="black" d="M698.85,-455.32C742.15,-438.99 801.84,-416.49 842.51,-401.15"/>
<polygon fill="none" stroke="black" points="697.44,-452.11 689.32,-458.91 699.91,-458.66 697.44,-452.11"/>
</g>
<!-- ther -->
<g id="node22" class="node">
<title>ther</title>
<polygon fill="none" stroke="black" points="1203.5,-401 1070.5,-401 1070.5,-365 1203.5,-365 1203.5,-401"/>
<text text-anchor="middle" x="1137" y="-379.3" font-family="Helvetica,Arial,sans-serif" font-size="14.00">ThermalStepSolver</text>
</g>
<!-- stepsolv&#45;&gt;ther -->
<g id="edge4" class="edge">
<title>stepsolv&#45;&gt;ther</title>
<path fill="none" stroke="black" d="M710.55,-461.81C716.11,-460.8 721.64,-459.84 727,-459 834.78,-442.04 863.98,-453.23 971,-432 1010.28,-424.21 1053.74,-411.49 1086.33,-401.1"/>
<polygon fill="none" stroke="black" points="709.76,-458.4 700.58,-463.69 711.05,-465.28 709.76,-458.4"/>
</g>
<!-- conv_criteria -->
<g id="node31" class="node">
<title>conv_criteria</title>
<polygon fill="none" stroke="black" points="1854,-401 1738,-401 1738,-365 1854,-365 1854,-401"/>
<text text-anchor="middle" x="1796" y="-379.3" font-family="Helvetica,Arial,sans-serif" font-size="14.00">IterationsSolver*</text>
</g>
<!-- stepsolv&#45;&gt;conv_criteria -->
<g id="edge33" class="edge">
<title>stepsolv&#45;&gt;conv_criteria</title>
<path fill="none" stroke="black" d="M1364,-444.97C1380.3,-443.87 1397.27,-442.55 1415,-441 1525.15,-431.36 1651.93,-410.4 1727.92,-396.76"/>
<polygon fill="black" stroke="black" points="1721.9,-402.8 1730,-395.97 1719.41,-396.26 1721.9,-402.8"/>
</g>
<!-- statopers -->
<g id="node23" class="node">
<title>statopers</title>
<polygon fill="none" stroke="black" stroke-dasharray="5,2" points="738.5,-328 549.5,-328 549.5,-292 738.5,-292 738.5,-328"/>
<text text-anchor="middle" x="644" y="-306.3" font-family="Helvetica,Arial,sans-serif" font-size="14.00">MecaStatOperatorsManager</text>
</g>
<!-- mecastat&#45;&gt;statopers -->
<g id="edge5" class="edge">
<title>mecastat&#45;&gt;statopers</title>
<path fill="none" stroke="black" d="M644,-352.69C644,-344.29 644,-335.42 644,-328.03"/>
<polygon fill="black" stroke="black" points="644,-352.81 648,-358.81 644,-364.81 640,-358.81 644,-352.81"/>
<text text-anchor="middle" x="633" y="-350.53" font-family="Helvetica,Arial,sans-serif" font-size="14.00">use</text>
</g>
<!-- implicit -->
<g id="node26" class="node">
<title>implicit</title>
<polygon fill="none" stroke="black" points="1155.5,-328 1030.5,-328 1030.5,-292 1155.5,-292 1155.5,-328"/>
<text text-anchor="middle" x="1093" y="-306.3" font-family="Helvetica,Arial,sans-serif" font-size="14.00">ImplicitStepSolver</text>
</g>
<!-- mecadyn&#45;&gt;implicit -->
<g id="edge7" class="edge">
<title>mecadyn&#45;&gt;implicit</title>
<path fill="none" stroke="black" d="M946.8,-361.63C977.43,-351.03 1014.46,-338.2 1043.59,-328.11"/>
<polygon fill="none" stroke="black" points="945.41,-358.41 937.1,-364.99 947.7,-365.03 945.41,-358.41"/>
</g>
<!-- explicit -->
<g id="node27" class="node">
<title>explicit</title>
<polygon fill="none" stroke="black" points="881.5,-328 756.5,-328 756.5,-292 881.5,-292 881.5,-328"/>
<text text-anchor="middle" x="819" y="-306.3" font-family="Helvetica,Arial,sans-serif" font-size="14.00">ExplicitStepSolver</text>
</g>
<!-- mecadyn&#45;&gt;explicit -->
<g id="edge8" class="edge">
<title>mecadyn&#45;&gt;explicit</title>
<path fill="none" stroke="black" d="M864.06,-357.37C854.65,-347.69 844.09,-336.81 835.55,-328.03"/>
<polygon fill="none" stroke="black" points="861.82,-360.08 871.3,-364.81 866.84,-355.2 861.82,-360.08"/>
</g>
<!-- multi -->
<g id="node28" class="node">
<title>multi</title>
<polygon fill="none" stroke="black" points="1012,-328 900,-328 900,-292 1012,-292 1012,-328"/>
<text text-anchor="middle" x="956" y="-306.3" font-family="Helvetica,Arial,sans-serif" font-size="14.00">MultiStepSolver</text>
</g>
<!-- mecadyn&#45;&gt;multi -->
<g id="edge9" class="edge">
<title>mecadyn&#45;&gt;multi</title>
<path fill="none" stroke="black" d="M911.59,-357.37C920.86,-347.69 931.28,-336.81 939.69,-328.03"/>
<polygon fill="none" stroke="black" points="908.85,-355.17 904.46,-364.81 913.91,-360.01 908.85,-355.17"/>
</g>
<!-- theropers -->
<g id="node24" class="node">
<title>theropers</title>
<polygon fill="none" stroke="black" stroke-dasharray="5,2" points="1356,-328 1174,-328 1174,-292 1356,-292 1356,-328"/>
<text text-anchor="middle" x="1265" y="-306.3" font-family="Helvetica,Arial,sans-serif" font-size="14.00">ThermalOperatorsManager</text>
</g>
<!-- ther&#45;&gt;theropers -->
<g id="edge6" class="edge">
<title>ther&#45;&gt;theropers</title>
<path fill="none" stroke="black" d="M1178.25,-359.12C1196.41,-349.04 1217.38,-337.42 1234.15,-328.11"/>
<polygon fill="black" stroke="black" points="1178.15,-359.17 1174.85,-365.58 1167.66,-364.99 1170.97,-358.59 1178.15,-359.17"/>
<text text-anchor="middle" x="1189.85" y="-350.38" font-family="Helvetica,Arial,sans-serif" font-size="14.00">use</text>
</g>
<!-- dynopers -->
<g id="node25" class="node">
<title>dynopers</title>
<polygon fill="none" stroke="black" stroke-dasharray="5,2" points="867.5,-255 670.5,-255 670.5,-219 867.5,-219 867.5,-255"/>
<text text-anchor="middle" x="769" y="-233.3" font-family="Helvetica,Arial,sans-serif" font-size="14.00">MecaDynaOperatorsManager</text>
</g>
<!-- integr -->
<g id="node29" class="node">
<title>integr</title>
<polygon fill="none" stroke="black" points="1008.5,-255 903.5,-255 903.5,-219 1008.5,-219 1008.5,-255"/>
<text text-anchor="middle" x="956" y="-233.3" font-family="Helvetica,Arial,sans-serif" font-size="14.00">BaseIntegrator</text>
</g>
<!-- dynopers&#45;&gt;integr -->
<g id="edge13" class="edge">
<title>dynopers&#45;&gt;integr</title>
<path fill="none" stroke="black" d="M879.84,-237C887.62,-237 895.4,-237 903.18,-237"/>
<polygon fill="black" stroke="black" points="879.61,-237 873.61,-241 867.61,-237 873.61,-233 879.61,-237"/>
</g>
<!-- implicit&#45;&gt;integr -->
<g id="edge10" class="edge">
<title>implicit&#45;&gt;integr</title>
<path fill="none" stroke="black" d="M1060.19,-291.99C1041.51,-282.32 1017.93,-270.1 997.93,-259.73"/>
<polygon fill="black" stroke="black" points="999.51,-256.61 989.02,-255.11 996.29,-262.82 999.51,-256.61"/>
</g>
<!-- explicit&#45;&gt;integr -->
<g id="edge11" class="edge">
<title>explicit&#45;&gt;integr</title>
<path fill="none" stroke="black" d="M851.81,-291.99C870.49,-282.32 894.07,-270.1 914.07,-259.73"/>
<polygon fill="black" stroke="black" points="915.71,-262.82 922.98,-255.11 912.49,-256.61 915.71,-262.82"/>
</g>
<!-- multi&#45;&gt;integr -->
<g id="edge12" class="edge">
<title>multi&#45;&gt;integr</title>
<path fill="none" stroke="black" d="M956,-291.81C956,-283.79 956,-274.05 956,-265.07"/>
<polygon fill="black" stroke="black" points="959.5,-265.03 956,-255.03 952.5,-265.03 959.5,-265.03"/>
</g>
<!-- newmark -->
<g id="node30" class="node">
<title>newmark</title>
<polygon fill="none" stroke="black" points="1022,-182 890,-182 890,-146 1022,-146 1022,-182"/>
<text text-anchor="middle" x="956" y="-160.3" font-family="Helvetica,Arial,sans-serif" font-size="14.00">NewmarkIntegrator</text>
</g>
<!-- integr&#45;&gt;newmark -->
<g id="edge14" class="edge">
<title>integr&#45;&gt;newmark</title>
<path fill="none" stroke="black" d="M956,-208.75C956,-199.77 956,-190.03 956,-182.03"/>
<polygon fill="none" stroke="black" points="952.5,-208.81 956,-218.81 959.5,-208.81 952.5,-208.81"/>
</g>
<!-- conv_criteria&#45;&gt;linsolv -->
<g id="edge34" class="edge">
<title>conv_criteria&#45;&gt;linsolv</title>
<path fill="none" stroke="black" d="M1730,-344.11C1650.87,-298.68 1520.88,-224.06 1456.54,-187.13"/>
<polygon fill="black" stroke="black" points="1458.2,-184.04 1447.78,-182.1 1454.71,-190.11 1458.2,-184.04"/>
</g>
<!-- conv_criteria&#45;&gt;opers -->
<g id="edge35" class="edge">
<title>conv_criteria&#45;&gt;opers</title>
<path fill="none" stroke="black" d="M1725.35,-316.94C1708.17,-269.9 1717.38,-210.93 1723.68,-182.26"/>
<polygon fill="black" stroke="black" points="1725.35,-316.94 1731.36,-320.92 1730,-328 1723.99,-324.02 1725.35,-316.94"/>
<text text-anchor="middle" x="1704.5" y="-259.17" font-family="Helvetica,Arial,sans-serif" font-size="14.00">use</text>
</g>
<!-- newton -->
<g id="node32" class="node">
<title>newton</title>
<polygon fill="none" stroke="black" points="1839.5,-328 1738.5,-328 1738.5,-292 1839.5,-292 1839.5,-328"/>
<text text-anchor="middle" x="1789" y="-306.3" font-family="Helvetica,Arial,sans-serif" font-size="14.00">NewtonSolver</text>
</g>
<!-- conv_criteria&#45;&gt;newton -->
<g id="edge15" class="edge">
<title>conv_criteria&#45;&gt;newton</title>
<path fill="none" stroke="black" stroke-dasharray="1,5" d="M1793.31,-354.75C1792.43,-345.77 1791.47,-336.03 1790.68,-328.03"/>
<polygon fill="none" stroke="black" points="1789.84,-355.2 1794.31,-364.81 1796.81,-354.52 1789.84,-355.2"/>
</g>
<!-- snes -->
<g id="node33" class="node">
<title>snes</title>
<polygon fill="none" stroke="black" points="1950,-328 1858,-328 1858,-292 1950,-292 1950,-328"/>
<text text-anchor="middle" x="1904" y="-306.3" font-family="Helvetica,Arial,sans-serif" font-size="14.00">SNESSolver</text>
</g>
<!-- conv_criteria&#45;&gt;snes -->
<g id="edge16" class="edge">
<title>conv_criteria&#45;&gt;snes</title>
<path fill="none" stroke="black" stroke-dasharray="1,5" d="M1830.59,-359.26C1845.96,-349.15 1863.75,-337.46 1877.97,-328.11"/>
<polygon fill="none" stroke="black" points="1828.3,-356.58 1821.87,-364.99 1832.15,-362.42 1828.3,-356.58"/>
</g>
<!-- raspen -->
<g id="node34" class="node">
<title>raspen</title>
<polygon fill="none" stroke="black" points="2069.5,-328 1968.5,-328 1968.5,-292 2069.5,-292 2069.5,-328"/>
<text text-anchor="middle" x="2019" y="-306.3" font-family="Helvetica,Arial,sans-serif" font-size="14.00">RaspenSolver</text>
</g>
<!-- conv_criteria&#45;&gt;raspen -->
<g id="edge17" class="edge">
<title>conv_criteria&#45;&gt;raspen</title>
<path fill="none" stroke="black" stroke-dasharray="1,5" d="M1858.95,-361.96C1893.54,-350.94 1935.88,-337.46 1968.32,-327.14"/>
<polygon fill="none" stroke="black" points="1857.88,-358.62 1849.41,-364.99 1860,-365.29 1857.88,-358.62"/>
</g>
<!-- newton&#45;&gt;conv_manager -->
<g id="edge38" class="edge">
<title>newton&#45;&gt;conv_manager</title>
<path fill="none" stroke="black" d="M1828.99,-291.96C1858.01,-279.41 1894.59,-263.17 1909,-255 1944.42,-234.9 1982.36,-207.68 2007.85,-188.45"/>
<polygon fill="black" stroke="black" points="2010.15,-191.09 2016,-182.26 2005.92,-185.52 2010.15,-191.09"/>
</g>
<!-- newton&#45;&gt;incr_solv -->
<g id="edge37" class="edge">
<title>newton&#45;&gt;incr_solv</title>
<path fill="none" stroke="black" d="M1800.62,-291.81C1806.4,-283.27 1813.49,-272.77 1819.88,-263.32"/>
<polygon fill="black" stroke="black" points="1822.79,-265.27 1825.49,-255.03 1816.99,-261.35 1822.79,-265.27"/>
</g>
<!-- snes&#45;&gt;problem -->
<g id="edge54" class="edge">
<title>snes&#45;&gt;problem</title>
<path fill="none" stroke="black" stroke-dasharray="1,5" d="M1939.1,-291.96C1945.93,-289.04 1953.11,-286.23 1960,-284 2007.52,-268.62 2180,-287.95 2180,-238 2180,-238 2180,-238 2180,-90 2180,-43.02 2044.57,-27.12 1951.6,-21.75"/>
<polygon fill="black" stroke="black" points="1951.79,-18.25 1941.61,-21.2 1951.4,-25.24 1951.79,-18.25"/>
</g>
<!-- snes&#45;&gt;incr_solv -->
<!-- raspen&#45;&gt;problem -->
<g id="edge55" class="edge">
<title>raspen&#45;&gt;problem</title>
<path fill="none" stroke="black" stroke-dasharray="1,5" d="M2069.73,-301.18C2128.69,-290.63 2218,-269.45 2218,-238 2218,-238 2218,-238 2218,-90 2218,-36.08 2057.27,-22.61 1953.03,-19.55"/>
<polygon fill="black" stroke="black" points="1952.9,-16.04 1942.81,-19.27 1952.72,-23.04 1952.9,-16.04"/>
</g>
</g>
</svg>
