<?xml version="1.0" encoding="UTF-8" standalone="no"?>
<!DOCTYPE svg PUBLIC "-//W3C//DTD SVG 1.1//EN"
 "http://www.w3.org/Graphics/SVG/1.1/DTD/svg11.dtd">
<!-- Generated by graphviz version 2.43.0 (0)
 -->
<!-- Title: MNL Pages: 1 -->
<svg width="1162pt" height="1354pt"
 viewBox="0.00 0.00 1161.50 1354.00" xmlns="http://www.w3.org/2000/svg" xmlns:xlink="http://www.w3.org/1999/xlink">
<g id="graph0" class="graph" transform="scale(1 1) rotate(0) translate(4 1350)">
<title>MNL</title>
<polygon fill="white" stroke="transparent" points="-4,4 -4,-1350 1157.5,-1350 1157.5,4 -4,4"/>
<g id="clust3" class="cluster">
<title>cluster_operators</title>
<polygon fill="none" stroke="black" stroke-dasharray="5,2" points="336,-817 336,-977 1145.5,-977 1145.5,-817 336,-817"/>
</g>
<g id="clust6" class="cluster">
<title>cluster_stepsolv</title>
<polygon fill="none" stroke="black" stroke-dasharray="5,2" points="336,-402 336,-585 967,-585 967,-402 336,-402"/>
<text text-anchor="middle" x="651.5" y="-569.8" font-family="Helvetica,Arial,sans-serif" font-size="14.00">StepSolver</text>
</g>
<g id="clust9" class="cluster">
<title>cluster_iter_solv</title>
<polygon fill="none" stroke="black" stroke-dasharray="5,2" points="581,-139 581,-394 955,-394 955,-139 581,-139"/>
<text text-anchor="middle" x="768" y="-378.8" font-family="Helvetica,Arial,sans-serif" font-size="14.00">IterationSolver</text>
</g>
<!-- keywords -->
<g id="node1" class="node">
<title>keywords</title>
<ellipse fill="none" stroke="black" cx="448" cy="-1328" rx="49.29" ry="18"/>
<text text-anchor="middle" x="448" y="-1324.3" font-family="Helvetica,Arial,sans-serif" font-size="14.00">Keywords</text>
</g>
<!-- problem -->
<g id="node2" class="node">
<title>problem</title>
<ellipse fill="none" stroke="black" cx="448" cy="-1274" rx="76.89" ry="18"/>
<text text-anchor="middle" x="448" y="-1270.3" font-family="Helvetica,Arial,sans-serif" font-size="14.00">PhysicalProblem</text>
</g>
<!-- type -->
<g id="node3" class="node">
<title>type</title>
<ellipse fill="none" stroke="black" cx="448" cy="-1220" rx="63.09" ry="18"/>
<text text-anchor="middle" x="448" y="-1216.3" font-family="Helvetica,Arial,sans-serif" font-size="14.00">ProblemType</text>
</g>
<!-- state -->
<g id="node4" class="node">
<title>state</title>
<ellipse fill="none" stroke="black" cx="448" cy="-1166" rx="63.89" ry="18"/>
<text text-anchor="middle" x="448" y="-1162.3" font-family="Helvetica,Arial,sans-serif" font-size="14.00">PhysicalState</text>
</g>
<!-- result -->
<g id="node5" class="node">
<title>result</title>
<ellipse fill="none" stroke="black" cx="448" cy="-1112" rx="36" ry="18"/>
<text text-anchor="middle" x="448" y="-1108.3" font-family="Helvetica,Arial,sans-serif" font-size="14.00">Result</text>
</g>
<!-- contact -->
<g id="node6" class="node">
<title>contact</title>
<polygon fill="none" stroke="black" points="479.5,-1076 416.5,-1076 416.5,-1040 479.5,-1040 479.5,-1076"/>
<text text-anchor="middle" x="448" y="-1054.3" font-family="Helvetica,Arial,sans-serif" font-size="14.00">Contact</text>
</g>
<!-- linsolv -->
<g id="node7" class="node">
<title>linsolv</title>
<polygon fill="none" stroke="black" points="494,-1022 402,-1022 402,-986 494,-986 494,-1022"/>
<text text-anchor="middle" x="448" y="-1000.3" font-family="Helvetica,Arial,sans-serif" font-size="14.00">LinearSolver</text>
</g>
<!-- context -->
<g id="node8" class="node">
<title>context</title>
<ellipse fill="none" stroke="black" cx="228" cy="-1112" rx="40.89" ry="40.89"/>
<text text-anchor="middle" x="228" y="-1108.3" font-family="Helvetica,Arial,sans-serif" font-size="14.00">Context</text>
</g>
<!-- context&#45;&gt;keywords -->
<g id="edge3" class="edge">
<title>context&#45;&gt;keywords</title>
<path fill="none" stroke="black" d="M240.28,-1151.29C254.95,-1194.97 284.92,-1264.18 336,-1301 351.47,-1312.16 370.99,-1318.74 389.33,-1322.61"/>
<polygon fill="black" stroke="black" points="388.89,-1326.09 399.36,-1324.5 390.18,-1319.21 388.89,-1326.09"/>
</g>
<!-- context&#45;&gt;problem -->
<g id="edge1" class="edge">
<title>context&#45;&gt;problem</title>
<path fill="none" stroke="black" d="M248.13,-1147.69C266.57,-1178.64 297.34,-1222.24 336,-1247 346.48,-1253.71 358.48,-1258.75 370.64,-1262.54"/>
<polygon fill="black" stroke="black" points="369.82,-1265.95 380.4,-1265.32 371.74,-1259.22 369.82,-1265.95"/>
</g>
<!-- context&#45;&gt;type -->
<g id="edge2" class="edge">
<title>context&#45;&gt;type</title>
<path fill="none" stroke="black" d="M258.62,-1139.75C278.97,-1157.4 307.38,-1179.41 336,-1193 350.4,-1199.84 366.71,-1205.04 382.3,-1208.97"/>
<polygon fill="black" stroke="black" points="381.87,-1212.47 392.41,-1211.37 383.49,-1205.65 381.87,-1212.47"/>
</g>
<!-- context&#45;&gt;state -->
<g id="edge4" class="edge">
<title>context&#45;&gt;state</title>
<path fill="none" stroke="black" d="M267.86,-1121.89C288.16,-1127.04 313.41,-1133.4 336,-1139 353.22,-1143.27 371.96,-1147.85 389.05,-1152"/>
<polygon fill="black" stroke="black" points="388.35,-1155.44 398.9,-1154.39 390.01,-1148.63 388.35,-1155.44"/>
</g>
<!-- context&#45;&gt;result -->
<g id="edge5" class="edge">
<title>context&#45;&gt;result</title>
<path fill="none" stroke="black" d="M268.98,-1112C306.56,-1112 362.72,-1112 401.88,-1112"/>
<polygon fill="black" stroke="black" points="401.95,-1115.5 411.95,-1112 401.95,-1108.5 401.95,-1115.5"/>
</g>
<!-- context&#45;&gt;contact -->
<g id="edge7" class="edge">
<title>context&#45;&gt;contact</title>
<path fill="none" stroke="black" d="M267.86,-1102.11C288.16,-1096.96 313.41,-1090.6 336,-1085 359.33,-1079.22 385.44,-1072.86 406.47,-1067.77"/>
<polygon fill="black" stroke="black" points="407.46,-1071.13 416.36,-1065.38 405.82,-1064.33 407.46,-1071.13"/>
</g>
<!-- context&#45;&gt;linsolv -->
<g id="edge8" class="edge">
<title>context&#45;&gt;linsolv</title>
<path fill="none" stroke="black" d="M258.62,-1084.25C278.97,-1066.6 307.38,-1044.59 336,-1031 353.38,-1022.75 373.54,-1016.87 391.86,-1012.76"/>
<polygon fill="black" stroke="black" points="392.77,-1016.14 401.82,-1010.65 391.32,-1009.29 392.77,-1016.14"/>
</g>
<!-- operators -->
<g id="node9" class="node">
<title>operators</title>
<polygon fill="none" stroke="black" stroke-dasharray="5,2" points="523.5,-896 372.5,-896 372.5,-860 523.5,-860 523.5,-896"/>
<text text-anchor="middle" x="448" y="-874.3" font-family="Helvetica,Arial,sans-serif" font-size="14.00">BaseOperators {abstr}</text>
</g>
<!-- context&#45;&gt;operators -->
<g id="edge6" class="edge">
<title>context&#45;&gt;operators</title>
<path fill="none" stroke="black" d="M242.08,-1073.27C257.24,-1033.4 285.76,-971.41 328.45,-929.98"/>
<polygon fill="black" stroke="black" points="331.03,-932.36 336,-923 326.28,-927.22 331.03,-932.36"/>
</g>
<!-- mixin_oper -->
<g id="node17" class="node">
<title>mixin_oper</title>
<polygon fill="none" stroke="black" stroke-dasharray="5,2" points="546,-968 344,-968 344,-932 552,-932 552,-962 546,-968"/>
<polyline fill="none" stroke="black" stroke-dasharray="5,2" points="546,-968 546,-962 "/>
<polyline fill="none" stroke="black" stroke-dasharray="5,2" points="552,-962 546,-962 "/>
<text text-anchor="middle" x="448" y="-946.3" font-family="Helvetica,Arial,sans-serif" font-size="14.00">ContextMixin + DispatcherMixin</text>
</g>
<!-- operators&#45;&gt;mixin_oper -->
<g id="edge10" class="edge">
<title>operators&#45;&gt;mixin_oper</title>
<path fill="none" stroke="black" stroke-dasharray="5,2" d="M448,-906.31C448,-914.86 448,-923.41 448,-931.95"/>
<polygon fill="none" stroke="black" points="451.5,-906.28 448,-896.28 444.5,-906.28 451.5,-906.28"/>
</g>
<!-- statopers -->
<g id="node18" class="node">
<title>statopers</title>
<polygon fill="none" stroke="black" points="760.5,-861 625.5,-861 625.5,-825 760.5,-825 760.5,-861"/>
<text text-anchor="middle" x="693" y="-839.3" font-family="Helvetica,Arial,sans-serif" font-size="14.00">MecaStatOperators</text>
</g>
<!-- operators&#45;&gt;statopers -->
<g id="edge11" class="edge">
<title>operators&#45;&gt;statopers</title>
<path fill="none" stroke="black" d="M533.62,-865.81C563.68,-861.48 597.07,-856.67 625.42,-852.59"/>
<polygon fill="none" stroke="black" points="532.96,-862.37 523.56,-867.26 533.96,-869.3 532.96,-862.37"/>
</g>
<!-- theropers -->
<g id="node19" class="node">
<title>theropers</title>
<polygon fill="none" stroke="black" points="757,-915 629,-915 629,-879 757,-879 757,-915"/>
<text text-anchor="middle" x="693" y="-893.3" font-family="Helvetica,Arial,sans-serif" font-size="14.00">ThermalOperators</text>
</g>
<!-- operators&#45;&gt;theropers -->
<g id="edge13" class="edge">
<title>operators&#45;&gt;theropers</title>
<path fill="none" stroke="black" d="M533.56,-884.61C564.79,-887.05 599.61,-889.78 628.64,-892.05"/>
<polygon fill="none" stroke="black" points="533.8,-881.12 523.56,-883.83 533.26,-888.1 533.8,-881.12"/>
</g>
<!-- dynopers -->
<g id="node20" class="node">
<title>dynopers</title>
<polygon fill="none" stroke="black" stroke-dasharray="5,2" points="785.5,-969 600.5,-969 600.5,-933 785.5,-933 785.5,-969"/>
<text text-anchor="middle" x="693" y="-947.3" font-family="Helvetica,Arial,sans-serif" font-size="14.00">MecaDynaOperators {abstr}</text>
</g>
<!-- operators&#45;&gt;dynopers -->
<g id="edge12" class="edge">
<title>operators&#45;&gt;dynopers</title>
<path fill="none" stroke="black" d="M506.8,-899.5C529.74,-907.68 556.46,-916.76 581,-924 591.56,-927.12 602.75,-930.15 613.82,-932.99"/>
<polygon fill="none" stroke="black" points="507.82,-896.15 497.22,-896.06 505.45,-902.74 507.82,-896.15"/>
</g>
<!-- mnl -->
<g id="node10" class="node">
<title>mnl</title>
<polygon fill="none" stroke="black" points="138,-906 0,-906 0,-870 138,-870 138,-906"/>
<text text-anchor="middle" x="69" y="-884.3" font-family="Helvetica,Arial,sans-serif" font-size="14.00">meca_non_line_ops</text>
</g>
<!-- mnl&#45;&gt;context -->
<g id="edge29" class="edge">
<title>mnl&#45;&gt;context</title>
<path fill="none" stroke="black" stroke-width="2" d="M82.85,-906.33C107.84,-941.99 163.56,-1021.48 197.94,-1070.53"/>
<polygon fill="black" stroke="black" stroke-width="2" points="195.07,-1072.55 203.68,-1078.73 200.81,-1068.53 195.07,-1072.55"/>
<text text-anchor="middle" x="120.91" y="-981.53" font-family="Helvetica,Arial,sans-serif" font-size="14.00">creates</text>
</g>
<!-- pbsolv -->
<g id="node11" class="node">
<title>pbsolv</title>
<polygon fill="none" stroke="black" points="281,-683 175,-683 175,-647 281,-647 281,-683"/>
<text text-anchor="middle" x="228" y="-661.3" font-family="Helvetica,Arial,sans-serif" font-size="14.00">ProblemSolver</text>
</g>
<!-- mnl&#45;&gt;pbsolv -->
<g id="edge28" class="edge">
<title>mnl&#45;&gt;pbsolv</title>
<path fill="none" stroke="black" d="M82.85,-869.75C110.57,-830.37 176.12,-737.27 208.39,-691.44"/>
<polygon fill="black" stroke="black" points="211.3,-693.38 214.19,-683.19 205.58,-689.35 211.3,-693.38"/>
</g>
<!-- mixin_pb -->
<g id="node12" class="node">
<title>mixin_pb</title>
<polygon fill="none" stroke="black" stroke-dasharray="5,2" points="269.5,-611 180.5,-611 180.5,-575 275.5,-575 275.5,-605 269.5,-611"/>
<polyline fill="none" stroke="black" stroke-dasharray="5,2" points="269.5,-611 269.5,-605 "/>
<polyline fill="none" stroke="black" stroke-dasharray="5,2" points="275.5,-605 269.5,-605 "/>
<text text-anchor="middle" x="228" y="-589.3" font-family="Helvetica,Arial,sans-serif" font-size="14.00">ContextMixin</text>
</g>
<!-- pbsolv&#45;&gt;mixin_pb -->
<g id="edge9" class="edge">
<title>pbsolv&#45;&gt;mixin_pb</title>
<path fill="none" stroke="black" stroke-dasharray="5,2" d="M228,-636.92C228,-628.37 228,-619.83 228,-611.28"/>
<polygon fill="none" stroke="black" points="224.5,-636.95 228,-646.95 231.5,-636.95 224.5,-636.95"/>
</g>
<!-- timestepper -->
<g id="node13" class="node">
<title>timestepper</title>
<polygon fill="none" stroke="black" points="495.5,-809 400.5,-809 400.5,-773 495.5,-773 495.5,-809"/>
<text text-anchor="middle" x="448" y="-787.3" font-family="Helvetica,Arial,sans-serif" font-size="14.00">TimeStepper</text>
</g>
<!-- pbsolv&#45;&gt;timestepper -->
<g id="edge30" class="edge">
<title>pbsolv&#45;&gt;timestepper</title>
<path fill="none" stroke="black" d="M249.57,-683.19C270.31,-700.89 303.79,-727.7 336,-746 353.09,-755.71 372.68,-764.38 390.61,-771.46"/>
<polygon fill="black" stroke="black" points="389.78,-774.89 400.37,-775.22 392.3,-768.36 389.78,-774.89"/>
</g>
<!-- storage -->
<g id="node14" class="node">
<title>storage</title>
<polygon fill="none" stroke="black" points="507,-683 389,-683 389,-647 507,-647 507,-683"/>
<text text-anchor="middle" x="448" y="-661.3" font-family="Helvetica,Arial,sans-serif" font-size="14.00">StorageManager</text>
</g>
<!-- pbsolv&#45;&gt;storage -->
<g id="edge31" class="edge">
<title>pbsolv&#45;&gt;storage</title>
<path fill="none" stroke="black" d="M281.22,-665C310.43,-665 347.19,-665 378.67,-665"/>
<polygon fill="black" stroke="black" points="378.68,-668.5 388.68,-665 378.68,-661.5 378.68,-668.5"/>
</g>
<!-- hook -->
<g id="node15" class="node">
<title>hook</title>
<polygon fill="none" stroke="black" points="499.5,-629 396.5,-629 396.5,-593 499.5,-593 499.5,-629"/>
<text text-anchor="middle" x="448" y="-607.3" font-family="Helvetica,Arial,sans-serif" font-size="14.00">PostStepHook</text>
</g>
<!-- pbsolv&#45;&gt;hook -->
<g id="edge33" class="edge">
<title>pbsolv&#45;&gt;hook</title>
<path fill="none" stroke="black" stroke-dasharray="5,2" d="M281.32,-650.6C287.27,-649.02 293.26,-647.46 299,-646 327.59,-638.74 359.42,-631.15 386.21,-624.9"/>
<polygon fill="black" stroke="black" points="387.26,-628.25 396.21,-622.58 385.68,-621.43 387.26,-628.25"/>
<text text-anchor="middle" x="312.5" y="-649.8" font-family="Helvetica,Arial,sans-serif" font-size="14.00">todo</text>
</g>
<!-- stepsolv -->
<g id="node26" class="node">
<title>stepsolv</title>
<polygon fill="none" stroke="black" stroke-dasharray="5,2" points="526,-482 370,-482 370,-446 526,-446 526,-482"/>
<text text-anchor="middle" x="448" y="-460.3" font-family="Helvetica,Arial,sans-serif" font-size="14.00">BaseStepSolver {abstr}</text>
</g>
<!-- pbsolv&#45;&gt;stepsolv -->
<g id="edge32" class="edge">
<title>pbsolv&#45;&gt;stepsolv</title>
<path fill="none" stroke="black" stroke-width="2" d="M253.92,-646.85C263.2,-639.26 273.33,-629.91 281,-620 312.46,-579.35 297.94,-550.49 328.71,-516.37"/>
<polygon fill="black" stroke="black" stroke-width="2" points="331.46,-518.57 336,-509 326.48,-513.65 331.46,-518.57"/>
<text text-anchor="middle" x="358.34" y="-568.75" font-family="Helvetica,Arial,sans-serif" font-size="14.00">loops on timesteps</text>
</g>
<!-- observ -->
<g id="node16" class="node">
<title>observ</title>
<polygon fill="none" stroke="black" stroke-dasharray="5,2" points="479,-737 411,-737 411,-701 485,-701 485,-731 479,-737"/>
<polyline fill="none" stroke="black" stroke-dasharray="5,2" points="479,-737 479,-731 "/>
<polyline fill="none" stroke="black" stroke-dasharray="5,2" points="485,-731 479,-731 "/>
<text text-anchor="middle" x="448" y="-715.3" font-family="Helvetica,Arial,sans-serif" font-size="14.00">Observer</text>
</g>
<!-- timestepper&#45;&gt;observ -->
<g id="edge39" class="edge">
<title>timestepper&#45;&gt;observ</title>
<path fill="none" stroke="black" stroke-dasharray="5,2" d="M448,-762.92C448,-754.37 448,-745.83 448,-737.28"/>
<polygon fill="none" stroke="black" points="444.5,-762.95 448,-772.95 451.5,-762.95 444.5,-762.95"/>
</g>
<!-- integr -->
<g id="node21" class="node">
<title>integr</title>
<polygon fill="none" stroke="black" points="949,-969 844,-969 844,-933 949,-933 949,-969"/>
<text text-anchor="middle" x="896.5" y="-947.3" font-family="Helvetica,Arial,sans-serif" font-size="14.00">BaseIntegrator</text>
</g>
<!-- dynopers&#45;&gt;integr -->
<g id="edge14" class="edge">
<title>dynopers&#45;&gt;integr</title>
<path fill="none" stroke="black" d="M795.93,-951C812.52,-951 829.07,-951 843.77,-951"/>
<polygon fill="none" stroke="black" points="795.61,-947.5 785.61,-951 795.61,-954.5 795.61,-947.5"/>
</g>
<!-- newmark -->
<g id="node22" class="node">
<title>newmark</title>
<polygon fill="none" stroke="black" points="1137.5,-969 1005.5,-969 1005.5,-933 1137.5,-933 1137.5,-969"/>
<text text-anchor="middle" x="1071.5" y="-947.3" font-family="Helvetica,Arial,sans-serif" font-size="14.00">NewmarkIntegrator</text>
</g>
<!-- integr&#45;&gt;newmark -->
<g id="edge15" class="edge">
<title>integr&#45;&gt;newmark</title>
<path fill="none" stroke="black" d="M959.53,-951C974.44,-951 990.4,-951 1005.44,-951"/>
<polygon fill="none" stroke="black" points="959.41,-947.5 949.41,-951 959.41,-954.5 959.41,-947.5"/>
</g>
<!-- mecastat -->
<g id="node23" class="node">
<title>mecastat</title>
<polygon fill="none" stroke="black" points="763,-446 623,-446 623,-410 763,-410 763,-446"/>
<text text-anchor="middle" x="693" y="-424.3" font-family="Helvetica,Arial,sans-serif" font-size="14.00">MecaStatStepSolver</text>
</g>
<!-- mecadyn -->
<g id="node24" class="node">
<title>mecadyn</title>
<polygon fill="none" stroke="black" points="767,-500 619,-500 619,-464 767,-464 767,-500"/>
<text text-anchor="middle" x="693" y="-478.3" font-family="Helvetica,Arial,sans-serif" font-size="14.00">MecaDynaStepSolver</text>
</g>
<!-- implicit -->
<g id="node28" class="node">
<title>implicit</title>
<polygon fill="none" stroke="black" points="959,-446 834,-446 834,-410 959,-410 959,-446"/>
<text text-anchor="middle" x="896.5" y="-424.3" font-family="Helvetica,Arial,sans-serif" font-size="14.00">ImplicitStepSolver</text>
</g>
<!-- mecadyn&#45;&gt;implicit -->
<g id="edge20" class="edge">
<title>mecadyn&#45;&gt;implicit</title>
<path fill="none" stroke="black" d="M773.11,-461.36C781.18,-459.22 789.26,-457.08 797,-455 808.9,-451.81 821.6,-448.36 833.79,-445.03"/>
<polygon fill="none" stroke="black" points="772.06,-458.02 763.28,-463.95 773.85,-464.78 772.06,-458.02"/>
</g>
<!-- explicit -->
<g id="node29" class="node">
<title>explicit</title>
<polygon fill="none" stroke="black" points="959,-500 834,-500 834,-464 959,-464 959,-500"/>
<text text-anchor="middle" x="896.5" y="-478.3" font-family="Helvetica,Arial,sans-serif" font-size="14.00">ExplicitStepSolver</text>
</g>
<!-- mecadyn&#45;&gt;explicit -->
<g id="edge21" class="edge">
<title>mecadyn&#45;&gt;explicit</title>
<path fill="none" stroke="black" d="M777.18,-482C796.2,-482 816.08,-482 834,-482"/>
<polygon fill="none" stroke="black" points="777.03,-478.5 767.03,-482 777.03,-485.5 777.03,-478.5"/>
</g>
<!-- multi -->
<g id="node30" class="node">
<title>multi</title>
<polygon fill="none" stroke="black" points="952.5,-554 840.5,-554 840.5,-518 952.5,-518 952.5,-554"/>
<text text-anchor="middle" x="896.5" y="-532.3" font-family="Helvetica,Arial,sans-serif" font-size="14.00">MultiStepSolver</text>
</g>
<!-- mecadyn&#45;&gt;multi -->
<g id="edge22" class="edge">
<title>mecadyn&#45;&gt;multi</title>
<path fill="none" stroke="black" d="M773.11,-502.64C781.18,-504.78 789.26,-506.92 797,-509 811.04,-512.77 826.2,-516.89 840.31,-520.75"/>
<polygon fill="none" stroke="black" points="773.85,-499.22 763.28,-500.05 772.06,-505.98 773.85,-499.22"/>
</g>
<!-- ther -->
<g id="node25" class="node">
<title>ther</title>
<polygon fill="none" stroke="black" points="759.5,-554 626.5,-554 626.5,-518 759.5,-518 759.5,-554"/>
<text text-anchor="middle" x="693" y="-532.3" font-family="Helvetica,Arial,sans-serif" font-size="14.00">ThermalStepSolver</text>
</g>
<!-- stepsolv&#45;&gt;mecastat -->
<g id="edge17" class="edge">
<title>stepsolv&#45;&gt;mecastat</title>
<path fill="none" stroke="black" d="M536.16,-451.09C564.63,-446.87 595.83,-442.25 622.79,-438.25"/>
<polygon fill="none" stroke="black" points="535.6,-447.63 526.22,-452.56 536.63,-454.56 535.6,-447.63"/>
</g>
<!-- stepsolv&#45;&gt;mecadyn -->
<g id="edge18" class="edge">
<title>stepsolv&#45;&gt;mecadyn</title>
<path fill="none" stroke="black" d="M536.42,-470.48C563.39,-472.47 592.8,-474.65 618.71,-476.57"/>
<polygon fill="none" stroke="black" points="536.45,-466.97 526.22,-469.72 535.93,-473.95 536.45,-466.97"/>
</g>
<!-- stepsolv&#45;&gt;ther -->
<g id="edge19" class="edge">
<title>stepsolv&#45;&gt;ther</title>
<path fill="none" stroke="black" d="M507.98,-485.37C530.67,-493.26 556.9,-501.98 581,-509 595.57,-513.25 611.34,-517.36 626.3,-521.05"/>
<polygon fill="none" stroke="black" points="509.09,-482.05 498.5,-482.05 506.78,-488.66 509.09,-482.05"/>
</g>
<!-- mixin_step -->
<g id="node27" class="node">
<title>mixin_step</title>
<polygon fill="none" stroke="black" stroke-dasharray="5,2" points="546,-554 344,-554 344,-518 552,-518 552,-548 546,-554"/>
<polyline fill="none" stroke="black" stroke-dasharray="5,2" points="546,-554 546,-548 "/>
<polyline fill="none" stroke="black" stroke-dasharray="5,2" points="552,-548 546,-548 "/>
<text text-anchor="middle" x="448" y="-532.3" font-family="Helvetica,Arial,sans-serif" font-size="14.00">ContextMixin + DispatcherMixin</text>
</g>
<!-- stepsolv&#45;&gt;mixin_step -->
<g id="edge16" class="edge">
<title>stepsolv&#45;&gt;mixin_step</title>
<path fill="none" stroke="black" stroke-dasharray="5,2" d="M448,-492.31C448,-500.86 448,-509.41 448,-517.95"/>
<polygon fill="none" stroke="black" points="451.5,-492.28 448,-482.28 444.5,-492.28 451.5,-492.28"/>
</g>
<!-- iter_solver -->
<g id="node31" class="node">
<title>iter_solver</title>
<polygon fill="none" stroke="black" stroke-dasharray="5,2" points="781.5,-291 604.5,-291 604.5,-255 781.5,-255 781.5,-291"/>
<text text-anchor="middle" x="693" y="-269.3" font-family="Helvetica,Arial,sans-serif" font-size="14.00">BaseIterationSolver {abstr}</text>
</g>
<!-- stepsolv&#45;&gt;iter_solver -->
<g id="edge34" class="edge">
<title>stepsolv&#45;&gt;iter_solver</title>
<path fill="none" stroke="black" d="M494.41,-402C515.8,-375.88 543.12,-346.4 572.77,-323.99"/>
<polygon fill="black" stroke="black" points="574.97,-326.71 581,-318 570.86,-321.05 574.97,-326.71"/>
</g>
<!-- mixin_iter -->
<g id="node32" class="node">
<title>mixin_iter</title>
<polygon fill="none" stroke="black" stroke-dasharray="5,2" points="791,-363 589,-363 589,-327 797,-327 797,-357 791,-363"/>
<polyline fill="none" stroke="black" stroke-dasharray="5,2" points="791,-363 791,-357 "/>
<polyline fill="none" stroke="black" stroke-dasharray="5,2" points="797,-357 791,-357 "/>
<text text-anchor="middle" x="693" y="-341.3" font-family="Helvetica,Arial,sans-serif" font-size="14.00">ContextMixin + DispatcherMixin</text>
</g>
<!-- iter_solver&#45;&gt;mixin_iter -->
<g id="edge23" class="edge">
<title>iter_solver&#45;&gt;mixin_iter</title>
<path fill="none" stroke="black" stroke-dasharray="5,2" d="M693,-301.31C693,-309.86 693,-318.41 693,-326.95"/>
<polygon fill="none" stroke="black" points="696.5,-301.28 693,-291.28 689.5,-301.28 696.5,-301.28"/>
</g>
<!-- newton -->
<g id="node33" class="node">
<title>newton</title>
<polygon fill="none" stroke="black" points="947,-183 846,-183 846,-147 947,-147 947,-183"/>
<text text-anchor="middle" x="896.5" y="-161.3" font-family="Helvetica,Arial,sans-serif" font-size="14.00">NewtonSolver</text>
</g>
<!-- iter_solver&#45;&gt;newton -->
<g id="edge25" class="edge">
<title>iter_solver&#45;&gt;newton</title>
<path fill="none" stroke="black" d="M736.83,-250.04C774.08,-230.08 827.33,-201.54 861.66,-183.14"/>
<polygon fill="none" stroke="black" points="734.89,-247.11 727.73,-254.92 738.19,-253.28 734.89,-247.11"/>
</g>
<!-- snes -->
<g id="node35" class="node">
<title>snes</title>
<polygon fill="none" stroke="black" points="942.5,-309 850.5,-309 850.5,-273 942.5,-273 942.5,-309"/>
<text text-anchor="middle" x="896.5" y="-287.3" font-family="Helvetica,Arial,sans-serif" font-size="14.00">SNESSolver</text>
</g>
<!-- iter_solver&#45;&gt;snes -->
<g id="edge26" class="edge">
<title>iter_solver&#45;&gt;snes</title>
<path fill="none" stroke="black" d="M791.58,-281.72C812.18,-283.56 832.95,-285.41 850.45,-286.98"/>
<polygon fill="none" stroke="black" points="791.77,-278.22 781.5,-280.82 791.15,-285.19 791.77,-278.22"/>
</g>
<!-- raspen -->
<g id="node36" class="node">
<title>raspen</title>
<polygon fill="none" stroke="black" points="947,-363 846,-363 846,-327 947,-327 947,-363"/>
<text text-anchor="middle" x="896.5" y="-341.3" font-family="Helvetica,Arial,sans-serif" font-size="14.00">RaspenSolver</text>
</g>
<!-- iter_solver&#45;&gt;raspen -->
<g id="edge27" class="edge">
<title>iter_solver&#45;&gt;raspen</title>
<path fill="none" stroke="black" d="M754.28,-294.54C783.53,-304.99 818.25,-317.4 845.94,-327.29"/>
<polygon fill="none" stroke="black" points="755.18,-291.14 744.59,-291.08 752.83,-297.74 755.18,-291.14"/>
</g>
<!-- event -->
<g id="node34" class="node">
<title>event</title>
<polygon fill="none" stroke="black" stroke-dasharray="5,2" points="937.5,-255 849.5,-255 849.5,-219 943.5,-219 943.5,-249 937.5,-255"/>
<polyline fill="none" stroke="black" stroke-dasharray="5,2" points="937.5,-255 937.5,-249 "/>
<polyline fill="none" stroke="black" stroke-dasharray="5,2" points="943.5,-249 937.5,-249 "/>
<text text-anchor="middle" x="896.5" y="-233.3" font-family="Helvetica,Arial,sans-serif" font-size="14.00">EventSource</text>
</g>
<!-- newton&#45;&gt;event -->
<g id="edge24" class="edge">
<title>newton&#45;&gt;event</title>
<path fill="none" stroke="black" stroke-dasharray="5,2" d="M896.5,-193.31C896.5,-201.86 896.5,-210.41 896.5,-218.95"/>
<polygon fill="none" stroke="black" points="900,-193.28 896.5,-183.28 893,-193.28 900,-193.28"/>
</g>
<!-- linesearch -->
<g id="node37" class="node">
<title>linesearch</title>
<polygon fill="none" stroke="black" points="1114,-234 1029,-234 1029,-198 1114,-198 1114,-234"/>
<text text-anchor="middle" x="1071.5" y="-212.3" font-family="Helvetica,Arial,sans-serif" font-size="14.00">LineSearch</text>
</g>
<!-- newton&#45;&gt;linesearch -->
<g id="edge35" class="edge">
<title>newton&#45;&gt;linesearch</title>
<path fill="none" stroke="black" d="M947.07,-179.61C969.6,-186.26 996.24,-194.11 1019,-200.82"/>
<polygon fill="black" stroke="black" points="1018.23,-204.24 1028.82,-203.71 1020.21,-197.53 1018.23,-204.24"/>
</g>
<!-- conv_manager -->
<g id="node38" class="node">
<title>conv_manager</title>
<polygon fill="none" stroke="black" points="1147,-108 996,-108 996,-72 1147,-72 1147,-108"/>
<text text-anchor="middle" x="1071.5" y="-86.3" font-family="Helvetica,Arial,sans-serif" font-size="14.00">ConvergenceManager</text>
</g>
<!-- newton&#45;&gt;conv_manager -->
<g id="edge36" class="edge">
<title>newton&#45;&gt;conv_manager</title>
<path fill="none" stroke="black" d="M932.19,-146.98C950.87,-137.56 974.45,-126.12 996,-117 1000.17,-115.23 1004.51,-113.47 1008.89,-111.75"/>
<polygon fill="black" stroke="black" points="1010.45,-114.9 1018.53,-108.04 1007.94,-108.37 1010.45,-114.9"/>
</g>
<!-- mixin_line -->
<g id="node39" class="node">
<title>mixin_line</title>
<polygon fill="none" stroke="black" stroke-dasharray="5,2" points="1113,-162 1024,-162 1024,-126 1119,-126 1119,-156 1113,-162"/>
<polyline fill="none" stroke="black" stroke-dasharray="5,2" points="1113,-162 1113,-156 "/>
<polyline fill="none" stroke="black" stroke-dasharray="5,2" points="1119,-156 1113,-156 "/>
<text text-anchor="middle" x="1071.5" y="-140.3" font-family="Helvetica,Arial,sans-serif" font-size="14.00">ContextMixin</text>
</g>
<!-- linesearch&#45;&gt;mixin_line -->
<g id="edge37" class="edge">
<title>linesearch&#45;&gt;mixin_line</title>
<path fill="none" stroke="black" stroke-dasharray="5,2" d="M1071.5,-187.92C1071.5,-179.37 1071.5,-170.83 1071.5,-162.28"/>
<polygon fill="none" stroke="black" points="1068,-187.95 1071.5,-197.95 1075,-187.95 1068,-187.95"/>
</g>
<!-- mixin_conv -->
<g id="node40" class="node">
<title>mixin_conv</title>
<polygon fill="none" stroke="black" stroke-dasharray="5,2" points="1113,-36 1024,-36 1024,0 1119,0 1119,-30 1113,-36"/>
<polyline fill="none" stroke="black" stroke-dasharray="5,2" points="1113,-36 1113,-30 "/>
<polyline fill="none" stroke="black" stroke-dasharray="5,2" points="1119,-30 1113,-30 "/>
<text text-anchor="middle" x="1071.5" y="-14.3" font-family="Helvetica,Arial,sans-serif" font-size="14.00">ContextMixin</text>
</g>
<!-- conv_manager&#45;&gt;mixin_conv -->
<g id="edge38" class="edge">
<title>conv_manager&#45;&gt;mixin_conv</title>
<path fill="none" stroke="black" stroke-dasharray="5,2" d="M1071.5,-61.92C1071.5,-53.37 1071.5,-44.83 1071.5,-36.28"/>
<polygon fill="none" stroke="black" points="1068,-61.95 1071.5,-71.95 1075,-61.95 1068,-61.95"/>
</g>
</g>
</svg>
