<?xml version="1.0" encoding="UTF-8" standalone="no"?>
<!DOCTYPE svg PUBLIC "-//W3C//DTD SVG 1.1//EN"
 "http://www.w3.org/Graphics/SVG/1.1/DTD/svg11.dtd">
<!-- Generated by graphviz version 2.43.0 (0)
 -->
<!-- Title: MNL Pages: 1 -->
<svg width="2301pt" height="938pt"
 viewBox="0.00 0.00 2301.40 937.79" xmlns="http://www.w3.org/2000/svg" xmlns:xlink="http://www.w3.org/1999/xlink">
<g id="graph0" class="graph" transform="scale(1 1) rotate(0) translate(4 933.79)">
<title>MNL</title>
<polygon fill="white" stroke="transparent" points="-4,4 -4,-933.79 2297.4,-933.79 2297.4,4 -4,4"/>
<g id="clust2" class="cluster">
<title>cluster_operators</title>
<polygon fill="none" stroke="black" stroke-dasharray="5,2" points="382.4,-8 382.4,-324.89 946.4,-324.89 946.4,-8 382.4,-8"/>
</g>
<g id="clust4" class="cluster">
<title>cluster_stepsolv</title>
<polygon fill="none" stroke="black" stroke-dasharray="5,2" points="1811.4,-418.89 1811.4,-660.89 2285.4,-660.89 2285.4,-418.89 1811.4,-418.89"/>
<text text-anchor="middle" x="2048.4" y="-645.69" font-family="Helvetica,Arial,sans-serif" font-size="14.00">StepSolver</text>
</g>
<g id="clust6" class="cluster">
<title>cluster_iter_solv</title>
<polygon fill="none" stroke="black" stroke-dasharray="5,2" points="1074.4,-418.89 1074.4,-566.89 1422.4,-566.89 1422.4,-418.89 1074.4,-418.89"/>
<text text-anchor="middle" x="1248.4" y="-551.69" font-family="Helvetica,Arial,sans-serif" font-size="14.00">ConvergenceCriteria</text>
</g>
<!-- keywords -->
<g id="node1" class="node">
<title>keywords</title>
<ellipse fill="none" stroke="black" cx="49.4" cy="-611.89" rx="49.29" ry="18"/>
<text text-anchor="middle" x="49.4" y="-608.19" font-family="Helvetica,Arial,sans-serif" font-size="14.00">Keywords</text>
</g>
<!-- problem -->
<g id="node2" class="node">
<title>problem</title>
<ellipse fill="none" stroke="black" cx="193.4" cy="-611.89" rx="76.89" ry="18"/>
<text text-anchor="middle" x="193.4" y="-608.19" font-family="Helvetica,Arial,sans-serif" font-size="14.00">PhysicalProblem</text>
</g>
<!-- type -->
<g id="node3" class="node">
<title>type</title>
<ellipse fill="none" stroke="black" cx="432.4" cy="-611.89" rx="63.09" ry="18"/>
<text text-anchor="middle" x="432.4" y="-608.19" font-family="Helvetica,Arial,sans-serif" font-size="14.00">ProblemType</text>
</g>
<!-- state -->
<g id="node4" class="node">
<title>state</title>
<ellipse fill="none" stroke="black" cx="704.4" cy="-611.89" rx="63.89" ry="18"/>
<text text-anchor="middle" x="704.4" y="-608.19" font-family="Helvetica,Arial,sans-serif" font-size="14.00">PhysicalState</text>
</g>
<!-- result -->
<g id="node5" class="node">
<title>result</title>
<ellipse fill="none" stroke="black" cx="587.4" cy="-611.89" rx="36" ry="18"/>
<text text-anchor="middle" x="587.4" y="-608.19" font-family="Helvetica,Arial,sans-serif" font-size="14.00">Result</text>
</g>
<!-- contact -->
<g id="node6" class="node">
<title>contact</title>
<polygon fill="none" stroke="black" points="350.9,-629.89 287.9,-629.89 287.9,-593.89 350.9,-593.89 350.9,-629.89"/>
<text text-anchor="middle" x="319.4" y="-608.19" font-family="Helvetica,Arial,sans-serif" font-size="14.00">Contact</text>
</g>
<!-- context -->
<g id="node7" class="node">
<title>context</title>
<ellipse fill="none" stroke="black" cx="409.4" cy="-728.84" rx="40.89" ry="40.89"/>
<text text-anchor="middle" x="409.4" y="-725.14" font-family="Helvetica,Arial,sans-serif" font-size="14.00">Context</text>
</g>
<!-- context&#45;&gt;keywords -->
<g id="edge3" class="edge">
<title>context&#45;&gt;keywords</title>
<path fill="none" stroke="black" d="M368.31,-724.87C308.26,-719.2 194.24,-703.35 107.4,-660.89 94.61,-654.64 82.21,-645.02 72.17,-636.03"/>
<polygon fill="black" stroke="black" points="74.37,-633.3 64.68,-629.04 69.6,-638.42 74.37,-633.3"/>
</g>
<!-- context&#45;&gt;problem -->
<g id="edge1" class="edge">
<title>context&#45;&gt;problem</title>
<path fill="none" stroke="black" d="M373.04,-709.77C346.63,-696.52 310.12,-677.94 278.4,-660.89 262.33,-652.25 244.74,-642.39 229.75,-633.86"/>
<polygon fill="black" stroke="black" points="231.22,-630.67 220.8,-628.75 227.75,-636.75 231.22,-630.67"/>
</g>
<!-- context&#45;&gt;type -->
<g id="edge2" class="edge">
<title>context&#45;&gt;type</title>
<path fill="none" stroke="black" d="M417.25,-688.6C420.45,-672.59 424.08,-654.47 426.98,-639.97"/>
<polygon fill="black" stroke="black" points="430.42,-640.63 428.95,-630.13 423.55,-639.25 430.42,-640.63"/>
</g>
<!-- context&#45;&gt;state -->
<g id="edge4" class="edge">
<title>context&#45;&gt;state</title>
<path fill="none" stroke="black" d="M438.95,-700.18C445.31,-695.43 452.28,-691.02 459.4,-687.89 530.63,-656.56 559.88,-689.14 632.4,-660.89 648.21,-654.73 664.08,-644.67 676.88,-635.34"/>
<polygon fill="black" stroke="black" points="679.34,-637.87 685.22,-629.06 675.13,-632.28 679.34,-637.87"/>
</g>
<!-- context&#45;&gt;result -->
<g id="edge5" class="edge">
<title>context&#45;&gt;result</title>
<path fill="none" stroke="black" d="M439.14,-700.58C445.48,-695.8 452.39,-691.28 459.4,-687.89 491.42,-672.4 506.86,-688.15 537.4,-669.89 550.81,-661.87 562.54,-649.03 571.26,-637.57"/>
<polygon fill="black" stroke="black" points="574.3,-639.33 577.32,-629.17 568.63,-635.23 574.3,-639.33"/>
</g>
<!-- context&#45;&gt;contact -->
<g id="edge6" class="edge">
<title>context&#45;&gt;contact</title>
<path fill="none" stroke="black" d="M384.56,-696.13C370.17,-677.74 352.3,-654.91 338.91,-637.82"/>
<polygon fill="black" stroke="black" points="341.66,-635.65 332.74,-629.93 336.15,-639.96 341.66,-635.65"/>
</g>
<!-- operators -->
<g id="node8" class="node">
<title>operators</title>
<polygon fill="none" stroke="black" stroke-dasharray="5,2" points="935.9,-316.89 852.9,-316.89 852.9,-280.89 935.9,-280.89 935.9,-316.89"/>
<text text-anchor="middle" x="894.4" y="-295.19" font-family="Helvetica,Arial,sans-serif" font-size="14.00">Operators*</text>
</g>
<!-- context&#45;&gt;operators -->
<g id="edge7" class="edge">
<title>context&#45;&gt;operators</title>
<path fill="none" stroke="black" d="M440.38,-702.04C446.57,-697.19 453.1,-692.27 459.4,-687.89 478.55,-674.58 489.31,-678.68 504.4,-660.89 519.24,-643.4 523.4,-635.84 523.4,-612.89 523.4,-612.89 523.4,-612.89 523.4,-370.89 523.4,-352.25 541.69,-338.39 570.15,-328.1"/>
<polygon fill="black" stroke="black" points="571.37,-331.39 579.74,-324.89 569.14,-324.75 571.37,-331.39"/>
</g>
<!-- problem_old -->
<g id="node9" class="node">
<title>problem_old</title>
<ellipse fill="none" stroke="black" cx="1033.4" cy="-202.95" rx="76.89" ry="18"/>
<text text-anchor="middle" x="1033.4" y="-199.25" font-family="Helvetica,Arial,sans-serif" font-size="14.00">PhysicalProblem</text>
</g>
<!-- operators&#45;&gt;problem_old -->
<g id="edge57" class="edge">
<title>operators&#45;&gt;problem_old</title>
<path fill="none" stroke="black" stroke-dasharray="1,5" d="M919.57,-280.88C942.38,-265.46 976.13,-242.65 1000.96,-225.87"/>
<polygon fill="black" stroke="black" points="1003.02,-228.7 1009.34,-220.2 999.1,-222.9 1003.02,-228.7"/>
</g>
<!-- state_old -->
<g id="node10" class="node">
<title>state_old</title>
<ellipse fill="none" stroke="black" cx="1501.4" cy="-202.95" rx="63.89" ry="18"/>
<text text-anchor="middle" x="1501.4" y="-199.25" font-family="Helvetica,Arial,sans-serif" font-size="14.00">PhysicalState</text>
</g>
<!-- operators&#45;&gt;state_old -->
<g id="edge58" class="edge">
<title>operators&#45;&gt;state_old</title>
<path fill="none" stroke="black" stroke-dasharray="1,5" d="M936,-294.86C1016.27,-288.59 1197.87,-272.36 1348.4,-243.89 1382.57,-237.43 1420.38,-227.58 1449.87,-219.28"/>
<polygon fill="black" stroke="black" points="1450.87,-222.64 1459.54,-216.53 1448.96,-215.9 1450.87,-222.64"/>
</g>
<!-- dispatch -->
<g id="node22" class="node">
<title>dispatch</title>
<polygon fill="none" stroke="black" stroke-dasharray="5,2" points="1332.9,-220.95 1209.9,-220.95 1209.9,-184.95 1338.9,-184.95 1338.9,-214.95 1332.9,-220.95"/>
<polyline fill="none" stroke="black" stroke-dasharray="5,2" points="1332.9,-220.95 1332.9,-214.95 "/>
<polyline fill="none" stroke="black" stroke-dasharray="5,2" points="1338.9,-214.95 1332.9,-214.95 "/>
<text text-anchor="middle" x="1274.4" y="-199.25" font-family="Helvetica,Arial,sans-serif" font-size="14.00">ProblemTypeMixin</text>
</g>
<!-- operators&#45;&gt;dispatch -->
<g id="edge56" class="edge">
<title>operators&#45;&gt;dispatch</title>
<path fill="none" stroke="black" d="M945.87,-285.8C991.51,-275.01 1059.96,-258.68 1119.4,-243.89 1149.06,-236.51 1181.85,-228.1 1209.6,-220.9"/>
<polygon fill="none" stroke="black" points="944.84,-282.44 935.92,-288.15 946.45,-289.26 944.84,-282.44"/>
<text text-anchor="middle" x="1051.9" y="-259.14" font-family="Helvetica,Arial,sans-serif" font-size="14.00">factory</text>
</g>
<!-- statopers -->
<g id="node23" class="node">
<title>statopers</title>
<polygon fill="none" stroke="black" points="525.9,-220.95 390.9,-220.95 390.9,-184.95 525.9,-184.95 525.9,-220.95"/>
<text text-anchor="middle" x="458.4" y="-199.25" font-family="Helvetica,Arial,sans-serif" font-size="14.00">MecaStatOperators</text>
</g>
<!-- operators&#45;&gt;statopers -->
<g id="edge9" class="edge">
<title>operators&#45;&gt;statopers</title>
<path fill="none" stroke="black" d="M842.73,-295.45C771.86,-290.91 641.24,-278.26 535.4,-243.89 518.21,-238.31 500.21,-229.19 485.95,-221.06"/>
<polygon fill="none" stroke="black" points="842.54,-298.94 852.74,-296.06 842.97,-291.96 842.54,-298.94"/>
</g>
<!-- theropers -->
<g id="node24" class="node">
<title>theropers</title>
<polygon fill="none" stroke="black" points="672.4,-220.95 544.4,-220.95 544.4,-184.95 672.4,-184.95 672.4,-220.95"/>
<text text-anchor="middle" x="608.4" y="-199.25" font-family="Helvetica,Arial,sans-serif" font-size="14.00">ThermalOperators</text>
</g>
<!-- operators&#45;&gt;theropers -->
<g id="edge11" class="edge">
<title>operators&#45;&gt;theropers</title>
<path fill="none" stroke="black" d="M842.73,-288.6C798.88,-279.83 734.76,-264.87 681.4,-243.89 665.66,-237.71 649.06,-228.83 635.68,-221.02"/>
<polygon fill="none" stroke="black" points="842.11,-292.05 852.6,-290.54 843.46,-285.18 842.11,-292.05"/>
</g>
<!-- dynopers -->
<g id="node25" class="node">
<title>dynopers</title>
<polygon fill="none" stroke="black" stroke-dasharray="5,2" points="838.4,-220.95 690.4,-220.95 690.4,-184.95 838.4,-184.95 838.4,-220.95"/>
<text text-anchor="middle" x="764.4" y="-199.25" font-family="Helvetica,Arial,sans-serif" font-size="14.00">MecaDynaOperators*</text>
</g>
<!-- operators&#45;&gt;dynopers -->
<g id="edge10" class="edge">
<title>operators&#45;&gt;dynopers</title>
<path fill="none" stroke="black" d="M862.46,-274.81C839.5,-258.22 809.05,-236.21 788.2,-221.15"/>
<polygon fill="none" stroke="black" points="860.7,-277.86 870.85,-280.88 864.8,-272.19 860.7,-277.86"/>
</g>
<!-- context_op -->
<g id="node28" class="node">
<title>context_op</title>
<ellipse fill="none" stroke="black" stroke-dasharray="1,5" cx="897.4" cy="-202.95" rx="40.89" ry="40.89"/>
<text text-anchor="middle" x="897.4" y="-199.25" font-family="Helvetica,Arial,sans-serif" font-size="14.00">Context</text>
</g>
<!-- operators&#45;&gt;context_op -->
<g id="edge8" class="edge">
<title>operators&#45;&gt;context_op</title>
<path fill="none" stroke="black" d="M895.27,-270.48C895.53,-262.22 895.83,-252.98 896.11,-244.07"/>
<polygon fill="none" stroke="black" points="891.77,-270.55 894.95,-280.66 898.76,-270.78 891.77,-270.55"/>
<text text-anchor="middle" x="879.03" y="-266.29" font-family="Helvetica,Arial,sans-serif" font-size="14.00">mixin</text>
</g>
<!-- mnl -->
<g id="node11" class="node">
<title>mnl</title>
<polygon fill="none" stroke="black" points="262.4,-929.79 124.4,-929.79 124.4,-893.79 262.4,-893.79 262.4,-929.79"/>
<text text-anchor="middle" x="193.4" y="-908.09" font-family="Helvetica,Arial,sans-serif" font-size="14.00">meca_non_line_ops</text>
</g>
<!-- mnl&#45;&gt;keywords -->
<g id="edge27" class="edge">
<title>mnl&#45;&gt;keywords</title>
<path fill="none" stroke="black" stroke-width="2" d="M185.03,-893.48C160.87,-843.49 90.84,-698.63 62.02,-639.01"/>
<polygon fill="black" stroke="black" stroke-width="2" points="65.11,-637.35 57.6,-629.87 58.8,-640.4 65.11,-637.35"/>
<text text-anchor="middle" x="98.81" y="-765.46" font-family="Helvetica,Arial,sans-serif" font-size="14.00">creates</text>
</g>
<!-- mnl&#45;&gt;problem -->
<g id="edge28" class="edge">
<title>mnl&#45;&gt;problem</title>
<path fill="none" stroke="black" stroke-width="2" d="M193.4,-893.48C193.4,-843.92 193.4,-701.1 193.4,-640.55"/>
<polygon fill="black" stroke="black" stroke-width="2" points="196.9,-640.24 193.4,-630.24 189.9,-640.24 196.9,-640.24"/>
<text text-anchor="middle" x="170.9" y="-765.65" font-family="Helvetica,Arial,sans-serif" font-size="14.00">creates</text>
</g>
<!-- pbsolv -->
<g id="node12" class="node">
<title>pbsolv</title>
<polygon fill="none" stroke="black" points="749.4,-856.79 643.4,-856.79 643.4,-820.79 749.4,-820.79 749.4,-856.79"/>
<text text-anchor="middle" x="696.4" y="-835.09" font-family="Helvetica,Arial,sans-serif" font-size="14.00">ProblemSolver</text>
</g>
<!-- mnl&#45;&gt;pbsolv -->
<g id="edge26" class="edge">
<title>mnl&#45;&gt;pbsolv</title>
<path fill="none" stroke="black" d="M262.54,-901.02C360.62,-887.18 538.72,-862.04 633.35,-848.68"/>
<polygon fill="black" stroke="black" points="633.94,-852.14 643.35,-847.27 632.96,-845.2 633.94,-852.14"/>
</g>
<!-- pbsolv&#45;&gt;state -->
<g id="edge30" class="edge">
<title>pbsolv&#45;&gt;state</title>
<path fill="none" stroke="black" stroke-width="2" d="M706.34,-820.47C709.07,-814.98 711.73,-808.77 713.4,-802.79 729.02,-746.64 718.81,-677.61 710.97,-640.18"/>
<polygon fill="black" stroke="black" stroke-width="2" points="714.31,-639.07 708.74,-630.06 707.47,-640.58 714.31,-639.07"/>
<text text-anchor="middle" x="732.66" y="-713.53" font-family="Helvetica,Arial,sans-serif" font-size="14.00">creates</text>
</g>
<!-- pbsolv&#45;&gt;context -->
<g id="edge29" class="edge">
<title>pbsolv&#45;&gt;context</title>
<path fill="none" stroke="black" d="M633.43,-826.78C584.15,-816.54 514.9,-798.45 459.4,-769.79 452.58,-766.27 445.81,-761.74 439.55,-757.01"/>
<polygon fill="none" stroke="black" points="632.82,-830.23 643.32,-828.79 634.21,-823.37 632.82,-830.23"/>
<text text-anchor="middle" x="521.89" y="-805.71" font-family="Helvetica,Arial,sans-serif" font-size="14.00">mixin</text>
</g>
<!-- pbsolv&#45;&gt;operators -->
<g id="edge31" class="edge">
<title>pbsolv&#45;&gt;operators</title>
<path fill="none" stroke="black" stroke-width="2" d="M749.62,-830.92C806.44,-820.26 888.4,-793.8 888.4,-729.84 888.4,-729.84 888.4,-729.84 888.4,-370.89 888.4,-356.49 889.64,-340.51 890.99,-327.36"/>
<polygon fill="black" stroke="black" stroke-width="2" points="891.11,-335.44 892.13,-324.89 884.76,-332.5 891.11,-335.44"/>
<text text-anchor="middle" x="865.9" y="-688.77" font-family="Helvetica,Arial,sans-serif" font-size="14.00">creates</text>
</g>
<!-- timestepper -->
<g id="node13" class="node">
<title>timestepper</title>
<polygon fill="none" stroke="black" points="859.9,-746.84 764.9,-746.84 764.9,-710.84 859.9,-710.84 859.9,-746.84"/>
<text text-anchor="middle" x="812.4" y="-725.14" font-family="Helvetica,Arial,sans-serif" font-size="14.00">TimeStepper</text>
</g>
<!-- pbsolv&#45;&gt;timestepper -->
<g id="edge32" class="edge">
<title>pbsolv&#45;&gt;timestepper</title>
<path fill="none" stroke="black" d="M726.1,-820.73C734.32,-815.44 743.01,-809.27 750.4,-802.79 766.58,-788.57 782.26,-770.06 793.81,-755.24"/>
<polygon fill="black" stroke="black" points="796.81,-757.08 800.1,-747 791.25,-752.83 796.81,-757.08"/>
</g>
<!-- storage -->
<g id="node14" class="node">
<title>storage</title>
<polygon fill="none" stroke="black" points="586.4,-746.84 468.4,-746.84 468.4,-710.84 586.4,-710.84 586.4,-746.84"/>
<text text-anchor="middle" x="527.4" y="-725.14" font-family="Helvetica,Arial,sans-serif" font-size="14.00">StorageManager</text>
</g>
<!-- pbsolv&#45;&gt;storage -->
<g id="edge33" class="edge">
<title>pbsolv&#45;&gt;storage</title>
<path fill="none" stroke="black" d="M669.62,-820.68C640.69,-802.21 594.48,-772.69 562.63,-752.34"/>
<polygon fill="black" stroke="black" points="564.36,-749.3 554.05,-746.86 560.59,-755.2 564.36,-749.3"/>
</g>
<!-- hook -->
<g id="node18" class="node">
<title>hook</title>
<polygon fill="none" stroke="black" points="707.9,-746.84 604.9,-746.84 604.9,-710.84 707.9,-710.84 707.9,-746.84"/>
<text text-anchor="middle" x="656.4" y="-725.14" font-family="Helvetica,Arial,sans-serif" font-size="14.00">PostStepHook</text>
</g>
<!-- pbsolv&#45;&gt;hook -->
<g id="edge35" class="edge">
<title>pbsolv&#45;&gt;hook</title>
<path fill="none" stroke="black" stroke-dasharray="5,2" d="M689.97,-820.44C683.58,-803.21 673.7,-776.54 666.31,-756.6"/>
<polygon fill="black" stroke="black" points="669.56,-755.3 662.81,-747.14 663,-757.73 669.56,-755.3"/>
<text text-anchor="middle" x="695.9" y="-791.59" font-family="Helvetica,Arial,sans-serif" font-size="14.00">todo</text>
</g>
<!-- stepsolv -->
<g id="node32" class="node">
<title>stepsolv</title>
<polygon fill="none" stroke="black" stroke-dasharray="5,2" points="1938.9,-629.89 1819.9,-629.89 1819.9,-593.89 1938.9,-593.89 1938.9,-629.89"/>
<text text-anchor="middle" x="1879.4" y="-608.19" font-family="Helvetica,Arial,sans-serif" font-size="14.00">BaseStepSolver*</text>
</g>
<!-- pbsolv&#45;&gt;stepsolv -->
<g id="edge34" class="edge">
<title>pbsolv&#45;&gt;stepsolv</title>
<path fill="none" stroke="black" stroke-width="2" d="M749.81,-829.07C791.43,-822.19 850.65,-812.21 902.4,-802.79 1243.19,-740.72 1649.37,-659.41 1809.54,-627.06"/>
<polygon fill="black" stroke="black" stroke-width="2" points="1804.45,-634 1811.4,-626 1800.98,-627.93 1804.45,-634"/>
<text text-anchor="middle" x="1224.21" y="-735.28" font-family="Helvetica,Arial,sans-serif" font-size="14.00">loops on timesteps</text>
</g>
<!-- observ -->
<g id="node20" class="node">
<title>observ</title>
<polygon fill="none" stroke="black" stroke-dasharray="5,2" points="854.4,-629.89 786.4,-629.89 786.4,-593.89 860.4,-593.89 860.4,-623.89 854.4,-629.89"/>
<polyline fill="none" stroke="black" stroke-dasharray="5,2" points="854.4,-629.89 854.4,-623.89 "/>
<polyline fill="none" stroke="black" stroke-dasharray="5,2" points="860.4,-623.89 854.4,-623.89 "/>
<text text-anchor="middle" x="823.4" y="-608.19" font-family="Helvetica,Arial,sans-serif" font-size="14.00">Observer</text>
</g>
<!-- timestepper&#45;&gt;observ -->
<g id="edge63" class="edge">
<title>timestepper&#45;&gt;observ</title>
<path fill="none" stroke="black" d="M815.02,-700.4C817.11,-678.58 819.97,-648.73 821.75,-630.14"/>
<polygon fill="none" stroke="black" points="811.53,-700.09 814.07,-710.38 818.5,-700.76 811.53,-700.09"/>
<text text-anchor="middle" x="801.38" y="-674.33" font-family="Helvetica,Arial,sans-serif" font-size="14.00">mixin</text>
</g>
<!-- timestepper&#45;&gt;stepsolv -->
<!-- linsolv -->
<g id="node15" class="node">
<title>linsolv</title>
<polygon fill="none" stroke="black" points="1725.4,-316.89 1633.4,-316.89 1633.4,-280.89 1725.4,-280.89 1725.4,-316.89"/>
<text text-anchor="middle" x="1679.4" y="-295.19" font-family="Helvetica,Arial,sans-serif" font-size="14.00">LinearSolver</text>
</g>
<!-- linesearch -->
<g id="node16" class="node">
<title>linesearch</title>
<polygon fill="none" stroke="black" points="1407.9,-316.89 1322.9,-316.89 1322.9,-280.89 1407.9,-280.89 1407.9,-316.89"/>
<text text-anchor="middle" x="1365.4" y="-295.19" font-family="Helvetica,Arial,sans-serif" font-size="14.00">LineSearch</text>
</g>
<!-- linesearch&#45;&gt;operators -->
<g id="edge55" class="edge">
<title>linesearch&#45;&gt;operators</title>
<path fill="none" stroke="black" d="M1344.68,-317.1C1333.55,-325.66 1319.12,-334.95 1304.4,-339.39 1255.25,-354.22 1124.41,-345.09 1073.4,-339.39 1033.93,-334.98 990.46,-325.27 956.24,-316.46"/>
<polygon fill="black" stroke="black" points="956.95,-313.02 946.39,-313.88 955.18,-319.8 956.95,-313.02"/>
</g>
<!-- linesearch&#45;&gt;state_old -->
<g id="edge54" class="edge">
<title>linesearch&#45;&gt;state_old</title>
<path fill="none" stroke="black" stroke-dasharray="1,5" d="M1390.02,-280.88C1412.39,-265.43 1445.48,-242.57 1469.79,-225.78"/>
<polygon fill="black" stroke="black" points="1472.07,-228.46 1478.31,-219.89 1468.09,-222.7 1472.07,-228.46"/>
</g>
<!-- conv_manager -->
<g id="node17" class="node">
<title>conv_manager</title>
<polygon fill="none" stroke="black" points="1576.9,-316.89 1425.9,-316.89 1425.9,-280.89 1576.9,-280.89 1576.9,-316.89"/>
<text text-anchor="middle" x="1501.4" y="-295.19" font-family="Helvetica,Arial,sans-serif" font-size="14.00">ConvergenceManager</text>
</g>
<!-- conv_manager&#45;&gt;problem_old -->
<g id="edge59" class="edge">
<title>conv_manager&#45;&gt;problem_old</title>
<path fill="none" stroke="black" stroke-dasharray="1,5" d="M1425.86,-282.49C1423,-281.95 1420.17,-281.41 1417.4,-280.89 1321.65,-263.01 1296.82,-263.39 1201.4,-243.89 1165.35,-236.53 1125.26,-227.04 1093.28,-219.17"/>
<polygon fill="black" stroke="black" points="1093.75,-215.68 1083.2,-216.67 1092.06,-222.47 1093.75,-215.68"/>
</g>
<!-- conv_manager&#45;&gt;state_old -->
<g id="edge60" class="edge">
<title>conv_manager&#45;&gt;state_old</title>
<path fill="none" stroke="black" stroke-dasharray="1,5" d="M1501.4,-280.66C1501.4,-266.89 1501.4,-247.32 1501.4,-231.4"/>
<polygon fill="black" stroke="black" points="1504.9,-231.07 1501.4,-221.07 1497.9,-231.07 1504.9,-231.07"/>
</g>
<!-- incr_solv -->
<g id="node19" class="node">
<title>incr_solv</title>
<polygon fill="none" stroke="black" points="1357.4,-389.89 1231.4,-389.89 1231.4,-353.89 1357.4,-353.89 1357.4,-389.89"/>
<text text-anchor="middle" x="1294.4" y="-368.19" font-family="Helvetica,Arial,sans-serif" font-size="14.00">IncrementalSolver</text>
</g>
<!-- incr_solv&#45;&gt;operators -->
<g id="edge48" class="edge">
<title>incr_solv&#45;&gt;operators</title>
<path fill="none" stroke="black" d="M1231.27,-362.29C1184.96,-355.73 1120.63,-346.12 1064.4,-335.89 1028.53,-329.37 988.65,-320.99 956.53,-313.95"/>
<polygon fill="black" stroke="black" points="956.91,-310.45 946.39,-311.72 955.41,-317.29 956.91,-310.45"/>
</g>
<!-- incr_solv&#45;&gt;problem_old -->
<g id="edge52" class="edge">
<title>incr_solv&#45;&gt;problem_old</title>
<path fill="none" stroke="black" stroke-dasharray="1,5" d="M1230.97,-369.36C1189.24,-365.38 1135.5,-354.27 1097.4,-324.89 1066.7,-301.23 1049.13,-258.6 1040.43,-230.79"/>
<polygon fill="black" stroke="black" points="1043.71,-229.53 1037.52,-220.93 1036.99,-231.51 1043.71,-229.53"/>
</g>
<!-- incr_solv&#45;&gt;state_old -->
<g id="edge53" class="edge">
<title>incr_solv&#45;&gt;state_old</title>
<path fill="none" stroke="black" stroke-dasharray="1,5" d="M1357.48,-370.16C1434.34,-367.78 1557.55,-358.64 1586.4,-324.89 1614.3,-292.25 1569.42,-250.61 1534.97,-225.68"/>
<polygon fill="black" stroke="black" points="1536.69,-222.61 1526.49,-219.72 1532.66,-228.33 1536.69,-222.61"/>
</g>
<!-- incr_solv&#45;&gt;linsolv -->
<g id="edge49" class="edge">
<title>incr_solv&#45;&gt;linsolv</title>
<path fill="none" stroke="black" d="M1357.62,-369.42C1420.27,-366.62 1518.47,-358.63 1600.4,-335.89 1613.23,-332.33 1626.62,-326.94 1638.65,-321.4"/>
<polygon fill="black" stroke="black" points="1640.44,-324.42 1647.97,-316.96 1637.43,-318.1 1640.44,-324.42"/>
</g>
<!-- incr_solv&#45;&gt;linesearch -->
<g id="edge46" class="edge">
<title>incr_solv&#45;&gt;linesearch</title>
<path fill="none" stroke="black" d="M1311.58,-353.71C1320.48,-344.81 1331.49,-333.8 1341.22,-324.06"/>
<polygon fill="black" stroke="black" points="1343.77,-326.47 1348.37,-316.92 1338.82,-321.52 1343.77,-326.47"/>
</g>
<!-- incr_solv&#45;&gt;conv_manager -->
<g id="edge50" class="edge">
<title>incr_solv&#45;&gt;conv_manager</title>
<path fill="none" stroke="black" d="M1343.98,-353.89C1373.33,-343.82 1410.72,-330.99 1441.69,-320.37"/>
<polygon fill="black" stroke="black" points="1443.18,-323.56 1451.5,-317.01 1440.91,-316.94 1443.18,-323.56"/>
</g>
<!-- event -->
<g id="node21" class="node">
<title>event</title>
<polygon fill="none" stroke="black" stroke-dasharray="5,2" points="1194.4,-316.89 1106.4,-316.89 1106.4,-280.89 1200.4,-280.89 1200.4,-310.89 1194.4,-316.89"/>
<polyline fill="none" stroke="black" stroke-dasharray="5,2" points="1194.4,-316.89 1194.4,-310.89 "/>
<polyline fill="none" stroke="black" stroke-dasharray="5,2" points="1200.4,-310.89 1194.4,-310.89 "/>
<text text-anchor="middle" x="1153.4" y="-295.19" font-family="Helvetica,Arial,sans-serif" font-size="14.00">EventSource</text>
</g>
<!-- incr_solv&#45;&gt;event -->
<g id="edge51" class="edge">
<title>incr_solv&#45;&gt;event</title>
<path fill="none" stroke="black" d="M1251.47,-349.28C1230.91,-338.92 1206.64,-326.7 1187.38,-317.01"/>
<polygon fill="none" stroke="black" points="1250.12,-352.52 1260.62,-353.89 1253.27,-346.26 1250.12,-352.52"/>
<text text-anchor="middle" x="1207.62" y="-339.31" font-family="Helvetica,Arial,sans-serif" font-size="14.00">mixin</text>
</g>
<!-- contact_old -->
<g id="node40" class="node">
<title>contact_old</title>
<polygon fill="none" stroke="black" points="1304.4,-316.89 1218.4,-316.89 1218.4,-280.89 1304.4,-280.89 1304.4,-316.89"/>
<text text-anchor="middle" x="1261.4" y="-295.19" font-family="Helvetica,Arial,sans-serif" font-size="14.00">contact_old</text>
</g>
<!-- incr_solv&#45;&gt;contact_old -->
<g id="edge47" class="edge">
<title>incr_solv&#45;&gt;contact_old</title>
<path fill="none" stroke="black" d="M1286.41,-353.71C1282.56,-345.42 1277.85,-335.3 1273.57,-326.09"/>
<polygon fill="black" stroke="black" points="1276.7,-324.51 1269.31,-316.92 1270.35,-327.47 1276.7,-324.51"/>
</g>
<!-- integr -->
<g id="node26" class="node">
<title>integr</title>
<polygon fill="none" stroke="black" points="937.9,-125 832.9,-125 832.9,-89 937.9,-89 937.9,-125"/>
<text text-anchor="middle" x="885.4" y="-103.3" font-family="Helvetica,Arial,sans-serif" font-size="14.00">BaseIntegrator</text>
</g>
<!-- dynopers&#45;&gt;integr -->
<g id="edge12" class="edge">
<title>dynopers&#45;&gt;integr</title>
<path fill="none" stroke="black" d="M794.4,-178.65C815.74,-162.08 843.92,-140.2 863.24,-125.2"/>
<polygon fill="none" stroke="black" points="792.06,-176.04 786.31,-184.93 796.35,-181.57 792.06,-176.04"/>
</g>
<!-- newmark -->
<g id="node27" class="node">
<title>newmark</title>
<polygon fill="none" stroke="black" points="938.4,-52 806.4,-52 806.4,-16 938.4,-16 938.4,-52"/>
<text text-anchor="middle" x="872.4" y="-30.3" font-family="Helvetica,Arial,sans-serif" font-size="14.00">NewmarkIntegrator</text>
</g>
<!-- integr&#45;&gt;newmark -->
<g id="edge13" class="edge">
<title>integr&#45;&gt;newmark</title>
<path fill="none" stroke="black" d="M880.41,-78.75C878.76,-69.77 876.98,-60.03 875.51,-52.03"/>
<polygon fill="none" stroke="black" points="877,-79.61 882.25,-88.81 883.89,-78.35 877,-79.61"/>
</g>
<!-- mecastat -->
<g id="node29" class="node">
<title>mecastat</title>
<polygon fill="none" stroke="black" points="1959.4,-535.89 1819.4,-535.89 1819.4,-499.89 1959.4,-499.89 1959.4,-535.89"/>
<text text-anchor="middle" x="1889.4" y="-514.19" font-family="Helvetica,Arial,sans-serif" font-size="14.00">MecaStatStepSolver</text>
</g>
<!-- mecadyn -->
<g id="node30" class="node">
<title>mecadyn</title>
<polygon fill="none" stroke="black" points="2125.4,-535.89 1977.4,-535.89 1977.4,-499.89 2125.4,-499.89 2125.4,-535.89"/>
<text text-anchor="middle" x="2051.4" y="-514.19" font-family="Helvetica,Arial,sans-serif" font-size="14.00">MecaDynaStepSolver</text>
</g>
<!-- implicit -->
<g id="node33" class="node">
<title>implicit</title>
<polygon fill="none" stroke="black" points="2074.9,-462.89 1949.9,-462.89 1949.9,-426.89 2074.9,-426.89 2074.9,-462.89"/>
<text text-anchor="middle" x="2012.4" y="-441.19" font-family="Helvetica,Arial,sans-serif" font-size="14.00">ImplicitStepSolver</text>
</g>
<!-- mecadyn&#45;&gt;implicit -->
<g id="edge17" class="edge">
<title>mecadyn&#45;&gt;implicit</title>
<path fill="none" stroke="black" d="M2037.07,-490.81C2031.96,-481.51 2026.34,-471.27 2021.75,-462.92"/>
<polygon fill="none" stroke="black" points="2034.07,-492.63 2041.95,-499.71 2040.21,-489.26 2034.07,-492.63"/>
</g>
<!-- explicit -->
<g id="node34" class="node">
<title>explicit</title>
<polygon fill="none" stroke="black" points="2217.9,-462.89 2092.9,-462.89 2092.9,-426.89 2217.9,-426.89 2217.9,-462.89"/>
<text text-anchor="middle" x="2155.4" y="-441.19" font-family="Helvetica,Arial,sans-serif" font-size="14.00">ExplicitStepSolver</text>
</g>
<!-- mecadyn&#45;&gt;explicit -->
<g id="edge18" class="edge">
<title>mecadyn&#45;&gt;explicit</title>
<path fill="none" stroke="black" d="M2084.71,-494.15C2099.51,-484.05 2116.64,-472.35 2130.33,-463.01"/>
<polygon fill="none" stroke="black" points="2082.59,-491.36 2076.31,-499.89 2086.54,-497.14 2082.59,-491.36"/>
</g>
<!-- multi -->
<g id="node35" class="node">
<title>multi</title>
<polygon fill="none" stroke="black" points="1931.4,-462.89 1819.4,-462.89 1819.4,-426.89 1931.4,-426.89 1931.4,-462.89"/>
<text text-anchor="middle" x="1875.4" y="-441.19" font-family="Helvetica,Arial,sans-serif" font-size="14.00">MultiStepSolver</text>
</g>
<!-- mecadyn&#45;&gt;multi -->
<g id="edge19" class="edge">
<title>mecadyn&#45;&gt;multi</title>
<path fill="none" stroke="black" d="M1999.88,-496.11C1973.79,-485.59 1942.5,-472.96 1917.82,-463.01"/>
<polygon fill="none" stroke="black" points="1998.66,-499.39 2009.24,-499.89 2001.27,-492.9 1998.66,-499.39"/>
</g>
<!-- ther -->
<g id="node31" class="node">
<title>ther</title>
<polygon fill="none" stroke="black" points="2276.9,-535.89 2143.9,-535.89 2143.9,-499.89 2276.9,-499.89 2276.9,-535.89"/>
<text text-anchor="middle" x="2210.4" y="-514.19" font-family="Helvetica,Arial,sans-serif" font-size="14.00">ThermalStepSolver</text>
</g>
<!-- stepsolv&#45;&gt;problem_old -->
<g id="edge36" class="edge">
<title>stepsolv&#45;&gt;problem_old</title>
<path fill="none" stroke="black" stroke-dasharray="1,5" d="M1811.4,-611.17C1599.37,-611.16 964.4,-604.01 964.4,-518.89 964.4,-518.89 964.4,-518.89 964.4,-297.89 964.4,-269.74 984.77,-244.44 1003.38,-227.21"/>
<polygon fill="black" stroke="black" points="1006,-229.57 1011.18,-220.33 1001.37,-224.32 1006,-229.57"/>
</g>
<!-- stepsolv&#45;&gt;state_old -->
<g id="edge38" class="edge">
<title>stepsolv&#45;&gt;state_old</title>
<path fill="none" stroke="black" d="M1811.4,-568.09C1811.06,-567.69 1810.73,-567.29 1810.4,-566.89 1795.79,-549.2 1791.4,-541.84 1791.4,-518.89 1791.4,-518.89 1791.4,-518.89 1791.4,-297.89 1791.4,-278.66 1783.28,-272.73 1767.4,-261.89 1710.4,-223.01 1631.91,-209.63 1574.97,-205.31"/>
<polygon fill="black" stroke="black" points="1575.17,-201.82 1564.96,-204.63 1574.69,-208.8 1575.17,-201.82"/>
</g>
<!-- stepsolv&#45;&gt;linsolv -->
<g id="edge39" class="edge">
<title>stepsolv&#45;&gt;linsolv</title>
<path fill="none" stroke="black" d="M1811.4,-606.56C1786.38,-601.93 1759.32,-592.97 1739.4,-575.89 1718.53,-558 1715.4,-546.38 1715.4,-518.89 1715.4,-518.89 1715.4,-518.89 1715.4,-370.89 1715.4,-354.61 1707.77,-338.28 1699.54,-325.39"/>
<polygon fill="black" stroke="black" points="1702.37,-323.33 1693.83,-317.06 1696.6,-327.29 1702.37,-323.33"/>
</g>
<!-- stepsolv&#45;&gt;dispatch -->
<g id="edge37" class="edge">
<title>stepsolv&#45;&gt;dispatch</title>
<path fill="none" stroke="black" d="M1813.56,-589.58C1783.03,-575.17 1753.4,-552.52 1753.4,-518.89 1753.4,-518.89 1753.4,-518.89 1753.4,-297.89 1753.4,-286.56 1744.72,-285.57 1734.4,-280.89 1609.6,-224.39 1563,-269.37 1428.4,-243.89 1396.37,-237.83 1361.15,-228.87 1332.48,-220.97"/>
<polygon fill="none" stroke="black" points="1812.47,-592.93 1823.03,-593.79 1815.31,-586.53 1812.47,-592.93"/>
<text text-anchor="middle" x="1564.09" y="-254.56" font-family="Helvetica,Arial,sans-serif" font-size="14.00">factory</text>
</g>
<!-- stepsolv&#45;&gt;mecastat -->
<g id="edge14" class="edge">
<title>stepsolv&#45;&gt;mecastat</title>
<path fill="none" stroke="black" d="M1882.36,-583.58C1884.04,-568.2 1886.07,-549.46 1887.52,-536.12"/>
<polygon fill="none" stroke="black" points="1878.88,-583.27 1881.28,-593.59 1885.84,-584.03 1878.88,-583.27"/>
</g>
<!-- stepsolv&#45;&gt;mecadyn -->
<g id="edge15" class="edge">
<title>stepsolv&#45;&gt;mecadyn</title>
<path fill="none" stroke="black" d="M1924.27,-589.42C1938.48,-582.43 1954.19,-574.5 1968.4,-566.89 1986.74,-557.07 2006.96,-545.39 2022.85,-536.02"/>
<polygon fill="none" stroke="black" points="1922.62,-586.32 1915.18,-593.86 1925.7,-592.61 1922.62,-586.32"/>
</g>
<!-- stepsolv&#45;&gt;ther -->
<g id="edge16" class="edge">
<title>stepsolv&#45;&gt;ther</title>
<path fill="none" stroke="black" d="M1949.31,-606.24C2001.69,-601.01 2074.35,-589.98 2134.4,-566.89 2153.91,-559.39 2173.82,-546.59 2188.36,-536.09"/>
<polygon fill="none" stroke="black" points="1948.74,-602.78 1939.12,-607.21 1949.41,-609.75 1948.74,-602.78"/>
</g>
<!-- conv_criteria -->
<g id="node36" class="node">
<title>conv_criteria</title>
<polygon fill="none" stroke="black" stroke-dasharray="5,2" points="1375.4,-535.89 1259.4,-535.89 1259.4,-499.89 1375.4,-499.89 1375.4,-535.89"/>
<text text-anchor="middle" x="1317.4" y="-514.19" font-family="Helvetica,Arial,sans-serif" font-size="14.00">IterationsSolver*</text>
</g>
<!-- stepsolv&#45;&gt;conv_criteria -->
<g id="edge40" class="edge">
<title>stepsolv&#45;&gt;conv_criteria</title>
<path fill="none" stroke="black" d="M1811.4,-599.76C1717.43,-584.38 1546.57,-556.41 1432.51,-537.74"/>
<polygon fill="black" stroke="black" points="1432.83,-534.24 1422.39,-536.08 1431.7,-541.15 1432.83,-534.24"/>
</g>
<!-- implicit&#45;&gt;integr -->
<g id="edge20" class="edge">
<title>implicit&#45;&gt;integr</title>
<path fill="none" stroke="black" d="M1979.39,-426.8C1960.85,-414.61 1941.4,-396.25 1941.4,-372.89 1941.4,-372.89 1941.4,-372.89 1941.4,-201.95 1941.4,-138.97 1760.84,-146.12 1725.4,-143 1435.67,-117.5 1088.05,-110.49 948.19,-108.64"/>
<polygon fill="black" stroke="black" points="948.13,-105.14 938.09,-108.51 948.04,-112.14 948.13,-105.14"/>
</g>
<!-- explicit&#45;&gt;integr -->
<g id="edge21" class="edge">
<title>explicit&#45;&gt;integr</title>
<path fill="none" stroke="black" d="M2133.77,-426.74C2119.87,-413.66 2104.4,-394.29 2104.4,-372.89 2104.4,-372.89 2104.4,-372.89 2104.4,-201.95 2104.4,-150.78 1791.89,-145.76 1750.4,-143 1450.47,-123.05 1091.24,-112.91 948.42,-109.43"/>
<polygon fill="black" stroke="black" points="948.19,-105.92 938.1,-109.18 948.02,-112.92 948.19,-105.92"/>
</g>
<!-- multi&#45;&gt;integr -->
<g id="edge22" class="edge">
<title>multi&#45;&gt;integr</title>
<path fill="none" stroke="black" d="M1866.57,-426.88C1860.08,-412.8 1852.4,-392.07 1852.4,-372.89 1852.4,-372.89 1852.4,-372.89 1852.4,-201.95 1852.4,-110.78 1162.64,-106.59 948.22,-107.5"/>
<polygon fill="black" stroke="black" points="948.06,-104 938.07,-107.54 948.09,-111 948.06,-104"/>
</g>
<!-- conv_criteria&#45;&gt;operators -->
<g id="edge42" class="edge">
<title>conv_criteria&#45;&gt;operators</title>
<path fill="none" stroke="black" d="M1074.4,-463.41C1074.06,-463.24 1073.73,-463.07 1073.4,-462.89 1006.2,-428.06 944.98,-361.59 914.56,-325.22"/>
<polygon fill="black" stroke="black" points="924.41,-325.87 913.86,-324.89 921.5,-332.24 924.41,-325.87"/>
</g>
<!-- conv_criteria&#45;&gt;linsolv -->
<g id="edge41" class="edge">
<title>conv_criteria&#45;&gt;linsolv</title>
<path fill="none" stroke="black" d="M1422.39,-463.46C1422.73,-463.27 1423.06,-463.08 1423.4,-462.89 1505.22,-416.14 1597.68,-355.15 1645.97,-322.64"/>
<polygon fill="black" stroke="black" points="1648.12,-325.4 1654.45,-316.91 1644.21,-319.6 1648.12,-325.4"/>
</g>
<!-- newton -->
<g id="node37" class="node">
<title>newton</title>
<polygon fill="none" stroke="black" points="1413.9,-462.89 1312.9,-462.89 1312.9,-426.89 1413.9,-426.89 1413.9,-462.89"/>
<text text-anchor="middle" x="1363.4" y="-441.19" font-family="Helvetica,Arial,sans-serif" font-size="14.00">NewtonSolver</text>
</g>
<!-- conv_criteria&#45;&gt;newton -->
<g id="edge23" class="edge">
<title>conv_criteria&#45;&gt;newton</title>
<path fill="none" stroke="black" stroke-dasharray="1,5" d="M1334.1,-491.1C1340.18,-481.72 1346.9,-471.36 1352.36,-462.92"/>
<polygon fill="none" stroke="black" points="1331.03,-489.41 1328.53,-499.71 1336.91,-493.22 1331.03,-489.41"/>
</g>
<!-- snes -->
<g id="node38" class="node">
<title>snes</title>
<polygon fill="none" stroke="black" points="1294.4,-462.89 1202.4,-462.89 1202.4,-426.89 1294.4,-426.89 1294.4,-462.89"/>
<text text-anchor="middle" x="1248.4" y="-441.19" font-family="Helvetica,Arial,sans-serif" font-size="14.00">SNESSolver</text>
</g>
<!-- conv_criteria&#45;&gt;snes -->
<g id="edge24" class="edge">
<title>conv_criteria&#45;&gt;snes</title>
<path fill="none" stroke="black" stroke-dasharray="1,5" d="M1293.46,-492.26C1284.05,-482.58 1273.48,-471.7 1264.94,-462.92"/>
<polygon fill="none" stroke="black" points="1291.21,-494.97 1300.69,-499.71 1296.23,-490.09 1291.21,-494.97"/>
</g>
<!-- raspen -->
<g id="node39" class="node">
<title>raspen</title>
<polygon fill="none" stroke="black" points="1183.9,-462.89 1082.9,-462.89 1082.9,-426.89 1183.9,-426.89 1183.9,-462.89"/>
<text text-anchor="middle" x="1133.4" y="-441.19" font-family="Helvetica,Arial,sans-serif" font-size="14.00">RaspenSolver</text>
</g>
<!-- conv_criteria&#45;&gt;raspen -->
<g id="edge25" class="edge">
<title>conv_criteria&#45;&gt;raspen</title>
<path fill="none" stroke="black" stroke-dasharray="1,5" d="M1263.9,-496.25C1236.55,-485.7 1203.66,-473.01 1177.75,-463.01"/>
<polygon fill="none" stroke="black" points="1262.73,-499.55 1273.32,-499.89 1265.25,-493.02 1262.73,-499.55"/>
</g>
<!-- newton&#45;&gt;conv_manager -->
<g id="edge45" class="edge">
<title>newton&#45;&gt;conv_manager</title>
<path fill="none" stroke="black" d="M1379.77,-426.81C1404.15,-401.37 1450.11,-353.41 1478.02,-324.28"/>
<polygon fill="black" stroke="black" points="1480.65,-326.6 1485.04,-316.95 1475.6,-321.75 1480.65,-326.6"/>
</g>
<!-- newton&#45;&gt;incr_solv -->
<g id="edge44" class="edge">
<title>newton&#45;&gt;incr_solv</title>
<path fill="none" stroke="black" d="M1346.69,-426.71C1338.13,-417.9 1327.56,-407.02 1318.17,-397.35"/>
<polygon fill="black" stroke="black" points="1320.42,-394.65 1310.94,-389.92 1315.4,-399.53 1320.42,-394.65"/>
</g>
<!-- snes&#45;&gt;problem_old -->
<g id="edge61" class="edge">
<title>snes&#45;&gt;problem_old</title>
<path fill="none" stroke="black" stroke-dasharray="1,5" d="M1214.47,-426.69C1158.39,-397.93 1051.48,-341.56 1041.4,-324.89 1024.16,-296.41 1025.17,-256.94 1028.46,-230.94"/>
<polygon fill="black" stroke="black" points="1031.93,-231.43 1029.91,-221.03 1025,-230.42 1031.93,-231.43"/>
</g>
<!-- snes&#45;&gt;incr_solv -->
<!-- raspen&#45;&gt;problem_old -->
<g id="edge62" class="edge">
<title>raspen&#45;&gt;problem_old</title>
<path fill="none" stroke="black" stroke-dasharray="1,5" d="M1119.84,-426.83C1102.89,-404.65 1074.19,-364.08 1058.4,-324.89 1046.04,-294.23 1039.5,-256.63 1036.25,-231.57"/>
<polygon fill="black" stroke="black" points="1039.69,-230.84 1035.02,-221.33 1032.74,-231.68 1039.69,-230.84"/>
</g>
</g>
</svg>
