<?xml version="1.0" encoding="UTF-8" standalone="no"?>
<!DOCTYPE svg PUBLIC "-//W3C//DTD SVG 1.1//EN"
 "http://www.w3.org/Graphics/SVG/1.1/DTD/svg11.dtd">
<!-- Generated by graphviz version 2.43.0 (0)
 -->
<!-- Title: MNL Pages: 1 -->
<svg width="2396pt" height="579pt"
 viewBox="0.00 0.00 2396.40 578.89" xmlns="http://www.w3.org/2000/svg" xmlns:xlink="http://www.w3.org/1999/xlink">
<g id="graph0" class="graph" transform="scale(1 1) rotate(0) translate(4 574.89)">
<title>MNL</title>
<polygon fill="white" stroke="transparent" points="-4,4 -4,-574.89 2392.4,-574.89 2392.4,4 -4,4"/>
<g id="clust2" class="cluster">
<title>cluster_operators</title>
<polygon fill="none" stroke="black" stroke-dasharray="5,2" points="278.4,-8 278.4,-279 779.4,-279 779.4,-8 278.4,-8"/>
</g>
<g id="clust5" class="cluster">
<title>cluster_stepsolv</title>
<polygon fill="none" stroke="black" stroke-dasharray="5,2" points="1421.4,-154 1421.4,-418.95 1895.4,-418.95 1895.4,-154 1421.4,-154"/>
<text text-anchor="middle" x="1658.4" y="-403.75" font-family="Helvetica,Arial,sans-serif" font-size="14.00">StepSolver</text>
</g>
<g id="clust8" class="cluster">
<title>cluster_iter_solv</title>
<polygon fill="none" stroke="black" stroke-dasharray="5,2" points="1903.4,-154 1903.4,-302 2380.4,-302 2380.4,-154 1903.4,-154"/>
<text text-anchor="middle" x="2141.9" y="-286.8" font-family="Helvetica,Arial,sans-serif" font-size="14.00">IterationSolver</text>
</g>
<!-- keywords -->
<g id="node1" class="node">
<title>keywords</title>
<ellipse fill="none" stroke="black" cx="49.4" cy="-253" rx="49.29" ry="18"/>
<text text-anchor="middle" x="49.4" y="-249.3" font-family="Helvetica,Arial,sans-serif" font-size="14.00">Keywords</text>
</g>
<!-- problem -->
<g id="node2" class="node">
<title>problem</title>
<ellipse fill="none" stroke="black" cx="193.4" cy="-253" rx="76.89" ry="18"/>
<text text-anchor="middle" x="193.4" y="-249.3" font-family="Helvetica,Arial,sans-serif" font-size="14.00">PhysicalProblem</text>
</g>
<!-- type -->
<g id="node3" class="node">
<title>type</title>
<ellipse fill="none" stroke="black" cx="960.4" cy="-253" rx="63.09" ry="18"/>
<text text-anchor="middle" x="960.4" y="-249.3" font-family="Helvetica,Arial,sans-serif" font-size="14.00">ProblemType</text>
</g>
<!-- state -->
<g id="node4" class="node">
<title>state</title>
<ellipse fill="none" stroke="black" cx="1275.4" cy="-253" rx="63.89" ry="18"/>
<text text-anchor="middle" x="1275.4" y="-249.3" font-family="Helvetica,Arial,sans-serif" font-size="14.00">PhysicalState</text>
</g>
<!-- result -->
<g id="node5" class="node">
<title>result</title>
<ellipse fill="none" stroke="black" cx="1077.4" cy="-253" rx="36" ry="18"/>
<text text-anchor="middle" x="1077.4" y="-249.3" font-family="Helvetica,Arial,sans-serif" font-size="14.00">Result</text>
</g>
<!-- contact -->
<g id="node6" class="node">
<title>contact</title>
<polygon fill="none" stroke="black" points="1193.9,-271 1130.9,-271 1130.9,-235 1193.9,-235 1193.9,-271"/>
<text text-anchor="middle" x="1162.4" y="-249.3" font-family="Helvetica,Arial,sans-serif" font-size="14.00">Contact</text>
</g>
<!-- linsolv -->
<g id="node7" class="node">
<title>linsolv</title>
<polygon fill="none" stroke="black" points="879.4,-271 787.4,-271 787.4,-235 879.4,-235 879.4,-271"/>
<text text-anchor="middle" x="833.4" y="-249.3" font-family="Helvetica,Arial,sans-serif" font-size="14.00">LinearSolver</text>
</g>
<!-- context -->
<g id="node8" class="node">
<title>context</title>
<ellipse fill="none" stroke="black" cx="960.4" cy="-369.95" rx="40.89" ry="40.89"/>
<text text-anchor="middle" x="960.4" y="-366.25" font-family="Helvetica,Arial,sans-serif" font-size="14.00">Context</text>
</g>
<!-- context&#45;&gt;keywords -->
<g id="edge3" class="edge">
<title>context&#45;&gt;keywords</title>
<path fill="none" stroke="black" d="M921.29,-357.51C887.09,-348.04 835.91,-335.19 790.4,-329 715.14,-318.77 178.33,-329.14 107.4,-302 93.78,-296.79 81.01,-287 70.95,-277.62"/>
<polygon fill="black" stroke="black" points="73.39,-275.12 63.8,-270.61 68.48,-280.11 73.39,-275.12"/>
</g>
<!-- context&#45;&gt;problem -->
<g id="edge1" class="edge">
<title>context&#45;&gt;problem</title>
<path fill="none" stroke="black" d="M921.25,-357.78C887.03,-348.48 835.83,-335.73 790.4,-329 658.24,-309.43 623.83,-316.7 490.4,-310 466.41,-308.8 297.44,-308.78 274.4,-302 256.08,-296.62 237.63,-286.16 222.96,-276.37"/>
<polygon fill="black" stroke="black" points="224.58,-273.23 214.36,-270.42 220.59,-278.99 224.58,-273.23"/>
</g>
<!-- context&#45;&gt;type -->
<g id="edge2" class="edge">
<title>context&#45;&gt;type</title>
<path fill="none" stroke="black" d="M960.4,-328.74C960.4,-313.06 960.4,-295.49 960.4,-281.32"/>
<polygon fill="black" stroke="black" points="963.9,-281.24 960.4,-271.24 956.9,-281.24 963.9,-281.24"/>
</g>
<!-- context&#45;&gt;state -->
<g id="edge4" class="edge">
<title>context&#45;&gt;state</title>
<path fill="none" stroke="black" d="M991.18,-342.61C1007.4,-330.35 1028.27,-316.96 1049.4,-310 1114.49,-288.54 1138.34,-323.56 1203.4,-302 1219.89,-296.53 1236.18,-286.21 1249.08,-276.53"/>
<polygon fill="black" stroke="black" points="1251.3,-279.23 1257.03,-270.32 1247,-273.72 1251.3,-279.23"/>
</g>
<!-- context&#45;&gt;result -->
<g id="edge5" class="edge">
<title>context&#45;&gt;result</title>
<path fill="none" stroke="black" d="M978.13,-332.89C983.86,-324.3 990.96,-315.92 999.4,-310 1011.75,-301.33 1019.36,-309.6 1032.4,-302 1042.82,-295.92 1052.31,-286.69 1059.85,-277.93"/>
<polygon fill="black" stroke="black" points="1062.6,-280.1 1066.21,-270.13 1057.18,-275.67 1062.6,-280.1"/>
</g>
<!-- context&#45;&gt;contact -->
<g id="edge7" class="edge">
<title>context&#45;&gt;contact</title>
<path fill="none" stroke="black" d="M986.07,-337.95C996.75,-327.21 1010.01,-316.3 1024.4,-310 1064.42,-292.47 1083.61,-322.13 1122.4,-302 1132.22,-296.9 1140.56,-288.25 1147.05,-279.68"/>
<polygon fill="black" stroke="black" points="1150.06,-281.48 1152.9,-271.27 1144.31,-277.48 1150.06,-281.48"/>
</g>
<!-- context&#45;&gt;linsolv -->
<g id="edge8" class="edge">
<title>context&#45;&gt;linsolv</title>
<path fill="none" stroke="black" d="M930.3,-341.71C908.83,-322.28 880.25,-296.41 859.7,-277.81"/>
<polygon fill="black" stroke="black" points="862.01,-275.18 852.25,-271.06 857.31,-280.37 862.01,-275.18"/>
</g>
<!-- operators -->
<g id="node9" class="node">
<title>operators</title>
<polygon fill="none" stroke="black" stroke-dasharray="5,2" points="525.9,-271 374.9,-271 374.9,-235 525.9,-235 525.9,-271"/>
<text text-anchor="middle" x="450.4" y="-249.3" font-family="Helvetica,Arial,sans-serif" font-size="14.00">BaseOperators {abstr}</text>
</g>
<!-- context&#45;&gt;operators -->
<g id="edge6" class="edge">
<title>context&#45;&gt;operators</title>
<path fill="none" stroke="black" d="M926.28,-346.32C904.21,-333.02 874.3,-317.4 845.4,-310 782.29,-293.86 615.76,-317.08 552.4,-302 535.41,-297.96 517.88,-290.9 502.24,-283.43"/>
<polygon fill="black" stroke="black" points="503.78,-280.29 493.27,-279 500.68,-286.56 503.78,-280.29"/>
</g>
<!-- mixin_oper -->
<g id="node16" class="node">
<title>mixin_oper</title>
<polygon fill="none" stroke="black" stroke-dasharray="5,2" points="763.4,-271 561.4,-271 561.4,-235 769.4,-235 769.4,-265 763.4,-271"/>
<polyline fill="none" stroke="black" stroke-dasharray="5,2" points="763.4,-271 763.4,-265 "/>
<polyline fill="none" stroke="black" stroke-dasharray="5,2" points="769.4,-265 763.4,-265 "/>
<text text-anchor="middle" x="665.4" y="-249.3" font-family="Helvetica,Arial,sans-serif" font-size="14.00">ContextMixin + DispatcherMixin</text>
</g>
<!-- operators&#45;&gt;mixin_oper -->
<g id="edge9" class="edge">
<title>operators&#45;&gt;mixin_oper</title>
<path fill="none" stroke="black" stroke-dasharray="5,2" d="M536.21,-253C544.6,-253 552.99,-253 561.38,-253"/>
<polygon fill="none" stroke="black" points="535.98,-249.5 525.98,-253 535.98,-256.5 535.98,-249.5"/>
</g>
<!-- statopers -->
<g id="node17" class="node">
<title>statopers</title>
<polygon fill="none" stroke="black" points="421.9,-198 286.9,-198 286.9,-162 421.9,-162 421.9,-198"/>
<text text-anchor="middle" x="354.4" y="-176.3" font-family="Helvetica,Arial,sans-serif" font-size="14.00">MecaStatOperators</text>
</g>
<!-- operators&#45;&gt;statopers -->
<g id="edge10" class="edge">
<title>operators&#45;&gt;statopers</title>
<path fill="none" stroke="black" d="M419.02,-228.8C405.46,-218.77 389.88,-207.25 377.42,-198.03"/>
<polygon fill="none" stroke="black" points="417.04,-231.68 427.16,-234.81 421.2,-226.05 417.04,-231.68"/>
</g>
<!-- theropers -->
<g id="node18" class="node">
<title>theropers</title>
<polygon fill="none" stroke="black" points="568.4,-198 440.4,-198 440.4,-162 568.4,-162 568.4,-198"/>
<text text-anchor="middle" x="504.4" y="-176.3" font-family="Helvetica,Arial,sans-serif" font-size="14.00">ThermalOperators</text>
</g>
<!-- operators&#45;&gt;theropers -->
<g id="edge12" class="edge">
<title>operators&#45;&gt;theropers</title>
<path fill="none" stroke="black" d="M469.57,-226.79C476.82,-217.26 484.9,-206.64 491.44,-198.03"/>
<polygon fill="none" stroke="black" points="466.74,-224.73 463.47,-234.81 472.31,-228.97 466.74,-224.73"/>
</g>
<!-- dynopers -->
<g id="node19" class="node">
<title>dynopers</title>
<polygon fill="none" stroke="black" stroke-dasharray="5,2" points="771.9,-198 586.9,-198 586.9,-162 771.9,-162 771.9,-198"/>
<text text-anchor="middle" x="679.4" y="-176.3" font-family="Helvetica,Arial,sans-serif" font-size="14.00">MecaDynaOperators {abstr}</text>
</g>
<!-- operators&#45;&gt;dynopers -->
<g id="edge11" class="edge">
<title>operators&#45;&gt;dynopers</title>
<path fill="none" stroke="black" d="M515.2,-231.91C549.58,-221.25 591.38,-208.29 624.2,-198.11"/>
<polygon fill="none" stroke="black" points="513.76,-228.69 505.25,-234.99 515.83,-235.38 513.76,-228.69"/>
</g>
<!-- mnl -->
<g id="node10" class="node">
<title>mnl</title>
<polygon fill="none" stroke="black" points="262.4,-570.89 124.4,-570.89 124.4,-534.89 262.4,-534.89 262.4,-570.89"/>
<text text-anchor="middle" x="193.4" y="-549.19" font-family="Helvetica,Arial,sans-serif" font-size="14.00">meca_non_line_ops</text>
</g>
<!-- mnl&#45;&gt;keywords -->
<g id="edge28" class="edge">
<title>mnl&#45;&gt;keywords</title>
<path fill="none" stroke="black" stroke-width="2" d="M185.03,-534.59C160.87,-484.6 90.84,-339.74 62.02,-280.11"/>
<polygon fill="black" stroke="black" stroke-width="2" points="65.11,-278.46 57.6,-270.98 58.8,-281.51 65.11,-278.46"/>
<text text-anchor="middle" x="98.81" y="-406.57" font-family="Helvetica,Arial,sans-serif" font-size="14.00">creates</text>
</g>
<!-- mnl&#45;&gt;problem -->
<g id="edge29" class="edge">
<title>mnl&#45;&gt;problem</title>
<path fill="none" stroke="black" stroke-width="2" d="M193.4,-534.59C193.4,-485.02 193.4,-342.2 193.4,-281.66"/>
<polygon fill="black" stroke="black" stroke-width="2" points="196.9,-281.35 193.4,-271.35 189.9,-281.35 196.9,-281.35"/>
<text text-anchor="middle" x="170.9" y="-406.76" font-family="Helvetica,Arial,sans-serif" font-size="14.00">creates</text>
</g>
<!-- pbsolv -->
<g id="node11" class="node">
<title>pbsolv</title>
<polygon fill="none" stroke="black" points="1076.4,-497.89 970.4,-497.89 970.4,-461.89 1076.4,-461.89 1076.4,-497.89"/>
<text text-anchor="middle" x="1023.4" y="-476.19" font-family="Helvetica,Arial,sans-serif" font-size="14.00">ProblemSolver</text>
</g>
<!-- mnl&#45;&gt;pbsolv -->
<g id="edge27" class="edge">
<title>mnl&#45;&gt;pbsolv</title>
<path fill="none" stroke="black" d="M262.73,-545.96C421.17,-532.41 807.78,-499.34 960.16,-486.3"/>
<polygon fill="black" stroke="black" points="960.63,-489.77 970.29,-485.44 960.03,-482.8 960.63,-489.77"/>
</g>
<!-- pbsolv&#45;&gt;state -->
<g id="edge31" class="edge">
<title>pbsolv&#45;&gt;state</title>
<path fill="none" stroke="black" stroke-width="2" d="M1022.68,-461.59C1022.39,-430.23 1026.62,-364.04 1064.4,-329 1110.54,-286.2 1145.19,-325.92 1203.4,-302 1218.98,-295.6 1234.72,-285.59 1247.5,-276.37"/>
<polygon fill="black" stroke="black" stroke-width="2" points="1249.9,-278.95 1255.83,-270.17 1245.72,-273.34 1249.9,-278.95"/>
<text text-anchor="middle" x="1106.85" y="-312.22" font-family="Helvetica,Arial,sans-serif" font-size="14.00">creates</text>
</g>
<!-- pbsolv&#45;&gt;context -->
<g id="edge30" class="edge">
<title>pbsolv&#45;&gt;context</title>
<path fill="none" stroke="black" d="M1008.18,-452.82C999.92,-438.67 989.61,-421 980.67,-405.69"/>
<polygon fill="none" stroke="black" points="1005.21,-454.68 1013.27,-461.55 1011.26,-451.15 1005.21,-454.68"/>
</g>
<!-- pbsolv&#45;&gt;operators -->
<g id="edge32" class="edge">
<title>pbsolv&#45;&gt;operators</title>
<path fill="none" stroke="black" stroke-width="2" d="M987.98,-461.89C965.3,-450.57 935.52,-434.89 910.4,-418.95 854.12,-383.23 852.34,-353.6 790.4,-329 691.46,-289.7 654.81,-331.05 552.4,-302 536.31,-297.44 519.59,-290.57 504.46,-283.45"/>
<polygon fill="black" stroke="black" stroke-width="2" points="505.79,-280.2 495.27,-279 502.74,-286.5 505.79,-280.2"/>
<text text-anchor="middle" x="731.97" y="-321.18" font-family="Helvetica,Arial,sans-serif" font-size="14.00">creates</text>
</g>
<!-- timestepper -->
<g id="node12" class="node">
<title>timestepper</title>
<polygon fill="none" stroke="black" points="1167.9,-387.95 1072.9,-387.95 1072.9,-351.95 1167.9,-351.95 1167.9,-387.95"/>
<text text-anchor="middle" x="1120.4" y="-366.25" font-family="Helvetica,Arial,sans-serif" font-size="14.00">TimeStepper</text>
</g>
<!-- pbsolv&#45;&gt;timestepper -->
<g id="edge33" class="edge">
<title>pbsolv&#45;&gt;timestepper</title>
<path fill="none" stroke="black" d="M1041.13,-461.72C1046.75,-456.13 1052.92,-449.83 1058.4,-443.89 1072.71,-428.37 1088.09,-410.28 1099.95,-396.01"/>
<polygon fill="black" stroke="black" points="1102.82,-398.03 1106.49,-388.09 1097.42,-393.57 1102.82,-398.03"/>
</g>
<!-- storage -->
<g id="node13" class="node">
<title>storage</title>
<polygon fill="none" stroke="black" points="1413.4,-387.95 1295.4,-387.95 1295.4,-351.95 1413.4,-351.95 1413.4,-387.95"/>
<text text-anchor="middle" x="1354.4" y="-366.25" font-family="Helvetica,Arial,sans-serif" font-size="14.00">StorageManager</text>
</g>
<!-- pbsolv&#45;&gt;storage -->
<g id="edge34" class="edge">
<title>pbsolv&#45;&gt;storage</title>
<path fill="none" stroke="black" d="M1076.47,-472.97C1131,-465.49 1217.43,-449.7 1286.4,-418.95 1300.52,-412.65 1314.72,-403.23 1326.46,-394.4"/>
<polygon fill="black" stroke="black" points="1328.79,-397.02 1334.54,-388.12 1324.5,-391.49 1328.79,-397.02"/>
</g>
<!-- hook -->
<g id="node14" class="node">
<title>hook</title>
<polygon fill="none" stroke="black" points="780.9,-387.95 677.9,-387.95 677.9,-351.95 780.9,-351.95 780.9,-387.95"/>
<text text-anchor="middle" x="729.4" y="-366.25" font-family="Helvetica,Arial,sans-serif" font-size="14.00">PostStepHook</text>
</g>
<!-- pbsolv&#45;&gt;hook -->
<g id="edge36" class="edge">
<title>pbsolv&#45;&gt;hook</title>
<path fill="none" stroke="black" stroke-dasharray="5,2" d="M970.37,-477.21C905.42,-474.2 800.12,-465.98 768.4,-443.89 752.83,-433.06 742.94,-413.99 737.02,-398.06"/>
<polygon fill="black" stroke="black" points="740.2,-396.53 733.68,-388.17 733.56,-398.76 740.2,-396.53"/>
<text text-anchor="middle" x="781.9" y="-432.69" font-family="Helvetica,Arial,sans-serif" font-size="14.00">todo</text>
</g>
<!-- stepsolv -->
<g id="node25" class="node">
<title>stepsolv</title>
<polygon fill="none" stroke="black" stroke-dasharray="5,2" points="1643.4,-387.95 1487.4,-387.95 1487.4,-351.95 1643.4,-351.95 1643.4,-387.95"/>
<text text-anchor="middle" x="1565.4" y="-366.25" font-family="Helvetica,Arial,sans-serif" font-size="14.00">BaseStepSolver {abstr}</text>
</g>
<!-- pbsolv&#45;&gt;stepsolv -->
<g id="edge35" class="edge">
<title>pbsolv&#45;&gt;stepsolv</title>
<path fill="none" stroke="black" stroke-width="2" d="M1076.57,-473.89C1151.48,-466.19 1292.36,-449.32 1412.33,-421.33"/>
<polygon fill="black" stroke="black" stroke-width="2" points="1413.47,-424.66 1422.4,-418.95 1411.86,-417.85 1413.47,-424.66"/>
<text text-anchor="middle" x="1192.78" y="-455.7" font-family="Helvetica,Arial,sans-serif" font-size="14.00">loops on timesteps</text>
</g>
<!-- observ -->
<g id="node15" class="node">
<title>observ</title>
<polygon fill="none" stroke="black" stroke-dasharray="5,2" points="1271.4,-387.95 1203.4,-387.95 1203.4,-351.95 1277.4,-351.95 1277.4,-381.95 1271.4,-387.95"/>
<polyline fill="none" stroke="black" stroke-dasharray="5,2" points="1271.4,-387.95 1271.4,-381.95 "/>
<polyline fill="none" stroke="black" stroke-dasharray="5,2" points="1277.4,-381.95 1271.4,-381.95 "/>
<text text-anchor="middle" x="1240.4" y="-366.25" font-family="Helvetica,Arial,sans-serif" font-size="14.00">Observer</text>
</g>
<!-- timestepper&#45;&gt;observ -->
<g id="edge42" class="edge">
<title>timestepper&#45;&gt;observ</title>
<path fill="none" stroke="black" stroke-dasharray="5,2" d="M1178.32,-369.95C1186.6,-369.95 1194.89,-369.95 1203.17,-369.95"/>
<polygon fill="none" stroke="black" points="1178.21,-366.45 1168.21,-369.95 1178.21,-373.45 1178.21,-366.45"/>
</g>
<!-- integr -->
<g id="node20" class="node">
<title>integr</title>
<polygon fill="none" stroke="black" points="731.9,-125 626.9,-125 626.9,-89 731.9,-89 731.9,-125"/>
<text text-anchor="middle" x="679.4" y="-103.3" font-family="Helvetica,Arial,sans-serif" font-size="14.00">BaseIntegrator</text>
</g>
<!-- dynopers&#45;&gt;integr -->
<g id="edge13" class="edge">
<title>dynopers&#45;&gt;integr</title>
<path fill="none" stroke="black" d="M679.4,-151.75C679.4,-142.77 679.4,-133.03 679.4,-125.03"/>
<polygon fill="none" stroke="black" points="675.9,-151.81 679.4,-161.81 682.9,-151.81 675.9,-151.81"/>
</g>
<!-- newmark -->
<g id="node21" class="node">
<title>newmark</title>
<polygon fill="none" stroke="black" points="745.4,-52 613.4,-52 613.4,-16 745.4,-16 745.4,-52"/>
<text text-anchor="middle" x="679.4" y="-30.3" font-family="Helvetica,Arial,sans-serif" font-size="14.00">NewmarkIntegrator</text>
</g>
<!-- integr&#45;&gt;newmark -->
<g id="edge14" class="edge">
<title>integr&#45;&gt;newmark</title>
<path fill="none" stroke="black" d="M679.4,-78.75C679.4,-69.77 679.4,-60.03 679.4,-52.03"/>
<polygon fill="none" stroke="black" points="675.9,-78.81 679.4,-88.81 682.9,-78.81 675.9,-78.81"/>
</g>
<!-- mecastat -->
<g id="node22" class="node">
<title>mecastat</title>
<polygon fill="none" stroke="black" points="1569.4,-271 1429.4,-271 1429.4,-235 1569.4,-235 1569.4,-271"/>
<text text-anchor="middle" x="1499.4" y="-249.3" font-family="Helvetica,Arial,sans-serif" font-size="14.00">MecaStatStepSolver</text>
</g>
<!-- mecadyn -->
<g id="node23" class="node">
<title>mecadyn</title>
<polygon fill="none" stroke="black" points="1735.4,-271 1587.4,-271 1587.4,-235 1735.4,-235 1735.4,-271"/>
<text text-anchor="middle" x="1661.4" y="-249.3" font-family="Helvetica,Arial,sans-serif" font-size="14.00">MecaDynaStepSolver</text>
</g>
<!-- implicit -->
<g id="node27" class="node">
<title>implicit</title>
<polygon fill="none" stroke="black" points="1580.9,-198 1455.9,-198 1455.9,-162 1580.9,-162 1580.9,-198"/>
<text text-anchor="middle" x="1518.4" y="-176.3" font-family="Helvetica,Arial,sans-serif" font-size="14.00">ImplicitStepSolver</text>
</g>
<!-- mecadyn&#45;&gt;implicit -->
<g id="edge19" class="edge">
<title>mecadyn&#45;&gt;implicit</title>
<path fill="none" stroke="black" d="M1618.14,-230.52C1597.23,-220.14 1572.48,-207.85 1552.86,-198.11"/>
<polygon fill="none" stroke="black" points="1616.63,-233.68 1627.14,-234.99 1619.74,-227.41 1616.63,-233.68"/>
</g>
<!-- explicit -->
<g id="node28" class="node">
<title>explicit</title>
<polygon fill="none" stroke="black" points="1723.9,-198 1598.9,-198 1598.9,-162 1723.9,-162 1723.9,-198"/>
<text text-anchor="middle" x="1661.4" y="-176.3" font-family="Helvetica,Arial,sans-serif" font-size="14.00">ExplicitStepSolver</text>
</g>
<!-- mecadyn&#45;&gt;explicit -->
<g id="edge20" class="edge">
<title>mecadyn&#45;&gt;explicit</title>
<path fill="none" stroke="black" d="M1661.4,-224.75C1661.4,-215.77 1661.4,-206.03 1661.4,-198.03"/>
<polygon fill="none" stroke="black" points="1657.9,-224.81 1661.4,-234.81 1664.9,-224.81 1657.9,-224.81"/>
</g>
<!-- multi -->
<g id="node29" class="node">
<title>multi</title>
<polygon fill="none" stroke="black" points="1854.4,-198 1742.4,-198 1742.4,-162 1854.4,-162 1854.4,-198"/>
<text text-anchor="middle" x="1798.4" y="-176.3" font-family="Helvetica,Arial,sans-serif" font-size="14.00">MultiStepSolver</text>
</g>
<!-- mecadyn&#45;&gt;multi -->
<g id="edge21" class="edge">
<title>mecadyn&#45;&gt;multi</title>
<path fill="none" stroke="black" d="M1703.1,-230.38C1723.08,-220.03 1746.67,-207.81 1765.37,-198.11"/>
<polygon fill="none" stroke="black" points="1701.48,-227.28 1694.21,-234.99 1704.7,-233.5 1701.48,-227.28"/>
</g>
<!-- ther -->
<g id="node24" class="node">
<title>ther</title>
<polygon fill="none" stroke="black" points="1886.9,-271 1753.9,-271 1753.9,-235 1886.9,-235 1886.9,-271"/>
<text text-anchor="middle" x="1820.4" y="-249.3" font-family="Helvetica,Arial,sans-serif" font-size="14.00">ThermalStepSolver</text>
</g>
<!-- stepsolv&#45;&gt;mecastat -->
<g id="edge16" class="edge">
<title>stepsolv&#45;&gt;mecastat</title>
<path fill="none" stroke="black" d="M1550.32,-342.69C1537.74,-320.78 1520.17,-290.17 1509.3,-271.25"/>
<polygon fill="none" stroke="black" points="1547.36,-344.56 1555.37,-351.49 1553.43,-341.07 1547.36,-344.56"/>
</g>
<!-- stepsolv&#45;&gt;mecadyn -->
<g id="edge17" class="edge">
<title>stepsolv&#45;&gt;mecadyn</title>
<path fill="none" stroke="black" d="M1586.59,-343.56C1604.94,-321.6 1630.97,-290.43 1646.99,-271.25"/>
<polygon fill="none" stroke="black" points="1583.7,-341.57 1579.98,-351.49 1589.07,-346.06 1583.7,-341.57"/>
</g>
<!-- stepsolv&#45;&gt;ther -->
<g id="edge18" class="edge">
<title>stepsolv&#45;&gt;ther</title>
<path fill="none" stroke="black" d="M1619.23,-348.3C1635.64,-342.05 1653.74,-335.21 1670.4,-329 1703.2,-316.78 1712.97,-317.44 1744.4,-302 1762.46,-293.12 1781.62,-281.01 1796.18,-271.17"/>
<polygon fill="none" stroke="black" points="1617.89,-345.07 1609.79,-351.9 1620.38,-351.61 1617.89,-345.07"/>
</g>
<!-- mixin_step -->
<g id="node26" class="node">
<title>mixin_step</title>
<polygon fill="none" stroke="black" stroke-dasharray="5,2" points="1881.4,-387.95 1679.4,-387.95 1679.4,-351.95 1887.4,-351.95 1887.4,-381.95 1881.4,-387.95"/>
<polyline fill="none" stroke="black" stroke-dasharray="5,2" points="1881.4,-387.95 1881.4,-381.95 "/>
<polyline fill="none" stroke="black" stroke-dasharray="5,2" points="1887.4,-381.95 1881.4,-381.95 "/>
<text text-anchor="middle" x="1783.4" y="-366.25" font-family="Helvetica,Arial,sans-serif" font-size="14.00">ContextMixin + DispatcherMixin</text>
</g>
<!-- stepsolv&#45;&gt;mixin_step -->
<g id="edge15" class="edge">
<title>stepsolv&#45;&gt;mixin_step</title>
<path fill="none" stroke="black" stroke-dasharray="5,2" d="M1653.99,-369.95C1662.39,-369.95 1670.8,-369.95 1679.2,-369.95"/>
<polygon fill="none" stroke="black" points="1653.74,-366.45 1643.74,-369.95 1653.74,-373.45 1653.74,-366.45"/>
</g>
<!-- iter_solver -->
<g id="node30" class="node">
<title>iter_solver</title>
<polygon fill="none" stroke="black" stroke-dasharray="5,2" points="2107.9,-271 1930.9,-271 1930.9,-235 2107.9,-235 2107.9,-271"/>
<text text-anchor="middle" x="2019.4" y="-249.3" font-family="Helvetica,Arial,sans-serif" font-size="14.00">BaseIterationSolver {abstr}</text>
</g>
<!-- stepsolv&#45;&gt;iter_solver -->
<g id="edge37" class="edge">
<title>stepsolv&#45;&gt;iter_solver</title>
<path fill="none" stroke="black" d="M1895.4,-303.35C1897.4,-302.75 1899.4,-302.15 1901.4,-301.55"/>
<polygon fill="black" stroke="black" points="1894.82,-307.17 1903.4,-300.95 1892.81,-300.47 1894.82,-307.17"/>
</g>
<!-- mixin_iter -->
<g id="node31" class="node">
<title>mixin_iter</title>
<polygon fill="none" stroke="black" stroke-dasharray="5,2" points="2345.4,-271 2143.4,-271 2143.4,-235 2351.4,-235 2351.4,-265 2345.4,-271"/>
<polyline fill="none" stroke="black" stroke-dasharray="5,2" points="2345.4,-271 2345.4,-265 "/>
<polyline fill="none" stroke="black" stroke-dasharray="5,2" points="2351.4,-265 2345.4,-265 "/>
<text text-anchor="middle" x="2247.4" y="-249.3" font-family="Helvetica,Arial,sans-serif" font-size="14.00">ContextMixin + DispatcherMixin</text>
</g>
<!-- iter_solver&#45;&gt;mixin_iter -->
<g id="edge22" class="edge">
<title>iter_solver&#45;&gt;mixin_iter</title>
<path fill="none" stroke="black" stroke-dasharray="5,2" d="M2118.16,-253C2126.49,-253 2134.81,-253 2143.13,-253"/>
<polygon fill="none" stroke="black" points="2118.01,-249.5 2108.01,-253 2118.01,-256.5 2118.01,-249.5"/>
</g>
<!-- newton -->
<g id="node32" class="node">
<title>newton</title>
<polygon fill="none" stroke="black" points="2012.9,-198 1911.9,-198 1911.9,-162 2012.9,-162 2012.9,-198"/>
<text text-anchor="middle" x="1962.4" y="-176.3" font-family="Helvetica,Arial,sans-serif" font-size="14.00">NewtonSolver</text>
</g>
<!-- iter_solver&#45;&gt;newton -->
<g id="edge24" class="edge">
<title>iter_solver&#45;&gt;newton</title>
<path fill="none" stroke="black" d="M1999.16,-226.79C1991.5,-217.26 1982.98,-206.64 1976.07,-198.03"/>
<polygon fill="none" stroke="black" points="1996.61,-229.21 2005.6,-234.81 2002.07,-224.82 1996.61,-229.21"/>
</g>
<!-- snes -->
<g id="node34" class="node">
<title>snes</title>
<polygon fill="none" stroke="black" points="2252.4,-198 2160.4,-198 2160.4,-162 2252.4,-162 2252.4,-198"/>
<text text-anchor="middle" x="2206.4" y="-176.3" font-family="Helvetica,Arial,sans-serif" font-size="14.00">SNESSolver</text>
</g>
<!-- iter_solver&#45;&gt;snes -->
<g id="edge25" class="edge">
<title>iter_solver&#45;&gt;snes</title>
<path fill="none" stroke="black" d="M2073.76,-231.36C2101.56,-220.81 2134.98,-208.11 2161.32,-198.11"/>
<polygon fill="none" stroke="black" points="2072.29,-228.17 2064.19,-234.99 2074.78,-234.72 2072.29,-228.17"/>
</g>
<!-- raspen -->
<g id="node35" class="node">
<title>raspen</title>
<polygon fill="none" stroke="black" points="2371.9,-198 2270.9,-198 2270.9,-162 2371.9,-162 2371.9,-198"/>
<text text-anchor="middle" x="2321.4" y="-176.3" font-family="Helvetica,Arial,sans-serif" font-size="14.00">RaspenSolver</text>
</g>
<!-- iter_solver&#45;&gt;raspen -->
<g id="edge26" class="edge">
<title>iter_solver&#45;&gt;raspen</title>
<path fill="none" stroke="black" d="M2110.98,-232.84C2156.37,-223.02 2211.92,-210.52 2261.4,-198 2264.44,-197.23 2267.56,-196.42 2270.71,-195.58"/>
<polygon fill="none" stroke="black" points="2110.2,-229.43 2101.16,-234.96 2111.68,-236.27 2110.2,-229.43"/>
</g>
<!-- event -->
<g id="node33" class="node">
<title>event</title>
<polygon fill="none" stroke="black" stroke-dasharray="5,2" points="2136.4,-198 2048.4,-198 2048.4,-162 2142.4,-162 2142.4,-192 2136.4,-198"/>
<polyline fill="none" stroke="black" stroke-dasharray="5,2" points="2136.4,-198 2136.4,-192 "/>
<polyline fill="none" stroke="black" stroke-dasharray="5,2" points="2142.4,-192 2136.4,-192 "/>
<text text-anchor="middle" x="2095.4" y="-176.3" font-family="Helvetica,Arial,sans-serif" font-size="14.00">EventSource</text>
</g>
<!-- newton&#45;&gt;event -->
<g id="edge23" class="edge">
<title>newton&#45;&gt;event</title>
<path fill="none" stroke="black" stroke-dasharray="5,2" d="M2023.18,-180C2031.49,-180 2039.8,-180 2048.11,-180"/>
<polygon fill="none" stroke="black" points="2023.05,-176.5 2013.05,-180 2023.05,-183.5 2023.05,-176.5"/>
</g>
<!-- linesearch -->
<g id="node36" class="node">
<title>linesearch</title>
<polygon fill="none" stroke="black" points="1931.9,-125 1846.9,-125 1846.9,-89 1931.9,-89 1931.9,-125"/>
<text text-anchor="middle" x="1889.4" y="-103.3" font-family="Helvetica,Arial,sans-serif" font-size="14.00">LineSearch</text>
</g>
<!-- newton&#45;&gt;linesearch -->
<g id="edge38" class="edge">
<title>newton&#45;&gt;linesearch</title>
<path fill="none" stroke="black" d="M1944.72,-161.81C1935.58,-152.92 1924.26,-141.91 1914.25,-132.17"/>
<polygon fill="black" stroke="black" points="1916.51,-129.49 1906.9,-125.03 1911.63,-134.51 1916.51,-129.49"/>
</g>
<!-- conv_manager -->
<g id="node37" class="node">
<title>conv_manager</title>
<polygon fill="none" stroke="black" points="2231.9,-125 2080.9,-125 2080.9,-89 2231.9,-89 2231.9,-125"/>
<text text-anchor="middle" x="2156.4" y="-103.3" font-family="Helvetica,Arial,sans-serif" font-size="14.00">ConvergenceManager</text>
</g>
<!-- newton&#45;&gt;conv_manager -->
<g id="edge39" class="edge">
<title>newton&#45;&gt;conv_manager</title>
<path fill="none" stroke="black" d="M2008.86,-161.99C2036.26,-151.97 2071.11,-139.21 2100.06,-128.62"/>
<polygon fill="black" stroke="black" points="2101.45,-131.84 2109.63,-125.11 2099.04,-125.26 2101.45,-131.84"/>
</g>
<!-- mixin_line -->
<g id="node38" class="node">
<title>mixin_line</title>
<polygon fill="none" stroke="black" stroke-dasharray="5,2" points="2056.9,-125 1967.9,-125 1967.9,-89 2062.9,-89 2062.9,-119 2056.9,-125"/>
<polyline fill="none" stroke="black" stroke-dasharray="5,2" points="2056.9,-125 2056.9,-119 "/>
<polyline fill="none" stroke="black" stroke-dasharray="5,2" points="2062.9,-119 2056.9,-119 "/>
<text text-anchor="middle" x="2015.4" y="-103.3" font-family="Helvetica,Arial,sans-serif" font-size="14.00">ContextMixin</text>
</g>
<!-- linesearch&#45;&gt;mixin_line -->
<g id="edge40" class="edge">
<title>linesearch&#45;&gt;mixin_line</title>
<path fill="none" stroke="black" stroke-dasharray="5,2" d="M1942.45,-107C1950.85,-107 1959.24,-107 1967.63,-107"/>
<polygon fill="none" stroke="black" points="1942.22,-103.5 1932.22,-107 1942.22,-110.5 1942.22,-103.5"/>
</g>
<!-- mixin_conv -->
<g id="node39" class="node">
<title>mixin_conv</title>
<polygon fill="none" stroke="black" stroke-dasharray="5,2" points="2356.9,-125 2267.9,-125 2267.9,-89 2362.9,-89 2362.9,-119 2356.9,-125"/>
<polyline fill="none" stroke="black" stroke-dasharray="5,2" points="2356.9,-125 2356.9,-119 "/>
<polyline fill="none" stroke="black" stroke-dasharray="5,2" points="2362.9,-119 2356.9,-119 "/>
<text text-anchor="middle" x="2315.4" y="-103.3" font-family="Helvetica,Arial,sans-serif" font-size="14.00">ContextMixin</text>
</g>
<!-- conv_manager&#45;&gt;mixin_conv -->
<g id="edge41" class="edge">
<title>conv_manager&#45;&gt;mixin_conv</title>
<path fill="none" stroke="black" stroke-dasharray="5,2" d="M2242.41,-107C2250.81,-107 2259.21,-107 2267.61,-107"/>
<polygon fill="none" stroke="black" points="2242.17,-103.5 2232.17,-107 2242.17,-110.5 2242.17,-103.5"/>
</g>
</g>
</svg>
