<?xml version="1.0" encoding="UTF-8" standalone="no"?>
<!DOCTYPE svg PUBLIC "-//W3C//DTD SVG 1.1//EN"
 "http://www.w3.org/Graphics/SVG/1.1/DTD/svg11.dtd">
<!-- Generated by graphviz version 2.43.0 (0)
 -->
<!-- Title: MNL Pages: 1 -->
<svg width="2039pt" height="830pt"
 viewBox="0.00 0.00 2038.56 830.00" xmlns="http://www.w3.org/2000/svg" xmlns:xlink="http://www.w3.org/1999/xlink">
<g id="graph0" class="graph" transform="scale(1 1) rotate(0) translate(4 826)">
<title>MNL</title>
<polygon fill="white" stroke="transparent" points="-4,4 -4,-826 2034.56,-826 2034.56,4 -4,4"/>
<g id="clust2" class="cluster">
<title>cluster_stepsolv</title>
<polygon fill="none" stroke="black" stroke-dasharray="5,2" points="78.06,-138 78.06,-526 901.06,-526 901.06,-138 78.06,-138"/>
<text text-anchor="middle" x="489.56" y="-510.8" font-family="Helvetica,Arial,sans-serif" font-size="14.00">StepSolver</text>
</g>
<g id="clust6" class="cluster">
<title>cluster_iter_solv</title>
<polygon fill="none" stroke="black" stroke-dasharray="5,2" points="980.06,-284 980.06,-432 1327.06,-432 1327.06,-284 980.06,-284"/>
<text text-anchor="middle" x="1153.56" y="-416.8" font-family="Helvetica,Arial,sans-serif" font-size="14.00">ConvergenceCriteria</text>
</g>
<!-- keywords -->
<g id="node1" class="node">
<title>keywords</title>
<polygon fill="none" stroke="black" points="1393.06,-589 1317.06,-589 1317.06,-553 1393.06,-553 1393.06,-589"/>
<text text-anchor="middle" x="1355.06" y="-567.3" font-family="Helvetica,Arial,sans-serif" font-size="14.00">Keywords</text>
</g>
<!-- problem -->
<g id="node2" class="node">
<title>problem</title>
<ellipse fill="none" stroke="black" cx="1079.06" cy="-18" rx="76.89" ry="18"/>
<text text-anchor="middle" x="1079.06" y="-14.3" font-family="Helvetica,Arial,sans-serif" font-size="14.00">PhysicalProblem</text>
</g>
<!-- state -->
<g id="node3" class="node">
<title>state</title>
<ellipse fill="none" stroke="black" cx="1541.06" cy="-91" rx="63.89" ry="18"/>
<text text-anchor="middle" x="1541.06" y="-87.3" font-family="Helvetica,Arial,sans-serif" font-size="14.00">PhysicalState</text>
</g>
<!-- context -->
<g id="node4" class="node">
<title>context</title>
<polygon fill="none" stroke="black" points="2030.56,-676 1935.56,-676 1935.56,-640 2030.56,-640 2030.56,-676"/>
<text text-anchor="middle" x="1983.06" y="-654.3" font-family="Helvetica,Arial,sans-serif" font-size="14.00">ContextMixin</text>
</g>
<!-- mnl -->
<g id="node5" class="node">
<title>mnl</title>
<polygon fill="none" stroke="black" points="1424.06,-822 1286.06,-822 1286.06,-786 1424.06,-786 1424.06,-822"/>
<text text-anchor="middle" x="1355.06" y="-800.3" font-family="Helvetica,Arial,sans-serif" font-size="14.00">meca_non_line_ops</text>
</g>
<!-- mnl&#45;&gt;keywords -->
<g id="edge19" class="edge">
<title>mnl&#45;&gt;keywords</title>
<path fill="none" stroke="black" stroke-width="2" d="M1355.06,-785.64C1355.06,-745.82 1355.06,-647.69 1355.06,-599.54"/>
<polygon fill="black" stroke="black" stroke-width="2" points="1358.56,-599.25 1355.06,-589.25 1351.56,-599.25 1358.56,-599.25"/>
<text text-anchor="middle" x="1346.06" y="-691.17" font-family="Helvetica,Arial,sans-serif" font-size="14.00">init</text>
</g>
<!-- mnl&#45;&gt;problem -->
<g id="edge20" class="edge">
<title>mnl&#45;&gt;problem</title>
<path fill="none" stroke="black" stroke-width="2" d="M1285.63,-802.97C1011.6,-802.42 20.06,-796.01 20.06,-732 20.06,-732 20.06,-732 20.06,-90 20.06,-32.28 -90.31,-77.15 213.06,-54 498.05,-32.25 836.91,-23.51 992.78,-20.44"/>
<polygon fill="black" stroke="black" stroke-width="2" points="992.85,-23.94 1002.78,-20.25 992.72,-16.94 992.85,-23.94"/>
<text text-anchor="middle" x="1130.09" y="-806.19" font-family="Helvetica,Arial,sans-serif" font-size="14.00">creates</text>
</g>
<!-- pbsolv -->
<g id="node6" class="node">
<title>pbsolv</title>
<polygon fill="none" stroke="black" points="1887.06,-749 1781.06,-749 1781.06,-713 1887.06,-713 1887.06,-749"/>
<text text-anchor="middle" x="1834.06" y="-727.3" font-family="Helvetica,Arial,sans-serif" font-size="14.00">ProblemSolver</text>
</g>
<!-- mnl&#45;&gt;pbsolv -->
<g id="edge18" class="edge">
<title>mnl&#45;&gt;pbsolv</title>
<path fill="none" stroke="black" d="M1424.19,-792.75C1517.12,-778.98 1680.99,-754.69 1770.8,-741.38"/>
<polygon fill="black" stroke="black" points="1771.47,-744.81 1780.85,-739.89 1770.45,-737.89 1771.47,-744.81"/>
</g>
<!-- pbsolv&#45;&gt;state -->
<g id="edge22" class="edge">
<title>pbsolv&#45;&gt;state</title>
<path fill="none" stroke="black" stroke-width="2" d="M1868.42,-712.86C1887.35,-700.76 1907.06,-682.51 1907.06,-659 1907.06,-659 1907.06,-659 1907.06,-346 1907.06,-241.22 1873.41,-208.69 1796.06,-138 1769.81,-114.02 1678.78,-102.12 1612.96,-96.52"/>
<polygon fill="black" stroke="black" stroke-width="2" points="1612.88,-93 1602.63,-95.67 1612.31,-99.98 1612.88,-93"/>
<text text-anchor="middle" x="1884.56" y="-349.8" font-family="Helvetica,Arial,sans-serif" font-size="14.00">creates</text>
</g>
<!-- pbsolv&#45;&gt;context -->
<g id="edge57" class="edge">
<title>pbsolv&#45;&gt;context</title>
<path fill="none" stroke="black" d="M1889.74,-708.98C1900.26,-704.62 1911.09,-699.87 1921.06,-695 1932.58,-689.37 1944.86,-682.45 1955.43,-676.18"/>
<polygon fill="none" stroke="black" points="1888.14,-705.86 1880.2,-712.87 1890.78,-712.34 1888.14,-705.86"/>
<text text-anchor="middle" x="1904.62" y="-698.77" font-family="Helvetica,Arial,sans-serif" font-size="14.00">mixin</text>
</g>
<!-- main -->
<g id="node7" class="node">
<title>main</title>
<polygon fill="none" stroke="black" points="1675.06,-676 1557.06,-676 1557.06,-640 1675.06,-640 1675.06,-676"/>
<text text-anchor="middle" x="1616.06" y="-654.3" font-family="Helvetica,Arial,sans-serif" font-size="14.00">NonLinearSolver</text>
</g>
<!-- pbsolv&#45;&gt;main -->
<g id="edge21" class="edge">
<title>pbsolv&#45;&gt;main</title>
<path fill="none" stroke="black" d="M1781.84,-712.99C1750.79,-702.88 1711.21,-689.99 1678.51,-679.34"/>
<polygon fill="black" stroke="black" points="1679.19,-675.88 1668.6,-676.11 1677.03,-682.54 1679.19,-675.88"/>
<text text-anchor="middle" x="1706.85" y="-698.39" font-family="Helvetica,Arial,sans-serif" font-size="14.00">wraps</text>
</g>
<!-- main&#45;&gt;keywords -->
<g id="edge23" class="edge">
<title>main&#45;&gt;keywords</title>
<path fill="none" stroke="black" stroke-dasharray="1,5" d="M1556.86,-656.35C1513.35,-653.73 1453.89,-645.55 1407.06,-622 1394.99,-615.93 1383.87,-606.11 1375.03,-596.77"/>
<polygon fill="black" stroke="black" points="1377.46,-594.23 1368.17,-589.13 1372.25,-598.91 1377.46,-594.23"/>
<text text-anchor="middle" x="1435.95" y="-644.7" font-family="Helvetica,Arial,sans-serif" font-size="14.00">.param</text>
</g>
<!-- main&#45;&gt;problem -->
<g id="edge24" class="edge">
<title>main&#45;&gt;problem</title>
<path fill="none" stroke="black" stroke-dasharray="1,5" d="M1675.37,-649.13C1750.15,-637.52 1869.06,-612.66 1869.06,-572 1869.06,-572 1869.06,-572 1869.06,-90 1869.06,-54.92 1368.34,-30.69 1164.17,-22.28"/>
<polygon fill="black" stroke="black" points="1164.22,-18.77 1154.09,-21.86 1163.94,-25.77 1164.22,-18.77"/>
</g>
<!-- main&#45;&gt;state -->
<g id="edge25" class="edge">
<title>main&#45;&gt;state</title>
<path fill="none" stroke="black" stroke-dasharray="1,5" d="M1605.66,-639.81C1594.29,-618.66 1579.3,-582 1592.06,-553 1624.1,-480.15 1680.09,-498.34 1724.06,-432 1797.09,-321.82 1848.48,-243.67 1769.06,-138 1750.48,-113.28 1672.54,-101.68 1612.9,-96.34"/>
<polygon fill="black" stroke="black" points="1613.01,-92.84 1602.75,-95.48 1612.42,-99.81 1613.01,-92.84"/>
</g>
<!-- timestepper -->
<g id="node8" class="node">
<title>timestepper</title>
<polygon fill="none" stroke="black" points="1544.56,-589 1449.56,-589 1449.56,-553 1544.56,-553 1544.56,-589"/>
<text text-anchor="middle" x="1497.06" y="-567.3" font-family="Helvetica,Arial,sans-serif" font-size="14.00">TimeStepper</text>
</g>
<!-- main&#45;&gt;timestepper -->
<g id="edge26" class="edge">
<title>main&#45;&gt;timestepper</title>
<path fill="none" stroke="black" d="M1586.6,-639.9C1577.6,-634.41 1567.78,-628.16 1559.06,-622 1547.56,-613.88 1535.4,-604.32 1524.93,-595.74"/>
<polygon fill="black" stroke="black" points="1526.87,-592.8 1516.93,-589.11 1522.4,-598.19 1526.87,-592.8"/>
</g>
<!-- storage -->
<g id="node9" class="node">
<title>storage</title>
<polygon fill="none" stroke="black" points="1719.06,-589 1601.06,-589 1601.06,-553 1719.06,-553 1719.06,-589"/>
<text text-anchor="middle" x="1660.06" y="-567.3" font-family="Helvetica,Arial,sans-serif" font-size="14.00">StorageManager</text>
</g>
<!-- main&#45;&gt;storage -->
<g id="edge27" class="edge">
<title>main&#45;&gt;storage</title>
<path fill="none" stroke="black" d="M1624.96,-639.8C1631.16,-627.82 1639.55,-611.62 1646.57,-598.06"/>
<polygon fill="black" stroke="black" points="1649.68,-599.67 1651.16,-589.18 1643.46,-596.45 1649.68,-599.67"/>
</g>
<!-- hook -->
<g id="node14" class="node">
<title>hook</title>
<polygon fill="none" stroke="black" points="1840.56,-589 1737.56,-589 1737.56,-553 1840.56,-553 1840.56,-589"/>
<text text-anchor="middle" x="1789.06" y="-567.3" font-family="Helvetica,Arial,sans-serif" font-size="14.00">PostStepHook</text>
</g>
<!-- main&#45;&gt;hook -->
<g id="edge29" class="edge">
<title>main&#45;&gt;hook</title>
<path fill="none" stroke="black" stroke-dasharray="5,2" d="M1651.06,-639.8C1678.24,-626.45 1716.07,-607.86 1745.25,-593.52"/>
<polygon fill="black" stroke="black" points="1746.96,-596.58 1754.39,-589.03 1743.88,-590.3 1746.96,-596.58"/>
<text text-anchor="middle" x="1721.56" y="-610.8" font-family="Helvetica,Arial,sans-serif" font-size="14.00">opt</text>
</g>
<!-- stepsolv -->
<g id="node19" class="node">
<title>stepsolv</title>
<polygon fill="none" stroke="black" points="725.56,-495 612.56,-495 612.56,-459 725.56,-459 725.56,-495"/>
<text text-anchor="middle" x="669.06" y="-473.3" font-family="Helvetica,Arial,sans-serif" font-size="14.00">BaseStepSolver</text>
</g>
<!-- main&#45;&gt;stepsolv -->
<g id="edge28" class="edge">
<title>main&#45;&gt;stepsolv</title>
<path fill="none" stroke="black" stroke-width="2" d="M1556.73,-640.1C1521.57,-628.62 1477,-611.44 1441.06,-589 1421.04,-576.51 1423.84,-562.04 1402.06,-553 1271.53,-498.82 907.72,-563.33 761.77,-528.56"/>
<polygon fill="black" stroke="black" stroke-width="2" points="762.62,-525.16 752.06,-526 760.83,-531.93 762.62,-525.16"/>
<text text-anchor="middle" x="1095.68" y="-535.05" font-family="Helvetica,Arial,sans-serif" font-size="14.00">loops on timesteps</text>
</g>
<!-- observ -->
<g id="node16" class="node">
<title>observ</title>
<polygon fill="none" stroke="black" points="1534.06,-495 1460.06,-495 1460.06,-459 1534.06,-459 1534.06,-495"/>
<text text-anchor="middle" x="1497.06" y="-473.3" font-family="Helvetica,Arial,sans-serif" font-size="14.00">Observer</text>
</g>
<!-- timestepper&#45;&gt;observ -->
<g id="edge56" class="edge">
<title>timestepper&#45;&gt;observ</title>
<path fill="none" stroke="black" d="M1497.06,-542.69C1497.06,-527.31 1497.06,-508.57 1497.06,-495.23"/>
<polygon fill="none" stroke="black" points="1493.56,-542.7 1497.06,-552.7 1500.56,-542.7 1493.56,-542.7"/>
<text text-anchor="middle" x="1480.56" y="-527.45" font-family="Helvetica,Arial,sans-serif" font-size="14.00">mixin</text>
</g>
<!-- timestepper&#45;&gt;stepsolv -->
<!-- linsolv -->
<g id="node10" class="node">
<title>linsolv</title>
<polygon fill="none" stroke="black" points="1727.06,-182 1635.06,-182 1635.06,-146 1727.06,-146 1727.06,-182"/>
<text text-anchor="middle" x="1681.06" y="-160.3" font-family="Helvetica,Arial,sans-serif" font-size="14.00">LinearSolver</text>
</g>
<!-- linesearch -->
<g id="node11" class="node">
<title>linesearch</title>
<polygon fill="none" stroke="black" points="1408.56,-182 1323.56,-182 1323.56,-146 1408.56,-146 1408.56,-182"/>
<text text-anchor="middle" x="1366.06" y="-160.3" font-family="Helvetica,Arial,sans-serif" font-size="14.00">LineSearch</text>
</g>
<!-- linesearch&#45;&gt;state -->
<g id="edge47" class="edge">
<title>linesearch&#45;&gt;state</title>
<path fill="none" stroke="black" stroke-dasharray="1,5" d="M1389.92,-145.87C1399.82,-139.31 1411.65,-132.17 1423.06,-127 1442.12,-118.35 1463.87,-111.2 1483.46,-105.66"/>
<polygon fill="black" stroke="black" points="1484.46,-109.02 1493.18,-103 1482.61,-102.27 1484.46,-109.02"/>
</g>
<!-- conv_manager -->
<g id="node12" class="node">
<title>conv_manager</title>
<polygon fill="none" stroke="black" points="1616.56,-182 1465.56,-182 1465.56,-146 1616.56,-146 1616.56,-182"/>
<text text-anchor="middle" x="1541.06" y="-160.3" font-family="Helvetica,Arial,sans-serif" font-size="14.00">ConvergenceManager</text>
</g>
<!-- conv_manager&#45;&gt;problem -->
<g id="edge52" class="edge">
<title>conv_manager&#45;&gt;problem</title>
<path fill="none" stroke="black" stroke-dasharray="1,5" d="M1576.82,-145.93C1591.14,-137.07 1606.11,-124.77 1614.06,-109 1621.26,-94.71 1624.79,-84.87 1614.06,-73 1584.55,-40.37 1308.5,-26.52 1164.93,-21.48"/>
<polygon fill="black" stroke="black" points="1164.94,-17.98 1154.82,-21.13 1164.7,-24.97 1164.94,-17.98"/>
</g>
<!-- conv_manager&#45;&gt;state -->
<g id="edge53" class="edge">
<title>conv_manager&#45;&gt;state</title>
<path fill="none" stroke="black" stroke-dasharray="1,5" d="M1541.06,-145.81C1541.06,-137.79 1541.06,-128.05 1541.06,-119.07"/>
<polygon fill="black" stroke="black" points="1544.56,-119.03 1541.06,-109.03 1537.56,-119.03 1544.56,-119.03"/>
</g>
<!-- contact -->
<g id="node13" class="node">
<title>contact</title>
<polygon fill="none" stroke="black" points="1110.56,-109 1047.56,-109 1047.56,-73 1110.56,-73 1110.56,-109"/>
<text text-anchor="middle" x="1079.06" y="-87.3" font-family="Helvetica,Arial,sans-serif" font-size="14.00">Contact</text>
</g>
<!-- contact&#45;&gt;problem -->
<g id="edge51" class="edge">
<title>contact&#45;&gt;problem</title>
<path fill="none" stroke="black" stroke-dasharray="1,5" d="M1079.06,-72.81C1079.06,-64.79 1079.06,-55.05 1079.06,-46.07"/>
<polygon fill="black" stroke="black" points="1082.56,-46.03 1079.06,-36.03 1075.56,-46.03 1082.56,-46.03"/>
</g>
<!-- incr_solv -->
<g id="node15" class="node">
<title>incr_solv</title>
<polygon fill="none" stroke="black" points="1354.06,-255 1228.06,-255 1228.06,-219 1354.06,-219 1354.06,-255"/>
<text text-anchor="middle" x="1291.06" y="-233.3" font-family="Helvetica,Arial,sans-serif" font-size="14.00">IncrementalSolver</text>
</g>
<!-- incr_solv&#45;&gt;problem -->
<g id="edge45" class="edge">
<title>incr_solv&#45;&gt;problem</title>
<path fill="none" stroke="black" stroke-dasharray="1,5" d="M1292.29,-218.7C1292.95,-197.98 1291.35,-162.95 1276.06,-138 1244.18,-86 1180.27,-53.71 1133.87,-36.1"/>
<polygon fill="black" stroke="black" points="1134.85,-32.73 1124.25,-32.57 1132.43,-39.3 1134.85,-32.73"/>
</g>
<!-- incr_solv&#45;&gt;state -->
<g id="edge46" class="edge">
<title>incr_solv&#45;&gt;state</title>
<path fill="none" stroke="black" stroke-dasharray="1,5" d="M1345.41,-218.96C1369,-210.08 1396.18,-197.74 1418.06,-182 1439.27,-166.74 1436.63,-154.29 1457.06,-138 1469.85,-127.79 1485.23,-118.64 1499.31,-111.23"/>
<polygon fill="black" stroke="black" points="1501.02,-114.28 1508.33,-106.62 1497.83,-108.05 1501.02,-114.28"/>
</g>
<!-- incr_solv&#45;&gt;linsolv -->
<g id="edge41" class="edge">
<title>incr_solv&#45;&gt;linsolv</title>
<path fill="none" stroke="black" d="M1354.24,-228.5C1419.79,-220.11 1525.34,-204.92 1625.03,-182.07"/>
<polygon fill="black" stroke="black" points="1626.02,-185.43 1634.97,-179.76 1624.44,-178.61 1626.02,-185.43"/>
</g>
<!-- incr_solv&#45;&gt;linesearch -->
<g id="edge42" class="edge">
<title>incr_solv&#45;&gt;linesearch</title>
<path fill="none" stroke="black" d="M1309.21,-218.81C1318.61,-209.92 1330.24,-198.91 1340.52,-189.17"/>
<polygon fill="black" stroke="black" points="1343.21,-191.45 1348.07,-182.03 1338.4,-186.36 1343.21,-191.45"/>
</g>
<!-- incr_solv&#45;&gt;conv_manager -->
<g id="edge43" class="edge">
<title>incr_solv&#45;&gt;conv_manager</title>
<path fill="none" stroke="black" d="M1354.37,-224.66C1384.03,-218.71 1419.66,-210.64 1451.06,-201 1464.91,-196.75 1479.62,-191.28 1493.05,-185.9"/>
<polygon fill="black" stroke="black" points="1494.64,-189.04 1502.57,-182.02 1491.99,-182.55 1494.64,-189.04"/>
</g>
<!-- incr_solv&#45;&gt;contact -->
<g id="edge39" class="edge">
<title>incr_solv&#45;&gt;contact</title>
<path fill="none" stroke="black" d="M1237.87,-218.99C1214.11,-210.02 1186.47,-197.6 1164.06,-182 1138.12,-163.95 1113.95,-136.96 1098.06,-117.24"/>
<polygon fill="black" stroke="black" points="1100.72,-114.96 1091.78,-109.28 1095.23,-119.3 1100.72,-114.96"/>
</g>
<!-- event -->
<g id="node17" class="node">
<title>event</title>
<polygon fill="none" stroke="black" points="1267.06,-182 1173.06,-182 1173.06,-146 1267.06,-146 1267.06,-182"/>
<text text-anchor="middle" x="1220.06" y="-160.3" font-family="Helvetica,Arial,sans-serif" font-size="14.00">EventSource</text>
</g>
<!-- incr_solv&#45;&gt;event -->
<g id="edge44" class="edge">
<title>incr_solv&#45;&gt;event</title>
<path fill="none" stroke="black" d="M1266.71,-211.65C1256.96,-201.9 1245.95,-190.9 1237.08,-182.03"/>
<polygon fill="none" stroke="black" points="1264.32,-214.22 1273.87,-218.81 1269.27,-209.27 1264.32,-214.22"/>
<text text-anchor="middle" x="1239.13" y="-204.37" font-family="Helvetica,Arial,sans-serif" font-size="14.00">mixin</text>
</g>
<!-- opers -->
<g id="node18" class="node">
<title>opers</title>
<polygon fill="none" stroke="black" stroke-dasharray="5,2" points="1078.56,-182 947.56,-182 947.56,-146 1078.56,-146 1078.56,-182"/>
<text text-anchor="middle" x="1013.06" y="-160.3" font-family="Helvetica,Arial,sans-serif" font-size="14.00">OperatorsManager</text>
</g>
<!-- incr_solv&#45;&gt;opers -->
<g id="edge40" class="edge">
<title>incr_solv&#45;&gt;opers</title>
<path fill="none" stroke="black" d="M1216.18,-216.88C1173.31,-205.93 1120.03,-192.32 1078.79,-181.79"/>
<polygon fill="black" stroke="black" points="1216.35,-216.92 1223.15,-214.53 1227.97,-219.89 1221.17,-222.28 1216.35,-216.92"/>
<text text-anchor="middle" x="1142.02" y="-204.55" font-family="Helvetica,Arial,sans-serif" font-size="14.00">use</text>
</g>
<!-- opers&#45;&gt;problem -->
<g id="edge49" class="edge">
<title>opers&#45;&gt;problem</title>
<path fill="none" stroke="black" stroke-dasharray="1,5" d="M1016.13,-145.75C1019.88,-127.12 1027.23,-96.91 1039.06,-73 1044.07,-62.86 1051.03,-52.65 1057.74,-43.88"/>
<polygon fill="black" stroke="black" points="1060.55,-45.97 1064.02,-35.96 1055.06,-41.62 1060.55,-45.97"/>
</g>
<!-- opers&#45;&gt;state -->
<g id="edge50" class="edge">
<title>opers&#45;&gt;state</title>
<path fill="none" stroke="black" stroke-dasharray="1,5" d="M1078.74,-151.5C1105.21,-147.03 1136.04,-142.03 1164.06,-138 1271.58,-122.55 1396.85,-107.93 1472.49,-99.48"/>
<polygon fill="black" stroke="black" points="1473.28,-102.91 1482.83,-98.32 1472.5,-95.95 1473.28,-102.91"/>
</g>
<!-- opers&#45;&gt;contact -->
<g id="edge48" class="edge">
<title>opers&#45;&gt;contact</title>
<path fill="none" stroke="black" d="M1029.03,-145.81C1037.22,-137 1047.33,-126.13 1056.32,-116.46"/>
<polygon fill="black" stroke="black" points="1058.98,-118.74 1063.23,-109.03 1053.85,-113.97 1058.98,-118.74"/>
</g>
<!-- stepsolv&#45;&gt;problem -->
<g id="edge30" class="edge">
<title>stepsolv&#45;&gt;problem</title>
<path fill="none" stroke="black" stroke-dasharray="1,5" d="M78.06,-404.77C65.24,-398.36 58.06,-391.45 58.06,-384 58.06,-384 58.06,-384 58.06,-90 58.06,-43.33 745.8,-25.44 992.38,-20.53"/>
<polygon fill="black" stroke="black" points="992.8,-24.02 1002.73,-20.32 992.67,-17.02 992.8,-24.02"/>
</g>
<!-- stepsolv&#45;&gt;state -->
<g id="edge31" class="edge">
<title>stepsolv&#45;&gt;state</title>
<path fill="none" stroke="black" d="M901.05,-451.34C1210.75,-445.79 1755.06,-463.56 1755.06,-274 1755.06,-274 1755.06,-274 1755.06,-163 1755.06,-149.04 1747.76,-145.6 1736.06,-138 1699.51,-114.25 1652.02,-102.73 1613.06,-97.16"/>
<polygon fill="black" stroke="black" points="1613.21,-93.64 1602.83,-95.8 1612.29,-100.58 1613.21,-93.64"/>
</g>
<!-- stepsolv&#45;&gt;linsolv -->
<g id="edge32" class="edge">
<title>stepsolv&#45;&gt;linsolv</title>
<path fill="none" stroke="black" d="M901.05,-457.83C1159.24,-458.72 1660.01,-463.4 1693.06,-441 1715.81,-425.58 1717.06,-411.49 1717.06,-384 1717.06,-384 1717.06,-384 1717.06,-236 1717.06,-219.72 1709.43,-203.38 1701.2,-190.5"/>
<polygon fill="black" stroke="black" points="1704.03,-188.44 1695.49,-182.17 1698.26,-192.39 1704.03,-188.44"/>
</g>
<!-- dispatch -->
<g id="node20" class="node">
<title>dispatch</title>
<polygon fill="none" stroke="black" stroke-dasharray="5,2" points="893.06,-495 761.06,-495 761.06,-459 893.06,-459 893.06,-495"/>
<text text-anchor="middle" x="827.06" y="-473.3" font-family="Helvetica,Arial,sans-serif" font-size="14.00">ProblemDispatcher</text>
</g>
<!-- stepsolv&#45;&gt;dispatch -->
<g id="edge1" class="edge">
<title>stepsolv&#45;&gt;dispatch</title>
<path fill="none" stroke="black" d="M725.84,-477C734.18,-477 742.52,-477 750.85,-477"/>
<polygon fill="none" stroke="black" points="751.03,-480.5 761.03,-477 751.03,-473.5 751.03,-480.5"/>
<text text-anchor="middle" x="743.43" y="-465.8" font-family="Helvetica,Arial,sans-serif" font-size="14.00">factory</text>
</g>
<!-- mecastat -->
<g id="node21" class="node">
<title>mecastat</title>
<polygon fill="none" stroke="black" points="378.06,-401 238.06,-401 238.06,-365 378.06,-365 378.06,-401"/>
<text text-anchor="middle" x="308.06" y="-379.3" font-family="Helvetica,Arial,sans-serif" font-size="14.00">MecaStatStepSolver</text>
</g>
<!-- stepsolv&#45;&gt;mecastat -->
<g id="edge2" class="edge">
<title>stepsolv&#45;&gt;mecastat</title>
<path fill="none" stroke="black" d="M602.67,-463.52C561.88,-455.45 508.68,-444.19 462.06,-432 427.24,-422.9 388.58,-410.84 358.7,-401.08"/>
<polygon fill="none" stroke="black" points="602.01,-466.95 612.5,-465.45 603.36,-460.09 602.01,-466.95"/>
</g>
<!-- mecadyn -->
<g id="node22" class="node">
<title>mecadyn</title>
<polygon fill="none" stroke="black" points="619.06,-401 471.06,-401 471.06,-365 619.06,-365 619.06,-401"/>
<text text-anchor="middle" x="545.06" y="-379.3" font-family="Helvetica,Arial,sans-serif" font-size="14.00">MecaDynaStepSolver</text>
</g>
<!-- stepsolv&#45;&gt;mecadyn -->
<g id="edge3" class="edge">
<title>stepsolv&#45;&gt;mecadyn</title>
<path fill="none" stroke="black" d="M637.82,-452.82C616.24,-436.82 588.01,-415.87 568.39,-401.31"/>
<polygon fill="none" stroke="black" points="635.91,-455.76 646.02,-458.91 640.08,-450.14 635.91,-455.76"/>
</g>
<!-- ther -->
<g id="node23" class="node">
<title>ther</title>
<polygon fill="none" stroke="black" points="818.56,-401 685.56,-401 685.56,-365 818.56,-365 818.56,-401"/>
<text text-anchor="middle" x="752.06" y="-379.3" font-family="Helvetica,Arial,sans-serif" font-size="14.00">ThermalStepSolver</text>
</g>
<!-- stepsolv&#45;&gt;ther -->
<g id="edge4" class="edge">
<title>stepsolv&#45;&gt;ther</title>
<path fill="none" stroke="black" d="M691.71,-450.89C705.93,-435.12 723.9,-415.21 736.51,-401.23"/>
<polygon fill="none" stroke="black" points="688.77,-448.93 684.67,-458.7 693.96,-453.62 688.77,-448.93"/>
</g>
<!-- conv_criteria -->
<g id="node32" class="node">
<title>conv_criteria</title>
<polygon fill="none" stroke="black" points="1150.06,-401 1034.06,-401 1034.06,-365 1150.06,-365 1150.06,-401"/>
<text text-anchor="middle" x="1092.06" y="-379.3" font-family="Helvetica,Arial,sans-serif" font-size="14.00">IterationsSolver*</text>
</g>
<!-- stepsolv&#45;&gt;conv_criteria -->
<g id="edge33" class="edge">
<title>stepsolv&#45;&gt;conv_criteria</title>
<path fill="none" stroke="black" d="M901.06,-432.86C902.37,-432.58 903.7,-432.29 905.06,-432 926.19,-427.43 948.55,-422.11 970.18,-416.72"/>
<polygon fill="black" stroke="black" points="971.21,-420.07 980.06,-414.24 969.5,-413.28 971.21,-420.07"/>
</g>
<!-- statopers -->
<g id="node24" class="node">
<title>statopers</title>
<polygon fill="none" stroke="black" stroke-dasharray="5,2" points="275.56,-328 86.56,-328 86.56,-292 275.56,-292 275.56,-328"/>
<text text-anchor="middle" x="181.06" y="-306.3" font-family="Helvetica,Arial,sans-serif" font-size="14.00">MecaStatOperatorsManager</text>
</g>
<!-- mecastat&#45;&gt;statopers -->
<g id="edge5" class="edge">
<title>mecastat&#45;&gt;statopers</title>
<path fill="none" stroke="black" d="M267.12,-359.12C249.11,-349.04 228.31,-337.42 211.67,-328.11"/>
<polygon fill="black" stroke="black" points="267.16,-359.14 274.35,-358.57 277.64,-364.99 270.45,-365.56 267.16,-359.14"/>
<text text-anchor="middle" x="233.7" y="-350.38" font-family="Helvetica,Arial,sans-serif" font-size="14.00">use</text>
</g>
<!-- implicit -->
<g id="node27" class="node">
<title>implicit</title>
<polygon fill="none" stroke="black" points="692.56,-328 567.56,-328 567.56,-292 692.56,-292 692.56,-328"/>
<text text-anchor="middle" x="630.06" y="-306.3" font-family="Helvetica,Arial,sans-serif" font-size="14.00">ImplicitStepSolver</text>
</g>
<!-- mecadyn&#45;&gt;implicit -->
<g id="edge7" class="edge">
<title>mecadyn&#45;&gt;implicit</title>
<path fill="none" stroke="black" d="M573.52,-358.23C585.36,-348.33 598.84,-337.07 609.67,-328.03"/>
<polygon fill="none" stroke="black" points="571.06,-355.72 565.63,-364.81 575.55,-361.09 571.06,-355.72"/>
</g>
<!-- explicit -->
<g id="node28" class="node">
<title>explicit</title>
<polygon fill="none" stroke="black" points="418.56,-328 293.56,-328 293.56,-292 418.56,-292 418.56,-328"/>
<text text-anchor="middle" x="356.06" y="-306.3" font-family="Helvetica,Arial,sans-serif" font-size="14.00">ExplicitStepSolver</text>
</g>
<!-- mecadyn&#45;&gt;explicit -->
<g id="edge8" class="edge">
<title>mecadyn&#45;&gt;explicit</title>
<path fill="none" stroke="black" d="M490.11,-361.36C462.02,-350.81 428.23,-338.11 401.61,-328.11"/>
<polygon fill="none" stroke="black" points="489.19,-364.75 499.79,-364.99 491.65,-358.2 489.19,-364.75"/>
</g>
<!-- multi -->
<g id="node29" class="node">
<title>multi</title>
<polygon fill="none" stroke="black" points="549.06,-328 437.06,-328 437.06,-292 549.06,-292 549.06,-328"/>
<text text-anchor="middle" x="493.06" y="-306.3" font-family="Helvetica,Arial,sans-serif" font-size="14.00">MultiStepSolver</text>
</g>
<!-- mecadyn&#45;&gt;multi -->
<g id="edge9" class="edge">
<title>mecadyn&#45;&gt;multi</title>
<path fill="none" stroke="black" d="M526.38,-356.5C519.45,-347.04 511.77,-336.55 505.53,-328.03"/>
<polygon fill="none" stroke="black" points="523.74,-358.81 532.47,-364.81 529.38,-354.68 523.74,-358.81"/>
</g>
<!-- theropers -->
<g id="node25" class="node">
<title>theropers</title>
<polygon fill="none" stroke="black" stroke-dasharray="5,2" points="893.06,-328 711.06,-328 711.06,-292 893.06,-292 893.06,-328"/>
<text text-anchor="middle" x="802.06" y="-306.3" font-family="Helvetica,Arial,sans-serif" font-size="14.00">ThermalOperatorsManager</text>
</g>
<!-- ther&#45;&gt;theropers -->
<g id="edge6" class="edge">
<title>ther&#45;&gt;theropers</title>
<path fill="none" stroke="black" d="M771.24,-354.75C777.57,-345.77 784.43,-336.03 790.06,-328.03"/>
<polygon fill="black" stroke="black" points="771.07,-355 770.88,-362.21 764.16,-364.81 764.34,-357.6 771.07,-355"/>
<text text-anchor="middle" x="765.97" y="-350.42" font-family="Helvetica,Arial,sans-serif" font-size="14.00">use</text>
</g>
<!-- dynopers -->
<g id="node26" class="node">
<title>dynopers</title>
<polygon fill="none" stroke="black" stroke-dasharray="5,2" points="404.56,-255 207.56,-255 207.56,-219 404.56,-219 404.56,-255"/>
<text text-anchor="middle" x="306.06" y="-233.3" font-family="Helvetica,Arial,sans-serif" font-size="14.00">MecaDynaOperatorsManager</text>
</g>
<!-- integr -->
<g id="node30" class="node">
<title>integr</title>
<polygon fill="none" stroke="black" points="545.56,-255 440.56,-255 440.56,-219 545.56,-219 545.56,-255"/>
<text text-anchor="middle" x="493.06" y="-233.3" font-family="Helvetica,Arial,sans-serif" font-size="14.00">BaseIntegrator</text>
</g>
<!-- dynopers&#45;&gt;integr -->
<g id="edge13" class="edge">
<title>dynopers&#45;&gt;integr</title>
<path fill="none" stroke="black" d="M416.89,-237C424.67,-237 432.45,-237 440.23,-237"/>
<polygon fill="black" stroke="black" points="416.67,-237 410.67,-241 404.67,-237 410.67,-233 416.67,-237"/>
</g>
<!-- implicit&#45;&gt;integr -->
<g id="edge10" class="edge">
<title>implicit&#45;&gt;integr</title>
<path fill="none" stroke="black" d="M597.24,-291.99C578.57,-282.32 554.99,-270.1 534.99,-259.73"/>
<polygon fill="black" stroke="black" points="536.57,-256.61 526.08,-255.11 533.35,-262.82 536.57,-256.61"/>
</g>
<!-- explicit&#45;&gt;integr -->
<g id="edge11" class="edge">
<title>explicit&#45;&gt;integr</title>
<path fill="none" stroke="black" d="M388.87,-291.99C407.54,-282.32 431.12,-270.1 451.13,-259.73"/>
<polygon fill="black" stroke="black" points="452.77,-262.82 460.03,-255.11 449.54,-256.61 452.77,-262.82"/>
</g>
<!-- multi&#45;&gt;integr -->
<g id="edge12" class="edge">
<title>multi&#45;&gt;integr</title>
<path fill="none" stroke="black" d="M493.06,-291.81C493.06,-283.79 493.06,-274.05 493.06,-265.07"/>
<polygon fill="black" stroke="black" points="496.56,-265.03 493.06,-255.03 489.56,-265.03 496.56,-265.03"/>
</g>
<!-- newmark -->
<g id="node31" class="node">
<title>newmark</title>
<polygon fill="none" stroke="black" points="559.06,-182 427.06,-182 427.06,-146 559.06,-146 559.06,-182"/>
<text text-anchor="middle" x="493.06" y="-160.3" font-family="Helvetica,Arial,sans-serif" font-size="14.00">NewmarkIntegrator</text>
</g>
<!-- integr&#45;&gt;newmark -->
<g id="edge14" class="edge">
<title>integr&#45;&gt;newmark</title>
<path fill="none" stroke="black" d="M493.06,-208.75C493.06,-199.77 493.06,-190.03 493.06,-182.03"/>
<polygon fill="none" stroke="black" points="489.56,-208.81 493.06,-218.81 496.56,-208.81 489.56,-208.81"/>
</g>
<!-- conv_criteria&#45;&gt;linsolv -->
<g id="edge34" class="edge">
<title>conv_criteria&#45;&gt;linsolv</title>
<path fill="none" stroke="black" d="M1327.05,-328.34C1327.39,-328.23 1327.72,-328.11 1328.06,-328 1445.58,-287.91 1576.47,-221.27 1640.84,-186.94"/>
<polygon fill="black" stroke="black" points="1642.68,-189.92 1649.84,-182.11 1639.38,-183.75 1642.68,-189.92"/>
</g>
<!-- conv_criteria&#45;&gt;opers -->
<g id="edge35" class="edge">
<title>conv_criteria&#45;&gt;opers</title>
<path fill="none" stroke="black" d="M970.84,-320.38C956.25,-306.2 951.69,-296.99 945.06,-274 934.67,-238 967.2,-202.31 990.79,-182.02"/>
<polygon fill="black" stroke="black" points="971.24,-320.74 978.36,-321.87 980.06,-328.88 972.94,-327.75 971.24,-320.74"/>
<text text-anchor="middle" x="933.46" y="-251.3" font-family="Helvetica,Arial,sans-serif" font-size="14.00">use</text>
</g>
<!-- newton -->
<g id="node33" class="node">
<title>newton</title>
<polygon fill="none" stroke="black" points="1318.56,-328 1217.56,-328 1217.56,-292 1318.56,-292 1318.56,-328"/>
<text text-anchor="middle" x="1268.06" y="-306.3" font-family="Helvetica,Arial,sans-serif" font-size="14.00">NewtonSolver</text>
</g>
<!-- conv_criteria&#45;&gt;newton -->
<g id="edge15" class="edge">
<title>conv_criteria&#45;&gt;newton</title>
<path fill="none" stroke="black" stroke-dasharray="1,5" d="M1143.57,-361.22C1169.66,-350.69 1200.95,-338.07 1225.63,-328.11"/>
<polygon fill="none" stroke="black" points="1142.18,-358.01 1134.21,-364.99 1144.8,-364.5 1142.18,-358.01"/>
</g>
<!-- snes -->
<g id="node34" class="node">
<title>snes</title>
<polygon fill="none" stroke="black" points="1080.06,-328 988.06,-328 988.06,-292 1080.06,-292 1080.06,-328"/>
<text text-anchor="middle" x="1034.06" y="-306.3" font-family="Helvetica,Arial,sans-serif" font-size="14.00">SNESSolver</text>
</g>
<!-- conv_criteria&#45;&gt;snes -->
<g id="edge16" class="edge">
<title>conv_criteria&#45;&gt;snes</title>
<path fill="none" stroke="black" stroke-dasharray="1,5" d="M1071.46,-356.79C1063.67,-347.26 1055,-336.64 1047.97,-328.03"/>
<polygon fill="none" stroke="black" points="1068.98,-359.28 1078.02,-364.81 1074.4,-354.85 1068.98,-359.28"/>
</g>
<!-- raspen -->
<g id="node35" class="node">
<title>raspen</title>
<polygon fill="none" stroke="black" points="1199.56,-328 1098.56,-328 1098.56,-292 1199.56,-292 1199.56,-328"/>
<text text-anchor="middle" x="1149.06" y="-306.3" font-family="Helvetica,Arial,sans-serif" font-size="14.00">RaspenSolver</text>
</g>
<!-- conv_criteria&#45;&gt;raspen -->
<g id="edge17" class="edge">
<title>conv_criteria&#45;&gt;raspen</title>
<path fill="none" stroke="black" stroke-dasharray="1,5" d="M1112.29,-356.79C1119.95,-347.26 1128.47,-336.64 1135.38,-328.03"/>
<polygon fill="none" stroke="black" points="1109.38,-354.82 1105.85,-364.81 1114.84,-359.21 1109.38,-354.82"/>
</g>
<!-- newton&#45;&gt;conv_manager -->
<g id="edge38" class="edge">
<title>newton&#45;&gt;conv_manager</title>
<path fill="none" stroke="black" d="M1300.44,-291.92C1350.11,-265.72 1445.06,-215.64 1499.66,-186.84"/>
<polygon fill="black" stroke="black" points="1501.5,-189.82 1508.71,-182.06 1498.23,-183.63 1501.5,-189.82"/>
</g>
<!-- newton&#45;&gt;incr_solv -->
<g id="edge37" class="edge">
<title>newton&#45;&gt;incr_solv</title>
<path fill="none" stroke="black" d="M1273.62,-291.81C1276.25,-283.7 1279.45,-273.84 1282.38,-264.78"/>
<polygon fill="black" stroke="black" points="1285.79,-265.62 1285.54,-255.03 1279.13,-263.46 1285.79,-265.62"/>
</g>
<!-- snes&#45;&gt;problem -->
<g id="edge54" class="edge">
<title>snes&#45;&gt;problem</title>
<path fill="none" stroke="black" stroke-dasharray="1,5" d="M1012.4,-291.96C976.73,-261.7 912.11,-196.26 939.06,-138 959.58,-93.61 1005.73,-59.71 1039.45,-39.66"/>
<polygon fill="black" stroke="black" points="1041.26,-42.65 1048.17,-34.62 1037.76,-36.59 1041.26,-42.65"/>
</g>
<!-- snes&#45;&gt;incr_solv -->
<!-- raspen&#45;&gt;problem -->
<g id="edge55" class="edge">
<title>raspen&#45;&gt;problem</title>
<path fill="none" stroke="black" stroke-dasharray="1,5" d="M1147.54,-291.8C1146.41,-277.43 1145.06,-256.4 1145.06,-238 1145.06,-238 1145.06,-238 1145.06,-90 1145.06,-70.12 1131,-53.47 1115.87,-41.3"/>
<polygon fill="black" stroke="black" points="1117.54,-38.18 1107.43,-35.01 1113.35,-43.79 1117.54,-38.18"/>
</g>
</g>
</svg>
