<?xml version="1.0" encoding="UTF-8" standalone="no"?>
<!DOCTYPE svg PUBLIC "-//W3C//DTD SVG 1.1//EN"
 "http://www.w3.org/Graphics/SVG/1.1/DTD/svg11.dtd">
<!-- Generated by graphviz version 2.43.0 (0)
 -->
<!-- Title: MNL Pages: 1 -->
<svg width="1802pt" height="798pt"
 viewBox="0.00 0.00 1802.03 797.89" xmlns="http://www.w3.org/2000/svg" xmlns:xlink="http://www.w3.org/1999/xlink">
<g id="graph0" class="graph" transform="scale(1 1) rotate(0) translate(4 793.89)">
<title>MNL</title>
<polygon fill="white" stroke="transparent" points="-4,4 -4,-793.89 1798.03,-793.89 1798.03,4 -4,4"/>
<g id="clust2" class="cluster">
<title>cluster_operators</title>
<polygon fill="none" stroke="black" stroke-dasharray="5,2" points="433,-8 433,-279 934,-279 934,-8 433,-8"/>
</g>
<g id="clust5" class="cluster">
<title>cluster_stepsolv</title>
<polygon fill="none" stroke="black" stroke-dasharray="5,2" points="8,-373 8,-637.95 482,-637.95 482,-373 8,-373"/>
<text text-anchor="middle" x="245" y="-622.75" font-family="Helvetica,Arial,sans-serif" font-size="14.00">StepSolver</text>
</g>
<g id="clust8" class="cluster">
<title>cluster_iter_solv</title>
<polygon fill="none" stroke="black" stroke-dasharray="5,2" points="522,-373 522,-521 935,-521 935,-373 522,-373"/>
<text text-anchor="middle" x="728.5" y="-505.8" font-family="Helvetica,Arial,sans-serif" font-size="14.00">IterationsSolver</text>
</g>
<!-- keywords -->
<g id="node1" class="node">
<title>keywords</title>
<ellipse fill="none" stroke="black" cx="1716" cy="-472" rx="49.29" ry="18"/>
<text text-anchor="middle" x="1716" y="-468.3" font-family="Helvetica,Arial,sans-serif" font-size="14.00">Keywords</text>
</g>
<!-- problem -->
<g id="node2" class="node">
<title>problem</title>
<ellipse fill="none" stroke="black" cx="1022" cy="-472" rx="76.89" ry="18"/>
<text text-anchor="middle" x="1022" y="-468.3" font-family="Helvetica,Arial,sans-serif" font-size="14.00">PhysicalProblem</text>
</g>
<!-- type -->
<g id="node3" class="node">
<title>type</title>
<ellipse fill="none" stroke="black" cx="1325" cy="-472" rx="63.09" ry="18"/>
<text text-anchor="middle" x="1325" y="-468.3" font-family="Helvetica,Arial,sans-serif" font-size="14.00">ProblemType</text>
</g>
<!-- state -->
<g id="node4" class="node">
<title>state</title>
<ellipse fill="none" stroke="black" cx="1180" cy="-472" rx="63.89" ry="18"/>
<text text-anchor="middle" x="1180" y="-468.3" font-family="Helvetica,Arial,sans-serif" font-size="14.00">PhysicalState</text>
</g>
<!-- result -->
<g id="node5" class="node">
<title>result</title>
<ellipse fill="none" stroke="black" cx="1442" cy="-472" rx="36" ry="18"/>
<text text-anchor="middle" x="1442" y="-468.3" font-family="Helvetica,Arial,sans-serif" font-size="14.00">Result</text>
</g>
<!-- contact -->
<g id="node6" class="node">
<title>contact</title>
<polygon fill="none" stroke="black" points="1391.5,-344 1328.5,-344 1328.5,-308 1391.5,-308 1391.5,-344"/>
<text text-anchor="middle" x="1360" y="-322.3" font-family="Helvetica,Arial,sans-serif" font-size="14.00">Contact</text>
</g>
<!-- linsolv -->
<g id="node7" class="node">
<title>linsolv</title>
<polygon fill="none" stroke="black" points="1527,-344 1435,-344 1435,-308 1527,-308 1527,-344"/>
<text text-anchor="middle" x="1481" y="-322.3" font-family="Helvetica,Arial,sans-serif" font-size="14.00">LinearSolver</text>
</g>
<!-- context -->
<g id="node8" class="node">
<title>context</title>
<ellipse fill="none" stroke="black" cx="1249" cy="-588.95" rx="40.89" ry="40.89"/>
<text text-anchor="middle" x="1249" y="-585.25" font-family="Helvetica,Arial,sans-serif" font-size="14.00">Context</text>
</g>
<!-- context&#45;&gt;keywords -->
<g id="edge3" class="edge">
<title>context&#45;&gt;keywords</title>
<path fill="none" stroke="black" d="M1278.06,-559.95C1284.51,-555.17 1291.64,-550.83 1299,-548 1360.71,-524.26 1531.97,-546.49 1596,-530 1626.96,-522.03 1659.57,-505.98 1682.97,-492.94"/>
<polygon fill="black" stroke="black" points="1684.81,-495.92 1691.77,-487.93 1681.35,-489.83 1684.81,-495.92"/>
</g>
<!-- context&#45;&gt;problem -->
<g id="edge1" class="edge">
<title>context&#45;&gt;problem</title>
<path fill="none" stroke="black" d="M1211.86,-571.34C1183,-558.22 1142.1,-539.16 1107,-521 1090.67,-512.55 1072.92,-502.65 1057.88,-494.03"/>
<polygon fill="black" stroke="black" points="1059.31,-490.82 1048.9,-488.86 1055.82,-496.89 1059.31,-490.82"/>
</g>
<!-- context&#45;&gt;type -->
<g id="edge2" class="edge">
<title>context&#45;&gt;type</title>
<path fill="none" stroke="black" d="M1271.19,-554.39C1283.02,-536.5 1297.33,-514.84 1308.23,-498.37"/>
<polygon fill="black" stroke="black" points="1311.29,-500.08 1313.89,-489.81 1305.45,-496.22 1311.29,-500.08"/>
</g>
<!-- context&#45;&gt;state -->
<g id="edge4" class="edge">
<title>context&#45;&gt;state</title>
<path fill="none" stroke="black" d="M1234.85,-550.42C1231.62,-543.14 1227.96,-535.7 1224,-529 1217.58,-518.13 1209.28,-507.03 1201.63,-497.6"/>
<polygon fill="black" stroke="black" points="1204.22,-495.24 1195.13,-489.8 1198.84,-499.72 1204.22,-495.24"/>
</g>
<!-- context&#45;&gt;result -->
<g id="edge5" class="edge">
<title>context&#45;&gt;result</title>
<path fill="none" stroke="black" d="M1278.86,-560.92C1285.19,-556.12 1292.07,-551.53 1299,-548 1339.25,-527.48 1358.33,-544.35 1397,-521 1407.08,-514.91 1416.33,-505.95 1423.8,-497.41"/>
<polygon fill="black" stroke="black" points="1426.7,-499.4 1430.37,-489.46 1421.3,-494.94 1426.7,-499.4"/>
</g>
<!-- context&#45;&gt;contact -->
<g id="edge7" class="edge">
<title>context&#45;&gt;contact</title>
<path fill="none" stroke="black" d="M1278.52,-560.22C1284.89,-555.47 1291.86,-551.09 1299,-548 1337.74,-531.24 1459.36,-552.9 1487,-521 1535.95,-464.52 1447.1,-387.92 1394.58,-350.1"/>
<polygon fill="black" stroke="black" points="1396.36,-347.07 1386.17,-344.15 1392.32,-352.78 1396.36,-347.07"/>
</g>
<!-- context&#45;&gt;linsolv -->
<g id="edge8" class="edge">
<title>context&#45;&gt;linsolv</title>
<path fill="none" stroke="black" d="M1278.14,-560.15C1284.58,-555.35 1291.69,-550.96 1299,-548 1342.42,-530.44 1482.96,-560.57 1508,-521 1541.02,-468.82 1513.6,-393.04 1494.88,-353.4"/>
<polygon fill="black" stroke="black" points="1497.89,-351.59 1490.35,-344.14 1491.6,-354.66 1497.89,-351.59"/>
</g>
<!-- operators -->
<g id="node9" class="node">
<title>operators</title>
<polygon fill="none" stroke="black" stroke-dasharray="5,2" points="682,-271 562,-271 562,-235 682,-235 682,-271"/>
<text text-anchor="middle" x="622" y="-249.3" font-family="Helvetica,Arial,sans-serif" font-size="14.00">Operators {abstr}</text>
</g>
<!-- context&#45;&gt;operators -->
<g id="edge6" class="edge">
<title>context&#45;&gt;operators</title>
<path fill="none" stroke="black" d="M1278.11,-560.09C1284.56,-555.29 1291.67,-550.92 1299,-548 1419.89,-499.86 1582,-603.12 1582,-473 1582,-473 1582,-473 1582,-325 1582,-278.47 824.82,-285.76 719.04,-279.86"/>
<polygon fill="black" stroke="black" points="719.26,-276.36 709,-279 718.67,-283.34 719.26,-276.36"/>
</g>
<!-- mixin_oper -->
<g id="node17" class="node">
<title>mixin_oper</title>
<polygon fill="none" stroke="black" stroke-dasharray="5,2" points="920,-271 718,-271 718,-235 926,-235 926,-265 920,-271"/>
<polyline fill="none" stroke="black" stroke-dasharray="5,2" points="920,-271 920,-265 "/>
<polyline fill="none" stroke="black" stroke-dasharray="5,2" points="926,-265 920,-265 "/>
<text text-anchor="middle" x="822" y="-249.3" font-family="Helvetica,Arial,sans-serif" font-size="14.00">ContextMixin + DispatcherMixin</text>
</g>
<!-- operators&#45;&gt;mixin_oper -->
<g id="edge9" class="edge">
<title>operators&#45;&gt;mixin_oper</title>
<path fill="none" stroke="black" stroke-dasharray="5,2" d="M692.22,-253C700.79,-253 709.36,-253 717.94,-253"/>
<polygon fill="none" stroke="black" points="692.16,-249.5 682.16,-253 692.16,-256.5 692.16,-249.5"/>
</g>
<!-- statopers -->
<g id="node18" class="node">
<title>statopers</title>
<polygon fill="none" stroke="black" points="576.5,-198 441.5,-198 441.5,-162 576.5,-162 576.5,-198"/>
<text text-anchor="middle" x="509" y="-176.3" font-family="Helvetica,Arial,sans-serif" font-size="14.00">MecaStatOperators</text>
</g>
<!-- operators&#45;&gt;statopers -->
<g id="edge10" class="edge">
<title>operators&#45;&gt;statopers</title>
<path fill="none" stroke="black" d="M586.26,-229.54C570.07,-219.37 551.25,-207.55 536.24,-198.11"/>
<polygon fill="none" stroke="black" points="584.6,-232.64 594.93,-234.99 588.33,-226.71 584.6,-232.64"/>
</g>
<!-- theropers -->
<g id="node19" class="node">
<title>theropers</title>
<polygon fill="none" stroke="black" points="723,-198 595,-198 595,-162 723,-162 723,-198"/>
<text text-anchor="middle" x="659" y="-176.3" font-family="Helvetica,Arial,sans-serif" font-size="14.00">ThermalOperators</text>
</g>
<!-- operators&#45;&gt;theropers -->
<g id="edge12" class="edge">
<title>operators&#45;&gt;theropers</title>
<path fill="none" stroke="black" d="M635.59,-225.92C640.44,-216.61 645.78,-206.38 650.13,-198.03"/>
<polygon fill="none" stroke="black" points="632.47,-224.33 630.96,-234.81 638.68,-227.56 632.47,-224.33"/>
</g>
<!-- dynopers -->
<g id="node20" class="node">
<title>dynopers</title>
<polygon fill="none" stroke="black" stroke-dasharray="5,2" points="926.5,-198 741.5,-198 741.5,-162 926.5,-162 926.5,-198"/>
<text text-anchor="middle" x="834" y="-176.3" font-family="Helvetica,Arial,sans-serif" font-size="14.00">MecaDynaOperators {abstr}</text>
</g>
<!-- operators&#45;&gt;dynopers -->
<g id="edge11" class="edge">
<title>operators&#45;&gt;dynopers</title>
<path fill="none" stroke="black" d="M682.4,-231.77C714.15,-221.14 752.65,-208.25 782.9,-198.11"/>
<polygon fill="none" stroke="black" points="681.15,-228.5 672.78,-234.99 683.37,-235.14 681.15,-228.5"/>
</g>
<!-- mnl -->
<g id="node10" class="node">
<title>mnl</title>
<polygon fill="none" stroke="black" points="1318,-789.89 1180,-789.89 1180,-753.89 1318,-753.89 1318,-789.89"/>
<text text-anchor="middle" x="1249" y="-768.19" font-family="Helvetica,Arial,sans-serif" font-size="14.00">meca_non_line_ops</text>
</g>
<!-- mnl&#45;&gt;keywords -->
<g id="edge30" class="edge">
<title>mnl&#45;&gt;keywords</title>
<path fill="none" stroke="black" stroke-width="2" d="M1318.25,-763.93C1448.63,-749.24 1722.55,-710.31 1779,-637.95 1803.59,-606.43 1792.68,-585.56 1779,-548 1771.68,-527.91 1756.36,-509.47 1742.66,-495.9"/>
<polygon fill="black" stroke="black" stroke-width="2" points="1744.93,-493.23 1735.27,-488.88 1740.11,-498.3 1744.93,-493.23"/>
<text text-anchor="middle" x="1525.08" y="-732.54" font-family="Helvetica,Arial,sans-serif" font-size="14.00">creates</text>
</g>
<!-- mnl&#45;&gt;problem -->
<g id="edge31" class="edge">
<title>mnl&#45;&gt;problem</title>
<path fill="none" stroke="black" stroke-width="2" d="M1179.98,-771.47C1015.94,-771.22 610.14,-760.54 526,-662.89 399.3,-515.86 761.09,-598.58 939,-521 955.93,-513.62 973.78,-503.62 988.57,-494.65"/>
<polygon fill="black" stroke="black" stroke-width="2" points="990.67,-497.47 997.35,-489.24 987,-491.51 990.67,-497.47"/>
<text text-anchor="middle" x="1063.04" y="-774.05" font-family="Helvetica,Arial,sans-serif" font-size="14.00">creates</text>
</g>
<!-- pbsolv -->
<g id="node11" class="node">
<title>pbsolv</title>
<polygon fill="none" stroke="black" points="1302,-716.89 1196,-716.89 1196,-680.89 1302,-680.89 1302,-716.89"/>
<text text-anchor="middle" x="1249" y="-695.19" font-family="Helvetica,Arial,sans-serif" font-size="14.00">ProblemSolver</text>
</g>
<!-- mnl&#45;&gt;pbsolv -->
<g id="edge29" class="edge">
<title>mnl&#45;&gt;pbsolv</title>
<path fill="none" stroke="black" d="M1249,-753.71C1249,-745.68 1249,-735.94 1249,-726.96"/>
<polygon fill="black" stroke="black" points="1252.5,-726.92 1249,-716.92 1245.5,-726.92 1252.5,-726.92"/>
</g>
<!-- pbsolv&#45;&gt;state -->
<g id="edge33" class="edge">
<title>pbsolv&#45;&gt;state</title>
<path fill="none" stroke="black" stroke-width="2" d="M1229.88,-680.64C1218.92,-669.58 1205.99,-654.26 1199,-637.95 1179.53,-592.52 1177.62,-533.96 1178.48,-500.23"/>
<polygon fill="black" stroke="black" stroke-width="2" points="1181.98,-500.32 1178.84,-490.2 1174.98,-500.07 1181.98,-500.32"/>
<text text-anchor="middle" x="1162.26" y="-592.96" font-family="Helvetica,Arial,sans-serif" font-size="14.00">creates</text>
</g>
<!-- pbsolv&#45;&gt;context -->
<g id="edge32" class="edge">
<title>pbsolv&#45;&gt;context</title>
<path fill="none" stroke="black" d="M1249,-670.5C1249,-658.25 1249,-643.57 1249,-630.11"/>
<polygon fill="none" stroke="black" points="1245.5,-670.55 1249,-680.55 1252.5,-670.55 1245.5,-670.55"/>
</g>
<!-- pbsolv&#45;&gt;operators -->
<g id="edge34" class="edge">
<title>pbsolv&#45;&gt;operators</title>
<path fill="none" stroke="black" stroke-width="2" d="M1195.82,-692.44C1043.83,-675.76 612.42,-620.4 518,-521 491.52,-493.13 502,-474.44 502,-436 502,-436 502,-436 502,-325 502,-307.7 511.35,-294.53 524.83,-284.53"/>
<polygon fill="black" stroke="black" stroke-width="2" points="526.79,-287.43 533.21,-279 522.93,-281.59 526.79,-287.43"/>
<text text-anchor="middle" x="810.79" y="-641.12" font-family="Helvetica,Arial,sans-serif" font-size="14.00">creates</text>
</g>
<!-- timestepper -->
<g id="node12" class="node">
<title>timestepper</title>
<polygon fill="none" stroke="black" points="1402.5,-606.95 1307.5,-606.95 1307.5,-570.95 1402.5,-570.95 1402.5,-606.95"/>
<text text-anchor="middle" x="1355" y="-585.25" font-family="Helvetica,Arial,sans-serif" font-size="14.00">TimeStepper</text>
</g>
<!-- pbsolv&#45;&gt;timestepper -->
<g id="edge35" class="edge">
<title>pbsolv&#45;&gt;timestepper</title>
<path fill="none" stroke="black" d="M1266.03,-680.55C1283.57,-662.69 1311.06,-634.69 1330.84,-614.55"/>
<polygon fill="black" stroke="black" points="1333.5,-616.83 1338.01,-607.25 1328.51,-611.93 1333.5,-616.83"/>
</g>
<!-- storage -->
<g id="node13" class="node">
<title>storage</title>
<polygon fill="none" stroke="black" points="1648,-606.95 1530,-606.95 1530,-570.95 1648,-570.95 1648,-606.95"/>
<text text-anchor="middle" x="1589" y="-585.25" font-family="Helvetica,Arial,sans-serif" font-size="14.00">StorageManager</text>
</g>
<!-- pbsolv&#45;&gt;storage -->
<g id="edge36" class="edge">
<title>pbsolv&#45;&gt;storage</title>
<path fill="none" stroke="black" d="M1302.06,-692.51C1358.34,-685.38 1448.9,-669.78 1521,-637.95 1535.15,-631.7 1549.35,-622.29 1561.09,-613.45"/>
<polygon fill="black" stroke="black" points="1563.42,-616.07 1569.17,-607.16 1559.12,-610.54 1563.42,-616.07"/>
</g>
<!-- hook -->
<g id="node14" class="node">
<title>hook</title>
<polygon fill="none" stroke="black" points="1769.5,-606.95 1666.5,-606.95 1666.5,-570.95 1769.5,-570.95 1769.5,-606.95"/>
<text text-anchor="middle" x="1718" y="-585.25" font-family="Helvetica,Arial,sans-serif" font-size="14.00">PostStepHook</text>
</g>
<!-- pbsolv&#45;&gt;hook -->
<g id="edge38" class="edge">
<title>pbsolv&#45;&gt;hook</title>
<path fill="none" stroke="black" stroke-dasharray="5,2" d="M1302.23,-698.67C1382.45,-697.99 1537.65,-689.34 1657,-637.95 1670.31,-632.21 1683.21,-622.82 1693.69,-613.86"/>
<polygon fill="black" stroke="black" points="1696.07,-616.43 1701.2,-607.16 1691.41,-611.21 1696.07,-616.43"/>
<text text-anchor="middle" x="1638.5" y="-651.69" font-family="Helvetica,Arial,sans-serif" font-size="14.00">todo</text>
</g>
<!-- stepsolv -->
<g id="node26" class="node">
<title>stepsolv</title>
<polygon fill="none" stroke="black" stroke-dasharray="5,2" points="230,-606.95 74,-606.95 74,-570.95 230,-570.95 230,-606.95"/>
<text text-anchor="middle" x="152" y="-585.25" font-family="Helvetica,Arial,sans-serif" font-size="14.00">BaseStepSolver {abstr}</text>
</g>
<!-- pbsolv&#45;&gt;stepsolv -->
<g id="edge37" class="edge">
<title>pbsolv&#45;&gt;stepsolv</title>
<path fill="none" stroke="black" stroke-width="2" d="M1195.86,-697.46C1019.94,-695.62 456.9,-686.19 266.84,-640.44"/>
<polygon fill="black" stroke="black" stroke-width="2" points="267.55,-637.01 257,-637.95 265.84,-643.79 267.55,-637.01"/>
<text text-anchor="middle" x="668.72" y="-688.72" font-family="Helvetica,Arial,sans-serif" font-size="14.00">loops on timesteps</text>
</g>
<!-- observ -->
<g id="node15" class="node">
<title>observ</title>
<polygon fill="none" stroke="black" stroke-dasharray="5,2" points="1506,-606.95 1438,-606.95 1438,-570.95 1512,-570.95 1512,-600.95 1506,-606.95"/>
<polyline fill="none" stroke="black" stroke-dasharray="5,2" points="1506,-606.95 1506,-600.95 "/>
<polyline fill="none" stroke="black" stroke-dasharray="5,2" points="1512,-600.95 1506,-600.95 "/>
<text text-anchor="middle" x="1475" y="-585.25" font-family="Helvetica,Arial,sans-serif" font-size="14.00">Observer</text>
</g>
<!-- timestepper&#45;&gt;observ -->
<g id="edge55" class="edge">
<title>timestepper&#45;&gt;observ</title>
<path fill="none" stroke="black" stroke-dasharray="5,2" d="M1412.92,-588.95C1421.21,-588.95 1429.49,-588.95 1437.78,-588.95"/>
<polygon fill="none" stroke="black" points="1412.81,-585.45 1402.81,-588.95 1412.81,-592.45 1412.81,-585.45"/>
</g>
<!-- event -->
<g id="node16" class="node">
<title>event</title>
<polygon fill="none" stroke="black" stroke-dasharray="5,2" points="1261,-344 1173,-344 1173,-308 1267,-308 1267,-338 1261,-344"/>
<polyline fill="none" stroke="black" stroke-dasharray="5,2" points="1261,-344 1261,-338 "/>
<polyline fill="none" stroke="black" stroke-dasharray="5,2" points="1267,-338 1261,-338 "/>
<text text-anchor="middle" x="1220" y="-322.3" font-family="Helvetica,Arial,sans-serif" font-size="14.00">EventSource</text>
</g>
<!-- integr -->
<g id="node21" class="node">
<title>integr</title>
<polygon fill="none" stroke="black" points="546.5,-125 441.5,-125 441.5,-89 546.5,-89 546.5,-125"/>
<text text-anchor="middle" x="494" y="-103.3" font-family="Helvetica,Arial,sans-serif" font-size="14.00">BaseIntegrator</text>
</g>
<!-- dynopers&#45;&gt;integr -->
<g id="edge13" class="edge">
<title>dynopers&#45;&gt;integr</title>
<path fill="none" stroke="black" d="M742.66,-159.93C679.96,-146.83 598.95,-129.92 546.73,-119.01"/>
<polygon fill="none" stroke="black" points="742.06,-163.38 752.56,-161.99 743.49,-156.52 742.06,-163.38"/>
</g>
<!-- newmark -->
<g id="node22" class="node">
<title>newmark</title>
<polygon fill="none" stroke="black" points="573,-52 441,-52 441,-16 573,-16 573,-52"/>
<text text-anchor="middle" x="507" y="-30.3" font-family="Helvetica,Arial,sans-serif" font-size="14.00">NewmarkIntegrator</text>
</g>
<!-- integr&#45;&gt;newmark -->
<g id="edge14" class="edge">
<title>integr&#45;&gt;newmark</title>
<path fill="none" stroke="black" d="M498.99,-78.75C500.63,-69.77 502.42,-60.03 503.88,-52.03"/>
<polygon fill="none" stroke="black" points="495.51,-78.35 497.15,-88.81 502.39,-79.61 495.51,-78.35"/>
</g>
<!-- mecastat -->
<g id="node23" class="node">
<title>mecastat</title>
<polygon fill="none" stroke="black" points="308,-490 168,-490 168,-454 308,-454 308,-490"/>
<text text-anchor="middle" x="238" y="-468.3" font-family="Helvetica,Arial,sans-serif" font-size="14.00">MecaStatStepSolver</text>
</g>
<!-- mecadyn -->
<g id="node24" class="node">
<title>mecadyn</title>
<polygon fill="none" stroke="black" points="474,-490 326,-490 326,-454 474,-454 474,-490"/>
<text text-anchor="middle" x="400" y="-468.3" font-family="Helvetica,Arial,sans-serif" font-size="14.00">MecaDynaStepSolver</text>
</g>
<!-- implicit -->
<g id="node28" class="node">
<title>implicit</title>
<polygon fill="none" stroke="black" points="330.5,-417 205.5,-417 205.5,-381 330.5,-381 330.5,-417"/>
<text text-anchor="middle" x="268" y="-395.3" font-family="Helvetica,Arial,sans-serif" font-size="14.00">ImplicitStepSolver</text>
</g>
<!-- mecadyn&#45;&gt;implicit -->
<g id="edge19" class="edge">
<title>mecadyn&#45;&gt;implicit</title>
<path fill="none" stroke="black" d="M359.55,-449.24C340.36,-438.92 317.76,-426.77 299.82,-417.11"/>
<polygon fill="none" stroke="black" points="357.92,-452.34 368.38,-453.99 361.23,-446.17 357.92,-452.34"/>
</g>
<!-- explicit -->
<g id="node29" class="node">
<title>explicit</title>
<polygon fill="none" stroke="black" points="473.5,-417 348.5,-417 348.5,-381 473.5,-381 473.5,-417"/>
<text text-anchor="middle" x="411" y="-395.3" font-family="Helvetica,Arial,sans-serif" font-size="14.00">ExplicitStepSolver</text>
</g>
<!-- mecadyn&#45;&gt;explicit -->
<g id="edge20" class="edge">
<title>mecadyn&#45;&gt;explicit</title>
<path fill="none" stroke="black" d="M404.22,-443.75C405.61,-434.77 407.12,-425.03 408.36,-417.03"/>
<polygon fill="none" stroke="black" points="400.74,-443.39 402.66,-453.81 407.65,-444.47 400.74,-443.39"/>
</g>
<!-- multi -->
<g id="node30" class="node">
<title>multi</title>
<polygon fill="none" stroke="black" points="187,-417 75,-417 75,-381 187,-381 187,-417"/>
<text text-anchor="middle" x="131" y="-395.3" font-family="Helvetica,Arial,sans-serif" font-size="14.00">MultiStepSolver</text>
</g>
<!-- mecadyn&#45;&gt;multi -->
<g id="edge21" class="edge">
<title>mecadyn&#45;&gt;multi</title>
<path fill="none" stroke="black" d="M325.82,-451.42C282,-439.85 227.4,-425.44 187.16,-414.82"/>
<polygon fill="none" stroke="black" points="325.01,-454.83 335.57,-453.99 326.79,-448.06 325.01,-454.83"/>
</g>
<!-- ther -->
<g id="node25" class="node">
<title>ther</title>
<polygon fill="none" stroke="black" points="149.5,-490 16.5,-490 16.5,-454 149.5,-454 149.5,-490"/>
<text text-anchor="middle" x="83" y="-468.3" font-family="Helvetica,Arial,sans-serif" font-size="14.00">ThermalStepSolver</text>
</g>
<!-- stepsolv&#45;&gt;mecastat -->
<g id="edge16" class="edge">
<title>stepsolv&#45;&gt;mecastat</title>
<path fill="none" stroke="black" d="M171.21,-562.27C187.63,-540.32 210.81,-509.34 225.1,-490.25"/>
<polygon fill="none" stroke="black" points="168.25,-560.38 165.06,-570.49 173.85,-564.58 168.25,-560.38"/>
</g>
<!-- stepsolv&#45;&gt;mecadyn -->
<g id="edge17" class="edge">
<title>stepsolv&#45;&gt;mecadyn</title>
<path fill="none" stroke="black" d="M208.7,-567.18C240.93,-554.83 281.77,-538.23 317,-521 335.99,-511.71 356.57,-499.83 372.48,-490.21"/>
<polygon fill="none" stroke="black" points="207.09,-564.05 198.98,-570.88 209.58,-570.59 207.09,-564.05"/>
</g>
<!-- stepsolv&#45;&gt;ther -->
<g id="edge18" class="edge">
<title>stepsolv&#45;&gt;ther</title>
<path fill="none" stroke="black" d="M136.24,-561.69C123.08,-539.78 104.71,-509.17 93.35,-490.25"/>
<polygon fill="none" stroke="black" points="133.37,-563.72 141.52,-570.49 139.37,-560.11 133.37,-563.72"/>
</g>
<!-- mixin_step -->
<g id="node27" class="node">
<title>mixin_step</title>
<polygon fill="none" stroke="black" stroke-dasharray="5,2" points="468,-606.95 266,-606.95 266,-570.95 474,-570.95 474,-600.95 468,-606.95"/>
<polyline fill="none" stroke="black" stroke-dasharray="5,2" points="468,-606.95 468,-600.95 "/>
<polyline fill="none" stroke="black" stroke-dasharray="5,2" points="474,-600.95 468,-600.95 "/>
<text text-anchor="middle" x="370" y="-585.25" font-family="Helvetica,Arial,sans-serif" font-size="14.00">ContextMixin + DispatcherMixin</text>
</g>
<!-- stepsolv&#45;&gt;mixin_step -->
<g id="edge15" class="edge">
<title>stepsolv&#45;&gt;mixin_step</title>
<path fill="none" stroke="black" stroke-dasharray="5,2" d="M240.59,-588.95C249,-588.95 257.4,-588.95 265.8,-588.95"/>
<polygon fill="none" stroke="black" points="240.34,-585.45 230.34,-588.95 240.34,-592.45 240.34,-585.45"/>
</g>
<!-- iter_solver -->
<g id="node31" class="node">
<title>iter_solver</title>
<polygon fill="none" stroke="black" stroke-dasharray="5,2" points="683.5,-490 530.5,-490 530.5,-454 683.5,-454 683.5,-490"/>
<text text-anchor="middle" x="607" y="-468.3" font-family="Helvetica,Arial,sans-serif" font-size="14.00">IterationsSolver {abstr}</text>
</g>
<!-- stepsolv&#45;&gt;iter_solver -->
<g id="edge39" class="edge">
<title>stepsolv&#45;&gt;iter_solver</title>
<path fill="none" stroke="black" d="M482,-521.99C483.32,-521.67 484.65,-521.34 486,-521 494.69,-518.8 503.6,-516.13 512.44,-513.19"/>
<polygon fill="black" stroke="black" points="513.68,-516.47 522,-509.9 511.41,-509.85 513.68,-516.47"/>
</g>
<!-- implicit&#45;&gt;integr -->
<g id="edge22" class="edge">
<title>implicit&#45;&gt;integr</title>
<path fill="none" stroke="black" d="M291.21,-380.83C305.85,-367.88 322,-348.68 322,-327 322,-327 322,-327 322,-179 322,-130.04 382.29,-114.16 431.47,-109.36"/>
<polygon fill="black" stroke="black" points="431.79,-112.85 441.46,-108.52 431.2,-105.87 431.79,-112.85"/>
</g>
<!-- explicit&#45;&gt;integr -->
<g id="edge23" class="edge">
<title>explicit&#45;&gt;integr</title>
<path fill="none" stroke="black" d="M411.38,-380.78C411.66,-366.41 412,-345.37 412,-327 412,-327 412,-327 412,-179 412,-158.12 427.38,-142.01 444.81,-130.46"/>
<polygon fill="black" stroke="black" points="446.78,-133.36 453.48,-125.15 443.12,-127.39 446.78,-133.36"/>
</g>
<!-- multi&#45;&gt;integr -->
<g id="edge24" class="edge">
<title>multi&#45;&gt;integr</title>
<path fill="none" stroke="black" d="M168.15,-380.79C187.84,-368.85 208,-350.82 208,-327 208,-327 208,-327 208,-179 208,-133.34 347.04,-116.84 431.23,-111.03"/>
<polygon fill="black" stroke="black" points="431.46,-114.52 441.21,-110.37 431,-107.54 431.46,-114.52"/>
</g>
<!-- iter_solver&#45;&gt;linsolv -->
<g id="edge40" class="edge">
<title>iter_solver&#45;&gt;linsolv</title>
<path fill="none" stroke="black" d="M935,-447.42C1088.26,-446.68 1263.3,-445.67 1348,-417 1389.22,-403.04 1429.63,-372.64 1454.88,-351.04"/>
<polygon fill="black" stroke="black" points="1457.3,-353.58 1462.53,-344.37 1452.69,-348.31 1457.3,-353.58"/>
</g>
<!-- iter_solver&#45;&gt;operators -->
<g id="edge41" class="edge">
<title>iter_solver&#45;&gt;operators</title>
<path fill="none" stroke="black" d="M886.81,-373C885.27,-349.96 869.27,-327.84 846,-308 801.33,-269.9 772.76,-291.27 718.97,-281.18"/>
<polygon fill="black" stroke="black" points="719.52,-277.71 709,-279 718.02,-284.55 719.52,-277.71"/>
</g>
<!-- mixin_iter -->
<g id="node32" class="node">
<title>mixin_iter</title>
<polygon fill="none" stroke="black" stroke-dasharray="5,2" points="921,-490 719,-490 719,-454 927,-454 927,-484 921,-490"/>
<polyline fill="none" stroke="black" stroke-dasharray="5,2" points="921,-490 921,-484 "/>
<polyline fill="none" stroke="black" stroke-dasharray="5,2" points="927,-484 921,-484 "/>
<text text-anchor="middle" x="823" y="-468.3" font-family="Helvetica,Arial,sans-serif" font-size="14.00">ContextMixin + DispatcherMixin</text>
</g>
<!-- iter_solver&#45;&gt;mixin_iter -->
<g id="edge25" class="edge">
<title>iter_solver&#45;&gt;mixin_iter</title>
<path fill="none" stroke="black" stroke-dasharray="5,2" d="M693.92,-472C702.23,-472 710.55,-472 718.86,-472"/>
<polygon fill="none" stroke="black" points="693.78,-468.5 683.78,-472 693.78,-475.5 693.78,-468.5"/>
</g>
<!-- newton -->
<g id="node33" class="node">
<title>newton</title>
<polygon fill="none" stroke="black" points="631.5,-417 530.5,-417 530.5,-381 631.5,-381 631.5,-417"/>
<text text-anchor="middle" x="581" y="-395.3" font-family="Helvetica,Arial,sans-serif" font-size="14.00">NewtonSolver</text>
</g>
<!-- iter_solver&#45;&gt;newton -->
<g id="edge26" class="edge">
<title>iter_solver&#45;&gt;newton</title>
<path fill="none" stroke="black" d="M597.24,-444.34C593.89,-435.19 590.23,-425.2 587.24,-417.03"/>
<polygon fill="none" stroke="black" points="593.98,-445.63 600.71,-453.81 600.55,-443.22 593.98,-445.63"/>
</g>
<!-- snes -->
<g id="node34" class="node">
<title>snes</title>
<polygon fill="none" stroke="black" points="742,-417 650,-417 650,-381 742,-381 742,-417"/>
<text text-anchor="middle" x="696" y="-395.3" font-family="Helvetica,Arial,sans-serif" font-size="14.00">SNESSolver</text>
</g>
<!-- iter_solver&#45;&gt;snes -->
<g id="edge27" class="edge">
<title>iter_solver&#45;&gt;snes</title>
<path fill="none" stroke="black" d="M636.44,-447.51C648.93,-437.55 663.21,-426.16 674.65,-417.03"/>
<polygon fill="none" stroke="black" points="634.18,-444.84 628.54,-453.81 638.54,-450.31 634.18,-444.84"/>
</g>
<!-- raspen -->
<g id="node35" class="node">
<title>raspen</title>
<polygon fill="none" stroke="black" points="861.5,-417 760.5,-417 760.5,-381 861.5,-381 861.5,-417"/>
<text text-anchor="middle" x="811" y="-395.3" font-family="Helvetica,Arial,sans-serif" font-size="14.00">RaspenSolver</text>
</g>
<!-- iter_solver&#45;&gt;raspen -->
<g id="edge28" class="edge">
<title>iter_solver&#45;&gt;raspen</title>
<path fill="none" stroke="black" d="M665.52,-450.63C695.99,-440.03 732.84,-427.2 761.83,-417.11"/>
<polygon fill="none" stroke="black" points="664.16,-447.4 655.86,-453.99 666.46,-454.01 664.16,-447.4"/>
</g>
<!-- incr_solv -->
<g id="node36" class="node">
<title>incr_solv</title>
<polygon fill="none" stroke="black" points="1208,-417 1082,-417 1082,-381 1208,-381 1208,-417"/>
<text text-anchor="middle" x="1145" y="-395.3" font-family="Helvetica,Arial,sans-serif" font-size="14.00">IncrementalSolver</text>
</g>
<!-- newton&#45;&gt;incr_solv -->
<g id="edge42" class="edge">
<title>newton&#45;&gt;incr_solv</title>
<path fill="none" stroke="black" d="M607.95,-417.18C620.22,-424.4 635.27,-431.84 650,-435.5 796.55,-471.87 974.4,-441.35 1072.04,-418.47"/>
<polygon fill="black" stroke="black" points="1072.89,-421.86 1081.81,-416.14 1071.27,-415.05 1072.89,-421.86"/>
</g>
<!-- linesearch -->
<g id="node37" class="node">
<title>linesearch</title>
<polygon fill="none" stroke="black" points="985.5,-344 900.5,-344 900.5,-308 985.5,-308 985.5,-344"/>
<text text-anchor="middle" x="943" y="-322.3" font-family="Helvetica,Arial,sans-serif" font-size="14.00">LineSearch</text>
</g>
<!-- newton&#45;&gt;linesearch -->
<g id="edge43" class="edge">
<title>newton&#45;&gt;linesearch</title>
<path fill="none" stroke="black" d="M617.93,-380.89C625.44,-377.91 633.38,-375.09 641,-373 729.74,-348.66 755.11,-358.39 846,-344 860.27,-341.74 875.68,-339.12 889.94,-336.63"/>
<polygon fill="black" stroke="black" points="890.84,-340.02 900.08,-334.84 889.62,-333.13 890.84,-340.02"/>
</g>
<!-- conv_manager -->
<g id="node38" class="node">
<title>conv_manager</title>
<polygon fill="none" stroke="black" points="705.5,-344 554.5,-344 554.5,-308 705.5,-308 705.5,-344"/>
<text text-anchor="middle" x="630" y="-322.3" font-family="Helvetica,Arial,sans-serif" font-size="14.00">ConvergenceManager</text>
</g>
<!-- newton&#45;&gt;conv_manager -->
<g id="edge44" class="edge">
<title>newton&#45;&gt;conv_manager</title>
<path fill="none" stroke="black" d="M592.86,-380.81C598.76,-372.27 606,-361.77 612.52,-352.32"/>
<polygon fill="black" stroke="black" points="615.45,-354.25 618.25,-344.03 609.69,-350.27 615.45,-354.25"/>
</g>
<!-- incr_solv&#45;&gt;contact -->
<g id="edge47" class="edge">
<title>incr_solv&#45;&gt;contact</title>
<path fill="none" stroke="black" d="M1196.5,-380.99C1233.81,-368.67 1283.61,-352.23 1318.41,-340.73"/>
<polygon fill="black" stroke="black" points="1319.85,-343.94 1328.25,-337.49 1317.66,-337.3 1319.85,-343.94"/>
</g>
<!-- incr_solv&#45;&gt;linsolv -->
<g id="edge49" class="edge">
<title>incr_solv&#45;&gt;linsolv</title>
<path fill="none" stroke="black" d="M1203.37,-380.89C1213.85,-378.07 1224.72,-375.32 1235,-373 1308.06,-356.51 1327.47,-358.23 1401,-344 1408.74,-342.5 1416.89,-340.85 1424.91,-339.19"/>
<polygon fill="black" stroke="black" points="1425.88,-342.56 1434.95,-337.09 1424.44,-335.71 1425.88,-342.56"/>
</g>
<!-- incr_solv&#45;&gt;operators -->
<g id="edge48" class="edge">
<title>incr_solv&#45;&gt;operators</title>
<path fill="none" stroke="black" d="M1146.88,-380.8C1148.07,-360.16 1146.47,-326.07 1126,-308 1093.09,-278.94 790.7,-285.77 719.03,-280.12"/>
<polygon fill="black" stroke="black" points="719.33,-276.63 709,-279 718.55,-283.58 719.33,-276.63"/>
</g>
<!-- incr_solv&#45;&gt;event -->
<g id="edge51" class="edge">
<title>incr_solv&#45;&gt;event</title>
<path fill="none" stroke="black" d="M1170.72,-373.65C1181.02,-363.9 1192.64,-352.9 1202.01,-344.03"/>
<polygon fill="none" stroke="black" points="1168.01,-371.4 1163.16,-380.81 1172.82,-376.48 1168.01,-371.4"/>
</g>
<!-- incr_solv&#45;&gt;linesearch -->
<g id="edge46" class="edge">
<title>incr_solv&#45;&gt;linesearch</title>
<path fill="none" stroke="black" d="M1096.62,-380.99C1065.94,-370.21 1026.28,-356.27 994.94,-345.26"/>
<polygon fill="black" stroke="black" points="996.1,-341.95 985.51,-341.94 993.78,-348.56 996.1,-341.95"/>
</g>
<!-- incr_solv&#45;&gt;conv_manager -->
<g id="edge50" class="edge">
<title>incr_solv&#45;&gt;conv_manager</title>
<path fill="none" stroke="black" d="M1081.74,-390.37C1000.79,-380.46 856.28,-362.25 733,-344 727.31,-343.16 721.46,-342.26 715.56,-341.34"/>
<polygon fill="black" stroke="black" points="716.04,-337.88 705.61,-339.77 714.95,-344.79 716.04,-337.88"/>
</g>
<!-- mixin_incr -->
<g id="node39" class="node">
<title>mixin_incr</title>
<polygon fill="none" stroke="black" stroke-dasharray="5,2" points="1332.5,-417 1243.5,-417 1243.5,-381 1338.5,-381 1338.5,-411 1332.5,-417"/>
<polyline fill="none" stroke="black" stroke-dasharray="5,2" points="1332.5,-417 1332.5,-411 "/>
<polyline fill="none" stroke="black" stroke-dasharray="5,2" points="1338.5,-411 1332.5,-411 "/>
<text text-anchor="middle" x="1291" y="-395.3" font-family="Helvetica,Arial,sans-serif" font-size="14.00">ContextMixin</text>
</g>
<!-- incr_solv&#45;&gt;mixin_incr -->
<g id="edge45" class="edge">
<title>incr_solv&#45;&gt;mixin_incr</title>
<path fill="none" stroke="black" stroke-dasharray="5,2" d="M1218.23,-399C1226.61,-399 1234.98,-399 1243.35,-399"/>
<polygon fill="none" stroke="black" points="1218.02,-395.5 1208.02,-399 1218.02,-402.5 1218.02,-395.5"/>
</g>
<!-- linesearch&#45;&gt;operators -->
<g id="edge53" class="edge">
<title>linesearch&#45;&gt;operators</title>
<path fill="none" stroke="black" d="M921.57,-307.81C911.4,-300.65 898.71,-293.07 886,-289 851.41,-277.93 763.18,-284.37 719.18,-280.28"/>
<polygon fill="black" stroke="black" points="719.36,-276.78 709,-279 718.48,-283.72 719.36,-276.78"/>
</g>
<!-- mixin_line -->
<g id="node40" class="node">
<title>mixin_line</title>
<polygon fill="none" stroke="black" stroke-dasharray="5,2" points="1110.5,-344 1021.5,-344 1021.5,-308 1116.5,-308 1116.5,-338 1110.5,-344"/>
<polyline fill="none" stroke="black" stroke-dasharray="5,2" points="1110.5,-344 1110.5,-338 "/>
<polyline fill="none" stroke="black" stroke-dasharray="5,2" points="1116.5,-338 1110.5,-338 "/>
<text text-anchor="middle" x="1069" y="-322.3" font-family="Helvetica,Arial,sans-serif" font-size="14.00">ContextMixin</text>
</g>
<!-- linesearch&#45;&gt;mixin_line -->
<g id="edge52" class="edge">
<title>linesearch&#45;&gt;mixin_line</title>
<path fill="none" stroke="black" stroke-dasharray="5,2" d="M996.06,-326C1004.45,-326 1012.84,-326 1021.24,-326"/>
<polygon fill="none" stroke="black" points="995.82,-322.5 985.82,-326 995.82,-329.5 995.82,-322.5"/>
</g>
<!-- mixin_conv -->
<g id="node41" class="node">
<title>mixin_conv</title>
<polygon fill="none" stroke="black" stroke-dasharray="5,2" points="830.5,-344 741.5,-344 741.5,-308 836.5,-308 836.5,-338 830.5,-344"/>
<polyline fill="none" stroke="black" stroke-dasharray="5,2" points="830.5,-344 830.5,-338 "/>
<polyline fill="none" stroke="black" stroke-dasharray="5,2" points="836.5,-338 830.5,-338 "/>
<text text-anchor="middle" x="789" y="-322.3" font-family="Helvetica,Arial,sans-serif" font-size="14.00">ContextMixin</text>
</g>
<!-- conv_manager&#45;&gt;mixin_conv -->
<g id="edge54" class="edge">
<title>conv_manager&#45;&gt;mixin_conv</title>
<path fill="none" stroke="black" stroke-dasharray="5,2" d="M716.02,-326C724.41,-326 732.81,-326 741.21,-326"/>
<polygon fill="none" stroke="black" points="715.77,-322.5 705.77,-326 715.77,-329.5 715.77,-322.5"/>
</g>
</g>
</svg>
